<svg width="56" height="56" viewBox="0 0 56 56" fill="none" xmlns="http://www.w3.org/2000/svg">
<circle cx="28" cy="28" r="28" fill="#E0E0E0"/>
<path fill-rule="evenodd" clip-rule="evenodd" d="M22.6622 17.6719C22.6622 14.5446 25.1974 12.0094 28.3247 12.0094C31.452 12.0094 33.9871 14.5446 33.9871 17.6719C33.9871 20.7992 31.452 23.3343 28.3247 23.3343C25.1974 23.3343 22.6622 20.7992 22.6622 17.6719ZM28.3247 10.0094C24.0928 10.0094 20.6622 13.44 20.6622 17.6719C20.6622 21.9037 24.0928 25.3343 28.3247 25.3343C32.5565 25.3343 35.9871 21.9037 35.9871 17.6719C35.9871 13.44 32.5565 10.0094 28.3247 10.0094ZM21.6626 29.9968C19.6304 29.9968 17.6815 30.8041 16.2445 32.2411C14.8075 33.6781 14.0002 35.627 14.0002 37.6592V40.9905C14.0002 41.5428 14.4479 41.9905 15.0002 41.9905C15.5525 41.9905 16.0002 41.5428 16.0002 40.9905V37.6592C16.0002 36.1575 16.5968 34.7172 17.6587 33.6553C18.7206 32.5934 20.1609 31.9968 21.6626 31.9968H34.9876C36.4893 31.9968 37.9296 32.5934 38.9915 33.6553C40.0534 34.7172 40.65 36.1575 40.65 37.6592V40.9905C40.65 41.5428 41.0977 41.9905 41.65 41.9905C42.2023 41.9905 42.65 41.5428 42.65 40.9905V37.6592C42.65 35.627 41.8427 33.6781 40.4057 32.2411C38.9688 30.8041 37.0198 29.9968 34.9876 29.9968H21.6626Z" fill="#CCCCD0"/>
</svg>
