<svg width="375" height="213" viewBox="0 0 375 213" fill="none" xmlns="http://www.w3.org/2000/svg">
<path d="M-1.35838 20.3882C-31.4205 -10.1466 -3.5892 -51.5817 14.0842 -68.4824C-8.52395 -62.6461 -12.9695 -72.8744 150.114 -160.477C313.197 -248.08 430.607 -194.987 468.927 -157.49C499.889 -122.775 543.635 -33.4317 470.919 46.2308C380.024 145.809 274.555 161.747 174.378 171.071C74.2002 180.396 63.4099 155.446 69.7697 95.8008C76.1294 36.1555 36.2193 58.5567 -1.35838 20.3882Z" fill="url(#paint0_linear)"/>
<circle cx="29" cy="111" r="8" stroke="url(#paint1_linear)" stroke-width="6"/>
<circle cx="348" cy="170" r="15" fill="url(#paint2_linear)"/>
<path d="M304.001 197V211" stroke="url(#paint3_linear)" stroke-width="4" stroke-miterlimit="10" stroke-linecap="round" stroke-linejoin="round"/>
<path d="M311 203.999H297" stroke="url(#paint4_linear)" stroke-width="4" stroke-miterlimit="10" stroke-linecap="round" stroke-linejoin="round"/>
<g clip-path="url(#clip0)">
<path d="M170.904 138.388H260.285" stroke="#FC6360" stroke-miterlimit="10"/>
<path d="M168.703 138.388H165.294" stroke="#FC6360" stroke-miterlimit="10"/>
<path d="M265.594 138.388H262.141" stroke="#FC6360" stroke-miterlimit="10"/>
<path d="M237.929 138.561H191.448C187.736 138.561 184.715 135.533 184.715 131.813V39.773C184.715 36.0533 187.736 33.0256 191.448 33.0256H237.929C241.641 33.0256 244.662 36.0533 244.662 39.773V131.857C244.662 135.576 241.641 138.561 237.929 138.561Z" fill="#062F18"/>
<path d="M240.519 40.3352H188.858V131.337H240.519V40.3352Z" fill="#FFB1B1"/>
<path d="M219.76 37.3508H209.574C209.315 37.3508 209.1 37.1346 209.1 36.8751C209.1 36.6156 209.315 36.3993 209.574 36.3993H219.76C220.019 36.3993 220.234 36.6156 220.234 36.8751C220.278 37.1346 220.062 37.3508 219.76 37.3508Z" fill="#2E87BF"/>
<path d="M214.71 137.22C215.854 137.22 216.782 136.29 216.782 135.144C216.782 133.997 215.854 133.068 214.71 133.068C213.566 133.068 212.638 133.997 212.638 135.144C212.638 136.29 213.566 137.22 214.71 137.22Z" fill="#226CAF"/>
<path d="M234.649 145.481H194.728C193.735 145.481 192.958 144.702 192.958 143.708V120.006C192.958 119.011 193.735 118.232 194.728 118.232H234.649C235.642 118.232 236.419 119.011 236.419 120.006V143.708C236.419 144.702 235.642 145.481 234.649 145.481Z" fill="#FFEEEE"/>
<path d="M201.202 121.779L201.676 123.033L203.057 123.12C203.316 123.12 203.446 123.466 203.23 123.639L202.151 124.504L202.496 125.801C202.583 126.061 202.281 126.277 202.065 126.147L200.943 125.412L199.82 126.147C199.605 126.277 199.303 126.104 199.389 125.801L199.734 124.504L198.655 123.639C198.439 123.466 198.569 123.12 198.828 123.12L200.166 123.033L200.64 121.779C200.77 121.519 201.115 121.519 201.202 121.779Z" fill="white"/>
<path d="M208.107 121.779L208.582 123.033L209.963 123.12C210.222 123.12 210.351 123.466 210.135 123.639L209.056 124.504L209.402 125.801C209.488 126.061 209.186 126.277 208.97 126.147L207.848 125.412L206.726 126.147C206.51 126.277 206.208 126.104 206.294 125.801L206.64 124.504L205.561 123.639C205.345 123.466 205.474 123.12 205.733 123.12L207.114 123.033L207.589 121.779C207.632 121.519 207.977 121.519 208.107 121.779Z" fill="white"/>
<path d="M214.969 121.779L215.444 123.033L216.825 123.12C217.084 123.12 217.213 123.466 216.997 123.639L215.918 124.504L216.264 125.801C216.35 126.061 216.048 126.277 215.832 126.147L214.71 125.412L213.588 126.147C213.372 126.277 213.07 126.104 213.156 125.801L213.502 124.504L212.423 123.639C212.207 123.466 212.336 123.12 212.595 123.12L213.933 123.033L214.408 121.779C214.494 121.519 214.883 121.519 214.969 121.779Z" fill="white"/>
<path d="M221.831 121.779L222.306 123.033L223.687 123.12C223.946 123.12 224.075 123.466 223.86 123.639L222.781 124.504L223.126 125.801C223.212 126.061 222.91 126.277 222.694 126.147L221.572 125.412L220.45 126.147C220.234 126.277 219.932 126.104 220.019 125.801L220.364 124.504L219.285 123.639C219.069 123.466 219.199 123.12 219.457 123.12L220.839 123.033L221.313 121.779C221.4 121.519 221.745 121.519 221.831 121.779Z" fill="white"/>
<path d="M228.736 121.779L229.211 123.033L230.592 123.12C230.851 123.12 230.981 123.466 230.765 123.639L229.686 124.504L230.031 125.801C230.118 126.061 229.815 126.277 229.6 126.147L228.477 125.412L227.355 126.147C227.14 126.277 226.837 126.104 226.924 125.801L227.269 124.504L226.19 123.639C225.974 123.466 226.104 123.12 226.363 123.12L227.744 123.033L228.219 121.779C228.262 121.519 228.65 121.519 228.736 121.779Z" fill="white"/>
<path d="M231.714 132.462H213.502C212.552 132.462 211.775 131.684 211.775 130.732C211.775 129.78 212.552 129.002 213.502 129.002H231.714C232.664 129.002 233.441 129.78 233.441 130.732C233.441 131.684 232.664 132.462 231.714 132.462Z" fill="#FFCBCA"/>
<path d="M231.714 137.133H213.502C212.552 137.133 211.775 136.355 211.775 135.403C211.775 134.452 212.552 133.673 213.502 133.673H231.714C232.664 133.673 233.441 134.452 233.441 135.403C233.441 136.355 232.664 137.133 231.714 137.133Z" fill="#FFCBCA"/>
<path d="M221.356 141.805H213.502C212.552 141.805 211.775 141.026 211.775 140.075C211.775 139.123 212.552 138.344 213.502 138.344H221.356C222.306 138.344 223.083 139.123 223.083 140.075C223.083 141.026 222.306 141.805 221.356 141.805Z" fill="#FFCBCA"/>
<path d="M208.15 141.805H197.835C197.145 141.805 196.584 141.242 196.584 140.55V130.213C196.584 129.521 197.145 128.959 197.835 128.959H208.15C208.841 128.959 209.402 129.521 209.402 130.213V140.55C209.402 141.242 208.841 141.805 208.15 141.805Z" fill="#FFDEDE"/>
<path d="M234.649 115.161H194.728C193.735 115.161 192.958 114.383 192.958 113.388V89.6858C192.958 88.691 193.735 87.9125 194.728 87.9125H234.649C235.642 87.9125 236.419 88.691 236.419 89.6858V113.388C236.419 114.383 235.642 115.161 234.649 115.161Z" fill="#FFEEEE"/>
<path d="M201.202 91.4592L201.676 92.7135L203.057 92.8C203.316 92.8 203.446 93.146 203.23 93.319L202.151 94.184L202.496 95.4816C202.583 95.7411 202.281 95.9574 202.065 95.8276L200.943 95.0923L199.82 95.8276C199.605 95.9574 199.303 95.7844 199.389 95.4816L199.734 94.184L198.655 93.319C198.439 93.146 198.569 92.8 198.828 92.8L200.166 92.7135L200.64 91.4592C200.77 91.1996 201.115 91.1996 201.202 91.4592Z" fill="white"/>
<path d="M208.107 91.4592L208.582 92.7135L209.963 92.8C210.222 92.8 210.351 93.146 210.135 93.319L209.056 94.184L209.402 95.4816C209.488 95.7411 209.186 95.9574 208.97 95.8276L207.848 95.0923L206.726 95.8276C206.51 95.9574 206.208 95.7844 206.294 95.4816L206.64 94.184L205.561 93.319C205.345 93.146 205.474 92.8 205.733 92.8L207.114 92.7135L207.589 91.4592C207.632 91.1996 207.977 91.1996 208.107 91.4592Z" fill="white"/>
<path d="M214.969 91.4592L215.444 92.7135L216.825 92.8C217.084 92.8 217.213 93.146 216.997 93.319L215.918 94.184L216.264 95.4816C216.35 95.7411 216.048 95.9574 215.832 95.8276L214.71 95.0923L213.588 95.8276C213.372 95.9574 213.07 95.7844 213.156 95.4816L213.502 94.184L212.423 93.319C212.207 93.146 212.336 92.8 212.595 92.8L213.933 92.7135L214.408 91.4592C214.494 91.1996 214.883 91.1996 214.969 91.4592Z" fill="white"/>
<path d="M221.831 91.4592L222.306 92.7135L223.687 92.8C223.946 92.8 224.075 93.146 223.86 93.319L222.781 94.184L223.126 95.4816C223.212 95.7411 222.91 95.9574 222.694 95.8276L221.572 95.0923L220.45 95.8276C220.234 95.9574 219.932 95.7844 220.019 95.4816L220.364 94.184L219.285 93.319C219.069 93.146 219.199 92.8 219.457 92.8L220.839 92.7135L221.313 91.4592C221.4 91.1996 221.745 91.1996 221.831 91.4592Z" fill="white"/>
<path d="M228.736 91.4592L229.211 92.7135L230.592 92.8C230.851 92.8 230.981 93.146 230.765 93.319L229.686 94.184L230.031 95.4816C230.118 95.7411 229.815 95.9574 229.6 95.8276L228.477 95.0923L227.355 95.8276C227.14 95.9574 226.837 95.7844 226.924 95.4816L227.269 94.184L226.19 93.319C225.974 93.146 226.104 92.8 226.363 92.8L227.744 92.7135L228.219 91.4592C228.262 91.1996 228.65 91.1996 228.736 91.4592Z" fill="white"/>
<path d="M231.714 102.142H213.502C212.552 102.142 211.775 101.364 211.775 100.412C211.775 99.4608 212.552 98.6823 213.502 98.6823H231.714C232.664 98.6823 233.441 99.4608 233.441 100.412C233.441 101.364 232.664 102.142 231.714 102.142Z" fill="#FFCBCA"/>
<path d="M231.714 106.814H213.502C212.552 106.814 211.775 106.035 211.775 105.084C211.775 104.132 212.552 103.354 213.502 103.354H231.714C232.664 103.354 233.441 104.132 233.441 105.084C233.441 106.035 232.664 106.814 231.714 106.814Z" fill="#FFCBCA"/>
<path d="M221.356 111.485H213.502C212.552 111.485 211.775 110.706 211.775 109.755C211.775 108.803 212.552 108.025 213.502 108.025H221.356C222.306 108.025 223.083 108.803 223.083 109.755C223.083 110.706 222.306 111.485 221.356 111.485Z" fill="#FFCBCA"/>
<path d="M208.15 111.485H197.835C197.145 111.485 196.584 110.923 196.584 110.231V99.8933C196.584 99.2013 197.145 98.639 197.835 98.639H208.15C208.841 98.639 209.402 99.2013 209.402 99.8933V110.231C209.402 110.923 208.841 111.485 208.15 111.485Z" fill="#FFDEDE"/>
<path d="M207.33 108.976L206.251 100.888H199.475L198.439 108.976L201.806 109.711L202.885 106.511L203.921 109.711L207.33 108.976Z" fill="#FCC0C0"/>
<path d="M215.444 110.795H214.494C214.408 110.795 214.365 110.752 214.322 110.665C214.322 110.622 214.322 110.622 214.322 110.579V108.849C214.322 108.719 214.408 108.632 214.537 108.632H215.401C215.875 108.632 216.177 109.195 215.919 109.584C215.919 109.584 215.919 109.584 215.875 109.627C215.875 109.627 215.875 109.627 215.919 109.584C216.35 110.016 216.091 110.795 215.444 110.795ZM215.66 110.016C215.573 109.887 215.444 109.887 215.357 109.887H215.012C214.883 109.887 214.796 109.8 214.796 109.67C214.796 109.584 214.883 109.497 214.969 109.454H215.271H215.314C215.573 109.454 215.573 109.065 215.314 109.022H214.624V110.362H215.401C215.66 110.406 215.789 110.189 215.66 110.016ZM215.314 109.887C215.357 109.887 215.357 109.887 215.314 109.887C215.357 109.887 215.357 109.887 215.314 109.887ZM215.401 109.887C215.53 109.887 215.66 109.843 215.746 109.757C215.66 109.843 215.53 109.887 215.401 109.887ZM215.401 109.497C215.444 109.497 215.444 109.497 215.444 109.497C215.444 109.497 215.444 109.497 215.401 109.497ZM215.789 109.67C215.789 109.714 215.789 109.714 215.789 109.67C215.789 109.714 215.789 109.714 215.789 109.67Z" fill="#FF8F8F"/>
<path d="M218.249 108.847V109.971C218.249 110.447 217.817 110.793 217.343 110.793C216.868 110.793 216.436 110.404 216.436 109.971V108.847C216.436 108.717 216.523 108.63 216.652 108.63C216.782 108.63 216.868 108.717 216.868 108.847V109.971C216.868 110.231 217.127 110.404 217.386 110.404C217.645 110.404 217.904 110.187 217.904 109.971V108.847C217.904 108.717 217.99 108.63 218.12 108.63C218.163 108.674 218.249 108.76 218.249 108.847Z" fill="#FF8F8F"/>
<path d="M220.493 108.976L219.716 110.014V110.533C219.716 110.62 219.63 110.706 219.544 110.75C219.457 110.75 219.371 110.663 219.371 110.533V109.928V109.971L218.594 108.933C218.551 108.89 218.551 108.846 218.551 108.803C218.551 108.673 218.637 108.587 218.767 108.587C218.853 108.587 218.896 108.63 218.94 108.673L219.587 109.538L220.234 108.673C220.277 108.63 220.321 108.587 220.407 108.587C220.536 108.587 220.623 108.673 220.623 108.803C220.536 108.933 220.536 108.976 220.493 108.976ZM219.371 109.841L219.328 109.884C219.371 109.884 219.371 109.884 219.371 109.841C219.371 109.884 219.371 109.884 219.328 109.884C219.371 109.884 219.371 109.884 219.371 109.841C219.371 109.884 219.371 109.884 219.371 109.841C219.371 109.884 219.371 109.884 219.371 109.841C219.371 109.884 219.371 109.884 219.371 109.841C219.371 109.884 219.371 109.884 219.371 109.841C219.371 109.884 219.371 109.884 219.371 109.841C219.371 109.884 219.371 109.884 219.371 109.841C219.371 109.884 219.371 109.884 219.371 109.841C219.371 109.884 219.371 109.884 219.371 109.841C219.371 109.884 219.371 109.884 219.371 109.841C219.371 109.884 219.371 109.884 219.371 109.841C219.371 109.884 219.371 109.884 219.371 109.841C219.371 109.884 219.371 109.884 219.371 109.841C219.371 109.884 219.371 109.841 219.371 109.841ZM219.716 109.928C219.76 109.928 219.76 109.928 219.716 109.928C219.76 109.928 219.76 109.928 219.716 109.928C219.76 109.928 219.76 109.928 219.716 109.928Z" fill="#FF8F8F"/>
<path d="M234.649 84.8415H194.728C193.735 84.8415 192.958 84.063 192.958 83.0682V59.3661C192.958 58.3713 193.735 57.5928 194.728 57.5928H234.649C235.642 57.5928 236.419 58.3713 236.419 59.3661V83.0682C236.419 84.063 235.642 84.8415 234.649 84.8415Z" fill="#FFEEEE"/>
<path d="M201.202 61.1395L201.676 62.3938L203.057 62.4803C203.316 62.4803 203.446 62.8263 203.23 62.9993L202.151 63.8644L202.496 65.1619C202.583 65.4214 202.281 65.6377 202.065 65.5079L200.943 64.7727L199.82 65.5079C199.605 65.6377 199.303 65.4647 199.389 65.1619L199.734 63.8644L198.655 62.9993C198.439 62.8263 198.569 62.4803 198.828 62.4803L200.166 62.3938L200.64 61.1395C200.77 60.9232 201.115 60.9232 201.202 61.1395Z" fill="white"/>
<path d="M208.107 61.1395L208.582 62.3938L209.963 62.4803C210.222 62.4803 210.351 62.8263 210.135 62.9993L209.056 63.8644L209.402 65.1619C209.488 65.4214 209.186 65.6377 208.97 65.5079L207.848 64.7727L206.726 65.5079C206.51 65.6377 206.208 65.4647 206.294 65.1619L206.64 63.8644L205.561 62.9993C205.345 62.8263 205.474 62.4803 205.733 62.4803L207.114 62.3938L207.589 61.1395C207.632 60.9232 207.977 60.9232 208.107 61.1395Z" fill="white"/>
<path d="M214.969 61.1395L215.444 62.3938L216.825 62.4803C217.084 62.4803 217.213 62.8263 216.997 62.9993L215.918 63.8644L216.264 65.1619C216.35 65.4214 216.048 65.6377 215.832 65.5079L214.71 64.7727L213.588 65.5079C213.372 65.6377 213.07 65.4647 213.156 65.1619L213.502 63.8644L212.423 62.9993C212.207 62.8263 212.336 62.4803 212.595 62.4803L213.933 62.3938L214.408 61.1395C214.494 60.9232 214.883 60.9232 214.969 61.1395Z" fill="white"/>
<path d="M221.831 61.1395L222.306 62.3938L223.687 62.4803C223.946 62.4803 224.075 62.8263 223.86 62.9993L222.781 63.8644L223.126 65.1619C223.212 65.4214 222.91 65.6377 222.694 65.5079L221.572 64.7727L220.45 65.5079C220.234 65.6377 219.932 65.4647 220.019 65.1619L220.364 63.8644L219.285 62.9993C219.069 62.8263 219.199 62.4803 219.457 62.4803L220.839 62.3938L221.313 61.1395C221.4 60.9232 221.745 60.9232 221.831 61.1395Z" fill="white"/>
<path d="M228.736 61.1395L229.211 62.3938L230.592 62.4803C230.851 62.4803 230.981 62.8263 230.765 62.9993L229.686 63.8644L230.031 65.1619C230.118 65.4214 229.815 65.6377 229.6 65.5079L228.477 64.7727L227.355 65.5079C227.14 65.6377 226.837 65.4647 226.924 65.1619L227.269 63.8644L226.19 62.9993C225.974 62.8263 226.104 62.4803 226.363 62.4803L227.744 62.3938L228.219 61.1395C228.262 60.9232 228.65 60.9232 228.736 61.1395Z" fill="white"/>
<path d="M231.714 71.8227H213.502C212.552 71.8227 211.775 71.0442 211.775 70.0926C211.775 69.1411 212.552 68.3625 213.502 68.3625H231.714C232.664 68.3625 233.441 69.1411 233.441 70.0926C233.441 71.0442 232.664 71.8227 231.714 71.8227Z" fill="#FFCBCA"/>
<path d="M231.714 76.494H213.502C212.552 76.494 211.775 75.7154 211.775 74.7639C211.775 73.8123 212.552 73.0338 213.502 73.0338H231.714C232.664 73.0338 233.441 73.8123 233.441 74.7639C233.441 75.7154 232.664 76.494 231.714 76.494Z" fill="#FFCBCA"/>
<path d="M221.356 81.2083H213.502C212.552 81.2083 211.775 80.4298 211.775 79.4782C211.775 78.5267 212.552 77.7482 213.502 77.7482H221.356C222.306 77.7482 223.083 78.5267 223.083 79.4782C223.083 80.3865 222.306 81.2083 221.356 81.2083Z" fill="#FFCBCA"/>
<path d="M215.444 80.4752H214.494C214.408 80.4752 214.365 80.432 214.322 80.3455C214.322 80.3022 214.322 80.3022 214.322 80.259V78.5289C214.322 78.3991 214.408 78.3126 214.537 78.3126H215.401C215.875 78.3126 216.177 78.8749 215.919 79.2642C215.919 79.2642 215.919 79.2642 215.875 79.3074C215.875 79.3074 215.875 79.3074 215.919 79.2642C216.35 79.6967 216.091 80.4752 215.444 80.4752ZM215.66 79.6967C215.573 79.5669 215.444 79.5669 215.357 79.5669H215.012C214.883 79.5669 214.796 79.4804 214.796 79.3507C214.796 79.2642 214.883 79.1777 214.969 79.1344H215.271H215.314C215.573 79.1344 215.573 78.7451 215.314 78.7019H214.624V80.0427H215.401C215.66 80.086 215.789 79.8697 215.66 79.6967ZM215.314 79.5669C215.357 79.5669 215.357 79.5669 215.314 79.5669C215.357 79.5669 215.357 79.5669 215.314 79.5669ZM215.401 79.5669C215.53 79.5669 215.66 79.5237 215.746 79.4372C215.66 79.5237 215.53 79.5669 215.401 79.5669ZM215.401 79.1777C215.444 79.1777 215.444 79.1777 215.444 79.1777C215.444 79.1777 215.444 79.1777 215.401 79.1777Z" fill="#FF8F8F"/>
<path d="M218.249 78.5267V79.6512C218.249 80.127 217.817 80.473 217.343 80.473C216.868 80.473 216.436 80.0838 216.436 79.6512V78.5267C216.436 78.3969 216.523 78.3104 216.652 78.3104C216.782 78.3104 216.868 78.3969 216.868 78.5267V79.6512C216.868 79.9108 217.127 80.0838 217.386 80.0838C217.645 80.0838 217.904 79.8675 217.904 79.6512V78.5267C217.904 78.3969 217.99 78.3104 218.12 78.3104C218.163 78.3537 218.249 78.4402 218.249 78.5267Z" fill="#FF8F8F"/>
<path d="M220.493 78.6565L219.717 79.6945V80.2135C219.717 80.3 219.63 80.3865 219.544 80.4298C219.458 80.4298 219.371 80.3433 219.371 80.2135V79.608V79.6513L218.594 78.6132C218.551 78.57 218.551 78.5267 218.551 78.4835C218.551 78.3537 218.638 78.2672 218.767 78.2672C218.853 78.2672 218.897 78.3105 218.94 78.3537L219.587 79.2188L220.234 78.3537C220.278 78.3105 220.321 78.2672 220.407 78.2672C220.537 78.2672 220.623 78.3537 220.623 78.4835C220.537 78.6132 220.537 78.6565 220.493 78.6565ZM219.371 79.5648L219.328 79.608C219.371 79.608 219.371 79.608 219.371 79.5648C219.371 79.608 219.371 79.608 219.328 79.608C219.371 79.608 219.371 79.608 219.371 79.5648ZM219.371 79.5215C219.371 79.5215 219.371 79.5648 219.371 79.5215C219.371 79.5648 219.371 79.5215 219.371 79.5215ZM219.717 79.5215C219.717 79.5215 219.717 79.5648 219.717 79.5215C219.717 79.5648 219.717 79.5215 219.717 79.5215ZM219.717 79.5648C219.717 79.608 219.717 79.608 219.717 79.5648C219.717 79.608 219.717 79.608 219.717 79.5648ZM219.717 79.608C219.76 79.608 219.76 79.608 219.717 79.608C219.76 79.608 219.76 79.608 219.717 79.608C219.76 79.608 219.76 79.608 219.717 79.608ZM219.76 79.608C219.76 79.608 219.76 79.6513 219.76 79.608C219.76 79.6513 219.76 79.6513 219.76 79.608Z" fill="#FF8F8F"/>
<path d="M208.15 81.2084H197.835C197.145 81.2084 196.584 80.6461 196.584 79.9541V69.6169C196.584 68.9248 197.145 68.3625 197.835 68.3625H208.15C208.841 68.3625 209.402 68.9248 209.402 69.6169V79.9541C209.402 80.6029 208.841 81.2084 208.15 81.2084Z" fill="#FFDEDE"/>
<path d="M205.172 69.8763C205 69.7898 204.784 69.7466 204.568 69.7466H204.18C204.18 69.7466 204.18 69.7466 204.18 69.7898C204.18 70.4386 203.662 70.9576 203.014 70.9576C202.367 70.9576 201.849 70.4386 201.849 69.7898C201.849 69.7898 201.849 69.7898 201.849 69.7466H201.461C201.245 69.7466 201.029 69.7898 200.856 69.8763L197.706 71.3902L198.698 73.7258L199.993 73.25V79.4351H206.035V73.25L207.33 73.7258L208.323 71.3902L205.172 69.8763Z" fill="#FCC0C0"/>
<path d="M245.18 37.7855C243.583 33.5901 241.08 33.071 237.627 33.071H191.75C188.297 33.071 185.794 33.5901 184.197 37.7855L178.802 51.7559H250.575L245.18 37.7855Z" fill="#219653"/>
<path d="M193.865 33.0256L188.772 51.7538H198.957L202.324 33.0256H193.865Z" fill="#6FCF97"/>
<path d="M235.512 33.0256H227.053L230.42 51.7538H240.605L235.512 33.0256Z" fill="#6FCF97"/>
<path d="M218.681 33.0256H210.696L209.099 51.7538H220.277L218.681 33.0256Z" fill="#6FCF97"/>
<path d="M188.772 51.7538C188.772 54.3489 191.059 56.4682 193.865 56.4682C196.67 56.4682 198.957 54.3489 198.957 51.7538H188.772Z" fill="#219653"/>
<path d="M209.099 51.7538C209.099 54.3489 211.603 56.4682 214.667 56.4682C217.731 56.4682 220.234 54.3489 220.234 51.7538H209.099Z" fill="#219653"/>
<path d="M240.605 51.7538C240.605 54.3489 238.317 56.4682 235.512 56.4682C232.707 56.4682 230.42 54.3489 230.42 51.7538H240.605Z" fill="#219653"/>
<path d="M198.957 51.7538C198.957 54.3489 201.245 56.4682 204.007 56.4682C206.812 56.4682 209.056 54.3489 209.056 51.7538H198.957Z" fill="#27AE60"/>
<path d="M178.802 51.7538C178.802 54.3489 181.047 56.4682 183.766 56.4682C186.528 56.4682 188.729 54.3489 188.729 51.7538H178.802Z" fill="#27AE60"/>
<path d="M230.42 51.7538C230.42 54.3489 228.132 56.4682 225.37 56.4682C222.565 56.4682 220.321 54.3489 220.321 51.7538H230.42Z" fill="#27AE60"/>
<path d="M250.574 51.7538C250.574 54.3489 248.33 56.4682 245.611 56.4682C242.892 56.4682 240.648 54.3489 240.648 51.7538H250.574Z" fill="#27AE60"/>
<path d="M269.392 23.3805C265.55 21.3909 260.846 22.9048 258.861 26.7542C257.696 29.0033 257.739 31.5119 258.731 33.6313L256.962 36.1399C256.832 36.3129 257.005 36.5292 257.178 36.4859L260.156 35.7939C260.76 36.3994 261.45 36.9617 262.227 37.3509C266.068 39.3405 270.773 37.8267 272.758 33.9773C274.743 30.1278 273.233 25.3701 269.392 23.3805Z" stroke="white" stroke-miterlimit="10"/>
<path d="M269.866 28.9601C269.694 28.0085 268.917 27.1867 267.967 27.0137C266.888 26.8407 265.896 27.403 265.464 28.3113C265.033 27.403 264.04 26.8407 262.961 27.0137C262.011 27.1867 261.235 27.9653 261.062 28.9601C260.932 29.7386 261.191 30.4739 261.709 30.9929L265.033 34.3233C265.248 34.5396 265.637 34.5396 265.896 34.3233L269.219 30.9929C269.694 30.4739 269.996 29.7386 269.866 28.9601Z" fill="#F2F2F2"/>
<path d="M277.678 51.9269C273.794 50.8456 269.564 52.6189 267.622 56.1656C266.111 58.9337 266.198 62.0046 267.492 64.5132L265.378 68.2762C265.291 68.4492 265.464 68.6222 265.637 68.5789L269.564 67.1949C270.772 68.2762 272.326 69.0547 274.182 69.3142C277.98 69.8332 281.778 67.8004 283.418 64.297C285.748 59.323 283.073 53.4407 277.678 51.9269Z" stroke="white" stroke-miterlimit="10"/>
<path d="M279.404 60.5773H271.377V65.5945H279.404V60.5773Z" fill="#F2F2F2"/>
<path opacity="0.45" d="M276.642 60.5773H274.139V65.5945H276.642V60.5773Z" fill="#F58A86"/>
<path opacity="0.25" d="M279.404 60.5773H271.377V61.1396H279.404V60.5773Z" fill="#FC9F9F"/>
<path d="M275.39 58.2849C275.39 58.2849 273.276 58.2417 272.715 57.9822C272.153 57.7227 271.938 57.2469 272.153 56.8144C272.369 55.7763 273.88 55.0843 274.311 55.5601C275.477 56.8144 275.39 58.2849 275.39 58.2849Z" fill="#F58A86"/>
<path d="M275.39 58.285C275.39 58.285 273.276 58.2417 272.715 57.9822C272.153 57.7227 271.938 57.2469 272.153 56.8144C272.326 56.3819 272.801 56.2089 273.405 56.4684C273.966 56.7279 275.39 58.285 275.39 58.285Z" fill="#F58A86"/>
<path d="M275.39 58.2849C275.39 58.2849 277.505 58.2417 278.066 57.9822C278.627 57.7227 278.843 57.2469 278.627 56.8144C278.411 55.7763 276.901 55.0843 276.469 55.5601C275.347 56.8144 275.39 58.2849 275.39 58.2849Z" fill="#F58A86"/>
<path d="M275.39 58.285C275.39 58.285 277.505 58.2417 278.066 57.9822C278.627 57.7227 278.843 57.2469 278.627 56.8144C278.455 56.3819 277.98 56.2089 277.376 56.4684C276.858 56.7279 275.39 58.285 275.39 58.285Z" fill="#F58A86"/>
<path d="M279.922 58.1119H270.859V60.6638H279.922V58.1119Z" fill="#F2F2F2"/>
<path d="M275.39 58.2849C275.653 58.2849 275.865 58.0719 275.865 57.8091C275.865 57.5464 275.653 57.3334 275.39 57.3334C275.128 57.3334 274.916 57.5464 274.916 57.8091C274.916 58.0719 275.128 58.2849 275.39 58.2849Z" fill="#FC6360"/>
<path d="M174.573 43.882L173.062 41.0707C173.494 40.3354 173.839 39.5568 174.012 38.6918C174.918 34.5396 172.286 30.4307 168.142 29.5224C163.999 28.6141 159.899 31.2524 158.993 35.4046C158.087 39.5568 160.719 43.6658 164.862 44.5741C167.279 45.0931 169.653 44.4443 171.422 42.9737L174.4 44.0983C174.487 44.1415 174.616 44.0118 174.573 43.882Z" stroke="white" stroke-miterlimit="10"/>
<path d="M162.359 35.2749C162.359 34.5828 162.489 34.1071 162.791 33.7611C163.093 33.415 163.481 33.2853 163.999 33.2853C164.517 33.2853 164.949 33.4583 165.251 33.7611C165.553 34.1071 165.682 34.5828 165.682 35.2749C165.682 35.9669 165.553 36.4427 165.251 36.7887C164.949 37.1347 164.56 37.2645 164.042 37.2645C163.525 37.2645 163.093 37.0915 162.791 36.7887C162.532 36.4859 162.359 35.9669 162.359 35.2749ZM163.481 35.2749C163.481 35.7506 163.525 36.0967 163.654 36.2697C163.74 36.3994 163.87 36.4427 163.999 36.4427C164.172 36.4427 164.258 36.3994 164.345 36.2697C164.474 36.0967 164.517 35.7506 164.517 35.2749C164.517 34.7991 164.474 34.4531 164.345 34.2801C164.258 34.1503 164.129 34.1071 163.999 34.1071C163.827 34.1071 163.74 34.1503 163.654 34.2801C163.568 34.4531 163.481 34.7991 163.481 35.2749ZM164.862 41.2869C164.474 41.2869 164.258 40.9409 164.431 40.5949L167.97 33.5448C168.056 33.3718 168.229 33.2853 168.401 33.2853C168.747 33.2853 168.962 33.6313 168.833 33.9773L165.294 41.0274C165.165 41.2004 165.035 41.2869 164.862 41.2869ZM167.452 39.2973C167.452 38.6053 167.581 38.1295 167.883 37.7835C168.186 37.4375 168.574 37.3077 169.092 37.3077C169.61 37.3077 169.998 37.4807 170.3 37.7835C170.602 38.1295 170.732 38.6053 170.732 39.2973C170.732 39.9893 170.602 40.4651 170.3 40.8111C169.998 41.1572 169.61 41.2869 169.092 41.2869C168.574 41.2869 168.142 41.1139 167.84 40.8111C167.625 40.4651 167.452 39.9893 167.452 39.2973ZM168.617 39.2973C168.617 39.7731 168.66 40.1191 168.79 40.2921C168.876 40.4219 169.006 40.4651 169.135 40.4651C169.308 40.4651 169.394 40.4219 169.48 40.2921C169.61 40.1191 169.653 39.7731 169.653 39.2973C169.653 38.8215 169.61 38.4755 169.48 38.3025C169.394 38.1728 169.265 38.1295 169.135 38.1295C168.962 38.1295 168.876 38.1728 168.79 38.3025C168.66 38.4755 168.617 38.8215 168.617 39.2973Z" fill="#F2F2F2"/>
<path d="M176.731 142.064C176.731 142.064 180.874 143.275 180.874 144.183C180.874 144.702 174.789 144.573 174.443 144.227C173.839 143.664 174.918 141.934 174.918 141.934L176.731 142.064Z" fill="#07361B"/>
<path d="M176.731 139.512V142.151C176.731 142.151 176.601 142.583 175.954 142.626C175.35 142.67 174.918 142.151 174.918 142.151L174.832 138.863" fill="#FC6360"/>
<path d="M173.623 93.146C173.451 93.4056 169.739 93.7083 171.379 109.106C171.595 111.052 172.976 116.199 174.357 121.346C172.286 127.877 173.623 133.933 174.443 139.988C175.522 140.118 177.335 140.075 177.378 139.988C178.716 135.317 182.169 120.654 181.349 103.094C181.003 96.3034 179.666 91.0699 179.666 91.0699" fill="#219653"/>
<path d="M172.329 105.04L171.207 106.9C171.25 107.592 171.336 108.284 171.422 109.063C171.638 111.009 173.019 116.156 174.4 121.303C172.329 127.834 173.667 133.89 174.487 139.945C174.789 139.988 175.134 139.988 175.522 139.988C175.436 138.258 175.177 136.485 175.048 134.755C174.659 130.256 174.789 125.628 175.824 121.173C175.781 120.654 173.408 108.717 172.329 105.04Z" fill="#12562F"/>
<path d="M174.4 139.556H177.551L177.421 140.55H174.4V139.556Z" fill="#4CB5D5"/>
<path d="M155.627 139.426C155.627 139.426 158.259 142.843 157.698 143.578C157.396 144.01 152.562 140.291 152.476 139.815C152.346 138.993 154.202 138.215 154.202 138.215L155.627 139.426Z" fill="#07361B"/>
<path d="M157.137 137.393L155.583 139.512C155.583 139.512 155.195 139.772 154.677 139.426C154.159 139.08 154.116 138.431 154.116 138.431L156.015 135.706" fill="#FC6360"/>
<path d="M163.783 94.3138C163.654 94.4868 160.029 99.5041 162.489 105.949C163.136 108.933 163.007 114.34 163.524 118.621C156.015 125.715 154.979 137.523 154.979 137.523C154.979 137.523 155.885 138.647 156.749 138.647C170.861 123.898 172.631 114.902 172.976 103.527C173.192 96.6927 173.149 91.5024 173.149 91.5024" fill="#219653"/>
<path d="M155.022 137.523L155.367 137.955C155.367 137.955 158.993 127.531 160.849 124.85C163.05 121.649 165.639 120.654 165.941 118.405C166.286 116.199 166.114 109.322 165.121 105.3C166.761 105.3 168.401 105.559 172.329 104.565C175.436 103.786 179.666 100.975 179.234 100.499C178.889 100.153 168.919 96.0007 164.69 94.0111L163.826 94.2706C163.697 94.4436 160.072 99.4609 162.532 105.905C163.179 108.89 163.05 114.296 163.568 118.578C156.058 125.758 155.022 137.523 155.022 137.523Z" fill="#12562F"/>
<path d="M155.022 136.701L157.051 138.561L156.274 139.253L154.461 137.609L155.022 136.701Z" fill="#4CB5D5"/>
<path d="M169.696 64.1672C169.523 64.5997 169.394 65.0755 169.308 65.5513C169.221 66.0703 169.178 66.5893 169.351 67.0651C169.653 67.9301 170.689 68.4924 171.638 68.2761C172.545 68.1031 173.278 67.2813 173.451 66.3298C173.537 65.8108 173.494 65.2485 173.408 64.6862C173.321 64.1672 173.278 63.6482 173.192 63.1292" fill="#AE263E"/>
<path d="M175.22 60.7935C175.566 60.8367 175.868 61.053 176.127 61.3125C176.342 61.572 176.515 61.8748 176.601 62.2208C176.774 62.7398 176.817 63.3021 176.731 63.8211C176.688 64.0374 176.645 64.2536 176.515 64.4266C176.342 64.6862 176.04 64.8159 175.781 64.8592C175.479 64.9024 175.177 64.8592 174.918 64.7727" fill="#07361B"/>
<path d="M176.127 64.2537C176.17 64.7727 176.17 65.335 175.997 65.8108C175.825 66.3298 175.522 66.7623 175.048 66.9786C173.451 67.7139 171.12 66.5461 170.602 64.9025C170.214 63.6914 169.955 62.2209 170.602 61.0531C171.207 59.8852 172.847 59.1067 174.141 59.5392C176.127 60.2313 175.997 62.5669 176.127 64.2537Z" fill="#F7D7CA"/>
<path d="M173.753 66.3731C173.753 66.3731 174.098 68.8384 174.228 68.9682C174.314 69.0979 175.35 69.271 175.35 69.271C175.35 69.271 174.918 70.309 173.408 70.309C171.983 70.309 170.905 69.1844 170.905 69.1844C170.905 69.1844 172.199 69.0114 172.199 68.8384C172.199 68.6654 172.329 65.681 172.329 65.681" fill="#F7D7CA"/>
<path d="M176.99 59.0635C176.947 58.8039 176.86 58.5444 176.688 58.3282C176.645 58.2849 176.601 58.1984 176.558 58.1552C176.429 58.0687 176.256 58.0687 176.17 58.1119C175.609 58.4147 175.522 58.5444 174.141 58.5012C173.321 58.2417 171.811 58.1552 170.991 58.4579C170.473 58.6742 170.041 59.0202 169.739 59.496C169.567 59.7122 169.48 59.9717 169.437 60.2313C169.351 60.534 169.178 60.6638 169.049 60.9233C168.272 62.2641 168.962 63.4752 169.523 64.7295C169.653 65.4215 169.998 65.9405 170.387 66.1568C170.948 66.4595 171.293 65.7243 171.293 65.335C171.293 65.2052 171.25 65.0755 171.25 64.9025C171.163 64.5132 171.077 64.1672 170.991 63.7779C171.034 63.7779 171.034 63.7347 171.077 63.7347C171.422 63.4319 171.422 62.9129 171.336 62.4371C171.293 62.2208 171.207 61.8748 171.336 61.6586C171.466 61.4423 171.768 61.4856 171.983 61.4856C172.588 61.4856 173.192 61.6153 173.796 61.6586C174.444 61.6586 175.048 61.5721 175.652 61.3126C176.04 61.1395 176.429 60.9233 176.731 60.5773C176.947 60.1448 177.076 59.5825 176.99 59.0635Z" fill="#07361B"/>
<path d="M171.207 63.778C171.207 63.6914 171.12 63.5617 171.034 63.5617C170.775 63.4752 170.516 63.6482 170.387 63.8645C170.257 64.0807 170.3 64.3835 170.43 64.5997C170.559 64.9458 170.904 65.2918 171.293 65.2918C171.465 65.2918 171.552 65.162 171.638 64.989" fill="#F7D7CA"/>
<path d="M173.969 58.4579C173.969 58.4579 171.854 58.8039 170.387 61.4855C169.308 63.4751 169.437 64.7294 169.437 64.7294C169.437 64.7294 167.322 63.3021 168.703 60.1447C169.955 57.4198 172.976 57.8524 173.969 58.4579Z" fill="#CC3E56"/>
<path d="M173.019 63.4319C172.976 63.5617 172.976 63.6482 172.976 63.7779C172.976 64.0375 173.364 63.9942 173.321 63.7347C173.321 63.6482 173.278 63.5184 173.278 63.4319C173.235 63.3022 173.062 63.3022 173.019 63.4319Z" fill="#1E1240"/>
<path d="M175.307 63.2157C175.263 63.3455 175.263 63.432 175.263 63.5617C175.263 63.8212 175.652 63.778 175.609 63.5185C175.609 63.432 175.566 63.3022 175.566 63.2157C175.522 63.086 175.35 63.086 175.307 63.2157Z" fill="#1E1240"/>
<path d="M172.933 62.4371C172.501 62.3938 172.199 62.7831 172.199 62.7831C172.199 62.7831 172.76 62.5668 173.278 62.5668C173.278 62.3938 173.062 62.4371 172.933 62.4371Z" fill="#1E1240"/>
<path d="M175.35 62.1776C175.263 62.1776 175.091 62.2209 175.048 62.3939C175.436 62.3074 175.868 62.3939 175.868 62.3939C175.868 62.3939 175.738 62.1776 175.35 62.1776Z" fill="#1E1240"/>
<path d="M174.918 63.8644C174.961 64.0807 175.004 64.3402 175.091 64.5564C175.134 64.6862 175.177 64.7727 175.177 64.9024C175.177 65.0755 175.177 65.1187 175.048 65.1187C174.832 65.1187 174.659 64.989 174.443 65.0322C174.4 65.0322 174.4 65.0755 174.4 65.1187C174.573 65.2917 175.048 65.4215 175.263 65.2485C175.436 65.1187 175.393 64.9457 175.35 64.7727C175.263 64.4267 175.177 64.1239 175.004 63.8644C174.918 63.7779 174.875 63.8211 174.918 63.8644Z" fill="#CE4545"/>
<path d="M175.177 65.7676C175.048 65.7243 174.961 65.8973 174.659 65.8973C174.228 65.8973 174.228 65.7243 174.141 65.8108C174.055 65.8541 174.098 66.5028 174.616 66.5461C175.263 66.5893 175.22 65.7676 175.177 65.7676Z" fill="white"/>
<path d="M194.728 93.0164C194.857 93.4921 195.677 93.3191 195.936 93.3624C195.893 93.4056 196.023 93.6652 196.109 93.7084C196.238 93.8382 196.368 93.9247 196.584 93.9247C196.713 93.9679 196.886 93.8814 197.015 93.7949C197.145 93.7084 197.231 93.5786 197.274 93.4489C197.274 93.3624 197.49 93.4056 197.361 93.1461C197.404 93.1461 197.749 93.3191 197.835 93.4921C197.878 93.5787 198.31 94.0112 198.483 93.9247C198.655 93.8382 198.31 93.4056 198.094 93.1461C197.922 92.8866 197.576 92.6271 197.188 92.4541C197.361 92.4108 197.663 92.5838 197.835 92.3676C198.008 92.1513 197.102 91.9783 196.713 91.9351C196.109 91.8918 195.203 91.9783 195.203 91.9783L193.002 90.724C193.002 90.724 191.664 92.2378 191.793 92.2378C191.923 92.2811 194.728 93.0164 194.728 93.0164Z" fill="#F7D7CA"/>
<path d="M175.393 69.271C175.393 69.271 179.105 69.271 182.126 74.5477C184.327 78.3972 184.586 81.2951 185.535 82.4629C187.952 85.404 194.814 91.7188 194.814 91.7188L194.167 92.8866C194.167 92.8866 186.355 91.9783 179.838 85.7068C175.652 81.6411 173.882 76.6671 173.882 76.6671" fill="#FF8F8F"/>
<path d="M173.623 70.5684C173.623 70.5684 180.097 92.3241 181.306 97.6441C181.349 98.2929 181.823 99.9365 181.349 100.715C180.442 102.229 169.869 106.078 161.712 101.537C161.323 101.018 161.367 99.331 161.712 98.2929C161.712 96.4331 172.286 70.1791 173.623 70.5684Z" fill="#FF8F8F"/>
<path d="M173.02 70.2657C173.02 70.2657 174.919 70.0927 175.782 69.3574C177.034 69.6601 178.717 72.2985 179.278 74.1583C180.875 79.6513 181.004 90.9834 181.349 96.3466C181.392 97.2117 181.522 98.2065 181.09 98.985C180.4 100.283 178.415 100.845 177.12 101.234C174.056 102.099 170.732 102.272 167.582 101.753C166.028 101.494 164.302 101.364 162.921 100.542C161.151 99.504 161.626 97.9902 161.583 96.2169C161.583 94.357 161.626 93.838 161.756 91.9782C162.101 86.3987 162.834 80.8192 163.913 75.3694C163.957 75.1099 164 74.8504 164.086 74.5476C164.474 73.7691 168.488 69.3574 168.488 69.3574C168.488 69.3574 169.697 69.2276 170.948 69.1411C171.682 69.7034 172.416 70.0927 173.02 70.2657Z" fill="#DA6077"/>
<path d="M173.537 70.4387C172.501 70.4387 171.466 70.0926 170.646 69.2276L171.207 69.1411C171.854 69.7466 172.631 70.0061 173.537 70.0061C173.537 70.0061 173.537 70.0061 173.58 70.0061C174.357 70.0061 174.961 69.7899 175.307 69.2709L175.781 69.4006C175.436 70.0494 174.443 70.3954 173.537 70.4387C173.537 70.3954 173.537 70.4387 173.537 70.4387Z" fill="#FF8F8F"/>
<path d="M126.667 116.199L124.466 136.917L144.449 136.831L142.42 116.156L126.667 116.199Z" fill="#EF8273"/>
<path d="M134.263 111.485C135.126 111.485 135.817 111.788 136.378 112.393C137.802 113.993 137.5 117.108 137.5 117.237C137.5 117.41 137.371 117.54 137.198 117.497C137.025 117.497 136.939 117.324 136.939 117.151C136.939 117.108 137.198 114.21 135.99 112.782C135.515 112.263 134.911 112.004 134.134 112.047C133.314 112.09 132.666 112.393 132.192 112.999C131.026 114.469 131.242 117.108 131.242 117.151C131.242 117.324 131.156 117.454 130.983 117.497C130.854 117.497 130.681 117.41 130.681 117.237C130.681 117.108 130.422 114.296 131.76 112.653C132.321 111.917 133.141 111.528 134.091 111.485C134.134 111.485 134.22 111.485 134.263 111.485Z" fill="#F9A08F"/>
<path d="M134.695 122.298L133.141 136.917L147.297 136.874L145.83 122.255L134.695 122.298Z" fill="#F9A08F"/>
<path d="M140.09 118.967C140.694 118.967 141.212 119.184 141.6 119.616C142.593 120.741 142.377 122.947 142.377 123.033C142.377 123.163 142.291 123.249 142.161 123.206C142.075 123.206 141.989 123.076 141.989 122.99C141.989 122.99 142.161 120.914 141.298 119.919C140.953 119.573 140.521 119.357 139.96 119.4C139.399 119.443 138.924 119.659 138.579 120.092C137.759 121.13 137.932 122.99 137.932 123.033C137.932 123.163 137.845 123.249 137.759 123.249C137.673 123.249 137.543 123.163 137.543 123.076C137.543 122.99 137.371 121 138.277 119.832C138.709 119.313 139.226 119.054 139.96 119.011C140.003 118.967 140.046 118.967 140.09 118.967Z" fill="#EF8273"/>
<path d="M144.621 146.043C146.242 146.043 147.556 144.726 147.556 143.102C147.556 141.478 146.242 140.161 144.621 140.161C143 140.161 141.686 141.478 141.686 143.102C141.686 144.726 143 146.043 144.621 146.043Z" fill="#FFB1B1"/>
<path opacity="0.5" d="M144.621 144.443C145.36 144.443 145.959 143.843 145.959 143.102C145.959 142.362 145.36 141.761 144.621 141.761C143.882 141.761 143.283 142.362 143.283 143.102C143.283 143.843 143.882 144.443 144.621 144.443Z" fill="#FFB1B1"/>
<path d="M125.675 146.043C127.296 146.043 128.61 144.726 128.61 143.102C128.61 141.478 127.296 140.161 125.675 140.161C124.054 140.161 122.74 141.478 122.74 143.102C122.74 144.726 124.054 146.043 125.675 146.043Z" fill="#FFB1B1"/>
<path opacity="0.5" d="M125.675 144.443C126.414 144.443 127.013 143.843 127.013 143.102C127.013 142.362 126.414 141.761 125.675 141.761C124.936 141.761 124.337 142.362 124.337 143.102C124.337 143.843 124.936 144.443 125.675 144.443Z" fill="#FFB1B1"/>
<path d="M122.956 137.436L117 113.95C116.957 113.821 117 113.691 117.086 113.561C117.173 113.475 117.302 113.388 117.432 113.388H153.943L155.454 107.462C156.274 104.175 158.777 101.969 161.669 101.969H162.575C162.834 101.969 163.007 102.186 163.007 102.402C163.007 102.662 162.791 102.835 162.575 102.835H161.669C159.209 102.835 157.051 104.781 156.317 107.636L148.635 137.393C148.592 137.566 148.419 137.739 148.203 137.739H123.344C123.172 137.782 122.999 137.652 122.956 137.436ZM153.728 114.253H117.993L123.689 136.874H147.858L153.728 114.253Z" fill="white"/>
<path d="M118.899 120.135H152.649C152.908 120.135 153.08 119.919 153.08 119.703C153.08 119.487 152.864 119.27 152.649 119.27H118.899C118.64 119.27 118.467 119.487 118.467 119.703C118.467 119.919 118.683 120.135 118.899 120.135Z" fill="white"/>
<path d="M120.409 126.018H151.181C151.44 126.018 151.613 125.801 151.613 125.585C151.613 125.325 151.397 125.152 151.181 125.152H120.409C120.151 125.152 119.978 125.369 119.978 125.585C119.978 125.845 120.151 126.018 120.409 126.018Z" fill="white"/>
<path d="M121.92 131.9H149.498C149.757 131.9 149.93 131.684 149.93 131.467C149.93 131.208 149.714 131.035 149.498 131.035H121.92C121.661 131.035 121.488 131.251 121.488 131.467C121.488 131.727 121.704 131.9 121.92 131.9Z" fill="white"/>
<path d="M143.456 137.782C143.672 137.782 143.844 137.609 143.887 137.393L146.995 113.864C147.038 113.604 146.865 113.388 146.606 113.388C146.391 113.345 146.132 113.518 146.132 113.777L143.024 137.306C142.981 137.566 143.154 137.782 143.413 137.782C143.456 137.782 143.456 137.782 143.456 137.782Z" fill="white"/>
<path d="M137.759 137.782C137.975 137.782 138.191 137.609 138.191 137.393L139.744 113.864C139.744 113.604 139.572 113.431 139.356 113.388C139.097 113.388 138.924 113.561 138.881 113.777L137.328 137.306C137.328 137.566 137.5 137.782 137.759 137.782Z" fill="white"/>
<path d="M127.617 137.782H127.66C127.919 137.739 128.048 137.523 128.048 137.306L124.941 113.777C124.898 113.518 124.682 113.388 124.466 113.388C124.207 113.431 124.078 113.647 124.078 113.864L127.185 137.393C127.228 137.609 127.401 137.782 127.617 137.782Z" fill="white"/>
<path d="M132.71 137.782C132.968 137.782 133.141 137.566 133.141 137.306L131.587 113.777C131.587 113.518 131.372 113.345 131.113 113.388C130.854 113.388 130.681 113.604 130.724 113.864L132.278 137.393C132.278 137.609 132.494 137.782 132.71 137.782Z" fill="white"/>
<path d="M144.621 143.535C144.664 143.535 144.664 143.535 144.708 143.535C144.923 143.491 145.096 143.275 145.053 143.016L143.888 137.263C143.844 137.047 143.629 136.874 143.37 136.917C143.154 136.96 142.981 137.177 143.024 137.436L144.19 143.189C144.233 143.405 144.405 143.535 144.621 143.535Z" fill="white"/>
<path d="M125.675 143.535C125.847 143.535 126.02 143.405 126.106 143.232L128.048 137.479C128.135 137.263 128.005 137.004 127.789 136.917C127.574 136.831 127.315 136.96 127.228 137.177L125.286 142.929C125.2 143.145 125.329 143.405 125.545 143.491C125.588 143.535 125.632 143.535 125.675 143.535Z" fill="white"/>
<path d="M161.496 103.526H168.445C169.049 103.526 169.567 103.007 169.567 102.402C169.567 101.796 169.049 101.277 168.445 101.277H161.496V103.526Z" fill="#FFB1B1"/>
<path d="M163.05 99.6338C163.05 99.6338 162.704 101.234 162.877 101.969C162.963 102.315 163.222 103.051 163.524 103.31C163.783 103.527 164.301 104.175 165.164 103.959C165.984 103.743 167.84 104.262 165.855 101.364C165.639 101.018 164.085 98.9418 164.085 98.9418L162.877 96.2169L160.805 97.1252L163.05 99.6338Z" fill="#F7D7CA"/>
<path d="M161.237 86.0095C161.928 84.3659 166.286 79.1324 166.934 78.6999C167.883 78.0511 168.401 77.5321 169.178 76.6238C171.336 74.2017 171.595 69.617 169.135 69.4007C164.129 68.925 155.238 78.8729 155.152 86.0095C155.065 92.3243 161.841 99.3744 162.963 100.066C162.963 100.066 164.819 100.11 164.603 99.6339C164.344 99.1582 160.762 87.1341 161.237 86.0095Z" fill="#FF8F8F"/>
<path d="M253.078 64.8159C254.847 62.7398 257.221 62.8263 258.861 63.7779C260.976 65.0322 261.537 67.3678 260.803 69.7899" fill="#FFEAE3"/>
<path d="M261.105 67.5408C259.767 66.4595 255.753 64.4699 253.725 64.1671C253.509 64.3401 253.293 64.5564 253.121 64.7726L260.846 69.7466C261.019 69.0546 261.148 68.2761 261.105 67.5408Z" fill="#F9A08F"/>
<path d="M261.191 68.6221C260.889 68.3194 260.587 68.0599 260.242 67.7571C258.645 66.4163 256.789 65.3782 254.847 64.5132C253.034 63.6914 251.783 63.0426 249.841 62.9129C248.719 62.8264 246.82 62.9994 246.215 64.2104C245.568 65.5512 246.172 67.2813 247.122 68.1896C248.201 69.2709 249.711 70.3955 251.006 71.174C254.113 73.1203 257.955 75.7155 263.177 75.7155C263.738 75.7155 264.083 75.0234 264.169 74.4612C264.256 73.8989 264.126 73.3366 263.91 72.8176C263.392 71.2173 262.4 69.7899 261.191 68.6221Z" fill="#FFEAE3"/>
<path d="M263.651 77.4888C263.997 78.6566 263.953 79.9541 263.392 81.0787C262.616 82.5493 261.019 83.5441 259.379 83.6306C258.343 83.6738 257.652 83.2413 256.746 82.852C255.84 82.4628 255.02 82.0735 254.329 81.4247C254.113 81.2085 253.854 80.9922 253.552 80.8624C253.207 80.7759 252.819 80.8624 252.473 80.9057C249.927 81.1652 249.15 80.2137 248.416 77.9646C247.683 75.6289 248.114 73.0771 249.15 70.9145C250.057 69.0546 251.394 66.9353 252.862 65.9837C254.804 65.5945 257.696 67.5841 259.465 69.3574C259.724 70.2657 259.853 71.2172 260.156 72.1255C260.717 73.8989 262.141 74.7639 263.09 76.2345C263.306 76.5805 263.522 77.0563 263.651 77.4888Z" fill="#07361B"/>
<path d="M256.876 100.585C256.876 100.975 255.063 116.329 255.797 123.293C256.314 128.31 255.063 136.614 254.933 140.075C254.674 140.68 253.38 140.204 253.38 140.204C253.38 140.204 249.97 122.774 248.719 115.551C247.683 109.625 247.122 98.9419 249.323 92.2378" fill="#F7D7CA"/>
<path d="M255.797 123.25C255.581 121.217 255.581 118.449 255.71 115.551C254.545 116.589 253.423 117.713 252.473 118.968C252.042 119.53 251.61 120.179 251.61 120.871C251.567 122.038 252.258 121.909 253.034 122.774C254.545 124.504 255.279 125.931 255.667 131.338C255.926 128.483 256.056 125.542 255.797 123.25Z" fill="#F6D0C0"/>
<path d="M255.279 140.464C255.279 140.464 255.581 141.026 255.581 141.286C255.538 141.978 255.494 142.497 255.494 142.497H255.106L254.977 141.934C254.977 141.934 253.984 142.064 252.991 142.626C252.517 142.886 250.315 142.843 249.927 142.67C249.495 142.497 249.625 142.151 249.798 142.021C249.927 141.891 252.387 140.94 252.387 140.94" fill="#062F18"/>
<path d="M253.768 139.382C253.552 139.815 250.574 141.545 250.79 141.675C250.963 141.805 251.955 141.848 253.293 141.459C254.502 141.113 255.236 140.767 255.279 140.464L254.847 139.209" fill="#F7D7CA"/>
<path d="M280.483 130.213C280.483 130.213 281.131 130.386 281.303 130.602C281.778 131.165 282.08 131.511 282.08 131.511L281.821 131.77L281.346 131.424C281.346 131.424 280.742 132.203 280.44 133.327C280.267 133.846 278.714 135.403 278.325 135.533C277.894 135.706 277.764 135.36 277.764 135.187C277.764 134.971 278.8 132.592 278.8 132.592" fill="#062F18"/>
<path d="M261.537 99.0283C261.666 99.3743 264.256 113.518 268.442 117.151C272.283 120.438 277.635 127.661 280.008 130.17C280.267 130.775 279.016 131.338 279.016 131.338C279.016 131.338 263.134 122.774 258.257 117.324C254.243 112.869 251.222 100.542 251.179 93.4921" fill="#F7D7CA"/>
<path d="M268.399 117.151C268.183 116.978 267.967 116.718 267.751 116.502C266.37 117.454 265.162 118.578 264.083 119.876C265.939 120.049 267.924 119.443 269.694 120.006C270.341 120.222 270.945 120.568 271.549 120.914C271.938 121.173 272.326 121.39 272.715 121.649C271.247 119.876 269.737 118.276 268.399 117.151Z" fill="#F7D0C0"/>
<path d="M278.714 130.516C278.843 130.992 278.023 134.279 278.239 134.235C278.455 134.192 279.188 133.5 279.879 132.289C280.526 131.165 280.742 130.429 280.569 130.213L279.404 129.608" fill="#F7D7CA"/>
<path d="M249.366 89.7293C245.568 94.4005 246.129 109.668 246.345 121.087C250.057 122.687 255.71 123.423 260.112 122.644C264.515 121.866 266.931 120.092 270.384 117.281C267.708 101.883 265.248 93.7517 257.178 89.686" fill="#CC3E56"/>
<path d="M257.221 89.7292L252.042 89.5562L250.79 91.1997C256.271 93.0596 259.724 95.1789 262.831 99.2879C265.766 103.181 267.492 109.149 269.78 113.864C267.32 100.715 264.644 93.4921 257.221 89.7292Z" fill="#AE263E"/>
<path d="M272.844 91.9783L280.31 86.2258L287 98.0336L279.534 106.425L274.743 106.338L272.844 91.9783Z" fill="#F9A08F"/>
<path d="M275.995 83.2413C278.066 83.9766 279.447 88.3018 279.447 88.3018" stroke="#062F18" stroke-miterlimit="10" stroke-linecap="round" stroke-linejoin="round"/>
<path d="M266.543 86.3555C266.543 86.3555 269.262 87.6098 271.204 87.3936C275.822 86.8745 281.303 84.3227 281.303 84.3227L280.44 83.3279C280.44 83.3279 271.247 83.9767 270.298 83.7604C269.521 83.5441 265.292 80.6462 265.292 80.6462" fill="#F7D7CA"/>
<path d="M279.836 83.6307C280.613 82.8954 281.519 82.2899 282.512 81.8141C282.598 81.7709 282.771 81.7276 282.814 81.8141C282.857 81.9006 282.555 82.1169 282.382 82.2899C283.03 82.0304 284.367 81.6411 284.411 81.8141C284.411 81.9871 283.245 82.3331 282.684 82.5926C283.375 82.4196 284.713 82.0304 284.756 82.2466C284.799 82.5061 283.461 82.7224 282.814 82.9819C283.461 82.8954 284.713 82.7656 284.799 82.8954C284.885 83.0252 284.54 83.0684 284.454 83.1117C283.936 83.2414 283.504 83.2847 282.986 83.4144C283.547 83.3712 284.67 83.4577 284.626 83.6739C284.583 83.8902 283.418 83.6739 282.296 84.2795C281.907 84.4525 281.519 84.6255 281.131 84.6687C280.742 84.6687 280.354 84.539 280.095 84.2362" fill="#FC6360"/>
<path d="M282.296 82.506C282.08 82.6358 281.994 82.8521 281.864 83.0683C281.692 83.4576 281.519 83.8036 281.087 83.9334C281.044 83.9334 281.044 84.0199 281.087 83.9766C281.907 83.8469 281.821 83.0251 282.296 82.506C282.339 82.506 282.296 82.4628 282.296 82.506Z" fill="#CE4545"/>
<path d="M275.995 83.2414C272.197 82.3764 273.75 89.7292 275.002 91.7621" stroke="#062F18" stroke-miterlimit="10" stroke-linecap="round" stroke-linejoin="round"/>
<path d="M274.743 106.338L272.844 91.9783L279.534 106.424L274.743 106.338Z" fill="#EF8273"/>
<path d="M247.985 81.5978C239.483 85.75 234.39 84.6687 228.305 81.3815L227.701 80.43C227.701 80.43 236.332 81.295 239.483 80.0839C242.288 79.0026 246.302 77.5753 249.28 76.494" fill="#F7D7CA"/>
<path d="M227.442 81.2951C227.183 81.5546 226.838 81.4681 226.751 81.4248C226.492 81.3383 226.363 81.2086 226.147 81.0356C226.104 81.1221 225.974 81.1653 225.888 81.1653C225.759 81.1653 225.629 81.1653 225.5 81.1653C225.413 81.1653 225.327 81.1221 225.241 81.0356C225.198 80.9923 224.895 80.7328 225.154 80.6463C225.111 80.5598 225.068 80.4733 225.068 80.3868C225.068 80.3003 225.154 80.2138 225.241 80.2138C225.154 80.1705 225.111 80.1273 225.154 80.0408C225.154 79.9543 225.198 79.8245 225.456 79.7813C225.327 79.738 225.068 79.6948 224.939 79.738C224.852 79.7813 224.291 79.8245 224.205 79.6947C224.119 79.565 224.636 79.4352 224.939 79.3487C225.198 79.2622 225.629 79.2622 226.018 79.392C225.931 79.2622 225.586 79.1757 225.629 78.9162C225.629 78.6567 226.406 79.046 226.708 79.2622C227.183 79.6082 227.787 80.2138 227.787 80.2138L231.542 80.5598C231.542 80.5598 234.735 83.8037 234.649 83.7604C232.534 83.6307 227.442 81.2951 227.442 81.2951Z" fill="#F7D7CA"/>
<path d="M240.519 79.6515C240.519 79.6515 240.26 80.949 240.691 82.1168C241.166 83.2846 241.856 84.0199 241.856 84.0199C241.856 84.0199 248.632 81.7708 249.107 81.7708C250.833 80.7328 253.898 76.2346 252.819 75.975C248.934 74.764 243.842 78.2674 240.519 79.6515Z" fill="#FEB0A5"/>
<path d="M269.348 83.2414C269.348 83.2414 265.637 80.5598 262.141 78.5269C260.544 77.5754 258.214 77.0996 258.214 77.0996L257.825 83.8469C257.825 83.8469 258.904 85.4905 260.458 84.712C261.666 84.1064 262.486 85.1012 267.579 86.8746C267.838 84.9282 269.348 83.2414 269.348 83.2414Z" fill="#624CD5"/>
<path d="M261.062 81.5113C260.76 80.3868 260.156 79.392 259.336 78.5702C258.861 78.0944 258.861 77.2726 258.257 77.0996C257.609 76.8834 256.401 77.3159 255.754 77.3159C254.804 77.3159 253.811 77.2294 252.862 77.1429C252.344 77.0996 251.869 77.0131 251.351 77.1429C250.272 77.4456 248.891 78.7432 248.33 79.6515C247.64 80.776 247.036 82.1169 247.424 83.4577C247.726 84.4957 248.417 85.231 248.417 86.3123C248.417 87.0908 248.676 88.9939 248.071 89.5995C247.122 90.551 248.503 91.1998 250.704 91.5891C251.869 91.8053 253.682 91.8486 254.804 91.6756C255.624 91.5458 257.307 91.3728 257.911 90.724C258.041 90.551 258.257 90.378 258.257 90.1617C258.3 87.1341 259.12 84.366 260.803 82.4196" fill="#FEB0A5"/>
<path d="M252.991 81.7708C251.395 84.5822 251.265 88.4317 251.654 91.5891C251.654 91.6756 251.783 91.6756 251.783 91.5891C251.826 88.3019 251.567 84.885 253.078 81.8141C253.078 81.7708 253.035 81.7276 252.991 81.7708Z" fill="#FC6360"/>
<path d="M253.509 83.1982C253.768 83.1982 253.768 82.7656 253.509 82.7656C253.25 82.7656 253.25 83.1982 253.509 83.1982Z" fill="#F58A86"/>
<path d="M252.819 86.2257C253.078 86.2257 253.078 85.7932 252.819 85.7932C252.56 85.7932 252.56 86.2257 252.819 86.2257Z" fill="#F58A86"/>
<path d="M252.646 89.9455C252.905 89.9455 252.905 89.5129 252.646 89.5129C252.344 89.5129 252.344 89.9455 252.646 89.9455Z" fill="#F58A86"/>
<path d="M269.348 83.2414C269.348 83.2414 265.637 80.5598 262.141 78.5269C260.544 77.5754 258.213 77.0996 258.213 77.0996C257.566 77.7484 257.523 78.5702 257.437 79.4352C257.307 80.6463 257.178 81.8141 256.832 82.9819C256.66 83.5009 256.573 83.9767 256.228 84.4092C255.883 84.885 255.494 85.2742 255.02 85.6203C254.761 85.8365 254.416 86.0528 254.416 86.3988C254.416 86.6583 254.674 86.8746 254.847 87.0908C255.365 87.6964 255.538 88.5181 255.494 89.3399C255.451 90.1617 255.106 90.8538 254.933 91.6323C257.005 91.3295 257.782 90.9835 258.127 90.6375C258.602 90.1617 258.386 89.6427 258.472 89.4264C259.249 87.0908 259.465 86.2258 260.673 84.6255C261.796 84.2362 262.788 85.231 267.536 86.8746C267.838 84.9282 269.348 83.2414 269.348 83.2414Z" fill="#EF8273"/>
<path d="M259.336 85.4472C259.551 85.2742 259.767 85.1445 260.026 85.0147C260.285 84.885 260.544 84.7985 260.76 84.6687C260.846 84.6254 260.76 84.5389 260.717 84.5389C260.199 84.6254 259.681 85.0147 259.293 85.3607C259.249 85.404 259.293 85.4905 259.336 85.4472Z" fill="#1C1459"/>
<path d="M252.905 67.8869C251.956 69.0979 249.668 72.7744 252.214 73.5961C253.121 73.8989 254.329 73.5961 255.106 73.0771C256.271 72.2553 257.825 70.655 257.221 69.1412C257.048 68.6654 256.617 68.3194 256.314 67.9301C256.012 67.5408 255.753 67.1083 255.322 66.9353C254.718 66.6326 253.941 66.9353 253.509 67.4543" fill="#F7D7CA"/>
<path d="M253.941 73.4232C253.941 73.4232 253.552 75.802 253.38 75.9318C253.207 76.1048 251.912 75.8453 251.912 75.8453C251.912 75.8453 251.912 79.3919 252.991 81.8141C255.063 78.7864 258.17 77.0996 258.17 77.0996C258.17 77.0996 256.746 76.6671 256.573 76.2778C256.358 75.8453 255.667 70.7848 255.667 70.7848" fill="#F7D7CA"/>
<path d="M254.502 70.4388C254.416 70.5253 254.372 70.6118 254.286 70.6983C254.113 70.8713 254.415 71.1308 254.588 70.9145C254.674 70.7848 254.718 70.6983 254.761 70.5685C254.761 70.3955 254.588 70.3523 254.502 70.4388Z" fill="#1E1240"/>
<path d="M252.603 69.0979C252.516 69.1844 252.473 69.2709 252.387 69.3574C252.214 69.5304 252.516 69.7899 252.689 69.5737C252.775 69.4439 252.819 69.3574 252.862 69.2276C252.819 69.0979 252.689 69.0546 252.603 69.0979Z" fill="#1E1240"/>
<path d="M255.279 69.7034C255.667 69.9197 255.71 70.3955 255.71 70.3955C255.71 70.3955 255.322 69.9197 254.847 69.6602C255.02 69.5737 255.149 69.6602 255.279 69.7034Z" fill="#1E1240"/>
<path d="M253.293 68.3193C253.38 68.3626 253.466 68.4923 253.423 68.6653C253.121 68.3626 252.732 68.2328 252.732 68.2328C252.732 68.2328 252.991 68.1463 253.293 68.3193Z" fill="#1E1240"/>
<path d="M251.653 71.693C251.783 71.7362 251.74 71.9092 252.042 72.0823C252.43 72.2985 252.517 72.1688 252.56 72.2553C252.603 72.3418 252.258 72.904 251.783 72.6445C251.179 72.3418 251.61 71.6497 251.653 71.693Z" fill="white"/>
<path d="M253.811 72.2986C254.097 72.2986 254.329 72.0662 254.329 71.7795C254.329 71.4929 254.097 71.2605 253.811 71.2605C253.525 71.2605 253.293 71.4929 253.293 71.7795C253.293 72.0662 253.525 72.2986 253.811 72.2986Z" fill="#FEB0A5"/>
<path d="M251.999 70.9145C252.285 70.9145 252.517 70.6821 252.517 70.3955C252.517 70.1088 252.285 69.8765 251.999 69.8765C251.713 69.8765 251.481 70.1088 251.481 70.3955C251.481 70.6821 251.713 70.9145 251.999 70.9145Z" fill="#FEB0A5"/>
<path d="M252.905 69.963C252.603 70.136 252.344 70.3522 252.128 70.6118C251.999 70.7415 251.912 70.8713 251.999 71.0443C252.128 71.3038 252.56 71.3903 252.819 71.347C252.862 71.347 252.862 71.3038 252.862 71.2605C252.689 71.1308 252.473 71.174 252.301 71.0443C252.171 70.9578 252.171 70.9578 252.258 70.7848C252.301 70.6983 252.43 70.6118 252.473 70.5253C252.646 70.3522 252.819 70.1792 252.991 70.0062C252.948 69.963 252.948 69.9197 252.905 69.963Z" fill="#F98A8A"/>
<path d="M258.041 69.0546C257.523 68.1031 256.617 67.4111 255.667 66.892L254.416 66.6758C253.509 66.719 252.776 66.6758 252.128 67.3246C251.955 67.4976 251.826 67.6706 251.74 67.8436C251.481 68.3626 251.567 69.0114 251.697 69.5737C251.826 68.9681 252.301 68.4491 252.905 68.2761C253.034 68.2329 253.207 68.2329 253.337 68.1896C253.596 67.9733 253.854 67.8003 254.157 67.6273C253.984 67.8003 253.811 67.9733 253.682 68.1896C254.027 68.2329 254.372 68.4059 254.631 68.6654C254.804 68.7951 254.933 68.9681 255.063 69.0979C255.322 68.8816 255.581 68.7086 255.84 68.5356C255.667 68.7951 255.451 69.0546 255.322 69.3574C255.753 69.7899 256.056 70.3522 256.228 70.9145C256.314 71.2605 256.401 71.6498 256.573 71.9525C256.746 72.2553 257.134 72.5148 257.48 72.3851C257.609 72.3418 257.739 72.212 257.868 72.0823C258.602 71.2605 258.559 70.0062 258.041 69.0546Z" fill="#07361B"/>
<path d="M235.814 127.272L234.218 141.891L248.373 141.848L246.949 127.229L235.814 127.272Z" fill="#F9A08F"/>
<path d="M241.166 123.941C241.77 123.941 242.288 124.158 242.677 124.59C243.669 125.715 243.453 127.921 243.453 128.007C243.453 128.137 243.367 128.223 243.238 128.18C243.151 128.18 243.065 128.05 243.065 127.964C243.065 127.964 243.238 125.888 242.374 124.893C242.029 124.547 241.598 124.331 241.037 124.374C240.476 124.417 240.001 124.633 239.656 125.066C238.836 126.104 239.008 127.964 239.008 128.007C239.008 128.137 238.922 128.223 238.835 128.223C238.749 128.223 238.62 128.137 238.62 128.05C238.62 127.964 238.447 125.974 239.353 124.806C239.785 124.287 240.303 124.028 241.037 123.985C241.08 123.941 241.123 123.941 241.166 123.941Z" fill="#EF8273"/>
</g>
<defs>
<linearGradient id="paint0_linear" x1="92.757" y1="104.336" x2="446.244" y2="20.1222" gradientUnits="userSpaceOnUse">
<stop stop-color="#E02E24"/>
<stop offset="1" stop-color="#FC6360"/>
</linearGradient>
<linearGradient id="paint1_linear" x1="29" y1="100" x2="29" y2="122" gradientUnits="userSpaceOnUse">
<stop stop-color="#219653"/>
<stop offset="1" stop-color="#6FCF97"/>
</linearGradient>
<linearGradient id="paint2_linear" x1="348" y1="155" x2="348" y2="185" gradientUnits="userSpaceOnUse">
<stop stop-color="#27AE60"/>
<stop offset="1" stop-color="#6FCF97"/>
</linearGradient>
<linearGradient id="paint3_linear" x1="304.501" y1="197" x2="304.501" y2="211" gradientUnits="userSpaceOnUse">
<stop stop-color="#219653"/>
<stop offset="1" stop-color="#27AE60"/>
</linearGradient>
<linearGradient id="paint4_linear" x1="304" y1="203.999" x2="304" y2="204.999" gradientUnits="userSpaceOnUse">
<stop stop-color="#219653"/>
<stop offset="1" stop-color="#27AE60"/>
</linearGradient>
<clipPath id="clip0">
<rect width="170" height="133" fill="white" transform="translate(117 13)"/>
</clipPath>
</defs>
</svg>
