<svg width="374" height="338" viewBox="0 0 374 338" fill="none" xmlns="http://www.w3.org/2000/svg">
<mask id="mask0_1_3022" style="mask-type:alpha" maskUnits="userSpaceOnUse" x="0" y="0" width="375" height="338">
<rect width="375" height="338" fill="#C4C4C4"/>
</mask>
<g mask="url(#mask0_1_3022)">
<path d="M10.9317 43.0256C-18.6617 0.344076 6.92613 -51.4364 23.4192 -71.9914C1.9112 -66.3694 -2.6133 -80.1634 151.353 -180.316C305.319 -280.469 419.182 -200.429 456.867 -147.89C487.431 -99.6542 531.66 21.2761 464.063 119.111C379.567 241.404 278.938 252.846 183.206 256.099C87.4738 259.353 76.4885 225.71 81.033 148.159C85.5775 70.6069 47.9235 96.3775 10.9317 43.0256Z" fill="url(#paint0_linear_1_3022)"/>
<circle cx="113" cy="36.9999" r="26" fill="url(#paint1_linear_1_3022)"/>
<circle cx="346" cy="287" r="15" fill="url(#paint2_linear_1_3022)"/>
<circle cx="25" cy="196" r="8" stroke="url(#paint3_linear_1_3022)" stroke-width="6"/>
<path d="M302.001 314V328" stroke="url(#paint4_linear_1_3022)" stroke-width="4" stroke-miterlimit="10" stroke-linecap="round" stroke-linejoin="round"/>
<path d="M309 320.999H295" stroke="url(#paint5_linear_1_3022)" stroke-width="4" stroke-miterlimit="10" stroke-linecap="round" stroke-linejoin="round"/>
</g>
<g clip-path="url(#clip0_1_3022)">
<path d="M175.295 201.755H295.171" stroke="#FC6360" stroke-miterlimit="10"/>
<path d="M172.343 201.755H167.771" stroke="#FC6360" stroke-miterlimit="10"/>
<path d="M302.29 201.755H297.66" stroke="#FC6360" stroke-miterlimit="10"/>
<path d="M265.188 201.988H202.848C197.87 201.988 193.818 197.913 193.818 192.907V69.0328C193.818 64.0266 197.87 59.9518 202.848 59.9518H265.188C270.165 59.9518 274.217 64.0266 274.217 69.0328V192.965C274.217 197.971 270.165 201.988 265.188 201.988Z" fill="#062F18"/>
<path d="M268.66 69.7896H199.375V192.266H268.66V69.7896Z" fill="#FFB1B1"/>
<path d="M240.819 65.773H227.159C226.811 65.773 226.522 65.482 226.522 65.1327C226.522 64.7834 226.811 64.4924 227.159 64.4924H240.819C241.166 64.4924 241.456 64.7834 241.456 65.1327C241.514 65.482 241.224 65.773 240.819 65.773Z" fill="#2E87BF"/>
<path d="M234.047 200.183C235.581 200.183 236.825 198.932 236.825 197.389C236.825 195.846 235.581 194.595 234.047 194.595C232.512 194.595 231.268 195.846 231.268 197.389C231.268 198.932 232.512 200.183 234.047 200.183Z" fill="#226CAF"/>
<path d="M260.788 211.301H207.247C205.916 211.301 204.874 210.254 204.874 208.915V177.015C204.874 175.676 205.916 174.628 207.247 174.628H260.788C262.12 174.628 263.162 175.676 263.162 177.015V208.915C263.162 210.254 262.12 211.301 260.788 211.301Z" fill="#FFEEEE"/>
<path d="M215.929 179.402L216.566 181.09L218.418 181.206C218.766 181.206 218.939 181.672 218.65 181.905L217.203 183.069L217.666 184.815C217.782 185.165 217.376 185.456 217.087 185.281L215.582 184.291L214.077 185.281C213.788 185.456 213.383 185.223 213.498 184.815L213.961 183.069L212.514 181.905C212.225 181.672 212.399 181.206 212.746 181.206L214.54 181.09L215.177 179.402C215.351 179.052 215.814 179.052 215.929 179.402Z" fill="white"/>
<path d="M225.191 179.402L225.827 181.09L227.68 181.206C228.027 181.206 228.201 181.672 227.911 181.905L226.464 183.069L226.927 184.815C227.043 185.165 226.638 185.456 226.348 185.281L224.843 184.291L223.338 185.281C223.049 185.456 222.644 185.223 222.76 184.815L223.223 183.069L221.776 181.905C221.486 181.672 221.66 181.206 222.007 181.206L223.859 181.09L224.496 179.402C224.554 179.052 225.017 179.052 225.191 179.402Z" fill="white"/>
<path d="M234.394 179.402L235.031 181.09L236.883 181.206C237.23 181.206 237.404 181.672 237.114 181.905L235.667 183.069L236.13 184.815C236.246 185.165 235.841 185.456 235.552 185.281L234.047 184.291L232.542 185.281C232.252 185.456 231.847 185.223 231.963 184.815L232.426 183.069L230.979 181.905C230.689 181.672 230.863 181.206 231.21 181.206L233.005 181.09L233.641 179.402C233.757 179.052 234.278 179.052 234.394 179.402Z" fill="white"/>
<path d="M243.597 179.402L244.234 181.09L246.086 181.206C246.434 181.206 246.607 181.672 246.318 181.905L244.871 183.069L245.334 184.815C245.45 185.165 245.044 185.456 244.755 185.281L243.25 184.291L241.745 185.281C241.456 185.456 241.05 185.223 241.166 184.815L241.629 183.069L240.182 181.905C239.893 181.672 240.066 181.206 240.414 181.206L242.266 181.09L242.903 179.402C243.019 179.052 243.482 179.052 243.597 179.402Z" fill="white"/>
<path d="M252.859 179.402L253.495 181.09L255.348 181.206C255.695 181.206 255.868 181.672 255.579 181.905L254.132 183.069L254.595 184.815C254.711 185.165 254.306 185.456 254.016 185.281L252.511 184.291L251.006 185.281C250.717 185.456 250.312 185.223 250.427 184.815L250.891 183.069L249.443 181.905C249.154 181.672 249.328 181.206 249.675 181.206L251.527 181.09L252.164 179.402C252.222 179.052 252.743 179.052 252.859 179.402Z" fill="white"/>
<path d="M256.852 193.78H232.426C231.152 193.78 230.111 192.732 230.111 191.451C230.111 190.171 231.152 189.123 232.426 189.123H256.852C258.126 189.123 259.168 190.171 259.168 191.451C259.168 192.732 258.126 193.78 256.852 193.78Z" fill="#FFCBCA"/>
<path d="M256.852 200.067H232.426C231.152 200.067 230.111 199.019 230.111 197.738C230.111 196.458 231.152 195.41 232.426 195.41H256.852C258.126 195.41 259.168 196.458 259.168 197.738C259.168 199.019 258.126 200.067 256.852 200.067Z" fill="#FFCBCA"/>
<path d="M242.961 206.353H232.426C231.152 206.353 230.111 205.306 230.111 204.025C230.111 202.744 231.152 201.697 232.426 201.697H242.961C244.234 201.697 245.276 202.744 245.276 204.025C245.276 205.306 244.234 206.353 242.961 206.353Z" fill="#FFCBCA"/>
<path d="M225.248 206.353H211.414C210.488 206.353 209.736 205.597 209.736 204.665V190.753C209.736 189.821 210.488 189.065 211.414 189.065H225.248C226.175 189.065 226.927 189.821 226.927 190.753V204.665C226.927 205.597 226.175 206.353 225.248 206.353Z" fill="#FFDEDE"/>
<path d="M260.788 170.495H207.247C205.916 170.495 204.874 169.448 204.874 168.109V136.209C204.874 134.87 205.916 133.822 207.247 133.822H260.788C262.12 133.822 263.162 134.87 263.162 136.209V168.109C263.162 169.448 262.12 170.495 260.788 170.495Z" fill="#FFEEEE"/>
<path d="M215.929 138.595L216.566 140.284L218.418 140.4C218.766 140.4 218.939 140.866 218.65 141.099L217.203 142.263L217.666 144.009C217.782 144.358 217.376 144.649 217.087 144.475L215.582 143.485L214.077 144.475C213.788 144.649 213.383 144.417 213.498 144.009L213.961 142.263L212.514 141.099C212.225 140.866 212.399 140.4 212.746 140.4L214.54 140.284L215.177 138.595C215.351 138.246 215.814 138.246 215.929 138.595Z" fill="white"/>
<path d="M225.191 138.595L225.827 140.284L227.68 140.4C228.027 140.4 228.201 140.866 227.911 141.099L226.464 142.263L226.927 144.009C227.043 144.358 226.638 144.649 226.348 144.475L224.843 143.485L223.338 144.475C223.049 144.649 222.644 144.417 222.76 144.009L223.223 142.263L221.776 141.099C221.486 140.866 221.66 140.4 222.007 140.4L223.859 140.284L224.496 138.595C224.554 138.246 225.017 138.246 225.191 138.595Z" fill="white"/>
<path d="M234.394 138.595L235.031 140.284L236.883 140.4C237.23 140.4 237.404 140.866 237.114 141.099L235.667 142.263L236.13 144.009C236.246 144.358 235.841 144.649 235.552 144.475L234.047 143.485L232.542 144.475C232.252 144.649 231.847 144.417 231.963 144.009L232.426 142.263L230.979 141.099C230.689 140.866 230.863 140.4 231.21 140.4L233.005 140.284L233.641 138.595C233.757 138.246 234.278 138.246 234.394 138.595Z" fill="white"/>
<path d="M243.597 138.595L244.234 140.284L246.086 140.4C246.434 140.4 246.607 140.866 246.318 141.099L244.871 142.263L245.334 144.009C245.45 144.358 245.044 144.649 244.755 144.475L243.25 143.485L241.745 144.475C241.456 144.649 241.05 144.417 241.166 144.009L241.629 142.263L240.182 141.099C239.893 140.866 240.066 140.4 240.414 140.4L242.266 140.284L242.903 138.595C243.019 138.246 243.482 138.246 243.597 138.595Z" fill="white"/>
<path d="M252.859 138.595L253.495 140.284L255.348 140.4C255.695 140.4 255.868 140.866 255.579 141.099L254.132 142.263L254.595 144.009C254.711 144.358 254.306 144.649 254.016 144.475L252.511 143.485L251.006 144.475C250.717 144.649 250.312 144.417 250.427 144.009L250.891 142.263L249.443 141.099C249.154 140.866 249.328 140.4 249.675 140.4L251.527 140.284L252.164 138.595C252.222 138.246 252.743 138.246 252.859 138.595Z" fill="white"/>
<path d="M256.852 152.974H232.426C231.152 152.974 230.111 151.926 230.111 150.645C230.111 149.365 231.152 148.317 232.426 148.317H256.852C258.126 148.317 259.168 149.365 259.168 150.645C259.168 151.926 258.126 152.974 256.852 152.974Z" fill="#FFCBCA"/>
<path d="M256.852 159.26H232.426C231.152 159.26 230.111 158.213 230.111 156.932C230.111 155.651 231.152 154.604 232.426 154.604H256.852C258.126 154.604 259.168 155.651 259.168 156.932C259.168 158.213 258.126 159.26 256.852 159.26Z" fill="#FFCBCA"/>
<path d="M242.961 165.547H232.426C231.152 165.547 230.111 164.499 230.111 163.219C230.111 161.938 231.152 160.89 232.426 160.89H242.961C244.234 160.89 245.276 161.938 245.276 163.219C245.276 164.499 244.234 165.547 242.961 165.547Z" fill="#FFCBCA"/>
<path d="M225.248 165.547H211.414C210.488 165.547 209.736 164.791 209.736 163.859V149.947C209.736 149.015 210.488 148.259 211.414 148.259H225.248C226.175 148.259 226.927 149.015 226.927 149.947V163.859C226.927 164.791 226.175 165.547 225.248 165.547Z" fill="#FFDEDE"/>
<path d="M224.149 162.171L222.702 151.286H213.614L212.225 162.171L216.74 163.161L218.187 158.853L219.576 163.161L224.149 162.171Z" fill="#FCC0C0"/>
<path d="M235.031 164.618H233.757C233.641 164.618 233.584 164.56 233.526 164.444C233.526 164.385 233.526 164.385 233.526 164.327V161.999C233.526 161.824 233.641 161.708 233.815 161.708H234.973C235.609 161.708 236.015 162.464 235.667 162.988C235.667 162.988 235.667 162.988 235.609 163.047C235.609 163.047 235.609 163.047 235.667 162.988C236.246 163.57 235.899 164.618 235.031 164.618ZM235.32 163.57C235.204 163.396 235.031 163.396 234.915 163.396H234.452C234.278 163.396 234.162 163.279 234.162 163.105C234.162 162.988 234.278 162.872 234.394 162.814H234.799H234.857C235.204 162.814 235.204 162.29 234.857 162.232H233.931V164.036H234.973C235.32 164.094 235.494 163.803 235.32 163.57ZM234.857 163.396C234.915 163.396 234.915 163.396 234.857 163.396C234.915 163.396 234.915 163.396 234.857 163.396ZM234.973 163.396C235.146 163.396 235.32 163.338 235.436 163.221C235.32 163.338 235.146 163.396 234.973 163.396ZM234.973 162.872C235.031 162.872 235.031 162.872 235.031 162.872C235.031 162.872 235.031 162.872 234.973 162.872ZM235.494 163.105C235.494 163.163 235.494 163.163 235.494 163.105C235.494 163.163 235.494 163.163 235.494 163.105Z" fill="#FF8F8F"/>
<path d="M238.793 161.996V163.51C238.793 164.15 238.214 164.616 237.577 164.616C236.941 164.616 236.362 164.092 236.362 163.51V161.996C236.362 161.822 236.478 161.705 236.651 161.705C236.825 161.705 236.941 161.822 236.941 161.996V163.51C236.941 163.859 237.288 164.092 237.635 164.092C237.983 164.092 238.33 163.801 238.33 163.51V161.996C238.33 161.822 238.446 161.705 238.619 161.705C238.677 161.764 238.793 161.88 238.793 161.996Z" fill="#FF8F8F"/>
<path d="M241.803 162.171L240.761 163.568V164.267C240.761 164.383 240.645 164.499 240.53 164.558C240.414 164.558 240.298 164.441 240.298 164.267V163.452V163.51L239.256 162.113C239.198 162.055 239.198 161.996 239.198 161.938C239.198 161.764 239.314 161.647 239.488 161.647C239.603 161.647 239.661 161.705 239.719 161.764L240.587 162.928L241.456 161.764C241.514 161.705 241.571 161.647 241.687 161.647C241.861 161.647 241.977 161.764 241.977 161.938C241.861 162.113 241.861 162.171 241.803 162.171ZM240.298 163.335L240.24 163.393C240.298 163.393 240.298 163.393 240.298 163.335C240.298 163.393 240.298 163.393 240.24 163.393C240.298 163.393 240.298 163.393 240.298 163.335C240.298 163.393 240.298 163.393 240.298 163.335C240.298 163.393 240.298 163.393 240.298 163.335C240.298 163.393 240.298 163.393 240.298 163.335C240.298 163.393 240.298 163.393 240.298 163.335C240.298 163.393 240.298 163.393 240.298 163.335C240.298 163.393 240.298 163.393 240.298 163.335C240.298 163.393 240.298 163.393 240.298 163.335C240.298 163.393 240.298 163.393 240.298 163.335C240.298 163.393 240.298 163.393 240.298 163.335C240.298 163.393 240.298 163.393 240.298 163.335C240.298 163.393 240.298 163.393 240.298 163.335C240.298 163.393 240.298 163.393 240.298 163.335C240.298 163.393 240.298 163.335 240.298 163.335ZM240.761 163.452C240.819 163.452 240.819 163.452 240.761 163.452C240.819 163.452 240.819 163.452 240.761 163.452C240.819 163.452 240.819 163.452 240.761 163.452Z" fill="#FF8F8F"/>
<path d="M260.788 129.689H207.247C205.916 129.689 204.874 128.641 204.874 127.302V95.4026C204.874 94.0637 205.916 93.0159 207.247 93.0159H260.788C262.12 93.0159 263.162 94.0637 263.162 95.4026V127.302C263.162 128.641 262.12 129.689 260.788 129.689Z" fill="#FFEEEE"/>
<path d="M215.929 97.7893L216.566 99.4774L218.418 99.5938C218.766 99.5938 218.939 100.06 218.65 100.292L217.203 101.457L217.666 103.203C217.782 103.552 217.376 103.843 217.087 103.669L215.582 102.679L214.077 103.669C213.788 103.843 213.383 103.61 213.498 103.203L213.961 101.457L212.514 100.292C212.225 100.06 212.399 99.5938 212.746 99.5938L214.54 99.4774L215.177 97.7893C215.351 97.4982 215.814 97.4982 215.929 97.7893Z" fill="white"/>
<path d="M225.191 97.7893L225.827 99.4774L227.68 99.5938C228.027 99.5938 228.201 100.06 227.911 100.292L226.464 101.457L226.927 103.203C227.043 103.552 226.638 103.843 226.348 103.669L224.843 102.679L223.338 103.669C223.049 103.843 222.644 103.61 222.76 103.203L223.223 101.457L221.776 100.292C221.486 100.06 221.66 99.5938 222.007 99.5938L223.859 99.4774L224.496 97.7893C224.554 97.4982 225.017 97.4982 225.191 97.7893Z" fill="white"/>
<path d="M234.394 97.7893L235.031 99.4774L236.883 99.5938C237.23 99.5938 237.404 100.06 237.114 100.292L235.667 101.457L236.13 103.203C236.246 103.552 235.841 103.843 235.552 103.669L234.047 102.679L232.542 103.669C232.252 103.843 231.847 103.61 231.963 103.203L232.426 101.457L230.979 100.292C230.689 100.06 230.863 99.5938 231.21 99.5938L233.005 99.4774L233.641 97.7893C233.757 97.4982 234.278 97.4982 234.394 97.7893Z" fill="white"/>
<path d="M243.597 97.7893L244.234 99.4774L246.086 99.5938C246.434 99.5938 246.607 100.06 246.318 100.292L244.871 101.457L245.334 103.203C245.45 103.552 245.044 103.843 244.755 103.669L243.25 102.679L241.745 103.669C241.456 103.843 241.05 103.61 241.166 103.203L241.629 101.457L240.182 100.292C239.893 100.06 240.066 99.5938 240.414 99.5938L242.266 99.4774L242.903 97.7893C243.018 97.4982 243.482 97.4982 243.597 97.7893Z" fill="white"/>
<path d="M252.859 97.7893L253.495 99.4774L255.348 99.5938C255.695 99.5938 255.868 100.06 255.579 100.292L254.132 101.457L254.595 103.203C254.711 103.552 254.306 103.843 254.016 103.669L252.511 102.679L251.006 103.669C250.717 103.843 250.312 103.61 250.427 103.203L250.891 101.457L249.443 100.292C249.154 100.06 249.328 99.5938 249.675 99.5938L251.527 99.4774L252.164 97.7893C252.222 97.4982 252.743 97.4982 252.859 97.7893Z" fill="white"/>
<path d="M256.852 112.167H232.426C231.152 112.167 230.111 111.12 230.111 109.839C230.111 108.558 231.152 107.51 232.426 107.51H256.852C258.126 107.51 259.168 108.558 259.168 109.839C259.168 111.12 258.126 112.167 256.852 112.167Z" fill="#FFCBCA"/>
<path d="M256.852 118.454H232.426C231.152 118.454 230.111 117.406 230.111 116.126C230.111 114.845 231.152 113.797 232.426 113.797H256.852C258.126 113.797 259.168 114.845 259.168 116.126C259.168 117.406 258.126 118.454 256.852 118.454Z" fill="#FFCBCA"/>
<path d="M242.961 124.799H232.426C231.152 124.799 230.111 123.751 230.111 122.471C230.111 121.19 231.152 120.142 232.426 120.142H242.961C244.234 120.142 245.276 121.19 245.276 122.471C245.276 123.693 244.234 124.799 242.961 124.799Z" fill="#FFCBCA"/>
<path d="M235.031 123.812H233.757C233.641 123.812 233.584 123.754 233.526 123.637C233.526 123.579 233.526 123.579 233.526 123.521V121.193C233.526 121.018 233.641 120.901 233.815 120.901H234.973C235.609 120.901 236.015 121.658 235.667 122.182C235.667 122.182 235.667 122.182 235.609 122.24C235.609 122.24 235.609 122.24 235.667 122.182C236.246 122.764 235.899 123.812 235.031 123.812ZM235.32 122.764C235.204 122.59 235.031 122.59 234.915 122.59H234.452C234.278 122.59 234.162 122.473 234.162 122.299C234.162 122.182 234.278 122.066 234.394 122.008H234.799H234.857C235.204 122.008 235.204 121.484 234.857 121.425H233.931V123.23H234.973C235.32 123.288 235.494 122.997 235.32 122.764ZM234.857 122.59C234.915 122.59 234.915 122.59 234.857 122.59C234.915 122.59 234.915 122.59 234.857 122.59ZM234.973 122.59C235.146 122.59 235.32 122.531 235.436 122.415C235.32 122.531 235.146 122.59 234.973 122.59ZM234.973 122.066C235.031 122.066 235.031 122.066 235.031 122.066C235.031 122.066 235.031 122.066 234.973 122.066Z" fill="#FF8F8F"/>
<path d="M238.793 121.19V122.704C238.793 123.344 238.214 123.81 237.577 123.81C236.941 123.81 236.362 123.286 236.362 122.704V121.19C236.362 121.016 236.478 120.899 236.651 120.899C236.825 120.899 236.941 121.016 236.941 121.19V122.704C236.941 123.053 237.288 123.286 237.635 123.286C237.983 123.286 238.33 122.995 238.33 122.704V121.19C238.33 121.016 238.446 120.899 238.619 120.899C238.677 120.957 238.793 121.074 238.793 121.19Z" fill="#FF8F8F"/>
<path d="M241.803 121.365L240.761 122.762V123.46C240.761 123.577 240.645 123.693 240.53 123.751C240.414 123.751 240.298 123.635 240.298 123.46V122.645V122.704L239.256 121.307C239.198 121.248 239.198 121.19 239.198 121.132C239.198 120.957 239.314 120.841 239.488 120.841C239.603 120.841 239.661 120.899 239.719 120.957L240.587 122.122L241.456 120.957C241.514 120.899 241.571 120.841 241.687 120.841C241.861 120.841 241.977 120.957 241.977 121.132C241.861 121.307 241.861 121.365 241.803 121.365ZM240.298 122.587L240.24 122.645C240.298 122.645 240.298 122.645 240.298 122.587C240.298 122.645 240.298 122.645 240.24 122.645C240.298 122.645 240.298 122.645 240.298 122.587ZM240.298 122.529C240.298 122.529 240.298 122.587 240.298 122.529C240.298 122.587 240.298 122.529 240.298 122.529ZM240.761 122.529C240.761 122.529 240.761 122.587 240.761 122.529C240.761 122.587 240.761 122.529 240.761 122.529ZM240.761 122.587C240.761 122.645 240.761 122.645 240.761 122.587C240.761 122.645 240.761 122.645 240.761 122.587ZM240.761 122.645C240.819 122.645 240.819 122.645 240.761 122.645C240.819 122.645 240.819 122.645 240.761 122.645C240.819 122.645 240.819 122.645 240.761 122.645ZM240.819 122.645C240.819 122.645 240.819 122.704 240.819 122.645C240.819 122.704 240.819 122.704 240.819 122.645Z" fill="#FF8F8F"/>
<path d="M225.248 124.799H211.414C210.488 124.799 209.736 124.043 209.736 123.111V109.199C209.736 108.267 210.488 107.51 211.414 107.51H225.248C226.175 107.51 226.927 108.267 226.927 109.199V123.111C226.927 123.984 226.175 124.799 225.248 124.799Z" fill="#FFDEDE"/>
<path d="M221.254 109.548C221.023 109.431 220.733 109.373 220.444 109.373H219.923C219.923 109.373 219.923 109.373 219.923 109.431C219.923 110.305 219.229 111.003 218.36 111.003C217.492 111.003 216.797 110.305 216.797 109.431C216.797 109.431 216.797 109.431 216.797 109.373H216.277C215.987 109.373 215.698 109.431 215.466 109.548L211.241 111.585L212.572 114.729L214.309 114.088V122.413H222.412V114.088L224.149 114.729L225.48 111.585L221.254 109.548Z" fill="#FCC0C0"/>
<path d="M274.912 66.3575C272.77 60.711 269.413 60.0125 264.782 60.0125H203.253C198.622 60.0125 195.265 60.711 193.124 66.3575L185.888 85.1598H282.147L274.912 66.3575Z" fill="#219653"/>
<path d="M206.089 59.9518L199.259 85.1574H212.919L217.434 59.9518H206.089Z" fill="#6FCF97"/>
<path d="M261.946 59.9518H250.601L255.116 85.1574H268.776L261.946 59.9518Z" fill="#6FCF97"/>
<path d="M239.372 59.9518H228.664L226.522 85.1574H241.514L239.372 59.9518Z" fill="#6FCF97"/>
<path d="M199.259 85.1573C199.259 88.65 202.327 91.5024 206.089 91.5024C209.852 91.5024 212.919 88.65 212.919 85.1573H199.259Z" fill="#219653"/>
<path d="M226.522 85.1573C226.522 88.65 229.879 91.5024 233.989 91.5024C238.099 91.5024 241.456 88.65 241.456 85.1573H226.522Z" fill="#219653"/>
<path d="M268.776 85.1573C268.776 88.65 265.708 91.5024 261.946 91.5024C258.184 91.5024 255.116 88.65 255.116 85.1573H268.776Z" fill="#219653"/>
<path d="M212.919 85.1573C212.919 88.65 215.987 91.5024 219.692 91.5024C223.454 91.5024 226.464 88.65 226.464 85.1573H212.919Z" fill="#27AE60"/>
<path d="M185.888 85.1573C185.888 88.65 188.898 91.5024 192.545 91.5024C196.249 91.5024 199.201 88.65 199.201 85.1573H185.888Z" fill="#27AE60"/>
<path d="M255.116 85.1573C255.116 88.65 252.048 91.5024 248.344 91.5024C244.581 91.5024 241.571 88.65 241.571 85.1573H255.116Z" fill="#27AE60"/>
<path d="M282.147 85.1573C282.147 88.65 279.137 91.5024 275.491 91.5024C271.844 91.5024 268.834 88.65 268.834 85.1573H282.147Z" fill="#27AE60"/>
<path d="M307.384 46.9707C302.232 44.293 295.923 46.3304 293.26 51.5112C291.697 54.5382 291.755 57.9144 293.087 60.7668L290.713 64.1431C290.54 64.3759 290.771 64.667 291.003 64.6088L294.997 63.6774C295.807 64.4923 296.733 65.2491 297.775 65.773C302.927 68.4507 309.236 66.4133 311.899 61.2325C314.561 56.0517 312.535 49.6484 307.384 46.9707Z" stroke="white" stroke-miterlimit="10"/>
<path d="M308.02 54.48C307.789 53.1993 306.747 52.0933 305.474 51.8605C304.026 51.6276 302.695 52.3844 302.116 53.6068C301.537 52.3844 300.206 51.6276 298.759 51.8605C297.486 52.0933 296.444 53.1411 296.212 54.48C296.039 55.5278 296.386 56.5174 297.08 57.2159L301.537 61.6982C301.827 61.9893 302.348 61.9893 302.695 61.6982L307.152 57.2159C307.789 56.5174 308.194 55.5278 308.02 54.48Z" fill="#F2F2F2"/>
<path d="M318.497 85.3902C313.288 83.9349 307.615 86.3216 305.011 91.0949C302.985 94.8204 303.101 98.9535 304.837 102.33L302.001 107.394C301.885 107.627 302.117 107.86 302.348 107.802L307.615 105.939C309.236 107.394 311.32 108.442 313.809 108.791C318.903 109.49 323.996 106.754 326.196 102.039C329.321 95.3443 325.733 87.4276 318.497 85.3902Z" stroke="white" stroke-miterlimit="10"/>
<path d="M320.813 97.0325H310.046V103.785H320.813V97.0325Z" fill="#F2F2F2"/>
<path opacity="0.45" d="M317.108 97.0325H313.751V103.785H317.108V97.0325Z" fill="#F58A86"/>
<path opacity="0.25" d="M320.813 97.0325H310.046V97.7892H320.813V97.0325Z" fill="#FC9F9F"/>
<path d="M315.429 93.9473C315.429 93.9473 312.593 93.8891 311.841 93.5398C311.088 93.1905 310.799 92.5502 311.088 91.9681C311.378 90.571 313.404 89.6396 313.982 90.28C315.545 91.9681 315.429 93.9473 315.429 93.9473Z" fill="#F58A86"/>
<path d="M315.429 93.9473C315.429 93.9473 312.593 93.8891 311.841 93.5398C311.088 93.1905 310.799 92.5502 311.088 91.9681C311.32 91.386 311.956 91.1532 312.767 91.5024C313.519 91.8517 315.429 93.9473 315.429 93.9473Z" fill="#F58A86"/>
<path d="M315.429 93.9473C315.429 93.9473 318.266 93.8891 319.018 93.5398C319.771 93.1905 320.06 92.5502 319.771 91.9681C319.481 90.571 317.455 89.6396 316.877 90.28C315.372 91.9681 315.429 93.9473 315.429 93.9473Z" fill="#F58A86"/>
<path d="M315.429 93.9473C315.429 93.9473 318.266 93.8891 319.018 93.5398C319.771 93.1905 320.06 92.5502 319.771 91.9681C319.539 91.386 318.902 91.1532 318.092 91.5024C317.397 91.8517 315.429 93.9473 315.429 93.9473Z" fill="#F58A86"/>
<path d="M321.507 93.7144H309.352V97.1489H321.507V93.7144Z" fill="#F2F2F2"/>
<path d="M315.429 93.9473C315.781 93.9473 316.066 93.6606 316.066 93.307C316.066 92.9534 315.781 92.6667 315.429 92.6667C315.078 92.6667 314.793 92.9534 314.793 93.307C314.793 93.6606 315.078 93.9473 315.429 93.9473Z" fill="#FC6360"/>
<path d="M180.216 74.5629L178.19 70.7792C178.768 69.7896 179.232 68.7418 179.463 67.5775C180.679 61.9893 177.148 56.4592 171.591 55.2367C166.034 54.0143 160.535 57.5652 159.32 63.1535C158.104 68.7418 161.635 74.2718 167.192 75.4943C170.433 76.1928 173.617 75.3197 175.99 73.3405L179.984 74.854C180.1 74.9122 180.273 74.7375 180.216 74.5629Z" stroke="white" stroke-miterlimit="10"/>
<path d="M163.835 62.9788C163.835 62.0474 164.008 61.4071 164.414 60.9414C164.819 60.4757 165.34 60.3011 166.034 60.3011C166.729 60.3011 167.308 60.5339 167.713 60.9414C168.118 61.4071 168.292 62.0474 168.292 62.9788C168.292 63.9102 168.118 64.5505 167.713 65.0162C167.308 65.4819 166.787 65.6565 166.092 65.6565C165.398 65.6565 164.819 65.4237 164.414 65.0162C164.066 64.6087 163.835 63.9102 163.835 62.9788ZM165.34 62.9788C165.34 63.6191 165.398 64.0848 165.571 64.3177C165.687 64.4923 165.861 64.5505 166.034 64.5505C166.266 64.5505 166.382 64.4923 166.497 64.3177C166.671 64.0848 166.729 63.6191 166.729 62.9788C166.729 62.3385 166.671 61.8728 166.497 61.6399C166.382 61.4653 166.208 61.4071 166.034 61.4071C165.803 61.4071 165.687 61.4653 165.571 61.6399C165.455 61.8728 165.34 62.3385 165.34 62.9788ZM167.192 71.0702C166.671 71.0702 166.382 70.6045 166.613 70.1388L171.359 60.6504C171.475 60.4175 171.707 60.3011 171.938 60.3011C172.401 60.3011 172.691 60.7668 172.517 61.2325L167.771 70.7209C167.597 70.9538 167.423 71.0702 167.192 71.0702ZM170.665 68.3925C170.665 67.4611 170.839 66.8208 171.244 66.3551C171.649 65.8894 172.17 65.7147 172.864 65.7147C173.559 65.7147 174.08 65.9476 174.485 66.3551C174.89 66.8208 175.064 67.4611 175.064 68.3925C175.064 69.3239 174.89 69.9642 174.485 70.4299C174.08 70.8956 173.559 71.0702 172.864 71.0702C172.17 71.0702 171.591 70.8374 171.186 70.4299C170.896 69.9642 170.665 69.3239 170.665 68.3925ZM172.228 68.3925C172.228 69.0328 172.286 69.4985 172.459 69.7313C172.575 69.906 172.749 69.9642 172.922 69.9642C173.154 69.9642 173.27 69.906 173.385 69.7313C173.559 69.4985 173.617 69.0328 173.617 68.3925C173.617 67.7521 173.559 67.2865 173.385 67.0536C173.27 66.879 173.096 66.8208 172.922 66.8208C172.691 66.8208 172.575 66.879 172.459 67.0536C172.286 67.2865 172.228 67.7521 172.228 68.3925Z" fill="#F2F2F2"/>
<path d="M183.11 206.703C183.11 206.703 188.666 208.333 188.666 209.555C188.666 210.254 180.505 210.079 180.042 209.613C179.232 208.857 180.679 206.528 180.679 206.528L183.11 206.703Z" fill="#07361B"/>
<path d="M183.11 203.268V206.819C183.11 206.819 182.936 207.401 182.068 207.46C181.257 207.518 180.679 206.819 180.679 206.819L180.563 202.395" fill="#FC6360"/>
<path d="M178.942 140.866C178.711 141.215 173.733 141.622 175.932 162.346C176.222 164.965 178.074 171.892 179.926 178.819C177.148 187.609 178.942 195.759 180.042 203.909C181.489 204.083 183.92 204.025 183.978 203.909C185.772 197.622 190.403 177.888 189.303 154.254C188.84 145.115 187.046 138.072 187.046 138.072" fill="#219653"/>
<path d="M177.206 156.874L175.701 159.377C175.759 160.308 175.874 161.24 175.99 162.287C176.28 164.907 178.132 171.834 179.984 178.761C177.206 187.551 179 195.701 180.1 203.85C180.505 203.909 180.968 203.909 181.489 203.909C181.373 201.58 181.026 199.194 180.852 196.865C180.331 190.811 180.505 184.582 181.894 178.587C181.836 177.888 178.653 161.822 177.206 156.874Z" fill="#12562F"/>
<path d="M179.984 203.327H184.21L184.036 204.665H179.984V203.327Z" fill="#4CB5D5"/>
<path d="M154.805 203.152C154.805 203.152 158.336 207.751 157.583 208.74C157.178 209.322 150.695 204.316 150.579 203.676C150.406 202.57 152.895 201.522 152.895 201.522L154.805 203.152Z" fill="#07361B"/>
<path d="M156.831 200.416L154.747 203.268C154.747 203.268 154.226 203.618 153.532 203.152C152.837 202.686 152.779 201.813 152.779 201.813L155.326 198.146" fill="#FC6360"/>
<path d="M165.745 142.437C165.571 142.67 160.709 149.423 164.008 158.096C164.877 162.113 164.703 169.389 165.398 175.152C155.326 184.699 153.937 200.591 153.937 200.591C153.937 200.591 155.152 202.104 156.31 202.104C175.238 182.254 177.611 170.146 178.074 154.836C178.363 145.639 178.305 138.654 178.305 138.654" fill="#219653"/>
<path d="M153.995 200.591L154.458 201.173C154.458 201.173 159.32 187.144 161.809 183.535C164.761 179.227 168.234 177.888 168.639 174.861C169.102 171.892 168.87 162.637 167.539 157.223C169.739 157.223 171.938 157.572 177.206 156.233C181.373 155.186 187.046 151.402 186.467 150.762C186.004 150.296 172.633 144.708 166.96 142.03L165.803 142.379C165.629 142.612 160.767 149.365 164.066 158.038C164.934 162.055 164.761 169.331 165.455 175.094C155.384 184.757 153.995 200.591 153.995 200.591Z" fill="#12562F"/>
<path d="M153.995 199.484L156.715 201.988L155.673 202.919L153.242 200.707L153.995 199.484Z" fill="#4CB5D5"/>
<path d="M173.675 101.864C173.443 102.446 173.27 103.086 173.154 103.727C173.038 104.425 172.98 105.124 173.212 105.764C173.617 106.928 175.006 107.685 176.28 107.394C177.495 107.161 178.479 106.055 178.711 104.775C178.827 104.076 178.769 103.319 178.653 102.563C178.537 101.864 178.479 101.165 178.363 100.467" fill="#AE263E"/>
<path d="M181.084 97.3235C181.547 97.3818 181.952 97.6728 182.299 98.0221C182.589 98.3714 182.82 98.7788 182.936 99.2445C183.168 99.9431 183.226 100.7 183.11 101.398C183.052 101.689 182.994 101.98 182.82 102.213C182.589 102.563 182.184 102.737 181.836 102.795C181.431 102.854 181.026 102.795 180.679 102.679" fill="#07361B"/>
<path d="M182.299 101.98C182.357 102.679 182.357 103.436 182.126 104.076C181.894 104.775 181.489 105.357 180.852 105.648C178.711 106.637 175.585 105.066 174.89 102.854C174.369 101.224 174.022 99.2445 174.89 97.6728C175.701 96.1011 177.9 95.0533 179.637 95.6354C182.299 96.5668 182.126 99.7102 182.299 101.98Z" fill="#F7D7CA"/>
<path d="M179.116 104.833C179.116 104.833 179.579 108.151 179.753 108.326C179.868 108.5 181.258 108.733 181.258 108.733C181.258 108.733 180.679 110.13 178.653 110.13C176.743 110.13 175.296 108.617 175.296 108.617C175.296 108.617 177.032 108.384 177.032 108.151C177.032 107.918 177.206 103.901 177.206 103.901" fill="#F7D7CA"/>
<path d="M183.457 94.9951C183.399 94.6458 183.283 94.2966 183.052 94.0055C182.994 93.9473 182.936 93.8309 182.878 93.7727C182.705 93.6562 182.473 93.6562 182.357 93.7144C181.605 94.1219 181.489 94.2966 179.637 94.2383C178.537 93.8891 176.511 93.7727 175.411 94.1801C174.717 94.4712 174.138 94.9369 173.733 95.5772C173.501 95.8683 173.385 96.2175 173.328 96.5668C173.212 96.9743 172.98 97.1489 172.807 97.4982C171.765 99.3027 172.691 100.933 173.443 102.621C173.617 103.552 174.08 104.251 174.601 104.542C175.353 104.949 175.817 103.96 175.817 103.436C175.817 103.261 175.759 103.086 175.759 102.854C175.643 102.33 175.527 101.864 175.411 101.34C175.469 101.34 175.469 101.282 175.527 101.282C175.99 100.874 175.99 100.176 175.874 99.5356C175.817 99.2445 175.701 98.7788 175.874 98.4878C176.048 98.1967 176.453 98.2549 176.743 98.2549C177.553 98.2549 178.363 98.4296 179.174 98.4878C180.042 98.4878 180.852 98.3714 181.663 98.0221C182.184 97.7892 182.705 97.4982 183.11 97.0325C183.399 96.4504 183.573 95.6936 183.457 94.9951Z" fill="#07361B"/>
<path d="M175.701 101.34C175.701 101.224 175.585 101.049 175.469 101.049C175.122 100.933 174.775 101.166 174.601 101.457C174.427 101.748 174.485 102.155 174.659 102.446C174.832 102.912 175.296 103.378 175.816 103.378C176.048 103.378 176.164 103.203 176.28 102.97" fill="#F7D7CA"/>
<path d="M179.405 94.1801C179.405 94.1801 176.569 94.6458 174.601 98.2549C173.154 100.933 173.328 102.621 173.328 102.621C173.328 102.621 170.491 100.7 172.344 96.4504C174.022 92.7831 178.074 93.3652 179.405 94.1801Z" fill="#CC3E56"/>
<path d="M178.132 100.874C178.074 101.049 178.074 101.166 178.074 101.34C178.074 101.689 178.595 101.631 178.537 101.282C178.537 101.166 178.479 100.991 178.479 100.874C178.421 100.7 178.19 100.7 178.132 100.874Z" fill="#1E1240"/>
<path d="M181.2 100.583C181.142 100.758 181.142 100.874 181.142 101.049C181.142 101.398 181.663 101.34 181.605 100.991C181.605 100.874 181.547 100.7 181.547 100.583C181.489 100.409 181.258 100.409 181.2 100.583Z" fill="#1E1240"/>
<path d="M178.016 99.5355C177.437 99.4773 177.032 100.001 177.032 100.001C177.032 100.001 177.784 99.7102 178.479 99.7102C178.479 99.4773 178.19 99.5355 178.016 99.5355Z" fill="#1E1240"/>
<path d="M181.257 99.1863C181.142 99.1863 180.91 99.2445 180.852 99.4773C181.373 99.3609 181.952 99.4773 181.952 99.4773C181.952 99.4773 181.778 99.1863 181.257 99.1863Z" fill="#1E1240"/>
<path d="M180.679 101.457C180.737 101.748 180.794 102.097 180.91 102.388C180.968 102.563 181.026 102.679 181.026 102.854C181.026 103.086 181.026 103.145 180.852 103.145C180.563 103.145 180.331 102.97 180.042 103.028C179.984 103.028 179.984 103.086 179.984 103.145C180.216 103.378 180.852 103.552 181.142 103.319C181.373 103.145 181.315 102.912 181.258 102.679C181.142 102.213 181.026 101.806 180.794 101.457C180.679 101.34 180.621 101.398 180.679 101.457Z" fill="#CE4545"/>
<path d="M181.026 104.018C180.852 103.96 180.737 104.193 180.331 104.193C179.753 104.193 179.753 103.96 179.637 104.076C179.521 104.134 179.579 105.007 180.274 105.066C181.142 105.124 181.084 104.018 181.026 104.018Z" fill="white"/>
<path d="M207.247 140.691C207.421 141.331 208.52 141.099 208.868 141.157C208.81 141.215 208.983 141.564 209.099 141.622C209.273 141.797 209.446 141.914 209.736 141.914C209.91 141.972 210.141 141.855 210.315 141.739C210.488 141.622 210.604 141.448 210.662 141.273C210.662 141.157 210.951 141.215 210.778 140.866C210.836 140.866 211.299 141.099 211.415 141.331C211.472 141.448 212.051 142.03 212.283 141.914C212.514 141.797 212.051 141.215 211.762 140.866C211.53 140.516 211.067 140.167 210.546 139.934C210.778 139.876 211.183 140.109 211.415 139.818C211.646 139.527 210.43 139.294 209.91 139.236C209.099 139.178 207.884 139.294 207.884 139.294L204.932 137.606C204.932 137.606 203.137 139.643 203.311 139.643C203.485 139.701 207.247 140.691 207.247 140.691Z" fill="#F7D7CA"/>
<path d="M181.315 108.733C181.315 108.733 186.293 108.733 190.345 115.835C193.297 121.016 193.644 124.916 194.918 126.488C198.159 130.446 207.363 138.945 207.363 138.945L206.494 140.516C206.494 140.516 196.018 139.294 187.277 130.853C181.663 125.381 179.29 118.687 179.29 118.687" fill="#FF8F8F"/>
<path d="M178.942 110.479C178.942 110.479 187.625 139.76 189.245 146.92C189.303 147.793 189.94 150.005 189.303 151.053C188.088 153.09 173.906 158.271 162.966 152.159C162.446 151.46 162.503 149.19 162.966 147.793C162.966 145.29 177.148 109.955 178.942 110.479Z" fill="#FF8F8F"/>
<path d="M178.132 110.072C178.132 110.072 180.678 109.839 181.836 108.849C183.515 109.257 185.772 112.808 186.525 115.311C188.666 122.704 188.84 137.955 189.303 145.173C189.361 146.338 189.534 147.676 188.956 148.724C188.029 150.471 185.367 151.227 183.63 151.751C179.521 152.915 175.064 153.148 170.838 152.45C168.755 152.1 166.439 151.926 164.587 150.82C162.214 149.423 162.85 147.385 162.793 144.999C162.793 142.496 162.85 141.797 163.024 139.294C163.487 131.785 164.471 124.275 165.918 116.941C165.976 116.592 166.034 116.242 166.15 115.835C166.671 114.787 172.054 108.849 172.054 108.849C172.054 108.849 173.675 108.675 175.353 108.558C176.337 109.315 177.321 109.839 178.132 110.072Z" fill="#DA6077"/>
<path d="M178.826 110.305C177.437 110.305 176.048 109.839 174.948 108.675L175.701 108.558C176.569 109.373 177.611 109.723 178.826 109.723C178.826 109.723 178.826 109.723 178.884 109.723C179.926 109.723 180.737 109.432 181.2 108.733L181.836 108.908C181.373 109.781 180.042 110.246 178.826 110.305C178.826 110.246 178.826 110.305 178.826 110.305Z" fill="#FF8F8F"/>
<path d="M115.966 171.892L113.014 199.776L139.813 199.659L137.093 171.834L115.966 171.892Z" fill="#EF8273"/>
<path d="M126.153 165.547C127.311 165.547 128.237 165.955 128.989 166.77C130.899 168.924 130.494 173.115 130.494 173.289C130.494 173.522 130.321 173.697 130.089 173.639C129.858 173.639 129.742 173.406 129.742 173.173C129.742 173.115 130.089 169.215 128.468 167.294C127.832 166.595 127.021 166.246 125.979 166.304C124.88 166.362 124.011 166.77 123.375 167.585C121.812 169.564 122.101 173.115 122.101 173.173C122.101 173.406 121.986 173.581 121.754 173.639C121.58 173.639 121.349 173.522 121.349 173.289C121.349 173.115 121.002 169.331 122.796 167.119C123.548 166.129 124.648 165.606 125.922 165.547C125.979 165.547 126.095 165.547 126.153 165.547Z" fill="#F9A08F"/>
<path d="M126.732 180.1L124.648 199.776L143.634 199.717L141.666 180.042L126.732 180.1Z" fill="#F9A08F"/>
<path d="M133.967 175.618C134.778 175.618 135.472 175.909 135.993 176.491C137.325 178.005 137.035 180.973 137.035 181.09C137.035 181.264 136.919 181.381 136.746 181.323C136.63 181.323 136.514 181.148 136.514 181.032C136.514 181.032 136.746 178.237 135.588 176.899C135.125 176.433 134.546 176.142 133.794 176.2C133.041 176.258 132.405 176.549 131.941 177.131C130.842 178.528 131.073 181.032 131.073 181.09C131.073 181.264 130.957 181.381 130.842 181.381C130.726 181.381 130.552 181.264 130.552 181.148C130.552 181.032 130.321 178.354 131.536 176.782C132.115 176.084 132.81 175.734 133.794 175.676C133.852 175.618 133.909 175.618 133.967 175.618Z" fill="#EF8273"/>
<path d="M140.045 212.058C142.219 212.058 143.981 210.286 143.981 208.1C143.981 205.914 142.219 204.141 140.045 204.141C137.871 204.141 136.109 205.914 136.109 208.1C136.109 210.286 137.871 212.058 140.045 212.058Z" fill="#FFB1B1"/>
<path opacity="0.5" d="M140.045 209.904C141.036 209.904 141.839 209.096 141.839 208.1C141.839 207.103 141.036 206.295 140.045 206.295C139.054 206.295 138.25 207.103 138.25 208.1C138.25 209.096 139.054 209.904 140.045 209.904Z" fill="#FFB1B1"/>
<path d="M114.635 212.058C116.808 212.058 118.571 210.286 118.571 208.1C118.571 205.914 116.808 204.141 114.635 204.141C112.461 204.141 110.698 205.914 110.698 208.1C110.698 210.286 112.461 212.058 114.635 212.058Z" fill="#FFB1B1"/>
<path opacity="0.5" d="M114.634 209.904C115.625 209.904 116.429 209.096 116.429 208.1C116.429 207.103 115.625 206.295 114.634 206.295C113.643 206.295 112.84 207.103 112.84 208.1C112.84 209.096 113.643 209.904 114.634 209.904Z" fill="#FFB1B1"/>
<path d="M110.988 200.474L103 168.865C102.942 168.691 103 168.516 103.116 168.341C103.232 168.225 103.405 168.109 103.579 168.109H152.548L154.574 160.134C155.673 155.71 159.03 152.741 162.909 152.741H164.124C164.471 152.741 164.703 153.032 164.703 153.323C164.703 153.672 164.414 153.905 164.124 153.905H162.909C159.609 153.905 156.715 156.525 155.731 160.367L145.428 200.416C145.37 200.649 145.139 200.882 144.849 200.882H111.509C111.277 200.94 111.046 200.765 110.988 200.474ZM152.258 169.273H104.331L111.972 199.717H144.386L152.258 169.273Z" fill="white"/>
<path d="M105.547 177.19H150.811C151.158 177.19 151.39 176.898 151.39 176.607C151.39 176.316 151.101 176.025 150.811 176.025H105.547C105.2 176.025 104.968 176.316 104.968 176.607C104.968 176.898 105.257 177.19 105.547 177.19Z" fill="white"/>
<path d="M107.573 185.106H148.843C149.19 185.106 149.422 184.815 149.422 184.524C149.422 184.175 149.133 183.942 148.843 183.942H107.573C107.225 183.942 106.994 184.233 106.994 184.524C106.994 184.873 107.225 185.106 107.573 185.106Z" fill="white"/>
<path d="M109.599 193.023H146.586C146.933 193.023 147.164 192.732 147.164 192.441C147.164 192.092 146.875 191.859 146.586 191.859H109.599C109.251 191.859 109.02 192.15 109.02 192.441C109.02 192.79 109.309 193.023 109.599 193.023Z" fill="white"/>
<path d="M138.482 200.94C138.771 200.94 139.003 200.707 139.061 200.416L143.228 168.749C143.286 168.4 143.055 168.109 142.707 168.109C142.418 168.05 142.071 168.283 142.071 168.633L137.903 200.3C137.845 200.649 138.077 200.94 138.424 200.94C138.482 200.94 138.482 200.94 138.482 200.94Z" fill="white"/>
<path d="M130.842 200.94C131.131 200.94 131.42 200.707 131.42 200.416L133.504 168.749C133.504 168.4 133.273 168.167 132.983 168.109C132.636 168.109 132.404 168.341 132.346 168.633L130.263 200.3C130.263 200.649 130.494 200.94 130.842 200.94Z" fill="white"/>
<path d="M117.239 200.94H117.297C117.644 200.882 117.818 200.591 117.818 200.3L113.65 168.633C113.592 168.283 113.303 168.109 113.014 168.109C112.666 168.167 112.493 168.458 112.493 168.749L116.66 200.416C116.718 200.707 116.95 200.94 117.239 200.94Z" fill="white"/>
<path d="M124.069 200.94C124.417 200.94 124.648 200.649 124.648 200.3L122.564 168.633C122.564 168.283 122.275 168.05 121.928 168.109C121.58 168.109 121.349 168.4 121.407 168.749L123.491 200.416C123.491 200.707 123.78 200.94 124.069 200.94Z" fill="white"/>
<path d="M140.045 208.682C140.103 208.682 140.103 208.682 140.161 208.682C140.45 208.624 140.682 208.333 140.624 207.983L139.061 200.241C139.003 199.95 138.714 199.717 138.366 199.776C138.077 199.834 137.845 200.125 137.903 200.474L139.466 208.216C139.524 208.507 139.755 208.682 140.045 208.682Z" fill="white"/>
<path d="M114.634 208.682C114.866 208.682 115.097 208.507 115.213 208.274L117.818 200.532C117.934 200.241 117.76 199.892 117.471 199.776C117.181 199.659 116.834 199.834 116.718 200.125L114.113 207.867C113.998 208.158 114.171 208.507 114.461 208.624C114.519 208.682 114.576 208.682 114.634 208.682Z" fill="white"/>
<path d="M162.677 154.836H171.996C172.806 154.836 173.501 154.138 173.501 153.323C173.501 152.508 172.806 151.809 171.996 151.809H162.677V154.836Z" fill="#FFB1B1"/>
<path d="M164.761 149.597C164.761 149.597 164.298 151.751 164.529 152.741C164.645 153.206 164.992 154.196 165.398 154.545C165.745 154.836 166.439 155.71 167.597 155.418C168.697 155.127 171.186 155.826 168.523 151.926C168.234 151.46 166.15 148.666 166.15 148.666L164.529 144.999L161.751 146.221L164.761 149.597Z" fill="#F7D7CA"/>
<path d="M162.33 131.261C163.256 129.049 169.102 122.005 169.97 121.423C171.244 120.55 171.938 119.851 172.98 118.629C175.874 115.369 176.222 109.199 172.922 108.908C166.208 108.267 154.284 121.656 154.168 131.261C154.053 139.76 163.14 149.248 164.645 150.18C164.645 150.18 167.134 150.238 166.845 149.597C166.497 148.957 161.693 132.774 162.33 131.261Z" fill="#FF8F8F"/>
<path d="M285.504 102.737C287.877 99.943 291.061 100.059 293.26 101.34C296.097 103.028 296.849 106.172 295.865 109.432" fill="#FFEAE3"/>
<path d="M296.27 106.404C294.476 104.949 289.093 102.271 286.372 101.864C286.083 102.097 285.794 102.388 285.562 102.679L295.923 109.373C296.155 108.442 296.328 107.394 296.27 106.404Z" fill="#F9A08F"/>
<path d="M296.386 107.86C295.981 107.452 295.576 107.103 295.113 106.696C292.971 104.891 290.482 103.494 287.877 102.33C285.446 101.224 283.768 100.351 281.163 100.176C279.658 100.059 277.111 100.292 276.301 101.922C275.432 103.727 276.243 106.055 277.516 107.278C278.963 108.733 280.989 110.246 282.726 111.294C286.893 113.914 292.045 117.406 299.049 117.406C299.801 117.406 300.264 116.475 300.38 115.718C300.496 114.962 300.322 114.205 300.033 113.506C299.338 111.352 298.007 109.432 296.386 107.86Z" fill="#FFEAE3"/>
<path d="M299.685 119.793C300.148 121.365 300.091 123.111 299.338 124.625C298.296 126.604 296.155 127.943 293.955 128.059C292.566 128.117 291.64 127.535 290.424 127.011C289.209 126.487 288.109 125.964 287.183 125.09C286.893 124.799 286.546 124.508 286.141 124.334C285.678 124.217 285.157 124.334 284.694 124.392C281.279 124.741 280.237 123.46 279.253 120.433C278.269 117.29 278.848 113.856 280.237 110.945C281.452 108.442 283.247 105.59 285.215 104.309C287.819 103.785 291.698 106.463 294.071 108.849C294.418 110.072 294.592 111.352 294.997 112.575C295.749 114.962 297.659 116.126 298.933 118.105C299.222 118.571 299.512 119.211 299.685 119.793Z" fill="#07361B"/>
<path d="M290.598 150.878C290.598 151.402 288.167 172.067 289.151 181.439C289.845 188.191 288.167 199.368 287.993 204.025C287.646 204.84 285.909 204.2 285.909 204.2C285.909 204.2 281.336 180.74 279.658 171.019C278.269 163.044 277.516 148.666 280.468 139.643" fill="#F7D7CA"/>
<path d="M289.151 181.381C288.861 178.645 288.861 174.919 289.035 171.019C287.472 172.416 285.967 173.93 284.694 175.618C284.115 176.375 283.536 177.248 283.536 178.179C283.478 179.751 284.404 179.576 285.446 180.74C287.472 183.069 288.456 184.99 288.977 192.266C289.324 188.424 289.498 184.466 289.151 181.381Z" fill="#F6D0C0"/>
<path d="M288.456 204.549C288.456 204.549 288.861 205.306 288.861 205.655C288.803 206.586 288.745 207.285 288.745 207.285H288.225L288.051 206.528C288.051 206.528 286.72 206.703 285.388 207.459C284.752 207.809 281.8 207.751 281.279 207.518C280.7 207.285 280.873 206.819 281.105 206.644C281.279 206.47 284.578 205.189 284.578 205.189" fill="#062F18"/>
<path d="M286.43 203.094C286.141 203.676 282.147 206.004 282.436 206.179C282.668 206.353 283.999 206.412 285.793 205.888C287.414 205.422 288.398 204.956 288.456 204.549L287.877 202.861" fill="#F7D7CA"/>
<path d="M322.26 190.753C322.26 190.753 323.128 190.986 323.359 191.277C323.996 192.033 324.401 192.499 324.401 192.499L324.054 192.848L323.417 192.383C323.417 192.383 322.607 193.431 322.202 194.944C321.97 195.643 319.886 197.738 319.366 197.913C318.787 198.146 318.613 197.68 318.613 197.447C318.613 197.156 320.002 193.954 320.002 193.954" fill="#062F18"/>
<path d="M296.849 148.782C297.023 149.248 300.496 168.283 306.11 173.173C311.262 177.597 318.439 187.318 321.623 190.695C321.97 191.51 320.292 192.266 320.292 192.266C320.292 192.266 298.991 180.74 292.45 173.406C287.067 167.41 283.015 150.82 282.957 141.331" fill="#F7D7CA"/>
<path d="M306.052 173.173C305.763 172.94 305.474 172.591 305.184 172.3C303.332 173.58 301.711 175.094 300.264 176.84C302.753 177.073 305.416 176.258 307.789 177.015C308.657 177.306 309.468 177.772 310.278 178.237C310.799 178.587 311.32 178.878 311.841 179.227C309.873 176.84 307.847 174.686 306.052 173.173Z" fill="#F7D0C0"/>
<path d="M319.886 191.16C320.06 191.801 318.96 196.225 319.25 196.166C319.539 196.108 320.523 195.177 321.449 193.547C322.317 192.033 322.607 191.044 322.375 190.753L320.813 189.938" fill="#F7D7CA"/>
<path d="M280.526 136.266C275.433 142.553 276.185 163.101 276.474 178.469C281.452 180.623 289.035 181.613 294.939 180.565C300.843 179.517 304.084 177.13 308.715 173.347C305.126 152.623 301.827 141.68 291.003 136.208" fill="#CC3E56"/>
<path d="M291.061 136.267L284.115 136.034L282.436 138.246C289.787 140.749 294.418 143.602 298.586 149.132C302.522 154.371 304.837 162.404 307.905 168.749C304.605 151.053 301.017 141.331 291.061 136.267Z" fill="#AE263E"/>
<path d="M312.014 139.294L322.028 131.552L331 147.444L320.986 158.737L314.561 158.62L312.014 139.294Z" fill="#F9A08F"/>
<path d="M316.24 127.535C319.018 128.525 320.871 134.346 320.871 134.346" stroke="#062F18" stroke-miterlimit="10" stroke-linecap="round" stroke-linejoin="round"/>
<path d="M303.564 131.727C303.564 131.727 307.21 133.415 309.815 133.124C316.008 132.425 323.359 128.991 323.359 128.991L322.202 127.652C322.202 127.652 309.873 128.525 308.599 128.234C307.558 127.943 301.885 124.043 301.885 124.043" fill="#F7D7CA"/>
<path d="M321.392 128.059C322.433 127.07 323.649 126.255 324.98 125.614C325.096 125.556 325.328 125.498 325.386 125.614C325.443 125.731 325.038 126.022 324.807 126.255C325.675 125.905 327.469 125.381 327.527 125.614C327.527 125.847 325.964 126.313 325.212 126.662C326.138 126.429 327.932 125.905 327.99 126.196C328.048 126.546 326.254 126.837 325.386 127.186C326.254 127.07 327.932 126.895 328.048 127.07C328.164 127.244 327.701 127.302 327.585 127.361C326.89 127.535 326.312 127.594 325.617 127.768C326.37 127.71 327.874 127.826 327.817 128.117C327.759 128.408 326.196 128.117 324.691 128.932C324.17 129.165 323.649 129.398 323.128 129.456C322.607 129.456 322.086 129.282 321.739 128.874" fill="#FC6360"/>
<path d="M324.691 126.546C324.401 126.72 324.286 127.011 324.112 127.302C323.88 127.826 323.649 128.292 323.07 128.467C323.012 128.467 323.012 128.583 323.07 128.525C324.17 128.35 324.054 127.244 324.691 126.546C324.749 126.546 324.691 126.487 324.691 126.546Z" fill="#CE4545"/>
<path d="M316.24 127.535C311.146 126.371 313.23 136.267 314.909 139.003" stroke="#062F18" stroke-miterlimit="10" stroke-linecap="round" stroke-linejoin="round"/>
<path d="M314.561 158.62L312.014 139.294L320.986 158.737L314.561 158.62Z" fill="#EF8273"/>
<path d="M278.674 125.323C267.271 130.912 260.441 129.456 252.279 125.032L251.469 123.752C251.469 123.752 263.046 124.916 267.271 123.286C271.033 121.831 276.416 119.91 280.41 118.454" fill="#F7D7CA"/>
<path d="M251.122 124.916C250.775 125.265 250.312 125.149 250.196 125.09C249.848 124.974 249.675 124.799 249.385 124.566C249.327 124.683 249.154 124.741 249.038 124.741C248.864 124.741 248.691 124.741 248.517 124.741C248.401 124.741 248.286 124.683 248.17 124.566C248.112 124.508 247.707 124.159 248.054 124.043C247.996 123.926 247.938 123.81 247.938 123.693C247.938 123.577 248.054 123.46 248.17 123.46C248.054 123.402 247.996 123.344 248.054 123.228C248.054 123.111 248.112 122.937 248.459 122.878C248.286 122.82 247.938 122.762 247.765 122.82C247.649 122.878 246.896 122.937 246.781 122.762C246.665 122.587 247.359 122.413 247.765 122.296C248.112 122.18 248.691 122.18 249.212 122.354C249.096 122.18 248.633 122.063 248.691 121.714C248.691 121.365 249.733 121.889 250.138 122.18C250.775 122.646 251.585 123.46 251.585 123.46L256.621 123.926C256.621 123.926 260.904 128.292 260.788 128.234C257.952 128.059 251.122 124.916 251.122 124.916Z" fill="#F7D7CA"/>
<path d="M268.66 122.704C268.66 122.704 268.313 124.45 268.892 126.022C269.528 127.593 270.455 128.583 270.455 128.583C270.455 128.583 279.542 125.556 280.179 125.556C282.494 124.159 286.604 118.105 285.157 117.756C279.947 116.126 273.117 120.841 268.66 122.704Z" fill="#FEB0A5"/>
<path d="M307.326 127.535C307.326 127.535 302.348 123.926 297.66 121.19C295.518 119.91 292.392 119.269 292.392 119.269L291.871 128.35C291.871 128.35 293.318 130.562 295.402 129.514C297.023 128.7 298.123 130.038 304.953 132.425C305.3 129.806 307.326 127.535 307.326 127.535Z" fill="#624CD5"/>
<path d="M296.212 125.207C295.807 123.693 294.997 122.354 293.897 121.248C293.26 120.608 293.26 119.502 292.45 119.269C291.582 118.978 289.961 119.56 289.093 119.56C287.819 119.56 286.488 119.444 285.215 119.327C284.52 119.269 283.883 119.153 283.189 119.327C281.742 119.735 279.89 121.481 279.137 122.704C278.211 124.217 277.401 126.022 277.922 127.826C278.327 129.223 279.253 130.213 279.253 131.668C279.253 132.716 279.6 135.277 278.79 136.092C277.516 137.373 279.369 138.246 282.321 138.77C283.883 139.061 286.315 139.119 287.819 138.886C288.919 138.712 291.177 138.479 291.987 137.606C292.161 137.373 292.45 137.14 292.45 136.849C292.508 132.774 293.608 129.049 295.865 126.429" fill="#FEB0A5"/>
<path d="M285.388 125.556C283.247 129.34 283.073 134.521 283.594 138.77C283.594 138.886 283.768 138.886 283.768 138.77C283.825 134.346 283.478 129.747 285.504 125.614C285.504 125.556 285.446 125.498 285.388 125.556Z" fill="#FC6360"/>
<path d="M286.083 127.477C286.43 127.477 286.43 126.895 286.083 126.895C285.736 126.895 285.736 127.477 286.083 127.477Z" fill="#F58A86"/>
<path d="M285.157 131.552C285.504 131.552 285.504 130.97 285.157 130.97C284.81 130.97 284.81 131.552 285.157 131.552Z" fill="#F58A86"/>
<path d="M284.925 136.558C285.272 136.558 285.272 135.976 284.925 135.976C284.52 135.976 284.52 136.558 284.925 136.558Z" fill="#F58A86"/>
<path d="M307.326 127.535C307.326 127.535 302.348 123.926 297.66 121.19C295.518 119.91 292.392 119.269 292.392 119.269C291.524 120.142 291.466 121.248 291.35 122.413C291.177 124.043 291.003 125.614 290.54 127.186C290.308 127.885 290.193 128.525 289.73 129.107C289.267 129.747 288.746 130.271 288.109 130.737C287.762 131.028 287.299 131.319 287.299 131.785C287.299 132.134 287.646 132.425 287.877 132.716C288.572 133.531 288.804 134.637 288.746 135.743C288.688 136.849 288.225 137.781 287.993 138.828C290.772 138.421 291.813 137.955 292.276 137.489C292.913 136.849 292.624 136.151 292.74 135.86C293.781 132.716 294.071 131.552 295.692 129.398C297.197 128.874 298.528 130.213 304.895 132.425C305.3 129.806 307.326 127.535 307.326 127.535Z" fill="#EF8273"/>
<path d="M293.897 130.504C294.187 130.271 294.476 130.097 294.823 129.922C295.171 129.747 295.518 129.631 295.807 129.456C295.923 129.398 295.807 129.282 295.75 129.282C295.055 129.398 294.36 129.922 293.839 130.388C293.782 130.446 293.839 130.562 293.897 130.504Z" fill="#1C1459"/>
<path d="M285.272 106.87C283.999 108.5 280.931 113.448 284.346 114.554C285.562 114.962 287.183 114.554 288.224 113.856C289.787 112.749 291.871 110.596 291.061 108.558C290.829 107.918 290.25 107.452 289.845 106.928C289.44 106.404 289.093 105.822 288.514 105.589C287.704 105.182 286.662 105.589 286.083 106.288" fill="#F7D7CA"/>
<path d="M286.662 114.321C286.662 114.321 286.141 117.523 285.909 117.697C285.678 117.93 283.941 117.581 283.941 117.581C283.941 117.581 283.941 122.354 285.388 125.614C288.167 121.539 292.334 119.269 292.334 119.269C292.334 119.269 290.424 118.687 290.192 118.163C289.903 117.581 288.977 110.77 288.977 110.77" fill="#F7D7CA"/>
<path d="M287.414 110.305C287.298 110.421 287.241 110.537 287.125 110.654C286.893 110.887 287.298 111.236 287.53 110.945C287.646 110.77 287.704 110.654 287.761 110.479C287.761 110.246 287.53 110.188 287.414 110.305Z" fill="#1E1240"/>
<path d="M284.867 108.5C284.752 108.616 284.694 108.733 284.578 108.849C284.346 109.082 284.752 109.431 284.983 109.14C285.099 108.966 285.157 108.849 285.215 108.675C285.157 108.5 284.983 108.442 284.867 108.5Z" fill="#1E1240"/>
<path d="M288.456 109.315C288.977 109.606 289.035 110.246 289.035 110.246C289.035 110.246 288.514 109.606 287.877 109.257C288.109 109.14 288.282 109.257 288.456 109.315Z" fill="#1E1240"/>
<path d="M285.793 107.452C285.909 107.51 286.025 107.685 285.967 107.918C285.562 107.51 285.041 107.336 285.041 107.336C285.041 107.336 285.388 107.219 285.793 107.452Z" fill="#1E1240"/>
<path d="M283.594 111.993C283.768 112.051 283.71 112.284 284.115 112.517C284.636 112.808 284.752 112.633 284.809 112.749C284.867 112.866 284.404 113.623 283.767 113.273C282.957 112.866 283.536 111.935 283.594 111.993Z" fill="white"/>
<path d="M286.488 112.808C286.872 112.808 287.183 112.495 287.183 112.109C287.183 111.723 286.872 111.411 286.488 111.411C286.104 111.411 285.793 111.723 285.793 112.109C285.793 112.495 286.104 112.808 286.488 112.808Z" fill="#FEB0A5"/>
<path d="M284.057 110.945C284.441 110.945 284.752 110.632 284.752 110.246C284.752 109.861 284.441 109.548 284.057 109.548C283.673 109.548 283.362 109.861 283.362 110.246C283.362 110.632 283.673 110.945 284.057 110.945Z" fill="#FEB0A5"/>
<path d="M285.272 109.664C284.867 109.897 284.52 110.188 284.231 110.537C284.057 110.712 283.941 110.887 284.057 111.12C284.23 111.469 284.809 111.585 285.157 111.527C285.214 111.527 285.214 111.469 285.214 111.411C284.983 111.236 284.694 111.294 284.462 111.12C284.288 111.003 284.288 111.003 284.404 110.77C284.462 110.654 284.636 110.537 284.694 110.421C284.925 110.188 285.157 109.955 285.388 109.723C285.33 109.664 285.33 109.606 285.272 109.664Z" fill="#F98A8A"/>
<path d="M292.161 108.442C291.466 107.161 290.251 106.23 288.977 105.531L287.298 105.24C286.083 105.298 285.099 105.24 284.231 106.113C283.999 106.346 283.826 106.579 283.71 106.812C283.362 107.51 283.478 108.384 283.652 109.14C283.826 108.325 284.462 107.627 285.273 107.394C285.446 107.336 285.678 107.336 285.851 107.278C286.199 106.987 286.546 106.754 286.951 106.521C286.72 106.754 286.488 106.987 286.314 107.278C286.778 107.336 287.241 107.569 287.588 107.918C287.819 108.093 287.993 108.325 288.167 108.5C288.514 108.209 288.861 107.976 289.209 107.743C288.977 108.093 288.688 108.442 288.514 108.849C289.093 109.431 289.498 110.188 289.73 110.945C289.845 111.411 289.961 111.935 290.193 112.342C290.424 112.75 290.945 113.099 291.408 112.924C291.582 112.866 291.755 112.691 291.929 112.517C292.913 111.411 292.855 109.723 292.161 108.442Z" fill="#07361B"/>
<path d="M262.351 186.795L260.209 206.47L279.195 206.412L277.285 186.736L262.351 186.795Z" fill="#F9A08F"/>
<path d="M269.529 182.312C270.339 182.312 271.034 182.603 271.555 183.185C272.886 184.699 272.596 187.668 272.596 187.784C272.596 187.959 272.481 188.075 272.307 188.017C272.191 188.017 272.076 187.842 272.076 187.726C272.076 187.726 272.307 184.932 271.149 183.593C270.686 183.127 270.107 182.836 269.355 182.894C268.603 182.953 267.966 183.244 267.503 183.826C266.403 185.223 266.635 187.726 266.635 187.784C266.635 187.959 266.519 188.075 266.403 188.075C266.287 188.075 266.114 187.959 266.114 187.842C266.114 187.726 265.882 185.048 267.098 183.476C267.676 182.778 268.371 182.429 269.355 182.37C269.413 182.312 269.471 182.312 269.529 182.312Z" fill="#EF8273"/>
</g>
<defs>
<linearGradient id="paint0_linear_1_3022" x1="3.85285" y1="49.6433" x2="498.836" y2="-22.396" gradientUnits="userSpaceOnUse">
<stop stop-color="#9D6AFA"/>
<stop offset="1" stop-color="#4A059E"/>
</linearGradient>
<linearGradient id="paint1_linear_1_3022" x1="87" y1="37.0006" x2="139" y2="37.0006" gradientUnits="userSpaceOnUse">
<stop stop-color="#9D6AFA"/>
<stop offset="1" stop-color="#4A059E"/>
</linearGradient>
<linearGradient id="paint2_linear_1_3022" x1="346" y1="272" x2="346" y2="302" gradientUnits="userSpaceOnUse">
<stop stop-color="#27AE60"/>
<stop offset="1" stop-color="#6FCF97"/>
</linearGradient>
<linearGradient id="paint3_linear_1_3022" x1="25" y1="185" x2="25" y2="207" gradientUnits="userSpaceOnUse">
<stop stop-color="#219653"/>
<stop offset="1" stop-color="#6FCF97"/>
</linearGradient>
<linearGradient id="paint4_linear_1_3022" x1="302.501" y1="314" x2="302.501" y2="328" gradientUnits="userSpaceOnUse">
<stop stop-color="#219653"/>
<stop offset="1" stop-color="#27AE60"/>
</linearGradient>
<linearGradient id="paint5_linear_1_3022" x1="302" y1="320.999" x2="302" y2="321.999" gradientUnits="userSpaceOnUse">
<stop stop-color="#219653"/>
<stop offset="1" stop-color="#27AE60"/>
</linearGradient>
<clipPath id="clip0_1_3022">
<rect width="228" height="179" fill="white" transform="translate(103 33)"/>
</clipPath>
</defs>
</svg>
