<?xml version="1.0" encoding="utf-8"?>
<!-- Generator: Adobe Illustrator 24.3.0, SVG Export Plug-In . SVG Version: 6.00 Build 0)  -->
<svg version="1.1" id="Layer_1" xmlns="http://www.w3.org/2000/svg" xmlns:xlink="http://www.w3.org/1999/xlink" x="0px" y="0px"
	 viewBox="0 0 20 17" style="enable-background:new 0 0 20 17;" xml:space="preserve">
<style type="text/css">
	.st0{clip-path:url(#SVGID_2_);}
	.st1{fill:#FFFFFF;}
</style>
<g>
	<defs>
		<rect id="SVGID_1_" x="0.6" y="0.5" width="18.9" height="16"/>
	</defs>
	<clipPath id="SVGID_2_">
		<use xlink:href="#SVGID_1_"  style="overflow:visible;"/>
	</clipPath>
	<g class="st0">
		<path class="st1" d="M6.9,16.5c-1.2,0-2.1-1-2.1-2.1s1-2.1,2.1-2.1c1.2,0,2.1,1,2.1,2.1C9.1,15.5,8.1,16.5,6.9,16.5z"/>
		<path class="st1" d="M16.5,16.5c-1.2,0-2.1-1-2.1-2.1s1-2.1,2.1-2.1s2.1,1,2.1,2.1C18.6,15.5,17.7,16.5,16.5,16.5z"/>
		<path class="st1" d="M16.5,14.7H7.4c-0.3,0-0.5-0.1-0.6-0.3c-0.2-0.2-0.2-0.5-0.1-0.7l1.2-3c0.1-0.2,0.3-0.3,0.4-0.2
			c0.2,0.1,0.2,0.3,0.2,0.4l-1.2,3c0,0,0,0.1,0,0.1c0,0,0.1,0.1,0.1,0.1h9.1c0.2,0,0.3,0.1,0.3,0.3C16.8,14.5,16.7,14.7,16.5,14.7z"
			/>
		<path class="st1" d="M19.3,2.7c-0.2-0.2-0.4-0.3-0.6-0.3L5,2.4L4.3,0.9C4.3,0.8,4.1,0.7,4,0.7H1C0.8,0.7,0.6,0.8,0.6,1
			c0,0.2,0.1,0.3,0.3,0.3h2.8l4,9.2c0.1,0.3,0.4,0.5,0.7,0.5h7.9c0.4,0,0.7-0.2,0.8-0.6l2.2-7.1C19.5,3.2,19.4,2.9,19.3,2.7z
			 M15.7,9.2H9C8.8,9.2,8.7,9,8.7,8.8c0-0.2,0.1-0.3,0.3-0.3h6.7c0.2,0,0.3,0.1,0.3,0.3C16.1,9,15.9,9.2,15.7,9.2z M16.3,7.1H8.5
			c-0.2,0-0.3-0.1-0.3-0.3c0-0.2,0.1-0.3,0.3-0.3h7.9c0.2,0,0.3,0.1,0.3,0.3C16.6,6.9,16.5,7.1,16.3,7.1z M16.8,5H8
			C7.8,5,7.7,4.9,7.7,4.7c0-0.2,0.1-0.3,0.3-0.3h8.8c0.2,0,0.3,0.1,0.3,0.3C17.1,4.8,17,5,16.8,5z"/>
		<path class="st1" d="M1.6,1c0,0.3-0.2,0.5-0.5,0.5C0.8,1.6,0.6,1.3,0.6,1c0-0.3,0.2-0.5,0.5-0.5C1.4,0.5,1.6,0.8,1.6,1z"/>
	</g>
</g>
</svg>
