<svg width="24" height="24" viewBox="0 0 24 24" fill="none" xmlns="http://www.w3.org/2000/svg">
<path d="M21.75 12.4584C21.7537 13.8882 21.4197 15.2987 20.775 16.575C20.0106 18.1044 18.8356 19.3908 17.3814 20.2901C15.9272 21.1894 14.2514 21.666 12.5417 21.6667C11.1118 21.6704 9.70129 21.3364 8.425 20.6917L2.25 22.75L4.30833 16.575C3.66368 15.2987 3.32961 13.8882 3.33333 12.4584C3.33399 10.7486 3.81066 9.07279 4.70995 7.61863C5.60923 6.16447 6.89561 4.9894 8.425 4.22503C9.70129 3.58037 11.1118 3.2463 12.5417 3.25003H13.0833C15.3414 3.37461 17.4741 4.32769 19.0732 5.92679C20.6723 7.5259 21.6254 9.65865 21.75 11.9167V12.4584Z" stroke="#CCCCD0" stroke-width="2" stroke-linecap="round" stroke-linejoin="round"/>
</svg>
