<svg width="33" height="32" viewBox="0 0 33 32" fill="none" xmlns="http://www.w3.org/2000/svg">
<g clip-path="url(#clip0_1877:352)">
<path d="M16.035 2.46398C16.0223 2.42241 16.0223 2.40629 16.0138 2.39865C15.3377 1.72593 14.6564 1.05744 13.8539 0.530623C13.3661 0.209953 12.8444 0.00126323 12.2463 0.00211157C9.82519 0.00635323 7.40404 0.00126323 4.98205 0.00211157C4.31611 0.00211157 3.66459 0.103912 3.05464 0.381317C1.22308 1.21438 0.172845 2.62516 0.0354152 4.64504C-0.0290582 5.58754 0.0142068 6.53852 0.0142068 7.48526C0.0116618 12.107 0.0108135 16.7296 0.0116618 21.3521C0.0116618 21.7992 -0.00445651 22.2488 0.0422019 22.6916C0.306882 25.1713 2.42856 27.0707 4.92012 27.0758C6.08064 27.0784 7.24116 27.0767 8.40253 27.0758C8.47294 27.0758 8.54336 27.069 8.62989 27.0648C8.62989 26.9783 8.62989 26.913 8.62989 26.8468C8.62989 26.1664 8.62479 25.4861 8.63498 24.8057C8.63752 24.642 8.58407 24.6038 8.43053 24.6055C7.53638 24.6123 6.64309 24.6131 5.74894 24.6097C5.34259 24.608 4.9286 24.6386 4.53158 24.5724C3.30065 24.3663 2.47692 23.3618 2.47607 22.1131C2.47438 16.4165 2.47438 10.7208 2.47438 5.02425C2.47438 3.52355 3.5297 2.46482 5.02786 2.46398C7.51602 2.46313 10.0042 2.46143 12.4923 2.47246C12.6663 2.47331 12.8385 2.5802 13.0132 2.63025C13.1074 2.6574 13.2134 2.70066 13.3008 2.67945C13.8666 2.54287 14.435 2.44616 15.0204 2.46228C15.3512 2.47076 15.6838 2.46398 16.035 2.46398Z" fill="white"/>
<path d="M9.8599 17.8303C9.8599 14.7619 9.86075 11.6943 9.8599 8.62587C9.85905 5.92478 12.0096 3.72505 14.7149 3.70214C17.1895 3.68093 19.6641 3.70045 22.1395 3.69536C22.8615 3.69366 23.4477 4.02281 23.9991 4.43426C24.911 5.11547 25.689 5.94344 26.4915 6.74342C27.5689 7.81656 28.6598 8.87613 29.7347 9.95182C30.3667 10.5838 30.9843 11.2303 31.4771 11.9827C31.8334 12.5257 32.0184 13.1102 32.0167 13.7693C32.0074 18.1917 32.0133 22.614 32.0116 27.0364C32.0107 29.4134 30.3786 31.4172 28.0482 31.8974C27.7436 31.9601 27.4272 31.9932 27.1159 31.9941C23.0065 32.0009 18.8972 32.0017 14.7887 31.9983C12.2844 31.9958 10.1738 30.1193 9.89044 27.6345C9.84124 27.1993 9.8616 26.7556 9.8616 26.3153C9.8599 23.9145 9.86244 21.5129 9.86329 19.1121C9.86329 18.6854 9.86329 18.2587 9.86329 17.8311C9.8616 17.8303 9.86075 17.8303 9.8599 17.8303ZM12.3192 17.8439H12.3201C12.3201 20.8987 12.3192 23.9536 12.3201 27.0084C12.3201 28.4574 13.3779 29.5195 14.8277 29.5271C15.4682 29.5305 16.1087 29.528 16.7492 29.528C20.1841 29.5288 23.6199 29.5288 27.0548 29.5305C27.434 29.5305 27.8013 29.4669 28.139 29.2955C29.0781 28.8171 29.5429 28.0434 29.5438 26.9915C29.5446 23.6363 29.5446 20.2811 29.5438 16.9268C29.5438 15.7731 29.5472 14.6194 29.5362 13.4656C29.5319 12.9524 29.2842 12.608 28.7905 12.479C28.4265 12.384 28.0439 12.3272 27.6681 12.3187C26.6544 12.2966 25.6406 12.3127 24.6268 12.3068C24.1976 12.3042 23.8557 12.1202 23.6097 11.7673C23.4519 11.5407 23.3968 11.2862 23.3959 11.0114C23.39 9.86444 23.3934 8.71664 23.3569 7.57054C23.3467 7.25496 23.2441 6.92751 23.1202 6.63314C22.9921 6.32943 22.7249 6.15213 22.3745 6.15213C19.8601 6.15128 17.3447 6.15043 14.8303 6.15043C13.4102 6.15043 12.3201 7.24224 12.3201 8.65981C12.3192 11.7206 12.3192 14.7822 12.3192 17.8439Z" fill="#0067AC"/>
<path d="M16.0346 2.46244C15.6834 2.46244 15.3508 2.47008 15.0191 2.46075C14.4338 2.44463 13.8654 2.54219 13.2996 2.67792C13.2122 2.69913 13.1061 2.65502 13.012 2.62872C12.8372 2.57867 12.665 2.47178 12.4911 2.47093C10.0029 2.4599 7.51478 2.4616 5.02662 2.46244C3.52846 2.46329 2.47313 3.52201 2.47313 5.02272C2.47313 10.7193 2.47313 16.415 2.47483 22.1116C2.47568 23.3603 3.29941 24.3656 4.53034 24.5709C4.92736 24.637 5.34135 24.6065 5.7477 24.6082C6.64185 24.6116 7.53514 24.6107 8.42929 24.604C8.58283 24.6031 8.63628 24.6413 8.63373 24.8042C8.6244 25.4845 8.62949 26.1649 8.62864 26.8453C8.62864 26.9106 8.62864 26.9767 8.62864 27.0633C8.54211 27.0675 8.4717 27.0743 8.40129 27.0743C7.24077 27.0752 6.08025 27.0769 4.91888 27.0743C2.42732 27.0684 0.305641 25.1689 0.0409606 22.6901C-0.00654609 22.2473 0.0104206 21.7977 0.0104206 21.3506C0.00957225 16.728 0.0104206 12.1063 0.0129656 7.48373C0.0138139 6.53699 -0.0302994 5.58601 0.0341739 4.64351C0.172452 2.62448 1.22184 1.2137 3.05424 0.378936C3.66504 0.101531 4.31571 -0.000268806 4.98251 -0.000268806C7.40365 -0.00111714 9.82479 0.00397286 12.2468 -0.000268806C12.8449 -0.00111714 13.3666 0.207573 13.8544 0.528243C14.6569 1.05506 15.3381 1.72355 16.0142 2.39627C16.0219 2.40476 16.0219 2.42003 16.0346 2.46244Z" fill="#0067AC"/>
<path d="M22.4095 17.5563C21.8174 17.2398 21.2253 17.1202 20.5551 17.2763C20.6136 17.2084 20.6484 17.1643 20.6874 17.1245C21.1243 16.6748 21.5553 16.2193 22.0006 15.7781C22.9703 14.8195 24.4735 14.6049 25.595 15.2556C26.9642 16.0496 27.4113 17.7565 26.5986 19.1469C26.4391 19.42 26.2406 19.6805 26.0184 19.907C25.0843 20.8597 24.1368 21.7979 23.1917 22.7396C22.1678 23.7584 20.6272 23.9476 19.448 23.1943C19.2868 23.0908 19.1358 22.9644 19.0018 22.827C18.7184 22.5377 18.7184 22.0847 18.9848 21.7937C19.2537 21.5002 19.7305 21.4281 20.0105 21.7139C20.5933 22.3095 21.5383 22.2034 22.1584 21.5858C23.0942 20.6535 24.0409 19.7331 24.9732 18.7974C25.366 18.4029 25.5687 17.921 25.4245 17.3586C25.2158 16.545 24.3378 16.1472 23.565 16.5366C23.2825 16.6791 23.05 16.9285 22.8066 17.1414C22.6623 17.267 22.5402 17.418 22.4095 17.5563Z" fill="#0067AC"/>
<path d="M19.2642 24.4744C19.8538 24.7985 20.4527 24.9121 21.1424 24.751C20.8718 25.0301 20.6343 25.2786 20.3942 25.5229C20.0209 25.9021 19.6663 26.2983 19.1921 26.5689C17.4556 27.5598 15.2864 26.6156 14.908 24.6721C14.7087 23.6481 15.0582 22.7514 15.7674 22.0193C16.6912 21.0666 17.6422 20.1394 18.6034 19.2241C19.6087 18.2663 21.0839 18.1127 22.1995 18.8219C22.3615 18.9246 22.5125 19.0501 22.6508 19.1833C22.9553 19.4786 22.9689 19.9188 22.6966 20.2276C22.4234 20.5373 21.9076 20.606 21.6158 20.315C20.9838 19.6822 20.0651 19.9061 19.5544 20.4143C18.6755 21.2897 17.7856 22.1542 16.9059 23.0288C16.5207 23.4123 16.3137 23.878 16.4283 24.4243C16.6157 25.3185 17.6015 25.7333 18.4074 25.254C18.6432 25.114 18.8358 24.8994 19.0428 24.7136C19.1226 24.6432 19.1879 24.5584 19.2642 24.4744Z" fill="#0067AC"/>
</g>
<defs>
<clipPath id="clip0_1877:352">
<rect width="32.017" height="32" fill="white"/>
</clipPath>
</defs>
</svg>
