<?xml version="1.0" encoding="utf-8"?>
<!-- Generator: Adobe Illustrator 24.3.0, SVG Export Plug-In . SVG Version: 6.00 Build 0)  -->
<svg version="1.1" id="Layer_1" xmlns="http://www.w3.org/2000/svg" xmlns:xlink="http://www.w3.org/1999/xlink" x="0px" y="0px"
	 viewBox="0 0 40 34" style="enable-background:new 0 0 40 34;" xml:space="preserve">
<style type="text/css">
	.st0{fill:#FFFFFF;}
</style>
<g>
	<path class="st0" d="M34.7,17.7c-3.4,0-6.7,0-10.1,0c0,0.1,0,0.2,0,0.3c0,4.9,0,9.8,0,14.8c0,0.7,0,0.7-0.7,0.7
		c-6.7,0-13.5,0-20.2,0c0,0-0.1,0-0.1,0c-0.5,0-0.5-0.1-0.5-0.5c0-0.5,0-1,0-1.5c0-5.2,0-10.4,0-15.5c0-0.5,0-0.5,0.6-0.5
		c1.6,0.1,2.9-0.5,4-1.7c0.3-0.3,0.4-0.3,0.7,0c1,1.1,2.2,1.7,3.7,1.7c1.5,0,2.8-0.6,3.7-1.8c0.3-0.3,0.4-0.3,0.6,0
		c1.8,2.2,5.2,2.4,7.2,0.3c0.1-0.1,0.2-0.2,0.3-0.3c0.2-0.2,0.3-0.2,0.5,0c0.3,0.3,0.6,0.6,0.9,0.9c1.9,1.4,4.5,1.2,6.2-0.5
		c0.1-0.1,0.2-0.3,0.4-0.4c0.2-0.2,0.4-0.2,0.6,0c0.8,1,1.9,1.6,3.2,1.7c0.3,0,0.7,0,1,0c0.3,0,0.4,0.1,0.4,0.4c0,0.6,0,1.1,0,1.7
		c0,5.1,0,10.3,0,15.4c0,0.5,0,0.6-0.6,0.6c-0.4,0-0.8,0-1.1,0c-0.4,0-0.5-0.1-0.5-0.5c0-2.1,0-4.2,0-6.3c0-2.9,0-5.8,0-8.7
		C34.7,17.9,34.7,17.8,34.7,17.7z M5.3,29.5c0.1,0,0.2,0,0.3,0c5.5,0,11,0,16.6,0c0.2,0,0.3-0.1,0.3-0.3c0-3.8,0-7.5,0-11.3
		c0-0.2,0-0.3-0.2-0.3c-5.5,0-11,0-16.5,0c-0.1,0-0.2,0-0.3,0C5.3,21.6,5.3,25.6,5.3,29.5z M22.6,17.6c0,0.4,0,0.7,0,1
		c0,3.6,0,7.3,0,10.9c0,0.2-0.1,0.3-0.3,0.3c-2.6,0-5.2,0-7.8,0c-3,0-6,0-9,0c-0.1,0-0.2,0-0.3,0c0.1,0.2,0.2,0.3,0.4,0.3
		c5.7,0,11.4,0,17,0c0.1,0,0.2,0,0.3,0c0-0.1,0-0.2,0-0.4c0-3.9,0-7.7,0-11.6C23,17.9,22.9,17.7,22.6,17.6z M3.6,33.2
		c0-0.6,0-1.2,0-1.9c0-3.2,0-6.3,0-9.5c0-1.8,0-3.7,0-5.6c0-0.3,0-0.3,0.3-0.3c0.6,0,1.2-0.1,1.8-0.2c1-0.3,1.8-0.9,2.5-1.7
		c-0.1-0.1-0.2-0.2-0.3-0.3c-1.2,1.5-2.7,2.1-4.6,2c0,0.1,0,0.2,0,0.2c0,2,0,4.1,0,6.1c0,2,0,3.9,0,5.9c0,1.7,0,3.4,0,5.1
		C3.3,33.2,3.3,33.3,3.6,33.2z M35,17.6c0,0.1,0,0.2,0,0.3c0,4,0,8,0,12c0,1,0,2,0,3.1c0,0.1,0,0.3,0.2,0.2c0.1,0,0.1-0.2,0.1-0.2
		c0-2,0-3.9,0-5.9c0-3,0-6,0-9C35.3,17.9,35.2,17.7,35,17.6z M25.4,14.9c2.4,1.9,5.8,0.9,7-1c-0.1-0.1-0.2-0.2-0.3-0.3
		c-0.8,1-1.9,1.7-3.1,1.9C27.7,15.8,26.5,15.6,25.4,14.9z M17.3,14.9c1.9,1.6,5.3,1.5,7-0.9c-0.1-0.1-0.2-0.2-0.3-0.3
		C22.4,15.8,19.4,16.3,17.3,14.9z M9.2,14.9C9.2,14.9,9.2,14.9,9.2,14.9c2.1,1.7,5.2,1.4,6.9-0.6c0.2-0.3,0.2-0.3-0.1-0.6
		c-0.8,1-1.8,1.7-3.1,1.9C11.5,15.8,10.3,15.6,9.2,14.9z M33.4,14.9c0.9,0.7,1.9,1.1,3,1.1c0.1,0,0.3,0,0.3-0.2
		c0-0.2-0.2-0.1-0.3-0.1c-0.9,0.1-1.7-0.1-2.5-0.5C33.8,15.1,33.6,15,33.4,14.9z"/>
	<path class="st0" d="M33.4,26.2c0,2.2,0,4.5,0,6.7c0,0.5-0.1,0.6-0.5,0.6c-2.1,0-4.2,0-6.3,0c0,0-0.1,0-0.1,0
		c-0.4,0-0.5-0.1-0.5-0.5c0-1.9,0-3.8,0-5.6c0-0.5,0-0.5,0.5-0.5c0.2,0,0.4,0,0.6,0c0.4,0,0.7-0.3,0.7-0.6c0-0.4-0.3-0.6-0.7-0.6
		c-0.2,0-0.4,0-0.6,0c-0.5,0-0.5,0-0.5-0.5c0-0.8,0-1.6,0-2.4c0-1.1,0-2.2,0-3.3c0-0.4,0.1-0.5,0.5-0.5c2.2,0,4.4,0,6.6,0
		c0.4,0,0.4,0.1,0.4,0.5C33.4,21.7,33.4,24,33.4,26.2z M33.2,19.5c0.1-0.3,0-0.3-0.3-0.3c-2.1,0-4.3,0-6.4,0c-0.2,0-0.3,0-0.3,0.3
		c0,1.6,0,3.2,0,4.8c0,0.3,0,0.6,0,0.9c0,0.1,0.1,0.1,0.1,0.2c0.1-0.1,0.1-0.1,0.1-0.2c0-0.1,0-0.1,0-0.2c0-1.7,0-3.5,0-5.2
		c0-0.2,0.1-0.3,0.3-0.3c1.6,0,3.1,0,4.6,0C32,19.5,32.6,19.5,33.2,19.5z M27.9,25.9c0.1,0.8-0.3,1.2-1.1,1.2c-0.1,0-0.3,0-0.4,0
		c-0.2,0-0.3,0.1-0.3,0.3c0,1.9,0,3.8,0,5.6c0,0.1,0,0.3,0.2,0.3c0.2,0,0.2-0.1,0.2-0.3c0-1.6,0-3.3,0-4.9c0-0.2,0-0.4,0-0.6
		c0.3,0,0.6,0,0.9,0c0.4,0,0.7-0.3,0.8-0.6C28.3,26.5,28.2,26.2,27.9,25.9z"/>
	<path class="st0" d="M20,0.5c5.3,0,10.7,0,16,0c0.5,0,0.6,0,0.6,0.6c0,0.4,0,0.8,0,1.2c0,0.3-0.1,0.4-0.4,0.4c-0.1,0-0.1,0-0.2,0
		c-10.6,0-21.3,0-31.9,0c-0.6,0-0.6,0-0.6-0.6c0-0.4,0-0.8,0-1.3c0-0.2,0.1-0.4,0.3-0.4c0.2,0,0.5,0,0.7,0C9.6,0.5,14.8,0.5,20,0.5z
		 M3.7,0.7c0,0.5,0,1.1,0,1.6c0,0.1,0.1,0.1,0.1,0.2C3.9,2.4,4,2.3,4,2.3c0-0.3,0-0.7,0-1C4,1.1,4,1,4.2,1c0.3,0,0.6,0,0.9,0
		c5.3,0,10.5,0,15.8,0c2.5,0,5,0,7.5,0c2.5,0,5,0,7.6,0c0.1,0,0.3,0,0.3-0.1c0-0.2-0.1-0.2-0.3-0.2c-2.7,0-5.4,0-8.1,0
		c-5.1,0-10.3,0-15.4,0c-2.4,0-4.9,0-7.3,0C4.7,0.7,4.2,0.7,3.7,0.7z"/>
	<path class="st0" d="M35.8,9.8c-1,0-2,0-3,0c-0.4,0-0.4,0-0.5-0.4c-0.2-1.6-0.5-3.2-0.7-4.8c-0.1-0.4,0-0.5,0.4-0.5
		c1.6,0,3.1,0,4.7,0c0.3,0,0.4,0.1,0.5,0.3c0.7,1.6,1.3,3.2,2,4.9c0.2,0.4,0.1,0.5-0.3,0.5C37.8,9.8,36.8,9.8,35.8,9.8
		C35.8,9.8,35.8,9.8,35.8,9.8z M31.8,4.3c0,0.1,0,0.3,0.1,0.4c0.2,1.5,0.4,3,0.7,4.5c0,0.2,0,0.3,0.3,0.2c-0.2-1.6-0.5-3.2-0.7-4.8
		c1.7,0,3.3,0,4.9,0c0-0.2-0.1-0.3-0.3-0.3c-1.5,0-3.1,0-4.6,0C32,4.3,31.9,4.3,31.8,4.3z"/>
	<path class="st0" d="M27.8,9.8c-0.9,0-1.8,0-2.8,0c-0.4,0-0.4-0.1-0.5-0.5c-0.1-1.6-0.2-3.2-0.2-4.7c0-0.4,0.1-0.5,0.5-0.5
		c1.7,0,3.3,0,5,0c0.4,0,0.5,0,0.6,0.5c0.2,1.6,0.5,3.2,0.7,4.8c0.1,0.4,0,0.5-0.4,0.5C29.7,9.8,28.7,9.8,27.8,9.8z M24.6,4.3
		c0,0.1,0,0.1,0,0.1c0.1,1.6,0.1,3.1,0.2,4.7c0,0.1-0.1,0.4,0.2,0.4c0.2,0,0.1-0.2,0.1-0.4c-0.1-1.4-0.1-2.8-0.2-4.2
		c0-0.2,0.1-0.3,0.3-0.3c1.6,0,3.1,0,4.6,0c0.1,0,0.2,0,0.3,0c0.1-0.3-0.1-0.3-0.3-0.3c-1.6,0-3.2,0-4.7,0
		C24.9,4.3,24.7,4.3,24.6,4.3z"/>
	<path class="st0" d="M20,9.8c-0.9,0-1.8,0-2.7,0c-0.5,0-0.5-0.1-0.5-0.5c0.1-1.6,0.2-3.2,0.2-4.8c0-0.3,0.1-0.4,0.5-0.4
		c1.5,0,3,0,4.6,0c0.2,0,0.4,0,0.6,0c0.2,0,0.4,0.1,0.4,0.4c0.1,1.6,0.2,3.2,0.2,4.8c0,0.4-0.1,0.5-0.5,0.5
		C21.9,9.8,20.9,9.8,20,9.8z M20.1,4.6c0.7,0,1.4,0,2.2,0c0.1,0,0.2,0,0.3,0c0.1,0,0.1-0.1,0.1-0.1c-0.1-0.1-0.1-0.1-0.2-0.2
		c-0.1,0-0.1,0-0.2,0c-1.6,0-3.2,0-4.9,0c-0.2,0-0.3,0.1-0.3,0.3c-0.1,1.5-0.2,3.1-0.2,4.6c0,0.1-0.1,0.3,0.1,0.3s0.2-0.1,0.2-0.3
		c0.1-1.4,0.1-2.9,0.2-4.3c0-0.2,0.1-0.3,0.3-0.3C18.6,4.6,19.4,4.6,20.1,4.6z"/>
	<path class="st0" d="M12.2,9.8c-0.9,0-1.8,0-2.8,0C9,9.8,8.9,9.7,9,9.3C9.2,7.7,9.5,6,9.7,4.4c0-0.3,0.2-0.4,0.4-0.4
		c1.7,0,3.4,0,5.2,0c0.3,0,0.4,0.1,0.4,0.4c-0.1,1.6-0.2,3.3-0.3,4.9c0,0.3-0.1,0.4-0.4,0.4C14.1,9.8,13.2,9.8,12.2,9.8z M9.2,9.4
		c0.2,0.1,0.3,0.1,0.4-0.2C9.8,7.8,10,6.4,10.2,5c0.1-0.4,0.1-0.4,0.5-0.4c1.5,0,3,0,4.5,0c0.2,0,0.3-0.1,0.2-0.3c0,0-0.1,0-0.1,0
		c-1.7,0-3.5,0-5.2,0C10,4.3,10,4.4,9.9,4.5c-0.1,1-0.3,2-0.5,3.1C9.4,8.2,9.3,8.8,9.2,9.4z"/>
	<path class="st0" d="M4.2,9.8c-1,0-2,0-3,0c-0.5,0-0.5-0.1-0.4-0.5c0.7-1.6,1.3-3.3,2-4.9C2.9,4.2,3,4.1,3.2,4.1c1.6,0,3.2,0,4.8,0
		c0.3,0,0.4,0.1,0.4,0.4C8.2,6.1,7.9,7.7,7.7,9.3C7.6,9.7,7.6,9.8,7.2,9.8C6.2,9.8,5.2,9.8,4.2,9.8C4.2,9.8,4.2,9.8,4.2,9.8z M1,9.5
		c0.3,0.1,0.4,0,0.5-0.3c0.6-1.4,1.2-2.9,1.8-4.3c0.1-0.2,0.2-0.3,0.4-0.3c1.4,0,2.8,0,4.2,0c0.2,0,0.3,0,0.3-0.3
		c-0.1,0-0.1,0-0.2,0c-1.6,0-3.1,0-4.7,0C3.1,4.3,3,4.4,3,4.5C2.5,5.7,2.1,6.8,1.6,7.9C1.4,8.4,1.2,8.9,1,9.5z"/>
	<path class="st0" d="M4,11c1,0,2,0,3,0c0.4,0,0.5,0.1,0.4,0.5c-0.2,1-0.8,1.6-1.6,2.1c-1.9,1.2-4.5,0.2-5.2-2C0.4,11.2,0.5,11,1,11
		C2,11,3,11,4,11z M0.7,11.3c0.2,0.4,0.4,0.8,0.5,1.2c0,0,0,0,0.1,0c-0.1-0.3-0.2-0.6-0.3-0.9c0.2,0,0.3,0,0.4,0c1.8,0,3.6,0,5.4,0
		c0.2,0,0.3,0,0.3-0.3C5,11.3,2.9,11.3,0.7,11.3z"/>
	<path class="st0" d="M28,11c0.9,0,1.8,0,2.7,0c0.2,0,0.5,0.1,0.5,0.1c0.1,0.3,0.2,0.7,0.1,0.9c-0.6,1-1.4,1.8-2.7,2
		c-1.3,0.2-2.4-0.2-3.3-1.3c-0.1-0.2-0.3-0.4-0.4-0.5c-0.2-0.3-0.3-0.6-0.2-0.9c0-0.3,0.2-0.3,0.4-0.3C26,11,27,11,28,11z
		 M24.9,11.3c-0.1,0.5,0,0.7,0.3,0.9c0-0.2,0-0.4,0-0.6c2,0,3.9,0,5.9,0c0.1-0.3-0.1-0.3-0.3-0.3c-1.1,0-2.2,0-3.3,0
		C26.7,11.3,25.8,11.3,24.9,11.3z"/>
	<path class="st0" d="M20,14.1c-1.3,0-2.2-0.6-2.9-1.5c-0.1-0.1-0.2-0.2-0.3-0.3c-0.3-0.3-0.2-0.6-0.2-1c0-0.2,0.2-0.3,0.3-0.3
		c0.3,0,0.6,0,0.8,0c1.6,0,3.2,0,4.9,0c0.2,0,0.5,0,0.5,0.1c0.1,0.3,0.2,0.6,0.1,0.8c-0.6,1-1.4,1.8-2.6,2.1c-0.1,0-0.2,0-0.3,0.1
		C20.2,14.1,20.1,14.1,20,14.1z M16.9,11.3c-0.1,0.4-0.1,0.7,0.2,0.9c0-0.1,0-0.1,0-0.2c0-0.5,0-0.5,0.5-0.5c1.7,0,3.3,0,5,0
		c0.1,0,0.2,0,0.3,0c0.1,0,0.1-0.1,0.2-0.1c0-0.1-0.1-0.1-0.1-0.2c0,0-0.1,0-0.2,0c-1.8,0-3.7,0-5.6,0C17.1,11.3,17,11.3,16.9,11.3z
		"/>
	<path class="st0" d="M36.1,11c1,0,1.9,0,2.9,0c0.5,0,0.6,0.1,0.4,0.6c-0.4,1.3-1.3,2.1-2.6,2.4c-1.3,0.3-2.4-0.1-3.3-1.1
		c-0.3-0.3-0.5-0.6-0.7-0.9c-0.1-0.2-0.1-0.6-0.2-0.8c0-0.1,0.1-0.2,0.2-0.2c0.1,0,0.2,0,0.4,0C34.2,11,35.1,11,36.1,11z M33.2,11.6
		c0.1,0,0.2,0,0.4,0c1.8,0,3.6,0,5.4,0c0.3,0,0.3,0,0.3-0.3c-2.1,0-4.2,0-6.3,0c0,0.3,0,0.7,0.4,0.9c0-0.1,0-0.2,0-0.3
		C33.2,11.8,33.2,11.7,33.2,11.6z"/>
	<path class="st0" d="M12.1,11c0.9,0,1.9,0,2.8,0c0.4,0,0.4,0.1,0.5,0.5c0,0.4-0.2,0.7-0.4,1c-0.6,0.8-1.3,1.4-2.2,1.6
		c-1.4,0.3-2.6-0.2-3.6-1.3c-0.1-0.1-0.2-0.2-0.3-0.3c-0.3-0.3-0.3-0.6-0.2-1c0-0.3,0.2-0.4,0.4-0.4c0.4,0,0.8,0,1.2,0
		C10.9,11,11.5,11,12.1,11z M9.1,12.2c0-0.1,0-0.2,0.1-0.3c0.1-0.4,0.1-0.4,0.4-0.4c1.7,0,3.5,0,5.2,0c0.1,0,0.3,0,0.3-0.2
		c0-0.1-0.2-0.1-0.2-0.1c-0.6,0-1.3,0-1.9,0c-1.2,0-2.5,0-3.7,0c-0.1,0-0.2,0-0.3,0.1C8.8,11.6,8.9,12,9.1,12.2z"/>
	<path class="st0" d="M13.8,28.2c-2.2,0-4.5,0-6.7,0c-0.4,0-0.5-0.1-0.5-0.5c0-2.8,0-5.5,0-8.3C6.6,19,6.7,19,7.1,19
		c4.5,0,9,0,13.5,0c0.4,0,0.5,0.1,0.5,0.5c0,2.8,0,5.5,0,8.3c0,0.4-0.1,0.5-0.5,0.5C18.4,28.2,16.1,28.2,13.8,28.2z M13.1,26.2
		c0.1,0.2,0.1,0.3,0.2,0.5c0.3,0.3,0.7,0.3,1-0.1c1.7-1.7,3.4-3.4,5.1-5.1c0.3-0.3,0.4-0.7,0.1-1c-0.3-0.3-0.7-0.2-1,0.1
		c-0.4,0.4-0.8,0.8-1.2,1.2c-1.3,1.3-2.6,2.6-3.9,3.9C13.4,25.8,13.3,26,13.1,26.2z M6.8,19.2c0,0.1,0,0.2,0,0.4c0,2.4,0,4.8,0,7.2
		c0,0.4,0,0.7,0,1.1c0,0.1,0.1,0.1,0.1,0.2c0.1-0.1,0.1-0.1,0.2-0.2c0-0.1,0-0.1,0-0.2c0-2.6,0-5.2,0-7.8c0-0.2,0.1-0.3,0.3-0.3
		c3.3,0,6.7,0,10,0c1.1,0,2.1,0,3.2,0c0.1,0,0.2-0.1,0.2-0.1c-0.1-0.1-0.2-0.1-0.2-0.2c0,0-0.1,0-0.1,0c-4.1,0-8.3,0-12.4,0
		C7.7,19.2,7.3,19.2,6.8,19.2z M19.8,24.6c0-0.4-0.1-0.6-0.4-0.7c-0.3-0.1-0.5-0.1-0.8,0.1c-0.6,0.6-1.1,1.1-1.7,1.7
		c-0.3,0.3-0.3,0.7-0.1,1c0.3,0.3,0.6,0.3,1-0.1c0.6-0.5,1.1-1.1,1.7-1.7C19.7,24.8,19.7,24.7,19.8,24.6z M13.5,27.1
		c0.4,0.5,0.9,0.5,1.4,0.1c1.6-1.6,3.3-3.3,4.9-5c0.1-0.1,0.3-0.3,0.4-0.4c0.2-0.4,0.1-0.8-0.2-1.1c0.1,0.4-0.1,0.8-0.4,1.1
		c-1.6,1.6-3.3,3.3-4.9,4.9C14.3,27,14,27.2,13.5,27.1z M17,27c0.3,0.4,0.9,0.6,1.2,0.2c0.7-0.6,1.3-1.3,1.9-1.9
		c0.3-0.4,0.2-0.9-0.2-1.2c0.1,0.5,0,0.7-0.3,1.1c-0.5,0.5-0.9,0.9-1.4,1.4C17.9,27,17.5,27.2,17,27z"/>
</g>
</svg>
