<svg width="10" height="12" viewBox="0 0 10 12" fill="none" xmlns="http://www.w3.org/2000/svg">
<path d="M3.10331 11.0883C1.7687 7.16648 4.5887 5.73453 4.5887 5.73453C4.39139 7.82724 5.72496 9.45761 5.72496 9.45761C6.21542 9.32564 7.15157 8.70887 7.15157 8.70887C7.15157 9.45761 6.65761 11.0873 6.65761 11.0873C6.65761 11.0873 8.38683 9.89499 8.93117 7.91459C9.47481 5.93419 7.89567 3.946 7.89567 3.946C7.99082 5.34769 7.45908 6.72629 6.41727 7.77951C6.4694 7.72585 6.51313 7.66626 6.54671 7.60168C6.73387 7.26787 7.03438 6.40028 6.85841 4.39118C6.61073 1.57095 3.74525 0.381714 3.74525 0.381714C3.99223 2.10006 3.25164 2.49595 1.51682 5.75762C-0.218006 9.01866 3.10331 11.0883 3.10331 11.0883Z" fill="#F2C94C" stroke="#8155C9" stroke-width="0.33458"/>
</svg>
