<svg width="18" height="28" viewBox="0 0 18 28" fill="none" xmlns="http://www.w3.org/2000/svg">
<path d="M17.864 13.7224C17.7693 13.7103 17.6738 13.7053 17.5784 13.701C16.6634 13.662 16.0758 14.2797 15.4394 14.7839C15.155 15.0087 14.9204 15.2963 14.6632 15.5559L14.5662 15.4693C14.7583 14.4952 15.0338 13.5245 15.1207 12.539C15.2134 11.5013 14.89 10.5329 14.1944 9.74303C14.1944 10.469 14.2334 11.1883 14.1812 11.9011C14.1422 12.4186 13.8834 12.8862 13.394 13.1176C13.191 13.2139 12.8695 13.2069 12.6719 13.1075C12.5671 13.0545 12.5691 12.6964 12.6022 12.4887C12.6353 12.281 12.7662 12.0877 12.8555 11.8886C13.4264 10.6167 13.3359 9.44883 12.3142 8.42514C12.2587 8.365 12.2077 8.30093 12.1615 8.23342C11.5251 7.3738 11.3985 6.44831 11.8747 5.38137C11.3205 5.61284 11.1004 6.00096 11.0743 6.44675C11.0411 7.01334 11.0945 7.58656 11.1339 8.1551C11.1822 8.84717 11.2734 9.53728 11.3026 10.2297C11.3096 10.4004 11.1467 10.5781 11.0645 10.7527C10.9086 10.6564 10.7091 10.5941 10.6039 10.4585C9.74156 9.34556 9.42982 8.15003 10.1655 6.76083C8.70697 7.41549 8.32314 8.56894 8.45836 10.0146C7.86605 9.59106 7.61782 9.00654 7.76083 8.34292C7.82903 8.0269 7.96113 7.72256 8.08349 7.42017C8.52655 6.32595 8.84258 5.21342 8.37496 4.04829C8.24247 3.71901 8.01062 3.43026 7.82435 3.1228C7.73317 3.19489 7.72732 3.20892 7.72927 3.22178C7.73667 3.27556 7.74719 3.32933 7.75538 3.38311C7.96269 4.72399 7.81188 5.93355 6.77612 6.97165C5.97767 7.77127 5.5837 8.79456 5.7575 9.96515C5.79647 10.234 5.86466 10.4986 5.93402 10.8384C5.32535 10.084 4.74161 9.68536 4.28803 9.8124C5.08959 10.8478 5.66982 11.9202 4.83669 13.2856C4.5382 12.9466 4.47702 12.5974 4.44702 12.2335C4.35622 11.1813 3.9872 10.2617 3.12796 9.52326C3.1244 9.59075 3.1244 9.65839 3.12796 9.72589C3.37657 11.5963 3.17316 13.4317 2.711 15.2437C2.61943 15.6026 2.43277 15.9541 2.21689 16.2569C2.12025 16.3929 1.84319 16.4385 1.64718 16.44C1.59263 16.44 1.48664 16.1357 1.49131 15.9724C1.49988 15.5691 1.55834 15.1673 1.60432 14.6799C1.42078 14.9347 1.28128 15.1003 1.17217 15.2843C0.0763925 17.1278 -0.257951 19.1097 0.197972 21.1988C1.07241 25.2023 4.77473 28.0489 9.06937 27.5116C13.426 26.966 16.3306 23.4199 16.2161 19.0388C16.195 18.2349 16.1884 17.4263 16.2492 16.6255C16.338 15.4616 16.8337 14.5045 17.871 13.8861C17.9161 13.8535 17.9592 13.8183 18 13.7805C17.9349 13.7516 17.9006 13.7271 17.864 13.7224ZM8.14661 25.8293C4.67848 25.8293 1.85332 23.0061 1.85332 19.536C1.85332 16.0659 4.67654 13.2427 8.14661 13.2427C11.6167 13.2427 14.4399 16.0679 14.4399 19.536C14.4399 23.0042 11.6167 25.8293 8.14661 25.8293Z" fill="url(#paint0_linear_810_775)"/>
<path d="M9.78267 3.35512C10.1977 4.23579 10.2172 5.08607 9.62251 5.90128C9.61394 5.91297 9.63381 5.94531 9.64589 5.98739C9.71137 5.98219 9.77645 5.97282 9.84073 5.95934C11.1235 5.60863 11.6558 4.35387 11.0172 3.11469C10.5227 2.15492 10.0212 1.20527 10.0858 0C9.25621 0.761819 9.05943 1.51312 9.40351 2.45146C9.51535 2.75853 9.64355 3.06014 9.78267 3.35512Z" fill="url(#paint1_linear_810_775)"/>
<path d="M4.87661 9.58679C4.98299 9.47379 5.11431 9.37481 5.18835 9.2431C5.23979 9.14958 5.2355 9.00929 5.21601 8.89473C5.03326 7.83364 4.95688 6.79047 5.76156 5.78198C5.0582 6.04501 4.61552 6.40975 4.41289 7.01609C4.15492 7.78804 4.23364 8.54713 4.57967 9.27622C4.63851 9.39858 4.77568 9.48236 4.87661 9.58679Z" fill="url(#paint2_linear_810_775)"/>
<path d="M2.20659 12.6528C2.26309 12.523 2.3683 12.3932 2.36869 12.2631C2.36869 11.3824 2.16918 10.5415 1.82821 9.67834C1.76002 10.4082 1.67624 11.066 1.64935 11.7261C1.63961 11.963 1.73819 12.2198 1.84419 12.4396C1.89601 12.5444 2.08189 12.5838 2.20659 12.6528Z" fill="url(#paint3_linear_810_775)"/>
<path d="M8.14655 14.139C5.17058 14.139 2.74951 16.5601 2.74951 19.5361C2.74951 22.512 5.17058 24.9331 8.14655 24.9331C11.1225 24.9331 13.5436 22.512 13.5436 19.5361C13.5436 16.5601 11.1225 14.139 8.14655 14.139ZM10.713 20.9896C10.6913 21.0305 10.6617 21.0667 10.626 21.0961C10.5902 21.1255 10.549 21.1475 10.5047 21.1609C10.4604 21.1743 10.4139 21.1788 10.3678 21.1741C10.3218 21.1695 10.2771 21.1558 10.2364 21.1337L8.4992 20.2087C8.41074 20.2553 8.31393 20.284 8.21433 20.2932C8.11473 20.3023 8.01431 20.2917 7.91882 20.262C7.82333 20.2322 7.73466 20.1839 7.6579 20.1198C7.58113 20.0557 7.51778 19.977 7.47148 19.8884C7.42517 19.7997 7.39683 19.7028 7.38808 19.6032C7.37933 19.5035 7.39034 19.4032 7.42047 19.3078C7.45061 19.2124 7.49928 19.1239 7.5637 19.0474C7.62811 18.9709 7.707 18.9079 7.79584 18.8619V15.951C7.79584 15.858 7.83279 15.7688 7.89856 15.703C7.96433 15.6373 8.05353 15.6003 8.14655 15.6003C8.23956 15.6003 8.32876 15.6373 8.39454 15.703C8.46031 15.7688 8.49726 15.858 8.49726 15.951V18.8623C8.62061 18.9264 8.72399 19.0231 8.79615 19.1419C8.8683 19.2607 8.90644 19.3971 8.90642 19.5361C8.90631 19.5668 8.90422 19.5975 8.90018 19.628L10.5661 20.5153C10.6069 20.5368 10.6431 20.5661 10.6725 20.6015C10.702 20.637 10.7242 20.6779 10.7379 20.722C10.7515 20.766 10.7563 20.8123 10.7521 20.8583C10.7478 20.9042 10.7345 20.9488 10.713 20.9896Z" fill="#FF2028"/>
<path d="M8.14656 13.2428C4.67843 13.2428 1.85327 16.066 1.85327 19.5361C1.85327 23.0062 4.67649 25.8294 8.14656 25.8294C11.6166 25.8294 14.4399 23.0062 14.4399 19.5361C14.4399 16.066 11.6166 13.2428 8.14656 13.2428ZM8.14656 24.9331C5.1706 24.9331 2.74953 22.5121 2.74953 19.5361C2.74953 16.5601 5.1706 14.1391 8.14656 14.1391C11.1225 14.1391 13.5436 16.5601 13.5436 19.5361C13.5436 22.5121 11.1225 24.9331 8.14656 24.9331Z" fill="white"/>
<path d="M10.5659 20.5153L8.90005 19.628C8.90409 19.5976 8.90617 19.5668 8.90628 19.5361C8.90631 19.3971 8.86817 19.2607 8.79602 19.1419C8.72387 19.0231 8.62048 18.9263 8.49712 18.8623V15.9511C8.49712 15.858 8.46017 15.7688 8.3944 15.7031C8.32863 15.6373 8.23942 15.6003 8.14641 15.6003C8.05339 15.6003 7.96419 15.6373 7.89842 15.7031C7.83265 15.7688 7.7957 15.858 7.7957 15.9511V18.8623C7.61795 18.9561 7.48457 19.1164 7.42478 19.3083C7.365 19.5001 7.38366 19.7079 7.47669 19.886C7.56972 20.0641 7.72954 20.1981 7.92116 20.2587C8.11277 20.3192 8.32057 20.3014 8.49907 20.2091L10.2362 21.1338C10.277 21.157 10.322 21.1717 10.3685 21.1773C10.4151 21.1828 10.4623 21.1789 10.5073 21.1658C10.5523 21.1528 10.5943 21.1309 10.6307 21.1013C10.6671 21.0718 10.6972 21.0353 10.7193 20.9939C10.7413 20.9525 10.7548 20.9071 10.759 20.8604C10.7632 20.8137 10.758 20.7667 10.7438 20.722C10.7295 20.6774 10.7064 20.636 10.6758 20.6005C10.6453 20.5649 10.6079 20.5358 10.5659 20.515V20.5153Z" fill="white"/>
<defs>
<linearGradient id="paint0_linear_810_775" x1="9" y1="3.1228" x2="9" y2="27.5767" gradientUnits="userSpaceOnUse">
<stop stop-color="#F7C822"/>
<stop offset="1" stop-color="#FF2028"/>
</linearGradient>
<linearGradient id="paint1_linear_810_775" x1="10.2649" y1="0" x2="10.2649" y2="5.98739" gradientUnits="userSpaceOnUse">
<stop stop-color="#F7C822"/>
<stop offset="1" stop-color="#FF2028"/>
</linearGradient>
<linearGradient id="paint2_linear_810_775" x1="5.01103" y1="5.78198" x2="5.01103" y2="9.58679" gradientUnits="userSpaceOnUse">
<stop stop-color="#F7C822"/>
<stop offset="1" stop-color="#FF2028"/>
</linearGradient>
<linearGradient id="paint3_linear_810_775" x1="2.00869" y1="9.67834" x2="2.00869" y2="12.6528" gradientUnits="userSpaceOnUse">
<stop stop-color="#F7C822"/>
<stop offset="1" stop-color="#FF2028"/>
</linearGradient>
</defs>
</svg>
