<?xml version="1.0" encoding="utf-8"?>
<!-- Generator: Adobe Illustrator 24.3.0, SVG Export Plug-In . SVG Version: 6.00 Build 0)  -->
<svg version="1.1" id="Layer_1" xmlns="http://www.w3.org/2000/svg" xmlns:xlink="http://www.w3.org/1999/xlink" x="0px" y="0px"
	 viewBox="0 0 42 34" style="enable-background:new 0 0 42 34;" xml:space="preserve">
<style type="text/css">
	.st0{fill:#FFFFFF;}
</style>
<g>
	<path class="st0" d="M41.2,33.1c-0.3,0-0.6,0-0.8,0c-3.3,0-6.6,0-9.9,0c-0.4,0-0.6-0.1-0.8-0.4c-3.7-3.7-7.4-7.4-11.1-11.1
		c-1.6-1.5-3.1-3.1-4.7-4.7c1.4-1.4,2.7-2.6,4-4c3-3,6.1-6,9.1-9.1c0.9-0.9,1.9-1.9,2.8-2.8c0.1-0.1,0.4-0.3,0.6-0.3
		c3.6,0,7.3,0,10.9,0c0,0,0,0,0.1,0.1c-0.7,0.7-1.4,1.4-2.1,2.1c-2.1,2.1-4.2,4.2-6.3,6.3c-2.1,2.1-4.2,4.2-6.3,6.3
		c-0.3,0.3-0.6,0.6-0.7,1c-0.3,0.6,0.1,1.1,0.5,1.6c0.9,0.9,1.8,1.8,2.7,2.7c2.8,2.8,5.6,5.6,8.4,8.5c1.2,1.2,2.3,2.3,3.5,3.5
		C41,32.9,41.1,33,41.2,33.1z"/>
	<path class="st0" d="M19.3,33.1c-3,0-5.9,0-8.9,0c0-0.2,0-0.4,0-0.6c0-7,0-14,0-21c0-1.2-0.5-1.6-1.6-1.6c-2.6,0-5.3,0-8.1,0
		c0.5-0.5,0.9-1,1.4-1.4c2.4-2.4,4.7-4.7,7.1-7.1C9.4,1,9.8,0.9,10.2,0.9c2.9,0,5.7,0,8.6,0c0.2,0,0.3,0,0.6,0c0,0.2,0,0.4,0,0.6
		c0,2,0,3.9,0,5.9c0,0.2-0.1,0.5-0.3,0.7c-1.9,1.9-3.8,3.9-5.8,5.8c-0.7,0.7-1.5,1.5-2.2,2.2c-0.7,0.7-0.7,1.4,0,2.1
		c1.5,1.5,2.9,2.9,4.4,4.4c1.2,1.2,2.4,2.4,3.6,3.7c0.1,0.1,0.2,0.3,0.2,0.4c0,2.2,0,4.3,0,6.5C19.4,33,19.4,33,19.3,33.1z"/>
</g>
</svg>
