<?xml version="1.0" encoding="utf-8"?>
<!-- Generator: Adobe Illustrator 24.3.0, SVG Export Plug-In . SVG Version: 6.00 Build 0)  -->
<svg version="1.1" id="Layer_1" xmlns="http://www.w3.org/2000/svg" xmlns:xlink="http://www.w3.org/1999/xlink" x="0px" y="0px"
	 viewBox="0 0 33 32" style="enable-background:new 0 0 33 32;" xml:space="preserve">
<style type="text/css">
	.st0{fill-rule:evenodd;clip-rule:evenodd;fill:#FFFFFF;}
</style>
<path class="st0" d="M1.9,1.6C2.4,1.1,3.1,1,3.8,1.3c2-1.3,4.6-1.4,6.7-0.4c-4.2,1.7-7.6,5-9.3,9.2C0.2,8,0.3,5.5,1.6,3.4
	C1.3,2.8,1.4,2.1,1.9,1.6z M13.3,28.6l-0.2-0.1l0.2-0.9l0.2,0.1L13.3,28.6z M19.7,4.9l-0.2-0.1l0.2-0.9L19.9,4L19.7,4.9z M7.4,25.2
	L8,24.6l0.2,0.2l-0.6,0.6c2.1,2.1,5,3.5,8.2,3.6v-2.4h1.4V29c3.2-0.2,6.1-1.5,8.2-3.6l-0.6-0.6l0.2-0.2l0.6,0.6
	c2.1-2.1,3.5-5,3.6-8.2h-2.4v-1.4h2.4c-0.2-3.2-1.5-6.1-3.6-8.2L25,8l-0.2-0.2l0.6-0.6c-2.1-2.1-5-3.5-8.2-3.6V6h-1.4V3.6
	c-3.2,0.2-6.1,1.5-8.2,3.6l0.6,0.6L8,8L7.4,7.4c-2.1,2.1-3.5,5-3.6,8.2h2.4V17H3.8C3.9,20.2,5.3,23.1,7.4,25.2z M4.2,19.7l-0.1-0.2
	L5,19.2l0.1,0.2L4.2,19.7z M28,13.3l-0.1-0.2l0.9-0.2l0.1,0.2L28,13.3z M4.2,13.1l0.1-0.2l0.9,0.2L5,13.3L4.2,13.1z M27.9,19.5
	l0.1-0.2l0.9,0.2l-0.1,0.2L27.9,19.5z M13.1,4l0.2-0.1l0.2,0.9l-0.2,0.1L13.1,4z M19.5,27.8l0.2-0.1l0.2,0.9l-0.2,0.1L19.5,27.8z
	 M16.5,14.9c0.3,0,0.7,0.1,0.9,0.3l7.8-4l0.2,0.3l-7.5,4.9c-0.1,0.7-0.7,1.3-1.4,1.3c-0.8,0-1.4-0.6-1.4-1.4c0-0.2,0-0.3,0.1-0.4
	l-7.7-4.5L7.6,11l7.7,4.5C15.6,15.1,16,14.9,16.5,14.9z M5.4,22.5l1.3-0.7l0.1,0.3l-1.3,0.7L5.4,22.5z M26.2,10.5l1.3-0.7l0.1,0.3
	l-1.3,0.7L26.2,10.5z M27.6,22.5l-0.1,0.3l-1.3-0.7l0.1-0.3L27.6,22.5z M6.8,10.5L5.5,9.8L5.4,10l1.3,0.7L6.8,10.5z M10,27.3
	l0.7-1.3l0.3,0.1l-0.7,1.3L10,27.3z M22,6.4l0.7-1.3L23,5.3l-0.7,1.3L22,6.4z M23,27.3l-0.3,0.1L22,26.1l0.3-0.1L23,27.3z M11,6.4
	l-0.7-1.3L10,5.3l0.7,1.3L11,6.4z M16.5,0.7c-8.6,0-15.6,7-15.6,15.6c0,8.6,7,15.6,15.6,15.6c8.6,0,15.6-7,15.6-15.6
	C32.1,7.7,25.1,0.7,16.5,0.7z M5.1,28.3c0.9,0.8,1.8,1.6,2.9,2.2L7,31.4c-0.7,0.7-1.8,0.7-2.5,0c-0.7-0.7-0.7-1.8,0-2.5L5.1,28.3z
	 M27.9,28.3l0.6,0.6c0.7,0.7,0.7,1.8,0,2.5c-0.7,0.7-1.8,0.7-2.5,0l-0.9-0.9C26.1,29.8,27.1,29.1,27.9,28.3z M31.1,1.6
	c0.5,0.5,0.6,1.2,0.4,1.8c1.3,2,1.4,4.5,0.5,6.6c-1.7-4.2-5.1-7.6-9.3-9.2c2.1-1,4.7-0.8,6.7,0.4C29.9,1,30.6,1.1,31.1,1.6z"/>
</svg>
