<svg width="17" height="14" viewBox="0 0 17 14" fill="none" xmlns="http://www.w3.org/2000/svg">
<path d="M8.87801 13.803C7.02458 12.1186 5.20683 10.4726 3.39565 8.81916C2.89991 8.3671 2.3619 7.94131 1.9516 7.41892C0.424913 5.47566 0.686872 2.86089 2.52997 1.18117C4.21064 -0.351304 6.87529 -0.310975 8.63483 1.27308C8.70243 1.33404 8.77285 1.39219 8.86674 1.47285C9.59346 0.755379 10.4394 0.306141 11.4366 0.118568C13.7641 -0.320354 16.2166 1.33498 16.6541 3.66839C16.9771 5.38656 16.4945 6.84307 15.2063 8.02572C13.2261 9.84424 11.2422 11.6581 9.25921 13.4728C9.14466 13.577 9.02448 13.6754 8.87801 13.803ZM8.88552 12.3005C10.8732 10.4707 12.8543 8.69723 14.7707 6.85901C15.5753 6.08809 15.7931 5.03486 15.565 3.95257C15.2561 2.48387 14.3228 1.53475 12.8553 1.24776C11.4112 0.965461 10.2141 1.48223 9.33338 2.67801C9.18034 2.88621 9.03856 3.1038 8.86205 3.36077C8.70055 3.13193 8.57567 2.95749 8.45362 2.78117C7.70905 1.69512 6.6922 1.12584 5.35987 1.1943C3.92239 1.26839 2.90648 2.00274 2.3619 3.30544C1.80606 4.63346 1.99573 5.93991 3.03229 6.93873C4.91952 8.76007 6.89783 10.4895 8.88552 12.3005Z" fill="#E02E24"/>
</svg>
