<?xml version="1.0" encoding="utf-8"?>
<!-- Generator: Adobe Illustrator 24.3.0, SVG Export Plug-In . SVG Version: 6.00 Build 0)  -->
<svg version="1.1" id="Layer_1" xmlns="http://www.w3.org/2000/svg" xmlns:xlink="http://www.w3.org/1999/xlink" x="0px" y="0px"
	 viewBox="0 0 17 14" style="enable-background:new 0 0 17 14;" xml:space="preserve">
<style type="text/css">
	.st0{fill:#E02E24;}
</style>
<path class="st0" d="M8.5,13.8c-1.9-1.7-3.7-3.3-5.5-5C2.5,8.4,2,7.9,1.6,7.4C0.1,5.5,0.3,2.9,2.2,1.2c1.7-1.5,4.3-1.5,6.1,0.1
	c0.1,0.1,0.1,0.1,0.2,0.2c0.7-0.7,1.6-1.2,2.6-1.4c2.3-0.4,4.8,1.2,5.2,3.5c0.3,1.7-0.2,3.2-1.4,4.4c-2,1.8-4,3.6-5.9,5.4
	C8.8,13.6,8.7,13.7,8.5,13.8z"/>
<path class="st0" d="M8.5,12.3c2-1.8,4-3.6,5.9-5.4c0.8-0.8,1-1.8,0.8-2.9c-0.3-1.5-1.2-2.4-2.7-2.7C11.1,1,9.9,1.5,9,2.7
	C8.8,2.9,8.7,3.1,8.5,3.4C8.3,3.1,8.2,3,8.1,2.8C7.4,1.7,6.3,1.1,5,1.2C3.6,1.3,2.6,2,2,3.3C1.5,4.6,1.6,5.9,2.7,6.9
	C4.6,8.8,6.5,10.5,8.5,12.3z"/>
</svg>
