<svg width="31" height="30" viewBox="0 0 31 30" fill="none" xmlns="http://www.w3.org/2000/svg">
<path d="M14.8193 29.0359C15.8267 29.0359 16.6434 28.2184 16.6434 27.21C16.6434 26.2016 15.8267 25.3842 14.8193 25.3842C13.8118 25.3842 12.9951 26.2016 12.9951 27.21C12.9951 28.2184 13.8118 29.0359 14.8193 29.0359Z" fill="white"/>
<path d="M23.9111 29.0359C24.9185 29.0359 25.7353 28.2184 25.7353 27.21C25.7353 26.2016 24.9185 25.3842 23.9111 25.3842C22.9036 25.3842 22.0869 26.2016 22.0869 27.21C22.0869 28.2184 22.9036 29.0359 23.9111 29.0359Z" fill="white"/>
<path d="M7.72216 18.0662L6.64544 5.91658C6.58594 5.26563 6.28594 4.66031 5.80414 4.21905C5.32233 3.77779 4.69337 3.53233 4.04032 3.53069H2.31814C1.85005 3.53031 1.40126 3.34391 1.07041 3.01248C0.739558 2.68104 0.553711 2.23169 0.553711 1.76316C0.554868 1.29539 0.741227 0.847156 1.07195 0.516667C1.40268 0.186177 1.85081 0.000384667 2.31814 1.50863e-07H4.42205C5.93244 -0.000337412 7.38813 0.565821 8.50204 1.58682C9.61594 2.60782 10.3072 4.00954 10.4395 5.51553L11.4594 17.162C11.5444 18.1137 11.9829 18.9989 12.6884 19.6426C13.3938 20.2864 14.3148 20.6418 15.2694 20.6387H24.4092C24.8954 20.6387 25.3768 20.5429 25.826 20.3567C26.2752 20.1704 26.6833 19.8975 27.0271 19.5534C27.3709 19.2093 27.6436 18.8007 27.8296 18.3512C28.0157 17.9016 28.1115 17.4197 28.1115 16.933C28.1115 16.4464 28.0157 15.9645 27.8296 15.5149C27.6436 15.0653 27.3709 14.6568 27.0271 14.3127C26.6833 13.9686 26.2752 13.6957 25.826 13.5094C25.3768 13.3232 24.8954 13.2273 24.4092 13.2273H17.4462V11.6071H24.0027C25.6489 11.6071 27.2276 12.2616 28.3916 13.4267C29.5556 14.5918 30.2095 16.172 30.2095 17.8197C30.2095 19.4676 29.5557 21.0479 28.3917 22.2132C27.2277 23.3786 25.649 24.0334 24.0027 24.0338H14.2408C12.6055 24.0351 11.0291 23.423 9.82248 22.3184C8.61581 21.2137 7.86645 19.6966 7.72216 18.0662Z" fill="white"/>
<path d="M20.7091 6.26063H14.0841C14.0034 6.26063 13.9235 6.24471 13.849 6.21376C13.7745 6.18281 13.7068 6.13746 13.6499 6.08029C13.5929 6.02312 13.5477 5.95527 13.517 5.88061C13.4862 5.80595 13.4705 5.72595 13.4707 5.6452C13.4705 5.56426 13.4863 5.48408 13.5171 5.40924C13.5479 5.33441 13.5932 5.26639 13.6503 5.20909C13.7074 5.15179 13.7752 5.10632 13.8499 5.0753C13.9246 5.04429 14.0047 5.02832 14.0856 5.02832H20.8446C21.9308 5.02832 22.9726 5.46022 23.7406 6.22902C24.5087 6.99782 24.9402 8.04053 24.9402 9.12777C24.9398 10.2149 24.5082 11.2574 23.7402 12.0261C22.9722 12.7948 21.9307 13.2268 20.8446 13.2272H17.0185C16.9122 13.2272 16.8069 13.2062 16.7087 13.1655C16.6105 13.1247 16.5213 13.065 16.4462 12.9896C16.3711 12.9143 16.3116 12.8249 16.271 12.7266C16.2305 12.6282 16.2097 12.5228 16.2099 12.4164C16.2097 12.31 16.2305 12.2047 16.271 12.1064C16.3116 12.0081 16.3712 11.9188 16.4463 11.8436C16.5214 11.7684 16.6106 11.7088 16.7088 11.6682C16.807 11.6276 16.9123 11.6068 17.0185 11.607H20.7135C21.4218 11.607 22.1011 11.3253 22.6019 10.824C23.1028 10.3227 23.3841 9.64278 23.3841 8.93381C23.3843 8.58234 23.3152 8.23429 23.1808 7.90959C23.0464 7.58489 22.8493 7.28994 22.6008 7.04161C22.3523 6.79329 22.0573 6.59648 21.7327 6.46247C21.4081 6.32846 21.0602 6.25987 20.7091 6.26063Z" fill="white"/>
<path d="M7.9354 22.6192H0.941789C0.763478 22.6177 0.590836 22.6818 0.456573 22.7993C0.32231 22.9167 0.235749 23.0794 0.213287 23.2565C0.203731 23.3547 0.21482 23.4539 0.245844 23.5475C0.276867 23.6412 0.327138 23.7274 0.39342 23.8005C0.459703 23.8735 0.540532 23.9319 0.630708 23.9718C0.720885 24.0118 0.81841 24.0324 0.917018 24.0323H7.91063C8.08894 24.0337 8.26158 23.9696 8.39585 23.8522C8.53011 23.7347 8.61667 23.5721 8.63913 23.395C8.64869 23.2968 8.6376 23.1976 8.60658 23.1039C8.57555 23.0103 8.52528 22.9241 8.459 22.851C8.39272 22.7779 8.31189 22.7196 8.22171 22.6796C8.13154 22.6397 8.03401 22.6191 7.9354 22.6192Z" fill="white"/>
<path d="M6.79487 21.7893C6.89354 21.7891 6.9911 21.7683 7.08128 21.7283C7.17146 21.6882 7.25227 21.6296 7.31853 21.5564C7.38479 21.4833 7.43503 21.397 7.46604 21.3033C7.49705 21.2095 7.50814 21.1103 7.4986 21.012C7.47614 20.8349 7.38957 20.6722 7.25531 20.5548C7.12105 20.4373 6.94841 20.3732 6.7701 20.3747H3.17713C2.99882 20.3732 2.82618 20.4373 2.69192 20.5548C2.55765 20.6722 2.47109 20.8349 2.44863 21.012C2.43909 21.1103 2.45018 21.2095 2.48119 21.3033C2.5122 21.397 2.56245 21.4833 2.62871 21.5564C2.69497 21.6296 2.77578 21.6882 2.86595 21.7283C2.95613 21.7683 3.05369 21.7891 3.15236 21.7893H6.79487Z" fill="white"/>
</svg>
