<?xml version="1.0" encoding="utf-8"?>
<!-- Generator: Adobe Illustrator 24.3.0, SVG Export Plug-In . SVG Version: 6.00 Build 0)  -->
<svg version="1.1" id="Layer_1" xmlns="http://www.w3.org/2000/svg" xmlns:xlink="http://www.w3.org/1999/xlink" x="0px" y="0px"
	 viewBox="0 0 2900 1850" style="enable-background:new 0 0 2900 1850;" xml:space="preserve">
<style type="text/css">
	.st0{fill:#FFFFFF;}
</style>
<g>
	<g>
		
			<image style="overflow:visible;opacity:0.25;enable-background:new    ;" width="2699" height="441" xlink:href="157CFD0D.png"  transform="matrix(1 0 0 1 100.5 1285)">
		</image>
		<g>
			<g>
				<polygon class="st0" points="342.4,1313.4 342.4,1483.2 164,1483.2 164,1313.4 109.2,1313.4 109.2,1680.7 164,1680.7 
					164,1536.2 342.4,1536.2 342.4,1680.7 397.3,1680.7 397.3,1313.4 				"/>
				<polygon class="st0" points="693.2,1293.4 467.8,1680.7 532.2,1680.7 693.2,1401.3 859.4,1680.7 920.3,1680.7 				"/>
				<polygon class="st0" points="1709.8,1293.4 1484.3,1680.7 1548.7,1680.7 1709.8,1401.3 1876,1680.7 1936.9,1680.7 				"/>
				<polygon class="st0" points="2549.9,1293.4 2324.5,1680.7 2388.9,1680.7 2549.9,1401.3 2716.2,1680.7 2777.1,1680.7 				"/>
				<polygon class="st0" points="2130,1703.6 2355.4,1316.3 2291,1316.3 2130,1595.6 1963.8,1316.3 1902.9,1316.3 				"/>
				<polygon class="st0" points="1344.2,1312.6 1344.2,1612.3 1058.4,1312.6 1051.2,1312.6 1045.2,1312.6 997.8,1312.6 
					997.8,1680.7 1051.2,1680.7 1051.2,1388.4 1333.1,1680.7 1344.2,1680.7 1346.4,1680.7 1397.6,1680.7 1397.6,1312.6 				"/>
			</g>
		</g>
	</g>
	<g>
		
			<image style="overflow:visible;opacity:0.25;enable-background:new    ;" width="1803" height="1009" xlink:href="157CFD0F.png"  transform="matrix(1 0 0 1 548.5001 124.0001)">
		</image>
		<g>
			<path class="st0" d="M2206.4,1021.4l-332.3-888.9l-176.4,0L1560,504l-139.4-371.5l-114.2,0l-155.3,432.2L989.4,132.3l-83.8,0
				L557,1106.5l80.5,0l94.9-273.7l322.3,0.1l-99.5,276.9l95.7,0l62.8-183l65.4,179.8l243.6,0.1h5.1l151.3,0l54.6,0l152.6,0
				l-96.6-257.7l202.4,0l64.4,172.2l-101.2,0l0,88.7l474.1,0.1l0-88.7L2206.4,1021.4z M755.1,767.4l146.6-423l153.9,423.1
				L755.1,767.4z M1368.3,1021.3l-46.3,0l-54.9-146.8l155.6,0L1368.3,1021.3z M1446.3,810.9l-203,0l-46.9-125.3l110-320.9
				l151.9,413.7L1446.3,810.9z M1466.6,1021.3l40.8-109.6l40.3,109.6L1466.6,1021.3z M1658.9,767.6l-49.2-131.2l101-271.6
				l150.7,402.9L1658.9,767.6z"/>
		</g>
	</g>
</g>
</svg>
