<?xml version="1.0" encoding="utf-8"?>
<!-- Generator: Adobe Illustrator 24.3.0, SVG Export Plug-In . SVG Version: 6.00 Build 0)  -->
<svg version="1.1" id="Layer_1" xmlns="http://www.w3.org/2000/svg" xmlns:xlink="http://www.w3.org/1999/xlink" x="0px" y="0px"
	 viewBox="0 0 17 16" style="enable-background:new 0 0 17 16;" xml:space="preserve">
<style type="text/css">
	.st0{clip-path:url(#SVGID_2_);}
	.st1{fill:#FFFFFF;}
</style>
<g>
	<defs>
		<rect id="SVGID_1_" x="0.5" width="16" height="16"/>
	</defs>
	<clipPath id="SVGID_2_">
		<use xlink:href="#SVGID_1_"  style="overflow:visible;"/>
	</clipPath>
	<g class="st0">
		<path class="st1" d="M15.1,1.9H5.7c-0.8,0-1.4,0.6-1.4,1.4c0,0.8,0.6,1.4,1.4,1.4h9.4c0.8,0,1.4-0.6,1.4-1.4
			C16.5,2.5,15.9,1.9,15.1,1.9z"/>
		<path class="st1" d="M15.1,6.6H5.7C4.9,6.6,4.2,7.2,4.2,8c0,0.8,0.6,1.4,1.4,1.4h9.4c0.8,0,1.4-0.6,1.4-1.4
			C16.5,7.2,15.9,6.6,15.1,6.6z"/>
		<path class="st1" d="M15.1,11.3H5.7c-0.8,0-1.4,0.6-1.4,1.4c0,0.8,0.6,1.4,1.4,1.4h9.4c0.8,0,1.4-0.6,1.4-1.4
			C16.5,11.9,15.9,11.3,15.1,11.3z"/>
		<path class="st1" d="M1.9,1.9c-0.8,0-1.4,0.6-1.4,1.4c0,0.8,0.6,1.4,1.4,1.4c0.8,0,1.4-0.6,1.4-1.4C3.3,2.5,2.7,1.9,1.9,1.9z"/>
		<path class="st1" d="M1.9,6.6C1.1,6.6,0.5,7.2,0.5,8c0,0.8,0.6,1.4,1.4,1.4c0.8,0,1.4-0.6,1.4-1.4C3.3,7.2,2.7,6.6,1.9,6.6z"/>
		<path class="st1" d="M1.9,11.3c-0.8,0-1.4,0.6-1.4,1.4c0,0.8,0.6,1.4,1.4,1.4c0.8,0,1.4-0.6,1.4-1.4C3.3,11.9,2.7,11.3,1.9,11.3z"
			/>
	</g>
</g>
</svg>
