<?xml version="1.0" encoding="utf-8"?>
<!-- Generator: Adobe Illustrator 24.3.0, SVG Export Plug-In . SVG Version: 6.00 Build 0)  -->
<svg version="1.1" id="Layer_1" xmlns="http://www.w3.org/2000/svg" xmlns:xlink="http://www.w3.org/1999/xlink" x="0px" y="0px"
	 viewBox="0 0 42 42" style="enable-background:new 0 0 42 42;" xml:space="preserve">
<style type="text/css">
	.st0{fill:#FFFFFF;}
</style>
<g>
	<path class="st0" d="M6.7,6.7c0.7,0.7,1.4,1.3,2,1.9C8.9,8.8,9,9,9.2,9.1c0.2,0.2,0.3,0.4,0.3,0.7c0.1,0.9-0.3,1.7-0.8,2.5
		c-0.6,0.8-1.3,1.6-2,2.5c-0.8,1-1.5,2.1-1.9,3.4c-0.1,0.5-0.2,1.1-0.3,1.6c-0.1,0.5,0.2,0.8,0.7,0.7c0.5-0.1,1-0.2,1.5-0.4
		c1.3-0.5,2.5-1.1,3.8-1.6c0.8-0.3,1.7-0.5,2.5-0.7c0.1,0,0.2,0,0.3,0c5.1-3.4,10.3-3.4,15.4,0.1c0,0,0-0.1,0-0.2
		c0.4,0.1,0.8,0.1,1.2,0.2c1.4,0.3,2.7,0.9,4,1.5c0.8,0.3,1.5,0.6,2.3,0.9c0.1,0.1,0.3,0.1,0.5,0.1c0.5,0,0.7-0.3,0.7-0.8
		c-0.1-1.2-0.5-2.3-1.1-3.3c-0.7-1.1-1.5-2.1-2.3-3.2c-0.5-0.6-1-1.3-1.3-2.1c-0.2-0.5-0.2-1.1-0.1-1.7c0-0.1,0-0.1,0.1-0.2
		c0.9-0.8,1.7-1.6,2.6-2.5c0,0,0,0,0.1,0c8.9,8.6,7.9,24.8-4.4,31.8c-0.6-1.1-1.2-2.1-1.8-3.2c0.1,0,0.1-0.1,0.1-0.1
		c3.2-1.9,5.5-4.5,7-7.9c0.3-0.7,0.4-1.3,0-2c-0.3-0.6-0.8-0.9-1.4-1.1c-0.9-0.4-1.8-0.5-2.7-0.6c-1.2-0.1-2.3-0.1-3.5-0.2
		c-0.1,0-0.2,0-0.3,0c0-0.1,0-0.2,0-0.3c-0.5,0.1-1,0.3-1.5,0.6c-1.6,0.9-2.5,2.2-3.1,3.9c-0.3,0.9-0.4,1.8-0.5,2.7c0,0,0,0.1,0,0.1
		c0.2,0,0.3,0.1,0.3,0.2c0.2,1.1,0.4,2.2,0.9,3.2c0.2,0.5,0.5,1,0.8,1.4c0.7,0.9,1.5,1.1,2.6,0.8c0.3-0.1,0.5-0.2,0.8-0.3
		c0.6,1.1,1.2,2.1,1.8,3.2c-5.4,3-12.8,3.2-18.8,0c0.6-1.1,1.2-2.1,1.8-3.2c0.2,0.1,0.3,0.1,0.5,0.2c1.2,0.5,2.1,0.3,2.9-0.7
		c0.6-0.8,0.9-1.6,1.1-2.5c0.2-0.7,0.3-1.4,0.5-2.1c0.1,0,0.1,0,0.2,0c-0.1-0.5-0.1-1-0.2-1.5c-0.2-1.2-0.6-2.3-1.3-3.3
		c-0.8-1.2-2-2-3.4-2.5c0,0-0.1,0-0.1,0c0,0.1,0,0.1,0,0.3c-0.4,0-0.7,0-1,0c-1.3,0-2.5,0.1-3.8,0.3c-0.8,0.1-1.5,0.3-2.2,0.7
		c-0.7,0.4-1.2,1-1.1,1.9c0.1,0.4,0.2,0.8,0.4,1.2c1.5,3.3,3.8,5.9,6.9,7.7c0,0,0.1,0,0.1,0.1c0,0,0,0,0,0c-0.6,1.1-1.2,2.1-1.8,3.2
		C-0.4,32.3-2.9,16.3,6.7,6.7z M22.7,30.4c0.1-0.5,0.1-1,0.2-1.5c0.2-1.3,0.6-2.5,1.3-3.6c0.9-1.4,2.2-2.3,3.8-2.8
		c0.1,0,0.2-0.1,0.2-0.2c0.1-1.2,0.2-2.4,0.3-3.5c0-0.2-0.1-0.4-0.2-0.5c-1.9-1.4-4-2.2-6.3-2.5c-1.4-0.2-2.9,0-4.2,0.4
		c-1.5,0.4-3,1.1-4.2,2.1c-0.1,0.1-0.2,0.2-0.2,0.4c0.1,1.2,0.2,2.3,0.3,3.5c0,0.2,0.1,0.3,0.3,0.3c1.4,0.4,2.5,1.2,3.4,2.4
		c1,1.2,1.4,2.7,1.7,4.2c0.1,0.4,0.1,0.9,0.2,1.3C20.4,30.4,21.5,30.4,22.7,30.4z"/>
	<path class="st0" d="M34.9,6.3C34,7.2,33.1,8,32.2,8.8C29,6,25.3,4.5,21,4.5c-4.3,0-8,1.5-11.2,4.4C8.9,8,8,7.2,7.1,6.3
		C14.9-1.1,27.4-0.9,34.9,6.3z"/>
	<path class="st0" d="M25.7,21c0,2.6-2.1,4.7-4.7,4.7c-2.5,0-4.7-2.1-4.7-4.6c0-2.6,2.1-4.7,4.7-4.7C23.6,16.3,25.7,18.4,25.7,21z
		 M17.6,21c0,1.9,1.6,3.4,3.4,3.4c1.9,0,3.5-1.5,3.5-3.5c0-1.9-1.6-3.4-3.4-3.4C19.1,17.5,17.6,19.1,17.6,21z"/>
</g>
</svg>
