<?xml version="1.0" encoding="utf-8"?>
<!-- Generator: Adobe Illustrator 24.3.0, SVG Export Plug-In . SVG Version: 6.00 Build 0)  -->
<svg version="1.1" id="Layer_1" xmlns="http://www.w3.org/2000/svg" xmlns:xlink="http://www.w3.org/1999/xlink" x="0px" y="0px"
	 viewBox="0 0 25 40" style="enable-background:new 0 0 25 40;" xml:space="preserve">
<style type="text/css">
	.st0{fill:#FFFFFF;}
</style>
<path class="st0" d="M23,14.2c-0.5-0.1-1-0.1-1.5-0.1c-1.9,0-3.7,0-5.9,0c2-4.1,3.8-7.8,5.7-11.5c0.4-0.9,0.7-1.7-0.2-2.5
	c-2.9,0-5.8,0-8.7,0c-2.2,0-4.5,0-6.7,0c-0.1,0.4-0.2,0.6-0.3,1C4,7.2,2.5,13.4,1,19.5c-0.3,1.3,0.2,1.8,1.5,1.8c1.6,0,3.2,0,4.9,0
	c-0.1,0.4-0.1,0.6-0.2,0.8c-1.3,5.3-2.6,10.5-3.9,15.8c-0.1,0.6-0.1,1.6,0.5,1.9C4.4,40,5.2,39.5,5.5,39c2.4-2.9,4.6-5.8,6.9-8.7
	c3.8-4.7,7.6-9.4,11.4-14.1C24.5,15.4,24,14.5,23,14.2z"/>
</svg>
