<?xml version="1.0" encoding="utf-8"?>
<!-- Generator: Adobe Illustrator 24.3.0, SVG Export Plug-In . SVG Version: 6.00 Build 0)  -->
<svg version="1.1" id="Layer_1" xmlns="http://www.w3.org/2000/svg" xmlns:xlink="http://www.w3.org/1999/xlink" x="0px" y="0px"
	 viewBox="0 0 40 44" style="enable-background:new 0 0 40 44;" xml:space="preserve">
<style type="text/css">
	.st0{fill:#FFFFFF;}
</style>
<g>
	<path class="st0" d="M38.5,19.6c-0.1,0.9-0.2,1.8-0.3,2.7C38.1,23,38,23.8,38,24.6c-0.1,1-0.2,1.9-0.3,2.9
		c-0.1,0.8-0.2,1.6-0.2,2.3c-0.1,1-0.2,2-0.3,2.9c-0.1,0.8-0.1,1.6-0.2,2.3c-0.1,0.8-0.2,1.6-0.2,2.4c-0.1,0.8-0.2,1.6-0.2,2.3
		c-0.1,0.8-0.2,1.6-0.2,2.5c0,0.2,0,0.3-0.1,0.5c0,0.3-0.2,0.5-0.5,0.5c-2.1,0-4.1,0-6.2,0c-1.1,0-2.3,0-3.4,0c0,0-0.1,0-0.1,0
		c0.1-0.1,0.1-0.1,0.2-0.2c0.7-0.8,1.1-1.6,1.2-2.7c0-0.2,0.1-0.3,0.3-0.4c0.9-0.3,1.5-1,1.7-1.9c0.4-1.2,0.3-2.4-0.3-3.5
		c-0.3-0.5-0.7-0.8-1.2-1c-0.1,0-0.1-0.1-0.1-0.2c-0.1-1.5-0.5-2.8-1.3-4.1c-1.3-1.9-3.1-3.2-5.2-4.2C21,25.1,20.9,25,20.7,25
		c-0.1,0-0.2-0.1-0.2-0.2c-0.1-0.8-0.1-1.5-0.2-2.3c-0.1-0.7-0.1-1.4-0.2-2c0-0.3,0-0.5-0.1-0.8C26.1,19.6,32.3,19.6,38.5,19.6z"/>
	<path class="st0" d="M26.6,33.7c-8.1,0-16.2,0-24.3,0c0-0.5,0.1-1,0.2-1.5c0.4-1.6,1.3-2.8,2.5-3.9c1.8-1.6,3.9-2.4,6.2-2.9
		c1.2-0.2,2.3-0.4,3.5-0.3c3,0.1,5.7,0.8,8.2,2.5c1.4,1,2.5,2.2,3.2,3.7c0.3,0.7,0.5,1.5,0.5,2.2C26.6,33.5,26.6,33.6,26.6,33.7z
		 M19.2,31.5c0,0,0.1,0,0.2,0c0.4-0.2,0.4-0.6,0.1-0.9c-0.3-0.3-0.7-0.5-1.1-0.6c-0.2-0.1-0.3,0-0.3,0.3c0.1,0.3,0.3,0.6,0.5,0.9
		C18.7,31.3,18.9,31.5,19.2,31.5z M20.9,28.4c0,0,0-0.1,0-0.2c-0.2-0.4-1-0.9-1.4-0.8c-0.1,0-0.1,0.1-0.1,0.1c0,0.2,0.1,0.4,0.2,0.6
		c0.1,0.3,0.3,0.6,0.6,0.7C20.5,29.1,20.9,28.9,20.9,28.4z M22.6,31.5c0.2,0,0.4-0.1,0.5-0.3c0.1-0.2,0.1-0.4-0.1-0.6
		c-0.3-0.4-0.7-0.6-1.2-0.7c-0.2,0-0.3,0-0.2,0.2c0.1,0.4,0.2,0.7,0.5,1C22.2,31.3,22.3,31.5,22.6,31.5z"/>
	<path class="st0" d="M29.2,18.9c-3.2,0-6.5,0-9.7,0c-0.1,0-0.2,0-0.3,0c-0.2-0.1-0.4-0.3-0.3-0.5c0.1-0.9,0.3-1.8,0.4-2.8
		c0-0.2,0.2-0.4,0.4-0.4c0.4,0,0.8,0,1.2,0c0.2,0,0.2,0,0.3-0.2c0.2-0.3,0.3-0.7,0.5-1c0.4-0.6,0.9-0.8,1.6-0.8c3.3,0,6.7,0,10,0
		c0.6,0,1.2,0,1.7,0c0.8,0,1.4,0.3,1.8,1c0.2,0.3,0.3,0.6,0.4,0.8c0.1,0.1,0.1,0.2,0.2,0.1c0.4,0,0.8,0,1.2,0c0.3,0,0.4,0.1,0.5,0.4
		c0.1,0.9,0.3,1.8,0.4,2.7c0,0.3-0.1,0.5-0.3,0.5c-0.1,0-0.2,0-0.3,0C35.7,18.9,32.5,18.9,29.2,18.9z"/>
	<path class="st0" d="M14.4,38.1c0.7-0.6,1.4-1.1,2.2-1.6c1.2-0.8,2.4-1.5,3.8-1.8c0.5-0.1,1-0.2,1.5-0.2c1.6,0,3.2,0,4.8,0
		c0.7,0,1.2,0.3,1.5,0.9c0.3,0.5,0.3,1.1,0.3,1.7c0,0.3-0.1,0.7-0.2,1c-0.2,0.6-0.7,0.9-1.3,0.9c-2.1,0-4.3,0-6.4,0
		c-6,0-11.9,0-17.9,0c-0.3,0-0.5,0-0.8-0.1c-0.5-0.1-0.8-0.5-1-1c-0.3-0.8-0.3-1.6,0-2.4c0.2-0.7,0.7-1,1.4-1c1,0,2,0,3,0
		c0.4,0,0.8,0,1.3,0c1.5-0.1,2.9,0.4,4.2,1C11.9,36.2,13.2,37.1,14.4,38.1C14.4,38.1,14.4,38.1,14.4,38.1z"/>
	<path class="st0" d="M24.3,43.1c-0.6,0.2-1.1,0.2-1.7,0.2c-4.2,0-8.5,0-12.7,0c-1.3,0-2.6,0-3.9,0c-1.5,0.1-2.6-1-3-2.1
		c-0.2-0.4-0.3-0.9-0.3-1.3c0-0.1,0-0.2,0.1-0.2c0.6-0.1,1.2-0.1,1.7,0.2c0.8,0.5,1.7,0.6,2.6,0.4c0.3-0.1,0.5-0.2,0.8-0.4
		c0.7-0.4,1.4-0.4,2.1,0c0.7,0.4,1.3,0.6,2.1,0.5c0.5,0,0.9-0.2,1.3-0.5c0.7-0.4,1.4-0.4,2.1,0c0.8,0.5,1.7,0.6,2.6,0.4
		c0.3-0.1,0.5-0.2,0.8-0.3c0.8-0.4,1.5-0.4,2.2,0c0.8,0.5,1.6,0.6,2.5,0.3c0.3-0.1,0.6-0.2,0.8-0.4c0.5-0.3,1.1-0.3,1.7-0.2
		c0.1,0,0.2,0.1,0.2,0.2c0,1.2-0.5,2.1-1.4,2.9c-0.1,0.1-0.2,0.1-0.2,0.2C24.4,43,24.4,43,24.3,43.1z"/>
	<path class="st0" d="M36.6,0.7C37,1.2,37.4,1.6,37.9,2c-0.5,0.5-1,1-1.6,1.5C35.2,4.7,34,5.9,32.9,7c-0.9,0.9-1.7,1.7-2.6,2.6
		c-0.1,0.1-0.1,0.2-0.1,0.2c0,0.8,0,1.6,0,2.5c0,0.1,0,0.2,0,0.2c-0.6,0-1.2,0-1.9,0c0-0.3,0-0.7,0-1c0-0.8,0-1.6,0-2.4
		c0-0.1,0-0.2,0.1-0.3C31.1,6.2,33.8,3.5,36.6,0.7C36.5,0.8,36.5,0.7,36.6,0.7z"/>
</g>
</svg>
