<?xml version="1.0" encoding="utf-8"?>
<!-- Generator: Adobe Illustrator 24.3.0, SVG Export Plug-In . SVG Version: 6.00 Build 0)  -->
<svg version="1.1" id="Layer_1" xmlns="http://www.w3.org/2000/svg" xmlns:xlink="http://www.w3.org/1999/xlink" x="0px" y="0px"
	 viewBox="0 0 44 38" style="enable-background:new 0 0 44 38;" xml:space="preserve">
<style type="text/css">
	.st0{fill:#FFFFFF;}
</style>
<g>
	<path class="st0" d="M38.3,8c1.2,0.6,2.4,1.1,3.6,1.7c1.1,0.5,1.3,1.5,1.1,2.6c-0.2,1.6-0.6,3.1-1.2,4.6c-0.7,1.9-1.5,3.9-2.3,5.8
		c-0.4,1-1.1,1.7-2.1,2.2c-5.9,2.8-11.8,5.6-17.6,8.4c-2.6,1.3-5.3,2.5-7.9,3.7c-1.9,0.9-4,0.2-5-1.7c-1.9-4-3.8-8.1-5.7-12.2
		c-0.8-1.8,0-3.9,1.8-4.8c4.5-2.1,8.9-4.2,13.4-6.3c4.2-2,8.4-3.9,12.6-5.9c1-0.5,2-0.5,3-0.2c1.5,0.5,3.1,1,4.6,1.5
		c0,0.1,0,0.3,0,0.4c-0.3,1.7-0.6,3.3-0.8,5c-0.6,0.5-0.6,1.2-0.1,1.7c0.5,0.5,1.2,0.4,1.7-0.1c0.1,0.1,0.2,0.1,0.4,0.2
		c0.1-0.6,0.1-1.1,0.2-1.6C38.1,11.3,38.2,9.7,38.3,8z M11.8,33.7c0.2-0.1,0.7-0.1,1-0.3c1.5-0.7,2.9-1.3,4.3-2
		c4.9-2.3,9.8-4.6,14.7-6.9c1.6-0.8,2.2-2.4,1.5-4c-1.3-2.7-2.6-5.5-3.8-8.2c-0.7-1.6-2.3-2.1-3.9-1.4C23.3,12,21,13,18.7,14.1
		c-4.1,1.9-8.1,3.8-12.2,5.7c-1.5,0.7-2.2,2.3-1.5,3.8c1.3,2.8,2.6,5.7,4,8.5C9.5,33.1,10.4,33.7,11.8,33.7z"/>
	<path class="st0" d="M35.8,12.8c0.3-1.7,0.6-3.3,0.8-5c0-0.1,0-0.3,0-0.4c0.1-1.1,0-2.2-0.2-3.3c-0.1-0.6-0.5-0.9-1.1-1
		c-1-0.1-1.9,0.1-2.8,0.3c-0.3,0.1-0.5,0.1-0.7,0.2c-0.3-0.8-0.6-1.6-0.9-2.5c0.6-0.1,1.2-0.2,1.8-0.3c1.1-0.1,2.2-0.1,3.3,0.2
		c1.3,0.4,2,1.2,2.2,2.5c0.1,1.3,0.2,2.7,0.2,4c0,0.2,0,0.4,0,0.6c-0.1,1.6-0.2,3.3-0.4,4.9c0,0.5-0.1,1-0.2,1.6
		c-0.1-0.1-0.3-0.1-0.4-0.2c-0.5-0.3-1.1-0.6-1.6-1C35.8,13.2,35.8,13,35.8,12.8z"/>
	<path class="st0" d="M22.3,23.5c-0.5,0.2-1,0.4-1.4,0.7c-0.2-0.2-0.3-0.3-0.5-0.5c-0.4,0.2-0.8,0.4-1.2,0.6c-0.1,0-0.1,0.2-0.1,0.3
		c0,0.2,0,0.3,0.1,0.5c-0.9,0.4-1.7,0.8-2.7,1.2c-0.2-0.3-0.3-0.5-0.5-0.8c-0.3-0.5-0.5-0.6-1.1-0.3c-0.2,0.1-0.3,0.2-0.5,0.2
		c0.2,0.5,0.5,1,0.7,1.5c-0.4,0.2-0.9,0.4-1.4,0.7c-0.7-1.5-1.4-3-2.1-4.5c1-0.5,2-0.9,2.9-1.3c0.6-0.2,1.1-0.1,1.5,0.4
		c0.4,0.5,0.5,1.1,0.1,1.7c0.8,0.1,1.1,0.8,1.5,1.4c0-0.6-0.1-1.1-0.1-1.6c-0.1-1-0.2-1.9-0.3-2.9c0-0.2,0-0.3,0.2-0.4
		c0.4-0.1,0.8-0.5,1.1-0.4c0.3,0.1,0.6,0.5,0.8,0.8c0.9,0.8,1.7,1.7,2.6,2.6C22.1,23.3,22.1,23.4,22.3,23.5z M13.8,24.4
		c0.3-0.2,0.6-0.3,0.9-0.5c0.1-0.1,0.2-0.3,0.2-0.5c0-0.1-0.3-0.3-0.4-0.3c-0.4,0.1-0.8,0.3-1.2,0.4C13.6,23.9,13.7,24.1,13.8,24.4z
		 M18.8,23.2c0.3-0.1,0.5-0.3,0.8-0.4c-0.3-0.4-0.6-0.7-1-1.2C18.7,22.2,18.7,22.7,18.8,23.2z"/>
	<path class="st0" d="M7,25.2C8,24.8,8.9,24.3,9.8,24c0.8-0.3,1.5,0,1.7,0.7c0.1,0.3,0,0.6,0,0.9c0.5,0,1,0.3,1.2,0.9
		c0.3,0.8-0.1,1.5-0.9,1.9c-0.6,0.3-1.2,0.5-1.8,0.8c-0.3,0.1-0.5,0.2-0.8,0.4C8.4,28.2,7.7,26.7,7,25.2z M10,28
		c0.4-0.2,0.7-0.3,1-0.5c0.2-0.1,0.3-0.3,0.1-0.6c-0.1-0.2-0.3-0.3-0.5-0.2c-0.3,0.1-0.6,0.3-1,0.4C9.8,27.4,9.9,27.7,10,28z
		 M9.3,26.3c0.3-0.2,0.6-0.3,0.9-0.5c0.1-0.1,0.2-0.3,0.1-0.4c0-0.1-0.3-0.2-0.4-0.2c-0.3,0.1-0.6,0.2-0.9,0.4
		C9,25.9,9.1,26.1,9.3,26.3z"/>
	<path class="st0" d="M22.4,23.5c-0.7-1.5-1.4-3-2.1-4.5c0.4-0.2,0.8-0.4,1.3-0.6c0.1,0,0.3,0,0.3,0.1c0.6,0.4,1.1,0.8,1.7,1.3
		c0.1,0.1,0.2,0.1,0.3,0.2c0,0,0.1,0,0.1-0.1c-0.3-0.7-0.7-1.4-1-2.2c0.4-0.2,0.8-0.4,1.3-0.6c0.7,1.5,1.4,3,2.1,4.5
		c-0.4,0.2-0.8,0.4-1.2,0.6c-0.1,0-0.2,0-0.3-0.1c-0.6-0.4-1.3-0.9-1.9-1.3c-0.1-0.1-0.2-0.1-0.3-0.2c0.3,0.7,0.7,1.5,1.1,2.3
		C23.3,23,22.9,23.2,22.4,23.5z"/>
	<path class="st0" d="M27,21.3c-0.7-1.5-1.4-3-2.1-4.5c0.7-0.3,1.4-0.6,2-1c0.3-0.1,0.6-0.2,0.9-0.3c0.5-0.1,1,0,1.4,0.3
		c0.9,0.6,1.3,1.5,1.3,2.6c0,0.7-0.4,1.2-0.9,1.5C28.8,20.5,27.9,20.9,27,21.3z M27.9,19.5c0.5-0.2,1.1-0.4,1.1-1.1
		c0-0.5-0.3-1.1-0.8-1.3c-0.5-0.2-0.9,0.1-1.4,0.3C27.2,18.1,27.5,18.8,27.9,19.5z"/>
</g>
</svg>
