<?xml version="1.0" encoding="utf-8"?>
<!-- Generator: Adobe Illustrator 24.3.0, SVG Export Plug-In . SVG Version: 6.00 Build 0)  -->
<svg version="1.1" id="Layer_1" xmlns="http://www.w3.org/2000/svg" xmlns:xlink="http://www.w3.org/1999/xlink" x="0px" y="0px"
	 viewBox="0 0 38 44" style="enable-background:new 0 0 38 44;" xml:space="preserve">
<style type="text/css">
	.st0{fill:#FFFFFF;}
</style>
<g>
	<path class="st0" d="M36.9,40.1c0.3-0.6,0.6-1.2,0.5-2h-2.3c0.1-0.2,0.1-0.2,0.2-0.3c2.3-3.8,2.9-7.9,1.9-12.2
		c-0.8-3.5-2.6-6.5-5.7-8.6c-0.3-0.2-0.6-0.4-0.9-0.6c0.2-0.5,0.4-0.9,0.7-1.3c0.9-1.5,2.3-2.6,3.9-3.3c0.4-0.2,0.7-0.4,0.6-0.9
		c0-0.4-0.3-0.7-0.7-0.8c-0.6-0.1-1.1-0.3-1.7-0.4c-1-0.1-1.9,0-2.9,0c0.6-1.2,1.3-2.4,2.3-3.3c0.6-0.5,0.5-1.3-0.2-1.5
		c-0.7-0.2-1.5-0.3-2.3-0.2c-0.6,0-1.1,0.3-1.7,0.4c0-0.2-0.1-0.3-0.1-0.5c-0.3-1.3-0.7-2.5-1.4-3.6c-0.4-0.7-1.1-0.7-1.5,0
		c-0.4,0.8-0.8,1.6-1.1,2.4c-0.2,0.6-0.3,1.1-0.5,1.7c-1.8-0.7-2.5-0.7-3.8-0.3c-0.8,0.3-1,0.9-0.4,1.5c0.2,0.2,0.5,0.5,0.7,0.7
		c0.7,0.8,1.2,1.6,1.6,2.7c-1.6-0.4-3.1-0.2-4.5,0.3c-0.4,0.1-0.8,0.3-0.8,0.8c0,0.5,0.3,0.7,0.7,0.9c0.8,0.5,1.7,0.9,2.4,1.5
		c1,0.8,1.7,1.8,2.1,3.1c-3.3,1.8-5.2,4.7-6.3,8.2c-1.6-0.8-3.3-0.5-5-0.3c0.3-1.5,0.9-2.8,2.1-3.9c0.5-0.4,0.6-0.9,0.2-1.3
		c-0.3-0.4-0.8-0.3-1.3,0.1c-0.4,0.3-0.7,0.7-1.1,1c-0.1-0.1-0.1-0.3-0.2-0.4c-0.7-1.9-2.8-3-4.8-2.6c-0.5,0.1-0.8,0.4-0.9,0.9
		c-0.5,2.1,0.8,4.3,2.8,4.9c0.5,0.2,1.1,0.2,1.7,0.3c-0.1,0.3-0.1,0.7-0.2,1c-0.6-0.1-1.1-0.1-1.6-0.2c-1.5-0.2-3,0-4.3,0.9
		c-2,1.3-2.8,3.3-2.8,5.6c-0.1,2.7,1,4.9,2.8,6.9c0.1,0.1,0.2,0.3,0.4,0.5c-0.3,0-0.5,0-0.7,0c-0.6,0-1.1,0-1.7,0
		c-0.4,0.1,1,2.5,1.1,2.7c0.8,1.4,2.3,2.4,4,2.4c5.6,0,11.2,0,16.8,0c3.2,0,6.4,0,9.6,0c1.3,0,2.3-0.5,3.1-1.6
		C36.2,41.2,36.6,40.7,36.9,40.1z M6.4,19c1.5-0.2,2.9,1.1,2.7,2.7C7.7,22.1,6.1,20.5,6.4,19z M35.4,33.7c-0.3-0.3-0.6-0.6-0.8-0.8
		c0.4-0.4,0.8-0.9,1.3-1.3C35.7,32.3,35.6,33,35.4,33.7z M29.9,35.1c-0.7-0.7-1.5-1.5-2.2-2.2c0.7-0.7,1.5-1.5,2.2-2.2
		c0.7,0.7,1.5,1.5,2.2,2.2C31.4,33.6,30.6,34.4,29.9,35.1z M30.3,38.1h-1c0.2-0.2,0.4-0.3,0.6-0.5C30.1,37.7,30.2,37.9,30.3,38.1z
		 M22.9,35.1c-0.7-0.7-1.5-1.5-2.2-2.2c0.8-0.8,1.5-1.5,2.3-2.3c0.7,0.7,1.5,1.5,2.3,2.2C24.4,33.6,23.6,34.4,22.9,35.1z M23.4,38.2
		h-1.1c0.2-0.2,0.4-0.3,0.6-0.5C23.1,37.8,23.2,37.9,23.4,38.2z M26.4,20.2c0.7,0.7,1.5,1.5,2.2,2.2c-0.7,0.7-1.5,1.5-2.2,2.3
		c-0.7-0.7-1.5-1.5-2.2-2.2C24.9,21.7,25.7,21,26.4,20.2z M26,17.2h1c-0.2,0.2-0.4,0.3-0.5,0.5C26.3,17.6,26.1,17.4,26,17.2z
		 M29.8,28.1c-0.7-0.7-1.5-1.5-2.2-2.2c0.7-0.7,1.5-1.5,2.2-2.2c0.7,0.7,1.5,1.5,2.2,2.2C31.3,26.7,30.6,27.4,29.8,28.1z M33.3,27.2
		c0.7,0.7,1.5,1.5,2.2,2.2c-0.7,0.7-1.5,1.4-2.2,2.1c-0.7-0.7-1.4-1.5-2.2-2.2C31.8,28.7,32.6,27.9,33.3,27.2z M28.6,29.4
		c-0.8,0.8-1.5,1.5-2.3,2.3c-0.7-0.7-1.4-1.5-2.2-2.2c0.7-0.7,1.5-1.5,2.2-2.2C27.1,27.9,27.9,28.7,28.6,29.4z M25.2,26
		c-0.7,0.7-1.5,1.5-2.3,2.2c-0.7-0.7-1.5-1.5-2.2-2.2c0.7-0.7,1.5-1.5,2.2-2.2C23.7,24.4,24.4,25.2,25.2,26z M21.6,29.4
		c-0.7,0.7-1.5,1.5-2.3,2.3c0-0.6,0-1.1,0-1.7c-0.1-0.5-0.2-1.1-0.3-1.6c-0.2-0.8-0.2-0.8,0.4-1.3C20.2,27.9,20.9,28.7,21.6,29.4z
		 M19.4,34.1c0.8,0.8,1.5,1.5,2.3,2.3c-0.5,0.5-1.1,1.1-1.7,1.6c-0.1,0.1-0.4,0-0.5-0.1c-0.5-0.7-0.9-1.4-1.3-2.2
		c-0.1-0.2,0-0.5,0.2-0.7C18.7,34.8,19.1,34.4,19.4,34.1z M26.3,34.2c0.8,0.7,1.5,1.5,2.4,2.3c-0.5,0.5-1,1.1-1.7,1.5
		c-0.3,0.2-1,0.2-1.3,0c-0.6-0.4-1.1-1-1.7-1.6C24.9,35.6,25.6,34.9,26.3,34.2z M33.4,34c0.4,0.4,0.8,0.9,1.2,1.3
		c0.1,0.1,0,0.3,0,0.4c-0.4,0.7-0.9,1.5-1.3,2.2c-0.1,0.2-0.3,0.3-0.6,0.1c-0.6-0.5-1.1-1.1-1.6-1.6C31.8,35.6,32.6,34.9,33.4,34z
		 M35.8,27.1c-0.4-0.4-0.8-0.8-1.2-1.2c0.2-0.1,0.4-0.4,0.8-0.7C35.6,25.8,35.7,26.5,35.8,27.1z M34.7,23.2c0,0.1,0,0.3-0.1,0.4
		c-0.4,0.4-0.8,0.8-1.2,1.2c-0.8-0.8-1.6-1.6-2.3-2.3c0.6-0.6,1.3-1.3,2-2C33.6,21.4,34.1,22.3,34.7,23.2z M31.8,19.3
		c-0.6,0.6-1.3,1.3-1.9,1.9c-0.7-0.7-1.5-1.5-2.3-2.3c0.4-0.4,0.8-0.8,1.2-1.1c0.1-0.1,0.3-0.1,0.4,0C30.1,18.1,31,18.6,31.8,19.3z
		 M32.4,11.5c-0.6,0.6-1.3,1.2-1.9,2c-0.6,0.7-1,1.6-1.5,2.4c-0.7-0.1-1.6-0.3-2.4-0.4C27.1,13.3,30.3,11.1,32.4,11.5z M30.8,6.5
		c-1,1.3-1.7,2.7-2.3,4.2c-0.1,0.3-0.6,0.6-0.9,0.8C26.8,9.8,28.8,6.7,30.8,6.5z M25.5,6.6c0.2-1,0.5-2.1,0.7-3.1c0.1,0,0.1,0,0.2,0
		c0.2,0.8,0.4,1.7,0.7,2.5c0.1,0.5,0.2,1-0.3,1.4c-0.2,0.2-0.3,0.5-0.5,0.8c-0.3-0.5-0.6-0.9-0.8-1.3C25.5,6.8,25.5,6.7,25.5,6.6z
		 M22.1,6.6c0.6-0.1,1.2,0.2,1.7,0.7c1.2,1.2,1.7,2.6,2.1,4.2c0.1,0.2,0.1,0.4,0.1,0.6c-0.5-0.4-1-0.7-1.5-1.1
		c-0.1-0.1-0.2-0.2-0.2-0.3C23.7,9.2,23,7.8,22.1,6.6z M20.8,12c-0.2-0.1-0.3-0.2-0.6-0.4c1.3-0.1,2.4,0.2,3.4,0.8
		c0.6,0.4,1.1,0.9,1.6,1.4c0.1,0.1,0.1,0.1,0.1,0.2c0.1,0.2-0.6,1.8-0.8,1.8c-0.1,0-0.1,0-0.2,0.1c-0.5,0.2-0.7,0-0.9-0.5
		C22.8,14,21.9,12.8,20.8,12z M23.7,17.7c0.1,0,0.3,0,0.3,0.1c0.4,0.4,0.8,0.8,1.2,1.1c-0.8,0.8-1.6,1.6-2.3,2.3
		c-0.6-0.6-1.2-1.2-1.9-1.9C21.8,18.6,22.7,18.1,23.7,17.7z M18.1,23.2c0.5-0.9,1-1.8,1.6-2.7c0.7,0.7,1.3,1.3,1.9,2
		c-0.7,0.7-1.5,1.5-2.3,2.3c-0.3-0.4-0.7-0.7-1.1-1.2C18.1,23.5,18.1,23.3,18.1,23.2z M17.4,25.1c0.3,0.3,0.5,0.5,0.8,0.8
		c-0.1,0.1-0.2,0.2-0.3,0.3C17.2,25.8,17.2,25.7,17.4,25.1z M2.1,32.1c-0.3-1.6-0.2-3.2,0.9-4.6c0.9-1.2,2.2-1.7,3.7-1.6
		c0.8,0.1,1.7,0.2,2.5,0.2c1.3,0,2.5-0.1,3.8-0.2c2.4-0.2,4.5,1.5,4.7,4c0.4,3.5-1.2,6.1-3.9,8.1c-0.1,0.1-0.4,0.1-0.6,0.1
		c-1.1,0-2.3,0-3.4,0c-1.1,0-2.2,0-3.3,0c-0.2,0-0.4-0.1-0.6-0.2C3.9,36.5,2.5,34.6,2.1,32.1z M17.6,38.1h-1.4
		c0.3-0.3,0.5-0.6,0.8-0.9C17.3,37.5,17.4,37.8,17.6,38.1z M32.6,41.7c-6.5,0-13,0-19.6,0c-2.1,0-4.3-0.1-6.4,0
		c-1.4,0.1-2.2-0.7-2.8-1.9h31.3C34.7,41,33.8,41.7,32.6,41.7z"/>
	<path class="st0" d="M15.9,32.1c-0.4,0.7-0.7,1.5-1.1,2.2c-0.4,0.6-1,1.2-1.5,1.7c-0.4,0.4-0.9,0.3-1.2,0c-0.3-0.3-0.3-0.8,0-1.1
		c0.9-0.9,1.7-1.9,2.1-3.2c0.1-0.4,0.5-0.6,0.9-0.5C15.6,31.4,15.8,31.7,15.9,32.1z"/>
	<path class="st0" d="M13.6,29.3c0.2-0.4,0.3-0.9,0.5-1.4c0.7,0.2,1.2,0.6,1.4,1.3c0.2,0.4,0,0.8-0.3,1c-0.4,0.2-0.7,0.2-1-0.2
		C14,29.7,13.9,29.5,13.6,29.3z"/>
</g>
</svg>
