<svg width="24" height="24" viewBox="0 0 24 24" fill="none" xmlns="http://www.w3.org/2000/svg">
<path fill-rule="evenodd" clip-rule="evenodd" d="M8.66699 7.58333C8.66699 5.74238 10.1594 4.25 12.0003 4.25C13.8413 4.25 15.3337 5.74238 15.3337 7.58333C15.3337 9.42428 13.8413 10.9167 12.0003 10.9167C10.1594 10.9167 8.66699 9.42428 8.66699 7.58333ZM12.0003 2.25C9.05481 2.25 6.66699 4.63781 6.66699 7.58333C6.66699 10.5289 9.05481 12.9167 12.0003 12.9167C14.9458 12.9167 17.3337 10.5289 17.3337 7.58333C17.3337 4.63781 14.9458 2.25 12.0003 2.25ZM7.66732 15.25C6.25283 15.25 4.89627 15.8119 3.89608 16.8121C2.89589 17.8123 2.33398 19.1688 2.33398 20.5833V22.75C2.33398 23.3023 2.7817 23.75 3.33398 23.75C3.88627 23.75 4.33398 23.3023 4.33398 22.75V20.5833C4.33398 19.6993 4.68517 18.8514 5.31029 18.2263C5.93542 17.6012 6.78326 17.25 7.66732 17.25H16.334C17.218 17.25 18.0659 17.6012 18.691 18.2263C19.3161 18.8514 19.6673 19.6993 19.6673 20.5833V22.75C19.6673 23.3023 20.115 23.75 20.6673 23.75C21.2196 23.75 21.6673 23.3023 21.6673 22.75V20.5833C21.6673 19.1688 21.1054 17.8123 20.1052 16.8121C19.105 15.8119 17.7485 15.25 16.334 15.25H7.66732Z" fill="#CCCCD0"/>
</svg>
