<svg width="22" height="32" viewBox="0 0 22 32" fill="none" xmlns="http://www.w3.org/2000/svg">
<path d="M7.65012 6.99608H14.3425C14.6038 6.99608 14.815 6.79335 14.815 6.54487C14.815 6.29638 14.6038 6.09473 14.3425 6.09473H7.65012C7.39091 6.09473 7.17871 6.29638 7.17871 6.54487C7.17853 6.79335 7.39091 6.99608 7.65012 6.99608Z" fill="white"/>
<path d="M13.6501 5.40559C13.9625 3.75431 15.1403 1.49397 15.1403 1.49397C15.1403 1.49397 10.1686 -0.772811 9.01425 0.277987C8.54802 0.701488 9.69375 2.31755 9.26917 2.78574C8.86605 3.23374 6.85205 2.78574 6.85205 2.78574C6.85205 2.78574 7.62755 4.1905 7.99027 5.40559H13.6501Z" fill="white"/>
<path d="M14.5504 7.66361C14.4843 7.67541 14.4138 7.68381 14.3445 7.68381H7.65317C7.53375 7.68381 7.41952 7.66039 7.31083 7.62732C2.66215 12.0541 0.140625 18.6963 0.140625 22.7017C0.139553 27.8369 5.38121 32 10.9995 32C16.6178 32 21.8595 27.8367 21.8595 22.7017C21.8593 18.6494 19.2631 12.6248 14.5504 7.66361ZM10.9985 26.0992C8.01392 26.0992 5.59466 23.6789 5.59466 20.6933C5.59466 17.7088 8.01607 15.2895 10.9985 15.2895C13.9808 15.2895 16.4023 17.7098 16.4023 20.6933C16.4023 23.6789 13.983 26.0992 10.9985 26.0992Z" fill="white"/>
<path d="M12.7095 20.6005C12.4471 20.4225 11.9553 20.2303 11.2268 20.0267V17.7384C11.6589 17.7545 11.9746 17.9197 12.1741 18.2367C12.2798 18.4095 12.3427 18.6142 12.3672 18.8522H13.1895C13.1736 18.3211 12.9997 17.8933 12.6647 17.569C12.3318 17.2458 11.8529 17.0613 11.229 17.0175V16.402H10.7821V17.0271C10.1517 17.0336 9.66315 17.2277 9.3133 17.6106C8.96346 17.9935 8.78844 18.4224 8.78844 18.8992C8.78844 19.4324 8.95058 19.8495 9.27487 20.1504C9.60023 20.4512 10.1015 20.6656 10.7821 20.7947V23.3557C10.2518 23.3108 9.88822 23.1126 9.69301 22.7584C9.58199 22.56 9.51388 22.2475 9.49136 21.8186H8.65723C8.65723 22.3573 8.74786 22.784 8.92717 23.1018C9.25252 23.6886 9.87338 24.0107 10.7831 24.0693V24.9814H11.2301V24.0693C11.7975 24.0064 12.2306 23.8784 12.5336 23.6843C13.0755 23.3333 13.3476 22.7402 13.3476 21.9071C13.342 21.3322 13.1309 20.8958 12.7095 20.6005ZM10.7799 19.938C10.429 19.8697 10.1496 19.746 9.94471 19.571C9.73663 19.3949 9.63223 19.1518 9.63223 18.8414C9.63223 18.5844 9.72179 18.337 9.89573 18.1033C10.0718 17.8686 10.3661 17.7427 10.7801 17.7279L10.7799 19.938ZM12.335 22.7924C12.1344 23.1594 11.7622 23.3546 11.2267 23.3802V20.9066C11.6182 21.0144 11.8976 21.1263 12.0629 21.2446C12.352 21.4484 12.4939 21.747 12.4939 22.1385C12.4939 22.3861 12.4428 22.6036 12.335 22.7924Z" fill="white"/>
</svg>
