<svg width="33" height="32" viewBox="0 0 33 32" fill="none" xmlns="http://www.w3.org/2000/svg">
<path d="M30.8469 22.8006C30.2369 22.7542 28.9706 23.4437 28.6192 23.6161C27.3794 24.2393 25.6689 25.2139 24.5418 25.9896C24.4623 26.0426 24.3562 26.1156 24.2766 26.162C23.7727 26.4869 23.2357 26.7056 22.639 26.8316C19.3638 27.5278 14.5903 27.6073 14.5903 27.6073L14.3118 27.6206C14.0997 27.6338 13.914 27.488 13.8875 27.2824C13.8544 27.057 14.0201 26.8515 14.2522 26.8316L21.3528 26.1554C22.1351 26.0692 22.7584 25.3399 22.6722 24.5178C22.586 23.6957 21.8302 23.0923 21.0478 23.1785L14.7361 23.099C14.3052 23.0923 13.6157 22.9862 13.2046 22.8669C9.13386 21.6801 6.8399 22.794 5.62 23.3111C5.34817 22.8603 4.83103 22.5686 4.25423 22.6083L1.52933 22.7873C0.62103 22.847 -0.0618524 23.6028 0.00444686 24.478L0.442022 30.5245C0.501691 31.3996 1.29065 32.056 2.19232 31.9963L4.91722 31.8173C5.49403 31.7775 5.95812 31.4262 6.16365 30.9422L18.124 31.4593C19.4567 31.5985 20.7031 31.4394 21.8766 30.8228L22.2213 30.6438L31.2579 25.3531C31.7021 25.0946 32.0204 24.6437 32.0336 24.1399C32.0602 23.5365 31.7088 22.8603 30.8469 22.8006ZM3.19344 30.5643C2.68294 30.5643 2.26525 30.1665 2.26525 29.6692C2.26525 29.172 2.68294 28.7742 3.19344 28.7742C3.70395 28.7742 4.12163 29.172 4.12163 29.6692C4.12163 30.1665 3.70395 30.5643 3.19344 30.5643Z" fill="white"/>
<path d="M24.4092 24.6836C25.3307 24.0405 27.2203 23.0128 28.2877 22.4758C28.6125 22.3167 28.9507 22.1509 29.3153 22.025C28.8512 21.7134 28.354 21.7001 27.8368 21.899C26.8225 22.3034 24.9528 23.2051 23.9981 23.7222C23.9915 23.7355 23.9849 23.7488 23.9849 23.762C24.0512 23.9609 24.1042 24.1664 24.1241 24.3786C24.144 24.551 24.1374 24.7167 24.1307 24.8825C24.2169 24.8162 24.3097 24.7499 24.4092 24.6836Z" fill="white"/>
<path d="M26.8488 21.2952C26.3847 20.9969 25.8941 20.9836 25.3903 21.1825C24.7604 21.4278 23.3615 21.8853 22.7383 22.2168C23.0035 22.3825 23.2422 22.588 23.4477 22.8267C23.4875 22.8002 23.5272 22.767 23.5737 22.7405L24.0311 22.4886C24.6941 22.1239 26.1195 21.6201 26.8488 21.2952Z" fill="white"/>
<path d="M25.9409 9.53384C27.7111 8.77802 28.9575 7.01446 28.9575 4.96582C28.9575 2.22103 26.7299 0 23.9917 0C21.2535 0 19.0259 2.22766 19.0259 4.96582C19.0259 4.99234 19.0325 5.01886 19.0325 5.04538C21.9828 5.35698 24.5155 7.08739 25.9409 9.53384Z" fill="white"/>
<path d="M18.084 21.3024C22.0686 21.3024 25.2973 18.0736 25.2973 14.089C25.2973 10.1044 22.0686 6.87567 18.084 6.87567C14.0994 6.87567 10.8706 10.1044 10.8706 14.089C10.8706 18.0736 14.0994 21.3024 18.084 21.3024ZM15.5646 16.9399C15.6309 16.7012 15.6972 16.4625 15.7701 16.2305C15.8563 15.9587 15.9292 15.9255 16.1812 16.0515C16.6121 16.2769 17.063 16.3962 17.5403 16.4559C17.8453 16.4957 18.1503 16.4625 18.4287 16.3366C18.9591 16.1045 19.0453 15.4879 18.5945 15.1233C18.442 14.9973 18.2696 14.9045 18.0906 14.825C17.6265 14.6194 17.1425 14.4669 16.6983 14.2017C15.9889 13.7774 15.5314 13.1874 15.5845 12.3255C15.6442 11.3442 16.2011 10.7343 17.0961 10.4094C17.4674 10.2768 17.4674 10.2768 17.474 9.89229C17.474 9.75969 17.474 9.62709 17.474 9.50112C17.4806 9.2094 17.5337 9.15637 17.8188 9.14974C17.9116 9.14974 17.9978 9.14974 18.0906 9.14974C18.7072 9.14974 18.7072 9.14974 18.7138 9.76632C18.7138 10.2039 18.7138 10.2039 19.1514 10.2768C19.4829 10.3299 19.8077 10.4293 20.1127 10.5619C20.2851 10.6348 20.3448 10.7542 20.2984 10.9332C20.2188 11.1984 20.1459 11.4702 20.0597 11.7354C19.9801 11.9873 19.9006 12.0205 19.6553 11.9078C19.1713 11.6757 18.6608 11.5763 18.1304 11.6028C17.9911 11.6094 17.8519 11.6293 17.7259 11.689C17.2619 11.8879 17.1889 12.3984 17.5801 12.7166C17.779 12.8758 18.0044 12.9885 18.2431 13.0879C18.6541 13.2603 19.0652 13.4194 19.4497 13.6316C20.6895 14.3144 21.021 15.8725 20.1459 16.9266C19.8276 17.3112 19.4232 17.5697 18.9459 17.6957C18.7403 17.7554 18.6409 17.8615 18.6541 18.0802C18.6608 18.2924 18.6541 18.5046 18.6541 18.7167C18.6541 18.909 18.5547 19.0084 18.3691 19.0151C18.137 19.0217 17.9116 19.0217 17.6795 19.0151C17.4806 19.0084 17.3812 18.8957 17.3812 18.7035C17.3812 18.551 17.3812 18.3919 17.3746 18.2394C17.3679 17.8946 17.3613 17.8813 17.0298 17.8283C16.6055 17.762 16.1944 17.6626 15.8033 17.4769C15.5049 17.3377 15.4784 17.2581 15.5646 16.9399Z" fill="white"/>
</svg>
