<svg width="25" height="18" viewBox="0 0 25 18" fill="none" xmlns="http://www.w3.org/2000/svg">
<path d="M17.5747 7.42416C17.9881 7.52855 18.1436 7.84809 18.2818 8.19016C18.3351 8.34964 18.4146 8.49911 18.5171 8.63241C18.9192 9.08477 18.9954 9.88773 18.6725 10.3778C18.6069 10.4597 18.5652 10.558 18.5518 10.662C18.5385 10.766 18.5541 10.8717 18.597 10.9674C18.6474 11.137 18.6618 11.3153 18.6392 11.4909C18.629 11.5371 18.6351 11.5854 18.6564 11.6277C18.6778 11.6699 18.7131 11.7035 18.7564 11.7226C19.7869 12.3081 20.3586 13.1883 20.4412 14.3771C20.5729 16.2723 18.8723 17.9164 16.9779 17.7296C16.2022 17.6723 15.4759 17.3274 14.9413 16.7624C14.6045 16.4187 14.3502 16.003 14.1975 15.5466C14.0447 15.0903 13.9977 14.6052 14.0598 14.128C14.1219 13.6508 14.2916 13.1939 14.556 12.7919C14.8205 12.3898 15.1727 12.053 15.5863 11.807C15.7716 11.6937 15.88 11.6082 15.8398 11.3591C15.8114 11.1836 15.9061 10.9905 15.9294 10.8032C15.9468 10.7143 15.9351 10.6222 15.8962 10.5405C15.7603 10.3533 15.669 10.1374 15.6294 9.90943C15.5898 9.68147 15.6029 9.44746 15.6677 9.22536C15.7486 8.96235 15.8853 8.71989 16.0685 8.51451C16.2169 8.31753 16.3366 8.10047 16.4241 7.86984C16.4634 7.76579 16.5179 7.66811 16.5858 7.57997C16.6625 7.49938 16.7208 7.40307 16.7567 7.29771C16.7925 7.19235 16.805 7.08046 16.7933 6.96979C16.7787 6.56962 16.7778 6.16884 16.7587 5.76884C16.7653 5.53176 16.6959 5.29878 16.5607 5.10393C16.4255 4.90908 16.2315 4.76257 16.0071 4.68579C15.5838 4.51213 15.2249 4.21112 14.9802 3.82444C14.7355 3.43776 14.6172 2.98456 14.6415 2.52762C14.6504 2.05778 14.8152 1.60423 15.11 1.23828C15.3244 0.967477 15.5555 0.710252 15.8018 0.468092C16.3072 -0.00135191 16.9135 -0.0894309 17.5664 0.07896C18.3059 0.26972 18.9335 0.679669 19.548 1.10935C19.855 1.32356 20.1694 1.53048 20.4583 1.7666C21.0823 2.2755 21.8005 2.40055 22.571 2.31496C22.9282 2.27534 23.2816 2.19612 23.6388 2.14921C23.7644 2.1177 23.8969 2.12784 24.0163 2.1781C24.1211 2.26816 24.1891 2.3937 24.2072 2.53073C24.2176 2.6078 24.1985 2.68596 24.1538 2.74958C24.1091 2.8132 24.042 2.85759 23.9659 2.87388C22.9419 3.12631 21.9021 3.30014 20.8846 2.90852C20.4463 2.73982 20.0653 2.42074 19.6612 2.16536C19.0571 1.78369 18.4651 1.38119 17.8488 1.02111C17.532 0.823656 17.1524 0.752931 16.7857 0.823049C16.7077 0.834853 16.6324 0.860303 16.5632 0.898235C16.0181 1.24418 15.6001 1.69592 15.4603 2.34525C15.4004 2.651 15.4404 2.9679 15.5744 3.24919C15.7084 3.53047 15.9293 3.76122 16.2044 3.90737C16.3138 3.96745 16.4263 4.02164 16.5415 4.0697C16.7844 4.16542 16.998 4.32289 17.1614 4.52652C17.3247 4.73015 17.432 4.97289 17.4728 5.23073C17.6107 5.91424 17.5884 6.60302 17.5748 7.29259C17.5741 7.33158 17.5748 7.37026 17.5748 7.42416H17.5747ZM16.4906 9.24633C16.434 9.35555 16.4041 9.47658 16.4031 9.59956C16.4022 9.72255 16.4304 9.84401 16.4853 9.95407C16.5086 10.0007 16.6049 10.058 16.6367 10.0434C16.8252 9.95739 17.0298 9.91263 17.237 9.91212C17.4441 9.91161 17.649 9.95536 17.8378 10.0404C17.8605 10.0472 17.8845 10.0484 17.9078 10.044C17.9311 10.0396 17.9529 10.0297 17.9716 10.0151C18.121 9.84424 18.1142 9.44283 17.9585 9.22877C17.7519 9.3972 17.4942 9.49063 17.2276 9.49382C16.961 9.497 16.7012 9.40976 16.4906 9.24633Z" fill="#3F241D"/>
<path d="M6.66853 7.42942C6.66853 6.8604 6.6603 6.30909 6.67272 5.75841C6.68391 5.55506 6.71445 5.35323 6.76392 5.15568C6.8115 4.90887 6.92211 4.67857 7.08499 4.48713C7.24787 4.2957 7.45749 4.14964 7.69349 4.06315C8.02438 3.94627 8.3123 3.73226 8.5196 3.44909C8.91696 2.86593 8.87223 2.27454 8.49164 1.71811C8.29105 1.44278 8.05461 1.19547 7.78856 0.982718C7.50444 0.743025 7.15476 0.762443 6.81176 0.853784C6.25594 1.00198 5.78075 1.3094 5.31348 1.62801C4.94998 1.87656 4.58198 2.1206 4.24038 2.3968C3.4399 3.04427 2.51873 3.20551 1.53137 3.09755C1.11475 3.05203 0.701682 2.96722 0.290646 2.88255C0.201892 2.86534 0.122914 2.81528 0.0694653 2.74236C0.0160164 2.66944 -0.00796164 2.57905 0.00233745 2.48923C-0.000175136 2.40563 0.0270468 2.32385 0.0791553 2.25843C0.131264 2.19301 0.204886 2.14819 0.286929 2.13194C0.396308 2.12394 0.506264 2.13237 0.613144 2.15695C1.14038 2.21458 1.66621 2.29676 2.19499 2.32456C2.69248 2.34356 3.18122 2.18988 3.57832 1.88961C4.20497 1.44533 4.83177 0.99934 5.48079 0.588925C6.01082 0.253852 6.58373 0.00468329 7.23368 0.00359589C7.57136 -0.00414133 7.90291 0.0946703 8.18126 0.286008C8.85327 0.756229 9.34633 1.36144 9.53414 2.17559C9.7687 3.19557 9.2101 4.25718 8.17366 4.70285C7.97755 4.77 7.80623 4.89468 7.68203 5.06063C7.55784 5.22659 7.48652 5.42612 7.47741 5.6332C7.45669 5.88175 7.43841 6.13061 7.42257 6.37977C7.41682 6.47143 7.42258 6.5637 7.42118 6.65566C7.38807 7.03333 7.49011 7.41048 7.70917 7.71991C7.95772 8.05685 8.12068 8.45592 8.36907 8.80964C8.73894 9.33656 8.69343 9.93152 8.34857 10.4797C8.30828 10.5361 8.28296 10.6018 8.27499 10.6707C8.26703 10.7395 8.2767 10.8093 8.30306 10.8734C8.3619 11.0603 8.3862 11.2565 8.37481 11.4522C8.36253 11.5106 8.37102 11.5715 8.3988 11.6244C8.42659 11.6773 8.47194 11.7188 8.52705 11.7419C9.14279 12.0745 9.63042 12.6024 9.91312 13.2426C10.1958 13.8828 10.2575 14.5988 10.0885 15.2779C9.93057 15.8758 9.61359 16.4197 9.17127 16.8519C8.18593 17.8627 6.30177 18.1176 4.96055 17.0252C4.55465 16.6982 4.23503 16.2767 4.02961 15.7976C3.82419 15.3185 3.73924 14.7964 3.78215 14.2769C3.82506 13.7574 3.99453 13.2563 4.27577 12.8174C4.55701 12.3785 4.94146 12.0152 5.39551 11.7591C5.45973 11.7337 5.51308 11.6867 5.54642 11.6262C5.57975 11.5657 5.59099 11.4955 5.5782 11.4276C5.57572 11.219 5.60681 11.0114 5.6703 10.8126C5.68892 10.766 5.69536 10.7155 5.689 10.6657C5.68264 10.6159 5.6637 10.5686 5.63397 10.5282C5.44534 10.2757 5.34059 9.97051 5.33449 9.65543C5.32839 9.34036 5.42124 9.0313 5.59995 8.77173C5.7646 8.52638 5.9063 8.26637 6.02325 7.99502C6.13059 7.72799 6.29961 7.48239 6.66793 7.42896L6.66853 7.42942ZM6.23979 9.24506C6.17262 9.35278 6.13651 9.47695 6.13542 9.60388C6.13432 9.73082 6.16829 9.85559 6.23359 9.96445C6.25475 9.98987 6.28199 10.0095 6.31279 10.0215C6.3436 10.0336 6.37695 10.0376 6.40973 10.0333C6.58422 9.95252 6.77404 9.91025 6.96631 9.90934C7.15857 9.90843 7.34877 9.94889 7.52402 10.028C7.55491 10.0382 7.5878 10.0408 7.61993 10.0357C7.65206 10.0306 7.68249 10.0179 7.70871 9.99863C7.8552 9.83692 7.84728 9.47885 7.69955 9.27489C7.21566 9.59598 6.72835 9.53757 6.23933 9.24506" fill="#3F241D"/>
</svg>
