<svg width="20" height="23" viewBox="0 0 20 23" fill="none" xmlns="http://www.w3.org/2000/svg">
<path d="M0 11.8533C0.0112729 11.7225 0.0225458 11.5898 0.0338187 11.459C0.116487 10.4285 0.353218 9.4428 0.826679 8.52741C1.35651 7.50662 2.10991 6.71614 3.10756 6.1833C3.72945 5.85149 4.38892 5.6446 5.08408 5.56458C5.87882 5.47284 6.65101 5.58605 7.40066 5.87296C8.40207 6.25747 9.2419 6.8918 9.97464 7.69009C9.98967 7.70765 10.0028 7.72717 10.0122 7.74083C10.2245 7.53199 10.4218 7.32315 10.6341 7.13383C11.4439 6.40385 12.357 5.87296 13.4166 5.6446C14.5608 5.39672 15.6562 5.56458 16.7083 6.07985C17.3828 6.40971 17.9577 6.87814 18.4406 7.46758C19.0399 8.20146 19.4382 9.04464 19.6881 9.96589C19.9681 10.9984 20.0432 12.0524 19.9831 13.118C19.9136 14.3399 19.69 15.5305 19.2954 16.684C19.1696 17.0529 19.0268 17.4159 18.8727 17.7731C18.4443 18.7626 17.907 19.6839 17.24 20.5212C16.7252 21.1673 16.1503 21.745 15.4702 22.2037C14.9216 22.5745 14.3354 22.8458 13.6834 22.9473C13.5294 22.9707 13.3734 22.9785 13.2194 22.9941C13.1855 22.9941 13.1517 22.9941 13.1179 22.9941C13.0878 22.9902 13.0559 22.9824 13.0258 22.9805C12.6238 22.959 12.2405 22.8634 11.8779 22.6819C11.5791 22.5335 11.2823 22.3774 10.9854 22.2232C10.636 22.0397 10.2734 22.0026 9.90324 22.1256C9.43354 22.2817 8.96571 22.4418 8.50352 22.6214C7.75012 22.9122 6.9892 22.9532 6.21137 22.756C5.41663 22.553 4.72147 22.149 4.08079 21.6318C3.19023 20.9116 2.47816 20.0255 1.8807 19.0398C0.781588 17.2246 0.193518 15.2357 0.0319399 13.1044C0.0225458 12.9834 0.0112729 12.8604 0 12.7394C0 12.4447 0 12.148 0 11.8533ZM19.0099 12.3139C19.0193 11.8943 18.9591 11.2443 18.8182 10.6041C18.6059 9.64384 18.2377 8.76358 17.5932 8.0258C16.8135 7.13187 15.8347 6.64978 14.6811 6.56585C13.8488 6.50535 13.0728 6.7259 12.3419 7.12992C11.6336 7.52223 11.0456 8.06483 10.5214 8.69136C10.4124 8.82213 10.2771 8.93729 10.14 9.03878C10.0197 9.12856 9.88258 9.10905 9.76797 9.01341C9.6853 8.94314 9.60451 8.86507 9.54063 8.77724C9.07656 8.1351 8.5054 7.61592 7.83467 7.21775C7.01926 6.73371 6.15125 6.47997 5.20244 6.57561C4.19728 6.67515 3.3349 7.11431 2.58901 7.80329C2.32973 8.04336 2.09864 8.31662 1.90512 8.6211C1.68342 8.97047 1.49366 9.3335 1.36778 9.73167C1.12917 10.487 1.01456 11.2658 0.988258 12.0602C0.956318 13.0536 1.0822 14.0295 1.30766 14.9937C1.60827 16.278 2.07985 17.4862 2.76938 18.6006C3.01738 18.9988 3.29169 19.3775 3.59418 19.7327C4.15031 20.3826 4.76844 20.9565 5.50305 21.382C6.47065 21.9441 7.47393 22.0065 8.49601 21.5459C8.85111 21.3859 9.21184 21.2492 9.5876 21.1536C10.2245 20.9916 10.8483 21.015 11.4458 21.3215C11.6994 21.4522 11.9512 21.5889 12.2067 21.7157C12.4923 21.8601 12.7891 21.9734 13.1104 21.9694C13.6815 21.9616 14.2095 21.784 14.7036 21.4932C15.3668 21.1029 15.9061 20.5583 16.3927 19.9591C17.2344 18.9246 17.8675 17.7633 18.3109 16.4907C18.7581 15.2182 18.9836 13.9046 19.0099 12.3139Z" fill="#3F241D"/>
<path d="M3.1338 0C3.3029 0.009759 3.47199 0.0253734 3.64296 0.029277C4.14836 0.0429396 4.65189 0.048795 5.15729 0.068313C6.04409 0.0995418 6.88016 0.322047 7.62793 0.833418C8.64437 1.52826 9.21365 2.51197 9.33202 3.76892C9.3602 4.07536 9.33578 4.38569 9.31887 4.69993C9.29444 4.64723 9.27002 4.59258 9.24559 4.53988C9.07274 4.15343 8.87547 3.78454 8.59364 3.46835C8.28176 3.11702 7.90787 2.8711 7.47387 2.7091C7.01168 2.53734 6.53634 2.43975 6.05536 2.35192C6.04597 2.34997 6.0347 2.35192 6.00276 2.35192C6.20003 2.47098 6.3804 2.57247 6.55325 2.68763C6.8764 2.90428 7.2052 3.11702 7.51332 3.35514C8.21976 3.90165 8.76837 4.59453 9.19299 5.39282C9.19862 5.40258 9.2005 5.41234 9.20614 5.4221C9.0408 5.3694 8.88298 5.30109 8.71765 5.27181C8.31934 5.19764 7.91727 5.13714 7.51708 5.07468C6.65283 4.94196 5.81299 4.72726 5.04644 4.27834C4.76837 4.11634 4.49219 3.93678 4.25546 3.71818C4.03563 3.51519 3.85903 3.25755 3.68617 3.00772C3.35738 2.53344 3.11126 2.0084 2.85949 1.48922C2.61713 0.989562 2.35973 0.497709 2.00651 0.068313C2.00275 0.0644094 2.00275 0.058554 1.99524 0.0409878C2.0873 0.0273252 2.17748 0.0136626 2.26767 0.0019518C2.55513 0 2.84446 0 3.1338 0Z" fill="#3F241D"/>
<path d="M10.0234 7.0499C9.90695 6.94255 9.79047 6.8352 9.67586 6.7259C9.66083 6.71028 9.65144 6.67906 9.65331 6.65563C9.69465 5.68559 9.74913 4.71945 9.99714 3.77673C10.2151 2.95112 10.5326 2.16845 10.914 1.4131C11.0361 1.17108 11.1639 0.931008 11.2954 0.692888C11.4833 0.353275 11.7933 0.208842 12.186 0.269348C12.5373 0.323998 12.8135 0.569925 12.8962 0.907586C12.9412 1.09106 12.9318 1.26086 12.8097 1.42481C12.2799 2.14503 11.7914 2.89257 11.3893 3.69671C10.9384 4.59844 10.6209 5.54506 10.4913 6.55414C10.4856 6.59513 10.4612 6.64197 10.4311 6.67125C10.2996 6.80007 10.1625 6.92303 10.0234 7.0499Z" fill="#3F241D"/>
</svg>
