<svg width="20" height="22" viewBox="0 0 20 22" fill="none" xmlns="http://www.w3.org/2000/svg">
<path d="M13.7098 0.00343777C14.7835 0.244082 15.7623 0.46238 16.7052 0.673803C16.7518 0.782092 16.7984 0.835378 16.7913 0.881788C16.4973 2.82069 16.1997 4.75959 15.9039 6.69849C15.895 6.75521 15.9111 6.82053 15.886 6.86866C14.814 9.00867 15.7336 10.8805 16.6747 12.7919C17.8399 15.1571 18.9011 17.5704 20 19.9459C16.8217 22.6772 3.28941 22.6876 0 19.9545C1.08094 17.6065 2.16904 15.2396 3.25894 12.8744C3.6067 12.1181 4.02617 11.3842 4.28431 10.6021C4.49404 9.96953 4.66075 9.26307 4.58725 8.61677C4.37931 6.78615 4.05485 4.96586 3.73936 3.14556C3.60312 2.36347 3.37367 1.59512 3.16214 0.713337C4.20902 0.476131 5.2308 0.244082 6.30098 0C6.73658 1.547 7.66156 2.52504 9.25697 2.97367C9.59756 3.06993 9.7571 3.76092 10.0081 4.19236C9.9991 4.19408 10.0941 4.18548 10.0977 4.16486C10.2053 3.3226 10.6785 2.9032 11.5497 2.63505C12.774 2.25689 13.3315 1.20494 13.7098 0.00343777ZM1.1383 19.8101C7.12019 21.4775 12.93 21.5032 18.8563 19.8015C17.5531 16.9791 16.3377 14.3475 15.1223 11.7142C14.5093 10.3889 14.4645 10.3666 12.8511 10.6588C13.1379 11.9256 13.4265 13.1924 13.7259 14.5125C13.3835 14.5727 13.1075 14.6208 12.7794 14.6776C12.5607 13.7614 12.3779 12.8985 12.1502 12.0477C11.6806 10.303 12.1825 10.5711 10.2608 10.5454C9.78399 10.5385 9.30537 10.5677 8.83033 10.5385C8.32123 10.5075 8.09716 10.6811 7.99677 11.1865C7.76553 12.3519 7.45541 13.5018 7.16501 14.7051C6.80111 14.6208 6.53222 14.5589 6.23465 14.4902C6.53939 13.1495 6.82621 11.8861 7.13812 10.5127C6.40315 10.7138 5.61083 10.1328 5.2057 11.0043C3.8738 13.868 2.55624 16.7368 1.1383 19.8101ZM15.5328 1.45933C14.8319 1.08118 14.3479 1.06915 13.8532 1.90968C13.4839 2.53879 12.7884 3.10259 12.1 3.41542C11.4117 3.72826 11.1697 4.14595 10.951 4.7699C10.7771 5.26322 10.3451 5.67232 10.0278 6.11923C9.69974 5.68779 9.36811 5.25807 9.04903 4.81975C8.98449 4.73037 8.9594 4.60661 8.94326 4.49488C8.87515 3.99641 8.55786 3.78154 8.10612 3.52027C7.36219 3.09227 6.57524 2.55426 6.13427 1.86843C5.59649 1.02961 5.11966 1.10696 4.52272 1.43699C4.67688 2.95476 4.81133 4.40034 4.97983 5.84249C5.04257 6.37706 5.2057 6.90132 5.28637 7.43589C5.35986 7.92577 5.61262 8.08391 6.12889 8.07876C8.69409 8.05469 11.2593 8.05297 13.8227 8.07876C14.3766 8.08391 14.6509 7.92234 14.7208 7.39464C14.9825 5.42308 15.2586 3.45324 15.5328 1.45933ZM14.3139 9.59309C14.3712 9.51574 14.4286 9.43667 14.4878 9.35932C14.3013 9.23213 14.1149 8.99492 13.9267 8.9932C11.3077 8.96914 8.69051 8.96914 6.07152 8.99492C5.88868 8.99664 5.70763 9.25275 5.52658 9.39026C5.57856 9.4573 5.63234 9.52434 5.68432 9.59309C8.56144 9.59309 11.4386 9.59309 14.3139 9.59309Z" fill="#3F241D"/>
</svg>
