<svg width="19" height="19" viewBox="0 0 19 19" fill="none" xmlns="http://www.w3.org/2000/svg">
<g clip-path="url(#clip0)">
<path d="M10.0192 -0.000903015C10.3109 0.0358353 10.603 0.070347 10.894 0.110054C12.0234 0.264429 13.0842 0.625132 14.08 1.17695C15.5705 2.003 16.7578 3.14783 17.6412 4.60177C18.255 5.61189 18.6555 6.70328 18.8563 7.87111C19.0007 8.71089 19.0389 9.55439 18.9569 10.3983C18.7977 12.0344 18.2658 13.5429 17.316 14.8918C15.9454 16.8386 14.1137 18.133 11.7974 18.7078C11.2685 18.8388 10.7177 18.8803 10.1769 18.9638C10.1238 18.972 10.0715 18.9869 10.0188 18.9987C9.67253 18.9987 9.32587 18.9987 8.97958 18.9987C8.78584 18.9742 8.59247 18.9468 8.39873 18.926C7.15834 18.7935 5.99515 18.4187 4.90545 17.8131C3.4227 16.9889 2.24281 15.8481 1.36095 14.4016C0.745955 13.3926 0.345111 12.3016 0.143576 11.1356C-0.00154477 10.2969 -0.0394022 9.45419 0.0403954 8.60996C0.168814 7.25101 0.554812 5.96517 1.25072 4.78732C2.61656 2.47541 4.59034 0.95021 7.20251 0.289663C7.72992 0.156441 8.28145 0.118218 8.82185 0.034722C8.87492 0.0265579 8.92688 0.010972 8.97958 -0.00127411C9.32624 -0.000903015 9.67253 -0.000903015 10.0192 -0.000903015ZM9.27428 18.173C14.074 18.2974 18.0665 14.5096 18.1734 9.67166C18.278 4.92091 14.506 0.874507 9.5686 0.825523C4.91399 0.778765 0.92819 4.44814 0.826124 9.33544C0.726655 14.1066 4.4983 18.0324 9.27428 18.173Z" fill="#3F241D"/>
<path d="M9.64179 7.40295C8.7269 7.44785 7.95528 7.47494 7.18514 7.52653C6.4098 7.57811 5.63484 7.64565 4.86136 7.72209C4.34063 7.77367 3.82176 7.84752 3.30326 7.92137C2.93991 7.97332 2.69792 7.70873 2.81854 7.36213C3.68926 4.86467 5.4051 3.2634 7.97681 2.65629C9.83182 2.21803 11.6052 2.53754 13.223 3.55619C14.8765 4.59711 15.9191 6.0941 16.3522 7.99707C16.4606 8.47319 16.4728 8.97305 16.5107 9.46326C16.5307 9.72155 16.3518 9.90301 16.1188 9.90746C15.8879 9.91192 15.7253 9.73379 15.6975 9.47996C15.6437 8.99123 15.581 8.50324 15.5093 8.01711C15.5012 7.96219 15.4184 7.8824 15.3627 7.87572C14.5492 7.77961 13.7356 7.67422 12.9191 7.61039C11.7807 7.52096 10.6402 7.46455 9.64179 7.40295ZM15.1708 7.02815C14.3031 4.92924 12.0817 3.20328 9.25505 3.3083C6.61542 3.4059 4.59561 5.11738 3.83624 7.03C7.61716 6.48227 11.3892 6.48858 15.1708 7.02815Z" fill="#3F241D"/>
<path d="M3.42533 10.7402C3.77496 10.7402 4.10825 10.738 4.44117 10.7406C4.9233 10.7446 5.4058 10.7383 5.88681 10.7613C7.00286 10.8148 7.99755 11.6902 8.1976 12.7901C8.24065 13.0258 8.26181 13.2681 8.26441 13.5078C8.27257 14.2615 8.26812 15.0152 8.26738 15.7685C8.267 16.2183 8.0458 16.3834 7.61081 16.2561C5.43994 15.6216 3.91488 14.2515 3.01298 12.1882C2.73091 11.5429 2.57317 10.8578 2.51341 10.1539C2.49263 9.90783 2.59989 9.74121 2.80551 9.68369C2.98514 9.63359 3.21043 9.71263 3.27167 9.88297C3.32883 10.0422 3.33997 10.2181 3.36966 10.3869C3.38859 10.496 3.40417 10.6051 3.42533 10.7402ZM3.65396 11.5792C4.35618 13.4039 5.59805 14.6452 7.41558 15.3425C7.42189 15.2861 7.42783 15.2568 7.42783 15.2278C7.42635 14.548 7.43414 13.8681 7.41929 13.1887C7.40185 12.3878 6.6807 11.6212 5.87939 11.5863C5.1523 11.5544 4.42262 11.5792 3.65396 11.5792Z" fill="#3F241D"/>
<path d="M10.7147 14.4359C10.7418 13.8938 10.7233 13.3445 10.8057 12.8113C10.9779 11.6954 11.9826 10.8074 13.1101 10.7632C14.0176 10.728 14.9269 10.7409 15.8355 10.7428C16.2185 10.7435 16.3811 10.9755 16.2701 11.3462C15.5141 13.8752 13.8677 15.5151 11.3409 16.2717C10.9782 16.3805 10.7478 16.2086 10.7422 15.8283C10.7355 15.3648 10.7407 14.9009 10.7407 14.4374C10.7318 14.437 10.7233 14.4367 10.7147 14.4359ZM15.317 11.5774C14.5996 11.5774 13.8832 11.5677 13.1673 11.58C12.3697 11.5937 11.5932 12.3771 11.5795 13.1761C11.5676 13.8618 11.5732 14.5484 11.5717 15.2345C11.5717 15.2627 11.5791 15.2909 11.5836 15.3202C13.0567 14.9755 15.0847 12.9415 15.317 11.5774Z" fill="#3F241D"/>
<path d="M7.85806 9.49406C7.84656 8.61568 8.57587 7.87275 9.46923 7.85308C10.3819 7.83267 11.1442 8.58191 11.1509 9.50594C11.1572 10.3962 10.422 11.1328 9.49447 11.1447C8.62486 11.1555 7.84544 10.4296 7.85806 9.49406ZM9.5082 10.3183C9.97103 10.3175 10.3188 9.96498 10.3181 9.49703C10.3173 9.03391 9.96472 8.68211 9.50041 8.68211C9.02607 8.68174 8.67979 9.03316 8.68165 9.51262C8.6835 9.97352 9.03758 10.319 9.5082 10.3183Z" fill="#3F241D"/>
<path d="M3.34186 8.69992C3.33963 8.93891 3.15368 9.12891 2.9258 9.12557C2.72092 9.12223 2.52866 8.91627 2.52532 8.69584C2.52161 8.46391 2.70756 8.27613 2.94176 8.27502C3.18263 8.27428 3.34408 8.44572 3.34186 8.69992Z" fill="#3F241D"/>
</g>
<defs>
<clipPath id="clip0">
<rect width="19" height="19" fill="white"/>
</clipPath>
</defs>
</svg>
