<svg width="23" height="23" viewBox="0 0 23 23" fill="none" xmlns="http://www.w3.org/2000/svg">
<g clip-path="url(#clip0)">
<path d="M1.13652 20.0512C0.419412 19.9547 0.00280089 19.5405 1.41894e-05 18.931C-0.00277251 18.306 0.405014 17.8933 1.12723 17.7907C1.12723 17.5781 1.09565 17.3599 1.13327 17.1542C1.23917 16.579 1.80997 16.2229 2.39054 16.3496C2.95531 16.4726 3.51961 16.5971 4.08206 16.7289C4.23997 16.7661 4.33379 16.7442 4.44665 16.6017C4.68492 16.3009 4.95569 16.0241 5.23064 15.7553C5.32911 15.6592 5.35651 15.5919 5.30913 15.4624C5.07273 14.8189 4.85119 14.1698 4.60967 13.5287C4.5767 13.4409 4.47034 13.3407 4.38117 13.3202C3.17545 13.0496 2.45091 11.9878 2.6274 10.7435C2.63716 10.6748 2.6014 10.5764 2.5517 10.5262C1.88661 9.85305 1.69293 9.06843 1.98368 8.16867C2.02176 8.05028 1.9925 7.99411 1.90101 7.92075C0.110553 6.49033 0.439383 3.80916 2.5164 2.84533C2.6 2.80633 2.68174 2.71302 2.71565 2.6262C3.0547 1.75569 3.68403 1.25985 4.60549 1.12056C4.68306 1.10896 4.77502 1.05417 4.82007 0.991033C5.8609 -0.47003 7.96393 -0.283393 8.7103 1.34434C8.76557 1.46552 8.82827 1.49477 8.95088 1.49477C9.5621 1.49616 10.0697 1.7399 10.5012 2.16518C10.5904 2.25339 10.7023 2.32906 10.8175 2.37781C11.3753 2.61413 11.7938 2.9939 12.0418 3.54824C12.0952 3.66802 12.1505 3.71863 12.2907 3.72141C13.9734 3.75113 15.0115 5.58686 14.1685 7.04467C14.084 7.19092 14.0784 7.28748 14.168 7.4328C14.4184 7.83997 14.4955 8.29171 14.4593 8.76665C14.4537 8.84001 14.4778 8.91569 14.4867 8.9779C14.7862 8.81958 15.0551 8.67751 15.3645 8.51409C15.3213 8.03868 15.2855 7.51683 15.2237 6.99824C15.1281 6.1932 15.4495 5.54136 16.1164 5.29947C17.258 4.88534 18.2431 5.71871 18.1707 6.72618C18.1386 7.17235 18.0922 7.61758 18.0541 8.06375C18.0402 8.22392 18.0309 8.38409 18.022 8.50852C18.3253 8.65755 18.5984 8.79126 18.9031 8.94076C19.1822 8.70862 19.5329 8.53591 19.9555 8.53591C20.3174 8.53591 20.642 8.63944 20.9244 8.85951C22.2676 9.90691 22.9717 11.277 22.9949 12.9878C23.0061 13.7994 23.0065 14.6067 22.7241 15.3881C22.5119 15.9749 22.2142 16.5093 21.8129 17.0154C21.8765 17.0572 21.9304 17.0938 21.9857 17.1282C22.746 17.5957 23.131 18.4583 22.9591 19.3117C22.7794 20.2058 22.1018 20.8656 21.2142 21.0021C18.4786 21.4227 15.743 21.8415 13.0069 22.2607C11.4677 22.4966 9.93226 22.7593 8.38843 22.959C6.75822 23.1698 5.43454 22.5871 4.45687 21.2597C4.34494 21.1075 4.25112 21.0731 4.07974 21.114C3.55537 21.2393 3.02172 21.3303 2.50293 21.4738C1.74077 21.6845 1.02831 21.133 1.11283 20.3173C1.12166 20.2323 1.1277 20.1483 1.13652 20.0512ZM7.88497 15.5608C7.61141 15.5933 7.37826 15.6035 7.153 15.6509C5.3853 16.0228 4.28224 17.5665 4.48892 19.3669C4.69281 21.1409 6.43589 22.4863 8.20544 22.2324C8.95321 22.1251 9.69957 22.0081 10.4464 21.8944C12.1077 21.6414 13.7691 21.3893 15.43 21.1339C17.2966 20.847 19.1623 20.5536 21.0298 20.2704C21.7418 20.1622 22.2509 19.6134 22.2532 18.9231C22.2555 18.2341 21.7451 17.6751 21.0359 17.5711C20.1817 17.4457 19.329 17.3093 18.4758 17.1774C17.036 16.955 15.5962 16.7312 14.156 16.5102C12.6855 16.2841 11.2146 16.0594 9.74416 15.8357C9.11251 15.74 8.47947 15.6486 7.88497 15.5608ZM10.8969 10.6442C11.1793 10.263 11.4385 9.85909 11.7524 9.50438C12.1198 9.08932 12.5141 8.68169 13.097 8.57166C13.2977 8.53405 13.5062 8.54102 13.7133 8.52709C13.7291 7.97554 13.4059 7.5953 13.0399 7.23131C13.6414 6.69229 13.9372 6.06645 13.5694 5.31712C13.1476 4.45775 12.4022 4.3259 11.5351 4.58403C11.5184 4.48421 11.5067 4.41736 11.4965 4.34957C11.4083 3.76691 11.1278 3.32168 10.57 3.08908C9.80315 2.76873 8.98014 3.12808 8.62948 3.93405C8.57561 4.05755 8.53474 4.15272 8.36893 4.1179C7.59283 3.95541 6.78841 4.59285 6.70852 5.35844C6.69041 5.53207 6.61795 5.61425 6.44007 5.66625C5.51582 5.93645 4.90692 6.69832 4.82518 7.65565C4.7518 8.51502 5.24504 9.35999 6.06944 9.78759C6.18184 9.84609 6.29423 9.90458 6.4136 9.9668C6.32674 10.0991 6.25754 10.2013 6.19159 10.3057C5.73318 11.0263 5.89713 11.8889 6.61099 12.3555C6.83485 12.5017 6.87154 12.6113 6.77819 12.8643C6.4396 13.7831 7.07822 14.7683 8.02756 14.8449C8.35732 14.8714 8.68568 14.9215 9.01358 14.9684C9.52912 15.0417 10.0437 15.1216 10.5635 15.1996C10.5672 15.1522 10.5755 15.1281 10.57 15.1077C10.3192 14.2223 10.367 13.3207 10.4134 12.4182C10.4171 12.3471 10.3563 12.2334 10.295 12.2051C9.89836 12.0217 9.50497 11.8183 9.08836 11.6971C8.67268 11.576 8.23099 11.543 7.80044 11.4715C7.80044 11.2412 7.80044 11.0128 7.80044 10.7621C8.67128 10.7793 9.4929 10.9594 10.3354 11.3355C10.1357 10.7681 9.92948 10.269 9.78736 9.7523C9.64059 9.21885 9.27739 8.94308 8.79436 8.78662C8.51012 8.69469 8.21519 8.61994 7.91934 8.58373C7.52409 8.53545 7.12327 8.53173 6.70527 8.50759C6.68298 8.27963 6.66022 8.04703 6.63607 7.8005C7.4665 7.72901 8.25421 7.81583 9.09579 8.08092C8.66571 7.26845 8.26768 6.51726 7.86407 5.75446C8.06378 5.62771 8.2621 5.5019 8.5078 5.3459C9.02334 6.34269 9.52587 7.31348 10.0344 8.29635C10.4055 7.41237 10.9118 6.64493 11.64 6.01909C11.8059 6.22848 11.9526 6.41326 12.0966 6.59526C11.2128 7.51684 10.8036 8.19467 10.5504 9.15757C10.5198 9.27457 10.4673 9.4106 10.4994 9.51506C10.6178 9.90319 10.7664 10.282 10.8969 10.6442ZM6.62167 15.0028C6.60077 14.9679 6.59241 14.9456 6.57755 14.9299C6.05272 14.369 5.84186 13.7144 5.96772 12.9511C5.97841 12.8861 5.92871 12.791 5.87762 12.7385C5.22693 12.0769 5.04022 11.3025 5.31146 10.4204C5.35233 10.2876 5.33561 10.2217 5.22553 10.1353C3.45923 8.74483 3.78806 6.02792 5.82885 5.08312C5.92499 5.03855 6.02067 4.93409 6.06015 4.8352C6.3718 4.04965 6.92542 3.54963 7.75864 3.38992C7.98158 3.34721 8.13113 3.26457 8.27929 3.08304C8.45996 2.86112 8.7089 2.6912 8.93974 2.51431C9.04284 2.43538 9.17521 2.3936 9.31594 2.32442C8.92162 2.14336 8.56493 2.30446 8.19894 2.34763C8.16829 2.1921 8.14367 2.05607 8.11534 1.92143C7.98529 1.30674 7.50784 0.869858 6.85204 0.764004C6.3077 0.676257 5.66908 0.963177 5.41317 1.48873C5.26176 1.80072 5.11453 1.97993 4.75412 1.86665C4.72068 1.85597 4.67795 1.87176 4.63986 1.87826C3.94969 1.992 3.50103 2.43585 3.36867 3.13411C3.34312 3.26921 3.32594 3.37878 3.14712 3.43217C2.16853 3.72374 1.56985 4.45868 1.48765 5.43226C1.41333 6.31344 1.91912 7.15145 2.79461 7.59623C2.88657 7.64312 2.97806 7.69094 3.07467 7.74108C2.97574 7.89522 2.89307 8.01593 2.81829 8.14174C2.63902 8.44306 2.56099 8.7648 2.61672 9.11672C2.69289 9.60002 2.95391 9.95705 3.36867 10.1989C3.521 10.2881 3.52751 10.3702 3.48106 10.5314C3.41 10.7788 3.33151 11.0476 3.35984 11.2955C3.45087 12.0881 4.06162 12.609 4.86233 12.6108C5.04161 12.6113 5.11407 12.6675 5.16887 12.8323C5.3384 13.3439 5.52557 13.85 5.70763 14.3574C5.81074 14.6453 5.9171 14.9322 6.02532 15.2293C6.23385 15.1504 6.41963 15.0794 6.62167 15.0028ZM16.4141 11.9311C16.4183 11.9144 16.409 11.9358 16.4081 11.9576C16.3779 12.8128 16.3268 13.668 16.3282 14.5232C16.3291 14.9902 16.4178 15.4577 16.4703 15.9243C16.4852 16.0562 16.5367 16.1281 16.6974 16.1504C17.5599 16.2711 18.4196 16.409 19.2793 16.5483C19.4224 16.5715 19.5152 16.5511 19.5663 16.4035C19.6713 16.0984 19.8079 15.8018 19.8877 15.4907C20.1125 14.6183 20.054 13.7241 20.0136 12.8406C19.9523 11.4956 19.3894 10.3744 18.3393 9.5146C18.232 9.42685 18.1005 9.36789 17.9737 9.29128C17.8623 9.65481 17.8655 9.89901 18.2092 10.126C18.6569 10.4222 18.67 10.9868 18.2793 11.3429C18.0968 11.5091 17.8646 11.6554 17.6296 11.7213C17.2487 11.8276 16.847 11.8606 16.4141 11.9311ZM15.4244 9.30428C15.3101 9.3716 15.2061 9.41988 15.1174 9.48813C14.4602 9.99419 13.9823 10.6363 13.6715 11.4056C13.2308 12.4966 13.3483 13.6369 13.378 14.7674C13.3845 15.0111 13.4523 15.2539 13.4937 15.4967C13.5136 15.6137 13.568 15.6727 13.7045 15.6885C14.064 15.7303 14.4202 15.8008 14.7783 15.8556C15.0853 15.9025 15.3928 15.9434 15.7077 15.9879C15.6775 15.7665 15.6306 15.5757 15.6297 15.3848C15.6227 14.2975 15.6064 13.2093 15.6399 12.1229C15.6487 11.8285 15.6232 11.6804 15.3408 11.5258C14.7101 11.1804 14.645 10.4854 15.2024 10.0959C15.4694 9.90923 15.5247 9.72584 15.4476 9.44913C15.4374 9.41246 15.4355 9.37439 15.4244 9.30428ZM19.4219 9.51506C20.1009 10.2946 20.5672 11.1744 20.6889 12.1842C20.7795 12.9386 20.7707 13.7084 20.76 14.4702C20.7539 14.8974 20.6773 15.3277 20.59 15.7484C20.524 16.0673 20.3912 16.3728 20.2853 16.6932C20.4381 16.7182 20.5928 16.7322 20.7405 16.7712C20.9095 16.8157 21.027 16.7786 21.1436 16.6412C21.5026 16.2196 21.7869 15.7577 21.9792 15.2381C22.3298 14.2915 22.3252 13.31 22.1942 12.3364C22.0353 11.1539 21.4413 10.1966 20.4887 9.47142C20.1325 9.19982 19.7642 9.21653 19.4219 9.51506ZM13.9683 9.52852C13.6609 9.22443 13.2489 9.17614 12.9173 9.46167C12.5638 9.76623 12.2174 10.0954 11.9373 10.4668C11.124 11.5444 11.0446 12.803 11.1519 14.0854C11.183 14.4568 11.2996 14.8222 11.3883 15.1875C11.4032 15.2493 11.4687 15.3356 11.5225 15.3454C11.9131 15.416 12.3065 15.4693 12.7217 15.532C12.6981 15.3779 12.6651 15.2507 12.6614 15.1221C12.6405 14.4289 12.6163 13.7353 12.6135 13.0417C12.6084 11.7816 13.039 10.6753 13.8304 9.70263C13.8773 9.64459 13.9233 9.58563 13.9683 9.52852ZM17.8247 10.7305C17.6732 10.6502 17.5464 10.5671 17.4085 10.5128C17.0904 10.3874 17.088 10.393 17.1159 10.0457C17.1182 10.0151 17.1224 9.98444 17.1252 9.9538C17.2264 8.87065 17.3319 7.78797 17.4271 6.70482C17.4642 6.28419 17.1396 5.94945 16.709 5.9411C16.2641 5.93228 15.9274 6.26098 15.9515 6.68997C15.9641 6.91328 15.9952 7.1352 16.0152 7.35805C16.1011 8.31074 16.1824 9.26389 16.2752 10.2161C16.2906 10.3735 16.2311 10.4274 16.0955 10.4752C15.9144 10.5392 15.7444 10.633 15.5656 10.7157C15.8549 11.2162 17.3932 11.2719 17.8247 10.7305ZM3.6961 19.2917C3.6961 19.0298 3.6961 18.7963 3.6961 18.5498C2.83362 18.5498 1.98693 18.5465 1.13977 18.5521C0.907084 18.5535 0.743598 18.7188 0.743133 18.9203C0.742669 19.1213 0.906155 19.288 1.13838 19.2898C1.98554 19.2954 2.83223 19.2917 3.6961 19.2917ZM3.94505 17.4606C3.39189 17.3394 2.84988 17.2266 2.31158 17.0989C2.15227 17.0613 1.99482 17.0534 1.92516 17.202C1.86942 17.3213 1.84388 17.5056 1.89915 17.612C1.9507 17.7113 2.12441 17.794 2.24841 17.8C2.69521 17.8223 3.1448 17.7912 3.5916 17.8153C3.85076 17.8302 3.93437 17.722 3.94505 17.4606ZM4.01193 20.3628C3.91393 20.2253 3.84844 20.0494 3.77645 20.0466C3.2219 20.0252 2.66502 20.0266 2.11001 20.0457C1.91587 20.0522 1.81601 20.2648 1.85595 20.4937C1.888 20.6766 2.04313 20.8006 2.22194 20.762C2.79275 20.6395 3.36216 20.5081 4.01193 20.3628Z" fill="#3F241D"/>
<path d="M7.43445 17.0773C7.67736 17.0773 7.9054 17.0773 8.14599 17.0773C8.14599 18.309 8.14599 19.53 8.14599 20.7622C7.90772 20.7622 7.67921 20.7622 7.43445 20.7622C7.43445 19.5403 7.43445 18.3192 7.43445 17.0773Z" fill="#3F241D"/>
<path d="M10.3934 20.7627C10.3934 19.5286 10.3934 18.3132 10.3934 17.0824C10.634 17.0824 10.8676 17.0824 11.1133 17.0824C11.1133 18.3095 11.1133 19.5305 11.1133 20.7627C10.8746 20.7627 10.6461 20.7627 10.3934 20.7627Z" fill="#3F241D"/>
<path d="M14.077 20.7631C13.8327 20.7631 13.6046 20.7631 13.3645 20.7631C13.3645 19.5365 13.3645 18.3211 13.3645 17.0861C13.593 17.0861 13.8266 17.0861 14.077 17.0861C14.077 18.3016 14.077 19.5226 14.077 20.7631Z" fill="#3F241D"/>
<path d="M17.0439 20.0217C16.8006 20.0217 16.5725 20.0217 16.3324 20.0217C16.3324 19.29 16.3324 18.5685 16.3324 17.828C16.56 17.828 16.7936 17.828 17.0439 17.828C17.0439 18.5481 17.0439 19.2752 17.0439 20.0217Z" fill="#3F241D"/>
<path d="M19.3035 18.1901C19.5478 18.1901 19.7753 18.1901 20.0155 18.1901C20.0155 18.6748 20.0155 19.1493 20.0155 19.6424C19.7874 19.6424 19.5538 19.6424 19.3035 19.6424C19.3035 19.1688 19.3035 18.6892 19.3035 18.1901Z" fill="#3F241D"/>
</g>
<defs>
<clipPath id="clip0">
<rect width="23" height="23" fill="white"/>
</clipPath>
</defs>
</svg>
