<svg width="17" height="24" viewBox="0 0 17 24" fill="none" xmlns="http://www.w3.org/2000/svg">
<path d="M16.9661 15.3729C16.8627 14.5854 16.411 13.947 15.6225 13.4729C15.5268 13.4156 15.4311 13.3659 15.3315 13.3162C15.3162 13.3085 15.2971 13.2971 15.2818 13.2894C15.3047 13.2359 15.3277 13.1862 15.3507 13.1365C15.389 13.0562 15.4311 12.9798 15.4732 12.8995C15.5574 12.7427 15.6416 12.5784 15.7105 12.4063C16.0971 11.4277 16.1163 10.4299 15.7718 9.44743C15.4693 8.58728 14.9832 7.97562 14.2827 7.58187C13.919 7.37543 13.586 7.27221 13.2415 7.26075C13.0998 7.25692 12.9582 7.25692 12.8204 7.25692C12.7974 7.25692 12.7745 7.25692 12.7553 7.25692C12.7591 7.21105 12.7668 7.169 12.7706 7.12312C12.7936 6.8861 12.8242 6.56116 12.6252 6.27827C12.6252 6.2668 12.629 6.24386 12.6328 6.23621C12.8242 5.24227 12.8434 4.35536 12.6826 3.51815C12.5677 2.90649 12.3534 2.12663 11.7371 1.53026C11.5112 1.31235 11.2777 1.0868 10.9562 0.972118C10.9523 0.972118 10.9447 0.964472 10.9217 0.930066C10.7571 0.677757 10.5198 0.48279 10.1982 0.329875C9.76568 0.12344 9.27187 0.0202223 8.65174 0.00110796C7.52249 -0.0332979 6.65354 0.165492 5.90709 0.631882C5.27164 1.02946 4.77401 1.55702 4.42949 2.19926C4.10411 2.8071 3.93951 3.49521 3.91654 4.36301C3.8974 4.94408 3.96248 5.55192 4.12708 6.33561C4.15005 6.45412 4.15005 6.5344 4.12325 6.62232C4.07349 6.77142 4.05818 6.92815 4.07732 7.06578C4.11177 7.32191 4.15005 7.61627 4.24192 7.89152C4.34528 8.20499 4.50222 8.49553 4.62855 8.71344C4.68597 8.81666 4.72042 8.89311 4.72042 8.98486C4.72807 9.55065 4.73956 10.1355 4.65151 10.7052C4.53285 11.4659 4.34528 12.1426 4.08497 12.7772C4.06201 12.8345 4.03521 12.8574 3.97396 12.8689C3.61796 12.9377 3.23517 13.0142 2.86003 13.0983C2.7337 13.125 2.60738 13.1518 2.48106 13.1786C2.12506 13.255 1.75757 13.3315 1.4054 13.4462C0.413955 13.7711 -0.0913367 14.5395 0.0120184 15.5564C0.0732659 16.1375 0.165137 16.7568 0.318256 17.5634C0.448407 18.2477 0.593869 18.9434 0.735504 19.6163C0.796751 19.9145 0.861827 20.2126 0.923074 20.5108C1.10682 21.4092 1.42071 22.082 1.90686 22.6249C2.38919 23.1639 2.92127 23.5003 3.52609 23.6456C3.83616 23.722 4.15388 23.7526 4.46394 23.7832L4.88502 23.8253C5.39031 23.8788 5.91091 23.9323 6.42386 23.9591C7.02485 23.9896 7.59139 24.0049 8.13113 24.0049C9.26421 24.0049 10.271 23.9399 11.2203 23.8023C12.1199 23.6723 12.8548 23.4927 13.5324 23.2327C14.4664 22.8772 15.1401 22.2999 15.5842 21.4665C16.0589 20.5835 16.4034 19.7042 16.6369 18.7867C16.8168 18.0757 16.9316 17.3455 16.9737 16.6153C17.0005 16.191 17.0197 15.7781 16.9661 15.3729ZM13.3448 7.8877C14.0147 8.01767 14.5468 8.4229 14.9258 9.09955C15.4387 10.0132 15.5229 11.0033 15.1708 12.0432C15.1057 12.2381 15.0023 12.4293 14.9028 12.6166C14.8684 12.6816 14.8301 12.7504 14.7956 12.8154C14.4779 13.4385 14.3554 14.1266 14.3975 15.0518C14.4243 15.5755 14.4281 16.1145 14.4167 16.7032C14.409 17.1085 14.3745 17.4296 14.3095 17.7048C14.1793 18.2744 13.8539 18.7752 13.3142 19.2302C12.828 19.6392 12.2692 19.9259 11.649 20.0865C11.0366 20.2432 10.4126 20.3923 9.80779 20.5338C9.56279 20.5911 9.3178 20.6484 9.07664 20.7058C9.07664 20.6905 9.07664 20.6752 9.07664 20.6599C9.08047 20.5376 9.0843 20.4229 9.09961 20.312C9.24507 19.1575 9.55514 18.1942 10.0451 17.3608C10.1255 17.2232 10.2135 17.0855 10.2978 16.9479C10.359 16.8523 10.4203 16.7529 10.4777 16.6574C10.5083 16.6077 10.5351 16.5465 10.5581 16.4777C10.627 16.2521 10.5428 16.0725 10.3207 15.9731C9.29867 15.5105 8.54838 14.9868 7.95505 14.3254C7.41148 13.7214 6.95595 12.9989 6.55784 12.1196C6.51191 12.0202 6.50042 11.9247 6.50425 11.8253C6.54636 11.8902 6.58846 11.9591 6.63057 12.024C7.15883 12.8192 7.73685 13.3926 8.39144 13.7711C8.77806 13.9966 9.19531 14.184 9.59725 14.3636L9.82692 14.4669C10.3016 14.6848 10.7342 14.8262 11.1437 14.9065C11.7409 15.0212 12.2807 14.918 12.7553 14.6045C12.8625 14.5318 12.9697 14.4363 13.0845 14.3139C13.1687 14.2222 13.1955 14.0999 13.1573 13.9966C13.119 13.8896 13.0194 13.817 12.8931 13.7979C12.5716 13.7558 12.2998 13.6679 12.0586 13.5264C11.5725 13.2435 11.2165 12.8268 10.9715 12.2496C10.6652 11.5347 10.5963 10.7778 10.7724 10.0056C10.9294 9.30598 11.2433 8.77078 11.7294 8.36173C12.2309 7.93357 12.7745 7.77683 13.3448 7.8877ZM7.12438 11.5997C8.12348 12.0432 9.11875 11.9858 10.0872 11.42C10.336 12.8307 10.9753 13.7329 12.0854 14.2337C11.8672 14.3101 11.6376 14.3331 11.3773 14.2987C10.8222 14.226 10.3092 13.9928 9.80779 13.7673L9.73123 13.7329C9.41733 13.5914 9.04985 13.4232 8.69767 13.213C8.19238 12.9186 7.74834 12.4904 7.30047 11.8673C7.24687 11.787 7.18563 11.6991 7.12438 11.5997ZM10.9332 1.66024C10.9485 1.6717 10.9638 1.687 10.9791 1.69846C11.094 1.80168 11.205 1.89725 11.3083 1.99665C11.8136 2.48215 11.9706 3.14351 12.0778 3.72459C12.1773 4.25979 12.1888 4.82557 12.1122 5.46782C11.8749 4.36301 11.4691 3.26966 10.5313 2.40952C10.7035 2.19544 10.8337 1.9546 10.9332 1.66024ZM4.65534 5.70866C4.59409 5.31873 4.52519 4.80264 4.55199 4.27508C4.60558 3.25055 4.87736 2.48598 5.41711 1.87049C5.99896 1.20531 6.72244 0.807734 7.57608 0.689225C7.88232 0.647174 8.17324 0.624236 8.44886 0.624236C8.81634 0.624236 9.16086 0.662465 9.48624 0.738923C9.81544 0.81538 10.0719 0.941535 10.271 1.12121C10.359 1.20149 10.382 1.24736 10.3628 1.33147C10.271 1.75198 10.0336 2.09222 9.61639 2.39805C9.13789 2.75358 8.57518 2.92178 8.03926 3.05941C7.27367 3.26202 6.68416 3.49904 6.1827 3.80487C5.38648 4.29419 4.87736 4.95173 4.663 5.766C4.663 5.75071 4.65917 5.7316 4.65534 5.70866ZM4.70893 7.169C4.69362 7.03137 4.72425 6.87463 4.7587 6.71407C4.76253 6.70261 4.76635 6.67585 4.81229 6.67585C4.81994 6.67585 4.8276 6.67585 4.83908 6.67967C5.01517 6.71025 5.11087 6.65291 5.16063 6.59939C5.2104 6.54587 5.26399 6.44265 5.21805 6.26297C5.2104 6.24004 5.2104 6.2171 5.21422 6.20181C5.35969 5.37607 5.80373 4.76059 6.56932 4.32096C7.03634 4.05335 7.56842 3.84692 8.28808 3.65578C8.84696 3.50668 9.49772 3.29642 10.0681 2.86062C10.2518 2.9906 10.4164 3.17027 10.5963 3.42258C11.094 4.12599 11.4002 4.95937 11.5648 6.04507C11.5763 6.11006 11.584 6.17505 11.5916 6.24004C11.5993 6.29738 11.6069 6.3509 11.6146 6.40824C11.6299 6.51529 11.6835 6.60321 11.76 6.65291C11.8404 6.70261 11.9438 6.71025 12.051 6.67967C12.1084 6.66055 12.1237 6.6682 12.1237 6.6682C12.1237 6.6682 12.1352 6.67967 12.1428 6.72554C12.1811 6.96256 12.1505 7.19958 12.0625 7.42513C12.051 7.44042 11.9974 7.46336 11.9668 7.47483L11.9438 7.48629C11.3964 7.73096 10.9562 8.14001 10.5963 8.7402C10.2671 9.29069 10.0872 9.91382 10.0451 10.644C10.0451 10.6669 10.0183 10.7128 9.99918 10.7243C9.31398 11.2174 8.62877 11.378 7.90528 11.2098C7.59522 11.1371 7.2775 10.9957 6.93681 10.7701C6.41621 10.4261 6.06021 10.0285 5.84584 9.55447C5.75397 9.35568 5.69655 9.13395 5.63913 8.91987L5.60468 8.79754C5.57405 8.68668 5.52046 8.56817 5.35969 8.52229C5.24868 8.49171 5.16829 8.4229 5.10704 8.30821C4.88119 7.89916 4.75104 7.52835 4.70893 7.169ZM5.85732 11.7832C5.86498 12.0011 5.78842 12.1578 5.60468 12.2878C5.37117 12.456 5.11087 12.5554 4.81229 12.651C5.13384 11.722 5.31375 10.8466 5.36734 10.0017C5.48601 10.2158 5.63147 10.4223 5.80756 10.6211C5.83053 10.6478 5.84967 10.6975 5.84967 10.7319C5.8535 10.8772 5.84967 11.0225 5.84967 11.1677C5.84967 11.3703 5.84967 11.5768 5.85732 11.7832ZM7.71006 22.9231C7.26601 22.9919 6.90619 23.0339 6.58081 23.0569C5.97599 23.0989 5.37883 23.1257 4.77018 23.1524C4.14622 23.1792 3.62945 23.076 3.18157 22.8428C2.4734 22.4681 1.98725 21.8832 1.74226 21.1072C1.58531 20.6064 1.45133 20.0674 1.33267 19.4557C1.10682 18.2706 0.896279 17.0664 0.693396 15.8966L0.655117 15.6749C0.593869 15.3155 0.624493 15.0097 0.746988 14.7345C0.892451 14.4133 1.15658 14.1878 1.50493 14.0808C1.87241 13.9661 2.25903 13.8781 2.63418 13.794C2.74901 13.7673 2.86003 13.7443 2.97486 13.7176C3.22751 13.6564 3.48398 13.6029 3.73663 13.5455C4.14622 13.4538 4.5673 13.3582 4.98072 13.255C5.43625 13.1403 5.80756 12.9568 6.12911 12.6816C6.92915 14.4133 8.18473 15.6825 9.86903 16.4624C9.38671 17.1811 9.06133 17.8386 8.85079 18.5191C8.59049 19.3601 8.46034 20.0941 8.44503 20.8167C8.41823 20.8205 8.39144 20.8243 8.36464 20.8281C8.23832 20.8472 8.112 20.8702 7.98184 20.8816L7.9206 20.8893C7.47655 20.939 7.01337 20.9925 6.57315 20.8969C5.49749 20.6637 4.77784 20.0291 4.43332 19.0161C4.35293 18.7752 4.29934 18.5153 4.25341 18.2592C4.23427 18.1521 4.2113 18.0451 4.18833 17.938C4.16919 17.8501 4.15388 17.7584 4.13857 17.6704C4.13091 17.6169 4.11943 17.5634 4.11177 17.5137C4.07349 17.3149 3.91272 17.1887 3.74046 17.2232C3.65241 17.2384 3.57968 17.2843 3.53375 17.3493C3.48398 17.4219 3.46867 17.5175 3.49164 17.6322C3.52226 17.7813 3.54906 17.9266 3.57586 18.0757C3.6371 18.3968 3.69835 18.7332 3.78257 19.0581C4.02756 19.9718 4.57878 20.6752 5.42476 21.1492C6.04872 21.5009 6.73393 21.6347 7.52632 21.5659C8.94266 21.4398 10.3169 21.1072 11.3543 20.8281C11.806 20.7058 12.2768 20.5835 12.7209 20.3617C13.1534 20.1476 13.5247 19.903 13.8463 19.6124C13.808 19.6851 13.7697 19.7577 13.7276 19.8265C13.253 20.614 12.5907 21.2333 11.76 21.673C11.2165 21.9597 10.6117 22.2082 9.91114 22.4261C9.21828 22.6402 8.49862 22.8045 7.71006 22.9231ZM16.3421 16.6268C16.3038 17.3455 16.1813 18.0795 15.967 18.867C15.6799 19.9259 15.2741 20.8281 14.7305 21.6347C14.497 21.9826 14.1487 22.2617 13.6358 22.5064C12.8778 22.8695 12.0701 23.0301 11.45 23.1333C10.6461 23.2633 9.78864 23.3359 8.80103 23.355C9.0843 23.2939 9.36757 23.2251 9.64701 23.1524C10.6499 22.8887 11.5151 22.5408 12.2883 22.0897C13.1419 21.5927 13.831 20.9046 14.3286 20.0444C14.7956 19.2378 15.0368 18.3624 15.0444 17.4487C15.0483 16.7376 15.0406 16.0151 15.0291 15.3155C15.0253 15.0823 15.0215 14.853 15.0176 14.6198C15.0138 14.3828 15.0368 14.1496 15.0904 13.8934C15.1095 13.9049 15.1287 13.9164 15.1478 13.924C15.2741 13.9966 15.3966 14.0616 15.5038 14.1419C16.0129 14.5166 16.2847 14.9447 16.3383 15.4532C16.3804 15.8354 16.3651 16.2254 16.3421 16.6268Z" fill="#3F241D"/>
</svg>
