<svg width="19" height="22" viewBox="0 0 19 22" fill="none" xmlns="http://www.w3.org/2000/svg">
<path d="M18.5664 8.09455C17.9404 7.88355 17.8702 8.4456 17.7834 8.93108C17.643 9.71346 17.3715 12.5386 15.955 11.7842C14.3797 10.944 15.4896 8.32049 15.6688 7.04515C15.8572 5.69513 16.0492 4.34697 16.2468 2.99881C16.5072 1.22305 15.521 0.00933628 13.7573 0.00373451C12.3888 0 11.0222 0 9.65556 0C8.24645 0 6.65449 0 5.24538 0.00373451C3.47982 0.00933628 2.49547 1.22305 2.75587 2.99881C2.95348 4.34697 3.1437 5.69513 3.33393 7.04515C3.51307 8.31862 4.623 10.944 3.04767 11.7842C1.63301 12.5386 1.35968 9.71346 1.21933 8.93108C1.13253 8.4456 1.06235 7.88355 0.436278 8.09455C0.19804 8.17484 -0.0457395 8.79477 0.00966486 9.11781C0.240516 10.4641 0.659743 11.8085 1.45018 12.9326C2.98119 15.1136 5.65906 16.0304 8.14672 16.3665C8.53086 16.4188 8.77464 16.4262 8.77464 16.4262C8.77464 16.4262 8.87806 17.7557 8.54748 18.0003C8.10978 18.3234 7.38768 18.3738 6.87242 18.5456C6.20387 18.7696 5.50393 18.9825 4.87971 19.3242C4.57129 19.4923 4.27949 19.6939 4.01909 19.9423C3.66451 20.2803 2.70047 21.6322 3.6091 21.9066C4.1613 22.0728 4.43093 21.3502 4.69872 21.0066C5.05146 20.5566 5.49654 20.2448 6.01919 20.0263C6.70251 19.7406 7.42462 19.5166 8.14303 19.3448C8.75063 19.1991 9.08305 19.4269 8.94454 20.1477C8.86882 20.5379 8.84297 20.9655 8.92238 21.3483C8.9427 21.4492 8.98886 21.5743 9.05166 21.6882C9.05166 21.7106 9.0535 21.7311 9.0535 21.7535C9.12368 21.8581 9.21418 21.9365 9.33237 21.9757C9.34345 21.9813 9.35638 21.9813 9.36931 21.9851C9.38039 21.9869 9.39147 21.9907 9.40255 21.9925C9.41363 21.9944 9.42471 22 9.43579 22C9.44872 22 9.4598 22 9.47088 22C9.48012 22 9.48935 22 9.49859 22C9.50782 22 9.51705 22 9.52629 22C9.53737 22 9.54845 22 9.56138 22C9.57246 22 9.58354 21.9944 9.59462 21.9925C9.6057 21.9907 9.61678 21.9869 9.62786 21.9851C9.64079 21.9813 9.65187 21.9795 9.6648 21.9757C9.783 21.9365 9.87533 21.8581 9.94367 21.7535C9.94367 21.7311 9.94551 21.7106 9.94551 21.6882C10.0102 21.5743 10.0545 21.4492 10.0748 21.3483C10.1542 20.9655 10.1283 20.5379 10.0526 20.1477C9.91412 19.4269 10.2465 19.1991 10.8541 19.3448C11.5726 19.5184 12.2947 19.7425 12.978 20.0263C13.5006 20.2448 13.9457 20.5566 14.2984 21.0066C14.5662 21.3483 14.8359 22.0728 15.3881 21.9066C16.2967 21.634 15.3345 20.2821 14.9781 19.9423C14.7177 19.6939 14.4259 19.4941 14.1175 19.3242C13.4932 18.9825 12.7951 18.7696 12.1248 18.5456C11.6095 18.3719 10.8874 18.3234 10.4497 18.0003C10.1191 17.7557 10.2225 16.4262 10.2225 16.4262C10.2225 16.4262 10.4663 16.4188 10.8505 16.3665C13.3381 16.0304 16.016 15.1136 17.547 12.9326C18.3374 11.8085 18.7548 10.4641 18.9875 9.11781C19.0485 8.79664 18.8047 8.17484 18.5664 8.09455ZM5.33033 1.26973C6.66004 1.25853 8.15965 1.266 9.50413 1.266C9.52629 1.266 9.54845 1.266 9.57061 1.266C9.60755 1.266 9.64633 1.266 9.68327 1.266C11.013 1.26413 12.3427 1.25853 13.6724 1.26973C14.7657 1.27907 15.148 1.76456 14.991 2.86997C14.6475 5.2974 14.2911 7.72297 13.9808 10.156C13.8885 10.8768 13.689 11.2315 12.8561 11.2091C11.9234 11.183 10.989 11.1755 10.0545 11.1737V11.1718C9.86979 11.1718 9.68696 11.1737 9.50228 11.1737C9.3176 11.1737 9.13476 11.1718 8.95008 11.1718V11.1737C8.0156 11.1755 7.08296 11.1849 6.14847 11.2091C5.31556 11.2315 5.1161 10.8786 5.02376 10.156C4.7135 7.72483 4.35706 5.2974 4.01355 2.86997C3.85473 1.76269 4.23702 1.27907 5.33033 1.26973ZM14.9892 13.5974C14.6937 13.8214 14.3816 14.0212 14.0547 14.1967C13.3621 14.5702 12.6142 14.8335 11.8477 15.009C11.1293 15.1733 10.3924 15.2555 9.65372 15.2667C9.60201 15.2667 9.55214 15.2685 9.50043 15.2685C9.44872 15.2685 9.39886 15.2685 9.34715 15.2667C8.60842 15.2555 7.87154 15.1714 7.15313 15.009C6.38855 14.8353 5.64059 14.5702 4.94619 14.1967C4.61931 14.0212 4.3072 13.8214 4.01171 13.5974C3.91937 13.5264 3.25821 12.8523 3.20834 12.8654C3.68482 12.7216 4.14837 12.5199 4.64886 12.4733C5.17704 12.4247 5.7237 12.4621 6.25374 12.4583C7.33597 12.4509 8.4182 12.449 9.50043 12.449C10.5827 12.449 11.6649 12.4509 12.7471 12.4583C13.2772 12.4621 13.8257 12.4247 14.352 12.4733C14.8506 12.5199 15.316 12.7216 15.7925 12.8654C15.7427 12.8523 15.0815 13.5283 14.9892 13.5974Z" fill="#3F241D"/>
</svg>
