<svg width="9" height="25" viewBox="0 0 9 25" fill="none" xmlns="http://www.w3.org/2000/svg">
<path d="M0.03772 13.6106C1.13912 13.492 1.13912 13.492 1.13786 12.4466C1.13786 10.7629 1.13786 9.08036 1.13786 7.35013C1.52052 7.31873 1.86164 7.29083 2.27324 7.25827C2.27324 6.67455 2.27324 6.11757 2.27324 5.56059C2.27324 4.51408 2.28457 3.46757 2.26821 2.42222C2.2594 1.87339 2.48849 1.43967 2.93157 1.10478C3.85548 0.407107 4.94178 0.0896656 6.11618 0.00478194C6.55297 -0.0266134 6.74429 0.133852 6.73926 0.575712C6.71786 2.57106 6.72919 4.56757 6.72919 6.56292C6.72919 6.77338 6.72919 6.98501 6.72919 7.26408C7.10807 7.28734 7.45045 7.30943 7.87464 7.33501C7.87464 9.39664 7.87464 11.4385 7.87464 13.5187C8.2787 13.5478 8.6022 13.5711 8.96975 13.5966C8.97982 13.8059 8.99618 13.9943 8.99618 14.1827C8.9987 17.4571 8.9987 20.7315 8.9987 24.0059C8.9987 24.9234 8.9194 24.9943 7.92122 24.9955C5.57115 24.9955 3.21982 24.9897 0.869748 25.0001C0.315902 25.0025 -0.00381851 24.8559 -0.00255977 24.2792C0.00751016 20.8106 0.00247519 17.3432 0.00247519 13.8745C0.00499267 13.8001 0.0226151 13.7245 0.03772 13.6106ZM7.86457 23.9362C7.89101 23.8059 7.91996 23.7327 7.91996 23.6583C7.92248 20.7699 7.91744 17.8815 7.92877 14.9932C7.93003 14.6071 7.72863 14.5536 7.38248 14.5559C5.5145 14.5652 3.64527 14.5815 1.7773 14.549C1.2222 14.5397 1.05982 14.6804 1.06485 15.1955C1.09129 17.9094 1.07744 20.6234 1.0787 23.3373C1.0787 23.5257 1.09884 23.7152 1.11143 23.9362C3.3822 23.9362 5.59884 23.9362 7.86457 23.9362ZM6.73926 8.39432C5.23506 8.39432 3.76108 8.39432 2.28709 8.39432C2.28709 10.1234 2.28709 11.8048 2.28709 13.5234C3.78122 13.5234 5.23758 13.5234 6.73926 13.5234C6.73926 11.799 6.73926 10.1048 6.73926 8.39432ZM3.42373 3.20594C3.42373 4.55827 3.42373 5.91292 3.42373 7.25478C4.18653 7.25478 4.88513 7.25478 5.58877 7.25478C5.58877 5.69664 5.58877 4.18618 5.58877 2.66176C4.83478 2.85129 4.13492 3.02687 3.42373 3.20594ZM5.59506 1.21757C4.80457 1.23618 4.13744 1.47222 3.62765 2.00827C4.34891 1.86757 5.12933 1.85129 5.59506 1.21757Z" fill="#3F241D"/>
<path d="M2.7919 22.3779C3.02981 22.3988 3.22239 22.3674 3.34701 22.4384C3.55344 22.5546 3.85302 22.7326 3.85932 22.893C3.86561 23.0698 3.61512 23.3756 3.42631 23.4139C3.02855 23.4953 2.5754 23.5128 2.19022 23.4116C1.9712 23.3546 1.69806 23.0105 1.69428 22.793C1.65904 20.4535 1.67162 18.1128 1.67288 15.7733C1.67288 15.4209 1.82645 15.1326 2.2305 15.1326C2.67736 15.1326 2.79694 15.4384 2.79568 15.8163C2.78813 17.7884 2.7919 19.7616 2.79316 21.7337C2.7919 21.9395 2.7919 22.1465 2.7919 22.3779Z" fill="#3F241D"/>
</svg>
