<svg width="23" height="22" viewBox="0 0 23 22" fill="none" xmlns="http://www.w3.org/2000/svg">
<path d="M17.5856 9.37878C17.3132 13.3913 17.8526 17.2592 18.7534 21.3132C13.8879 22.2621 9.09136 22.1808 4.18951 21.362C5.07036 17.2935 5.64427 13.4093 5.34642 9.32636C4.08781 10.6169 3.73002 10.691 2.11544 9.99873C1.73223 9.83425 1.35992 9.61555 1.02574 9.36613C-0.1693 8.47507 -0.258292 8.03767 0.431853 6.76163C0.646161 6.3658 0.902242 5.98624 1.07478 5.57415C2.27345 2.70757 4.48555 0.961592 7.38416 0.0867972C8.13424 -0.140939 9.03325 0.153672 9.86324 0.142827C11.3325 0.122946 12.8 0.0289596 14.2693 0.0126927C14.8196 0.00727045 15.3971 0.0542636 15.9202 0.215125C18.846 1.11342 20.8002 3.07447 22.0062 5.83261C22.1624 6.18867 22.3712 6.52124 22.5583 6.86465C23.1794 8.01417 23.2321 8.40096 22.1569 9.11851C21.1889 9.76557 20.012 10.156 18.8751 10.465C18.6008 10.5391 18.1177 9.8451 17.5856 9.37878ZM13.9224 1.27789C13.6917 1.24355 13.4611 1.18029 13.2304 1.17848C12.059 1.16764 10.8857 1.16945 9.71431 1.17848C9.48184 1.18029 9.25119 1.23994 9.02235 1.27428L9.0623 1.24897L9.00782 1.24355C10.7368 2.48706 12.1534 2.49067 13.9369 1.2562C13.926 1.24355 13.9151 1.2309 13.9042 1.21825C13.9097 1.23632 13.9169 1.25801 13.9224 1.27789ZM5.47173 20.4854C5.66061 20.5505 5.79501 20.621 5.93849 20.6409C9.5781 21.1469 13.2177 21.1397 16.8646 20.6788C17.5475 20.5921 17.4821 20.227 17.424 19.7335C17.1098 17.1146 16.7483 14.4992 16.5504 11.8694C16.4323 10.2988 16.4124 8.6775 17.3876 7.17191C17.72 7.62015 18.0233 8.02321 18.3193 8.43169C19.1748 9.61194 19.4181 9.66616 20.7203 8.945C20.931 8.82751 21.1326 8.69376 21.3324 8.56002C21.8427 8.21841 22.0788 7.85512 21.6538 7.23698C21.2125 6.59534 20.8311 5.90129 20.5169 5.18916C19.5071 2.89915 17.5257 1.86531 15.3335 1.07727C13.659 3.65827 9.71794 4.07579 7.60755 1.10257C5.16843 1.85446 3.21968 3.18473 2.19899 5.61752C2.04825 5.97539 1.83212 6.30615 1.64324 6.64957C0.853205 8.08466 0.967624 8.42446 2.48958 9.07875C2.73658 9.18538 3.01445 9.22153 3.26327 9.32636C3.69733 9.50891 3.97702 9.39505 4.23129 8.99741C4.62721 8.38108 5.08125 7.8027 5.50987 7.20806C5.60431 7.23336 5.70057 7.25867 5.79501 7.28397C7.16985 11.6869 6.04564 16.0771 5.47173 20.4854Z" fill="#3F241D"/>
</svg>
