<svg width="20" height="19" viewBox="0 0 20 19" fill="none" xmlns="http://www.w3.org/2000/svg">
<path d="M19.9901 4.15113C19.9901 3.25072 19.9967 2.35032 19.9877 1.45052C19.9794 0.628025 19.3641 0.00297843 18.5705 0.00297843C12.8479 0.00119428 7.12523 0.00119428 1.40259 0.00297843C0.626301 0.00297843 0.00144947 0.626241 0.00085324 1.3958C-0.000935455 5.66944 -0.000935455 9.94307 0.00085324 14.2167C0.00144947 15.0683 0.610202 15.669 1.46401 15.6696C3.1895 15.6708 4.91559 15.6696 6.64109 15.6696C6.74662 15.6696 6.85215 15.6696 6.99406 15.6696C6.9088 16.0104 6.83367 16.3113 6.75497 16.6259C6.48249 16.6259 6.23386 16.6057 5.98881 16.6301C5.30434 16.6979 4.76653 17.3098 4.75759 18.008C4.74567 18.9649 4.77429 18.9941 5.72289 18.9941C8.5693 18.9941 11.4157 18.9792 14.2621 19.0018C15.3109 19.0101 15.2578 18.7806 15.2209 17.9456C15.1881 17.1974 14.5561 16.6271 13.8054 16.6223C13.6104 16.6211 13.4155 16.6223 13.2229 16.6223C13.1424 16.2929 13.0703 15.9973 12.9904 15.6702C13.1269 15.6702 13.2348 15.6702 13.3421 15.6702C15.0283 15.6702 16.715 15.6416 18.4 15.6815C19.2824 15.7023 20.0062 15.035 19.9991 14.0936C19.9746 10.7792 19.9901 7.46489 19.9901 4.15113ZM0.951247 12.4902C0.951247 8.87139 0.951247 5.25195 0.951247 1.6331C0.951247 1.09726 1.1003 0.949172 1.64049 0.949172C7.21168 0.948578 12.7829 0.948578 18.3541 0.949172C18.8728 0.949172 19.0332 1.10618 19.0338 1.61704C19.035 5.25611 19.0344 8.89458 19.0338 12.5337C19.0338 12.6199 19.0248 12.7061 19.0195 12.8066C12.9987 12.8066 6.99525 12.8066 0.951247 12.8066C0.951247 12.6996 0.951247 12.5949 0.951247 12.4902ZM1.75497 14.7216C1.02756 14.7216 0.881488 14.5491 0.978674 13.776C3.91273 13.776 6.82711 13.776 9.73553 13.776C9.73553 13.776 9.73553 13.776 9.73553 13.7766C9.56978 13.8694 9.45769 14.046 9.45769 14.2488C9.45769 14.4445 9.56203 14.6152 9.71764 14.7103C9.6616 14.7127 9.56143 14.721 9.46126 14.721C6.8921 14.7222 4.32353 14.7216 1.75497 14.7216ZM11.9988 15.6874C12.0722 15.986 12.1443 16.2798 12.223 16.5997C10.7265 16.5997 9.25735 16.5997 7.7632 16.5997C7.83713 16.2946 7.90808 15.9997 7.9838 15.6874C9.31876 15.6874 10.6507 15.6874 11.9988 15.6874ZM13.6313 17.5691C14.0475 17.5697 14.1631 17.6548 14.2544 18.0372C11.4008 18.0372 8.5687 18.0372 5.73541 18.0372C5.78192 17.6898 5.91309 17.5733 6.28991 17.5703C7.003 17.565 7.71669 17.5685 8.42978 17.5685C10.1642 17.5685 11.8975 17.5679 13.6313 17.5691ZM19.0338 14.1436C19.0212 14.5438 18.8501 14.7169 18.4429 14.7204C17.8085 14.7264 17.1747 14.7222 16.5403 14.7222C14.5483 14.7222 12.5569 14.7222 10.5649 14.7222C10.4695 14.7222 10.3735 14.7222 10.2644 14.7222C10.4307 14.6294 10.5428 14.4528 10.5428 14.2494C10.5428 14.0514 10.4361 13.8789 10.2775 13.7843C13.1913 13.7843 16.0961 13.7843 19.0344 13.7843C19.0338 13.9128 19.0373 14.0282 19.0338 14.1436Z" fill="#3F241D"/>
</svg>
