<svg width="24" height="16" viewBox="0 0 24 16" fill="none" xmlns="http://www.w3.org/2000/svg">
<path d="M11.6716 0C15.3448 0 19.018 0 22.6904 0C23.2463 0 23.3246 0.078233 23.3253 0.622103C23.3253 1.47439 23.3389 2.32743 23.3155 3.17897C23.3095 3.38658 23.2298 3.62505 23.1057 3.79054C20.1967 7.68639 17.2758 11.574 14.3639 15.4676C14.1894 15.7008 14.0051 15.8068 13.7064 15.8038C12.3404 15.7895 10.9735 15.791 9.60746 15.8031C9.32537 15.8053 9.14634 15.7068 8.98009 15.4849C6.05087 11.5732 3.11413 7.66608 0.188665 3.75142C0.0788377 3.60398 0.0148973 3.38809 0.0111361 3.20153C-0.00691768 2.32442 0.00135696 1.44731 0.00361368 0.569446C0.00511816 0.0947823 0.0991482 0.00075224 0.577573 0.00075224C4.27559 0 7.9736 0 11.6716 0ZM13.5327 15.0252C13.5409 14.871 13.5477 14.7477 13.5537 14.6243C13.6598 12.2916 14.1232 10.0544 15.32 8.01286C15.3689 7.93012 15.417 7.82932 15.4155 7.73754C15.3929 6.42714 15.1748 5.17165 14.3864 4.07338C14.2262 3.84997 14.0479 3.75368 13.7621 3.75669C12.3584 3.77248 10.954 3.77098 9.55029 3.75744C9.28174 3.75518 9.11174 3.8447 8.95602 4.05683C8.19626 5.09267 7.96683 6.28572 7.91793 7.52992C7.91041 7.71573 7.96833 7.92711 8.06011 8.09034C8.83566 9.45867 9.32537 10.9255 9.55405 12.4759C9.67817 13.3139 9.74061 14.1617 9.83389 15.026C11.045 15.0252 12.2681 15.0252 13.5327 15.0252ZM0.776917 2.97436C8.06236 2.97436 15.3094 2.97436 22.543 2.97436C22.543 2.21911 22.543 1.49846 22.543 0.774807C15.2748 0.774807 8.03603 0.774807 0.776917 0.774807C0.776917 1.51652 0.776917 2.23716 0.776917 2.97436ZM8.8808 14.0864C8.91315 14.0729 8.94624 14.0594 8.97859 14.0466C8.76796 11.2678 8.01422 8.69514 6.03583 6.60993C4.75175 5.2559 3.18108 4.39308 1.33132 4.02223C3.84831 7.37647 6.36456 10.7315 8.8808 14.0864ZM14.3887 14.1647C16.9666 10.7277 19.4851 7.36894 22.0442 3.95678C17.2442 5.00917 14.5196 9.30596 14.3887 14.1647ZM3.34055 3.77324C4.8187 4.52322 6.09977 5.49511 7.16268 6.7822C7.29432 6.22328 7.38008 5.70725 7.54181 5.21603C7.70354 4.72632 7.94125 4.26144 8.15113 3.77324C6.53832 3.77324 4.93981 3.77324 3.34055 3.77324ZM15.2621 3.78151C15.5818 4.75641 15.903 5.73658 16.2242 6.7175C17.2299 5.48082 18.5215 4.52472 19.9899 3.78151C18.3884 3.78151 16.7861 3.78151 15.2621 3.78151Z" fill="#3F241D"/>
</svg>
