<svg width="20" height="19" viewBox="0 0 20 19" fill="none" xmlns="http://www.w3.org/2000/svg">
<path d="M18.3333 14.6667H1.66667C1.22464 14.6667 0.800716 14.8598 0.488155 15.2036C0.175595 15.5474 0 16.0138 0 16.5C0 16.9862 0.175595 17.4525 0.488155 17.7964C0.800716 18.1402 1.22464 18.3333 1.66667 18.3333H18.3333C18.7754 18.3333 19.1993 18.1402 19.5118 17.7964C19.8244 17.4525 20 16.9862 20 16.5C20 16.0138 19.8244 15.5474 19.5118 15.2036C19.1993 14.8598 18.7754 14.6667 18.3333 14.6667Z" fill="#3F241D"/>
<path d="M18.3333 0H1.66667C1.22464 0 0.800716 0.193154 0.488155 0.536971C0.175595 0.880787 0 1.3471 0 1.83333C0 2.31956 0.175595 2.78588 0.488155 3.1297C0.800716 3.47351 1.22464 3.66667 1.66667 3.66667H18.3333C18.7754 3.66667 19.1993 3.47351 19.5118 3.1297C19.8244 2.78588 20 2.31956 20 1.83333C20 1.3471 19.8244 0.880787 19.5118 0.536971C19.1993 0.193154 18.7754 0 18.3333 0Z" fill="#3F241D"/>
<path d="M18.3333 7.33334H1.66667C1.22464 7.33334 0.800716 7.5265 0.488155 7.87031C0.175595 8.21413 0 8.68045 0 9.16668C0 9.65291 0.175595 10.1192 0.488155 10.463C0.800716 10.8069 1.22464 11 1.66667 11H18.3333C18.7754 11 19.1993 10.8069 19.5118 10.463C19.8244 10.1192 20 9.65291 20 9.16668C20 8.68045 19.8244 8.21413 19.5118 7.87031C19.1993 7.5265 18.7754 7.33334 18.3333 7.33334Z" fill="#3F241D"/>
</svg>
