<svg width="19" height="18" viewBox="0 0 19 18" fill="none" xmlns="http://www.w3.org/2000/svg">
<path d="M4.67592 13.3009V15.3514H3.15092C3.09429 15.3514 3.03876 15.3672 2.99059 15.397C2.94241 15.4267 2.90349 15.4693 2.87814 15.52L1.96317 17.3499C1.93988 17.3964 1.92886 17.4481 1.93118 17.5C1.9335 17.552 1.94907 17.6025 1.97641 17.6467C2.00374 17.691 2.04195 17.7275 2.08738 17.7528C2.1328 17.7781 2.18394 17.7914 2.23595 17.7914H10.4706V17.1814H2.72947L3.3395 15.9614H9.25074V15.3514H5.28594V13.5176C5.98272 13.7324 6.70766 13.842 7.4368 13.8426H8.01467C8.23215 13.8426 8.45166 13.8328 8.6679 13.8134L8.61351 13.2058C8.4153 13.2235 8.21382 13.2326 8.01467 13.2326H7.4368C5.65287 13.2326 3.94202 12.5239 2.68059 11.2625C1.41916 10.001 0.710478 8.29016 0.710478 6.50623V5.59127H1.97591C2.47223 5.58974 2.95638 5.43756 3.36432 5.15488C3.77227 4.8722 4.08478 4.47233 4.26052 4.00818L4.38199 3.68413C4.63037 4.12352 4.98053 4.49692 5.40306 4.773C5.82559 5.04908 6.30817 5.21979 6.81032 5.2708V5.46497C6.36013 5.64759 5.9746 5.96027 5.70299 6.36306C5.43138 6.76585 5.28601 7.24048 5.28547 7.72629C5.28547 8.27869 5.66296 9.10169 6.40751 10.1725C6.94391 10.9441 7.47192 11.5592 7.49491 11.585C7.54767 11.6463 7.62263 11.6841 7.70329 11.6902C7.78395 11.6963 7.86372 11.67 7.92506 11.6173C7.93661 11.6074 7.94735 11.5966 7.9572 11.585C7.97941 11.5592 8.50742 10.9441 9.04459 10.1725C9.78915 9.10169 10.1666 8.27869 10.1666 7.72629C10.166 7.24047 10.0206 6.76587 9.74898 6.36308C9.47735 5.9603 9.09182 5.64762 8.64164 5.46497V5.2708C9.1438 5.21984 9.62642 5.04915 10.049 4.77307C10.4715 4.49698 10.8216 4.12355 11.07 3.68413L11.1914 4.00818C11.3672 4.47233 11.6797 4.8722 12.0876 5.15488C12.4956 5.43756 12.9797 5.58974 13.476 5.59127H14.7415V6.50623C14.7414 6.99689 14.6877 7.48607 14.5813 7.96505L15.1767 8.0974C15.2928 7.57497 15.3513 7.0414 15.3513 6.50623V5.2868C15.3514 5.24675 15.3435 5.20708 15.3282 5.17008C15.3128 5.13307 15.2904 5.09945 15.2621 5.07113C15.2338 5.04281 15.2001 5.02035 15.1631 5.00503C15.1261 4.98971 15.0864 4.98184 15.0464 4.98186H13.476C13.1038 4.98068 12.7407 4.86653 12.4347 4.6545C12.1288 4.44247 11.8944 4.14255 11.7626 3.79442L10.4522 0.299224C10.4304 0.241095 10.3914 0.191001 10.3403 0.155637C10.2893 0.120272 10.2287 0.101322 10.1666 0.101318H5.28687C5.22478 0.101334 5.16416 0.120287 5.11312 0.155648C5.06208 0.191009 5.02304 0.241096 5.0012 0.299224L3.69073 3.79442C3.55893 4.14255 3.32457 4.44247 3.01862 4.6545C2.71266 4.86653 2.34954 4.98068 1.9773 4.98186H0.406014C0.325139 4.98186 0.247576 5.01399 0.190389 5.07117C0.133202 5.12836 0.101075 5.20592 0.101075 5.2868V6.5067C0.10046 7.96598 0.535553 9.39221 1.3506 10.6027C2.16565 11.8131 3.32354 12.7526 4.67592 13.3009ZM7.72574 5.89652C7.96828 5.89693 8.20077 5.99346 8.37227 6.16496C8.54377 6.33646 8.6403 6.56894 8.64071 6.81148C8.64071 7.1391 8.16116 7.88909 7.72418 8.45889C7.09598 7.64862 6.81032 7.02073 6.81032 6.81148C6.81073 6.56894 6.90725 6.33646 7.07875 6.16496C7.25025 5.99346 7.48275 5.89693 7.72528 5.89652H7.72574ZM7.42035 5.30622V4.98155C7.42035 4.90068 7.45247 4.82311 7.50966 4.76593C7.56685 4.70874 7.64441 4.67661 7.72528 4.67661C7.80616 4.67661 7.88372 4.70874 7.94091 4.76593C7.9981 4.82311 8.03022 4.90068 8.03022 4.98155V5.30622C7.95581 5.2969 7.88016 5.29068 7.80373 5.28851C7.77779 5.28711 7.75154 5.28649 7.72528 5.28649C7.69903 5.28649 7.67293 5.28649 7.64761 5.28851C7.57108 5.29099 7.49552 5.2969 7.42095 5.30622H7.42035ZM9.24717 6.71066C9.44886 7.01099 9.55633 7.36468 9.55583 7.72645C9.55583 7.96552 9.42472 8.55551 8.5461 9.8203C8.23915 10.2621 7.92925 10.6578 7.72621 10.9077C7.52427 10.6581 7.2156 10.2646 6.90911 9.82372C6.02785 8.55628 5.89628 7.96536 5.89628 7.7266C5.89596 7.36486 6.00343 7.01123 6.20495 6.71082C6.20278 6.74422 6.20137 6.77777 6.20137 6.81164C6.20137 7.55821 7.27664 8.8839 7.4921 9.14177C7.54398 9.20385 7.61839 9.24278 7.69896 9.25C7.77954 9.25723 7.8597 9.23215 7.92179 9.18029C7.93577 9.16864 7.94865 9.15575 7.96031 9.14177C8.17592 8.88359 9.25121 7.55728 9.25121 6.81164C9.25121 6.77777 9.24965 6.74422 9.24747 6.71082L9.24717 6.71066ZM9.59622 0.711813L9.3691 1.05248C9.22527 1.26824 9.04036 1.45356 8.82491 1.59785C8.60946 1.74215 8.36772 1.84259 8.11345 1.89346C7.85918 1.94432 7.59737 1.9446 7.343 1.89429C7.08862 1.84397 6.84665 1.74405 6.63089 1.60022C6.41399 1.45558 6.22788 1.26942 6.08331 1.05248L5.85619 0.711813H9.59622ZM5.36236 1.07159L5.57533 1.39112C5.81134 1.74515 6.1311 2.03543 6.50623 2.2362C6.88136 2.43697 7.30026 2.54201 7.72574 2.54201C8.15122 2.54201 8.57012 2.43697 8.94525 2.2362C9.32038 2.03543 9.64014 1.74515 9.87614 1.39112L10.0891 1.07159L10.7596 2.85926C10.6168 3.342 10.3337 3.77136 9.94625 4.09274C9.55879 4.41411 9.08451 4.61298 8.5837 4.66403C8.51884 4.48874 8.40183 4.33753 8.24845 4.23074C8.09506 4.12394 7.91264 4.0667 7.72574 4.0667C7.53884 4.0667 7.35642 4.12394 7.20303 4.23074C7.04965 4.33753 6.93265 4.48874 6.86779 4.66403C6.36702 4.61297 5.89274 4.41412 5.50529 4.09278C5.11783 3.77143 4.83469 3.34211 4.6919 2.85942L5.36236 1.07159Z" fill="#3F241D"/>
<path d="M10.5716 17.892H2.23589C2.16668 17.892 2.09861 17.8744 2.03815 17.8407C1.97769 17.807 1.92686 17.7584 1.89047 17.6995C1.85408 17.6407 1.83333 17.5735 1.83022 17.5043C1.82712 17.4352 1.84174 17.3664 1.8727 17.3045L2.78782 15.4746C2.82131 15.407 2.87306 15.3501 2.93723 15.3104C3.00139 15.2707 3.07541 15.2497 3.15086 15.2499H4.57488V13.3683C3.21724 12.808 2.05714 11.8562 1.2424 10.6342C0.427662 9.41214 -0.00483346 7.97522 4.07496e-05 6.50651V5.28645C0.000164092 5.17884 0.0429734 5.07566 0.119069 4.99957C0.195166 4.92347 0.29834 4.88067 0.405956 4.88054H1.97631C2.32772 4.87799 2.6702 4.76954 2.95901 4.56934C3.24783 4.36915 3.46958 4.08651 3.59529 3.75835L4.90622 0.264082C4.93534 0.186724 4.9873 0.120044 5.05519 0.0728824C5.12307 0.0257204 5.20368 0.000303255 5.28634 0H10.1661C10.2488 0.000346583 10.3294 0.0257809 10.3972 0.072937C10.4651 0.120093 10.5171 0.186748 10.5462 0.264082L11.8567 3.75928C11.9824 4.08744 12.2042 4.37004 12.4931 4.57019C12.7819 4.77033 13.1244 4.87871 13.4758 4.88116H15.0459C15.1535 4.88129 15.2567 4.92409 15.3328 5.00019C15.4089 5.07628 15.4517 5.17946 15.4518 5.28707V6.50698C15.4516 7.0495 15.3923 7.59039 15.2749 8.12005L15.253 8.21854L14.4607 8.04253L14.4824 7.94389C14.5873 7.4721 14.6402 6.99027 14.6403 6.50698V5.69252H13.4752C12.9589 5.68888 12.4557 5.52962 12.0313 5.23553C11.6069 4.94143 11.281 4.52619 11.0963 4.04402L11.0475 3.914C10.79 4.30694 10.4507 4.63963 10.0527 4.88934C9.65478 5.13905 9.20761 5.29989 8.74178 5.36086V5.39814C9.19542 5.59505 9.58154 5.92041 9.85252 6.33409C10.1235 6.74778 10.2675 7.23172 10.2668 7.72626C10.2668 8.29994 9.88309 9.14236 9.12657 10.2302C8.60074 10.9866 8.09012 11.5853 8.03373 11.651C8.02049 11.6663 8.00611 11.6807 7.9907 11.6939C7.90903 11.7639 7.8029 11.7988 7.69557 11.7908C7.58824 11.7828 7.48847 11.7326 7.41811 11.6511C7.39605 11.6253 6.86788 11.0107 6.32512 10.2302C5.5686 9.14282 5.18506 8.29978 5.18506 7.72641C5.18426 7.23186 5.32821 6.74788 5.59917 6.33416C5.87013 5.92043 6.25624 5.59506 6.70991 5.39814V5.36086C6.24409 5.29993 5.79692 5.13911 5.399 4.88939C5.00107 4.63968 4.66177 4.30696 4.40431 3.914L4.35554 4.04371C4.17086 4.5259 3.84505 4.94118 3.42068 5.23533C2.99631 5.52947 2.49311 5.6888 1.97679 5.69252H0.811719V6.50635C0.813898 8.26271 1.51257 9.94651 2.7545 11.1884C3.99644 12.4304 5.68024 13.1291 7.4366 13.1312H8.01462C8.21097 13.1312 8.4095 13.1224 8.60492 13.105L8.70558 13.096L8.77783 13.9047L8.67715 13.9137C8.45734 13.9333 8.23459 13.9432 8.01524 13.9432H7.43722C6.74348 13.9429 6.05322 13.8451 5.38669 13.6527V15.2499H9.3515V16.0621H3.40189L2.89284 17.08H10.5717L10.5716 17.892ZM3.15086 15.452C3.11295 15.452 3.07576 15.4625 3.04353 15.4825C3.0113 15.5024 2.9853 15.531 2.96848 15.565L2.05353 17.3948C2.03785 17.4258 2.03039 17.4604 2.03189 17.4952C2.03339 17.53 2.0438 17.5638 2.0621 17.5934C2.08039 17.623 2.10597 17.6474 2.13639 17.6643C2.16682 17.6812 2.20109 17.69 2.23589 17.6899H10.3696V17.2821H2.56599L3.277 15.86H9.14893V15.452H5.18413V13.3804L5.31477 13.4208C6.00215 13.6328 6.7174 13.7408 7.43675 13.7411H8.01479C8.19483 13.7411 8.3772 13.7343 8.55849 13.7206L8.52229 13.3142C8.35389 13.3268 8.18379 13.3332 8.01509 13.3332H7.43705C5.62713 13.331 3.892 12.611 2.61223 11.3311C1.33245 10.0513 0.61253 8.31612 0.610392 6.5062V5.49057H1.97739C2.45281 5.48721 2.91617 5.34054 3.30692 5.06973C3.69768 4.79891 3.99769 4.41654 4.16773 3.97257L4.36517 3.44627L4.47157 3.6347C4.71231 4.05976 5.05135 4.42099 5.46031 4.68817C5.86926 4.95535 6.33626 5.12071 6.82222 5.17041L6.91294 5.17958V5.53314L6.84987 5.55877C6.4176 5.73282 6.04733 6.03232 5.78681 6.41868C5.52628 6.80505 5.38741 7.26057 5.3881 7.72657C5.3881 8.25784 5.75951 9.06142 6.49195 10.115C7.02881 10.887 7.55031 11.4938 7.57222 11.5192C7.60757 11.5602 7.6577 11.5855 7.71165 11.5895C7.76559 11.5936 7.81894 11.5762 7.86005 11.541C7.86775 11.5343 7.87497 11.527 7.88165 11.5192C7.90386 11.4935 8.4328 10.8758 8.9619 10.115C9.69449 9.06142 10.0659 8.25784 10.0659 7.72641C10.0665 7.26043 9.92762 6.80494 9.66706 6.4186C9.40651 6.03227 9.03626 5.7328 8.604 5.55877L8.54093 5.53314V5.17958L8.63164 5.17041C9.1176 5.1207 9.58459 4.95533 9.99354 4.68816C10.4025 4.42098 10.7415 4.05975 10.9823 3.6347L11.0888 3.44627L11.2863 3.97272C11.4563 4.41668 11.7563 4.79903 12.1471 5.06982C12.5379 5.34061 13.0012 5.48724 13.4766 5.49057H14.8427V6.50635C14.8426 6.9708 14.7952 7.43403 14.7013 7.8889L15.0996 7.97745C15.1999 7.49366 15.2505 7.00089 15.2506 6.50682V5.28645C15.2506 5.23237 15.2291 5.18052 15.1908 5.14227C15.1526 5.10403 15.1007 5.08253 15.0467 5.08249H13.4763C13.0839 5.07979 12.7015 4.95879 12.3789 4.73531C12.0564 4.51182 11.8088 4.19624 11.6684 3.82981L10.358 0.334607C10.3432 0.295827 10.3171 0.262424 10.283 0.238798C10.2488 0.215173 10.2084 0.202432 10.1669 0.202256H5.28712C5.24562 0.202389 5.20515 0.215113 5.17103 0.238744C5.13691 0.262375 5.11077 0.295802 5.09605 0.334607L3.78558 3.82981C3.64527 4.19626 3.39768 4.51188 3.07518 4.73542C2.75268 4.95896 2.37026 5.08002 1.97787 5.0828H0.405956C0.351874 5.08284 0.300024 5.10434 0.261783 5.14258C0.223541 5.18083 0.202034 5.23268 0.201993 5.28676V6.50667C0.197242 7.94676 0.624672 9.35516 1.42901 10.5497C2.23335 11.7443 3.37761 12.67 4.71376 13.2072L4.77681 13.2328V15.4524L3.15086 15.452ZM7.72568 11.0692L7.64723 10.9724C7.44203 10.7192 7.1329 10.3247 6.82579 9.88256C5.97358 8.65722 5.79479 8.03399 5.79479 7.72703C5.79423 7.34521 5.90783 6.97194 6.121 6.65517L6.33024 6.3434L6.30555 6.71824C6.30353 6.74931 6.30198 6.78038 6.30198 6.81238C6.30198 7.36415 6.98548 8.37776 7.56941 9.07805C7.60411 9.11955 7.65387 9.14559 7.70776 9.15042C7.76165 9.15526 7.81525 9.1385 7.85679 9.10383C7.86616 9.09599 7.87484 9.08737 7.88273 9.07805C8.46728 8.37776 9.15003 7.36415 9.15003 6.81238C9.15003 6.78131 9.14846 6.74931 9.14644 6.71824L9.12175 6.3434L9.33099 6.65517C9.54422 6.97191 9.65785 7.3452 9.65722 7.72703C9.65722 8.03352 9.47888 8.65552 8.62916 9.87852C8.32158 10.3211 8.0112 10.7174 7.80491 10.9724L7.72568 11.0692ZM6.12986 7.06139C6.04149 7.27211 5.99622 7.49839 5.99672 7.72688C5.99672 7.91034 6.09366 8.47609 6.99092 9.7673C7.25764 10.1511 7.52606 10.4991 7.72506 10.7478C7.92514 10.4976 8.19481 10.1479 8.46215 9.76326C9.35739 8.4747 9.45402 7.91003 9.45402 7.72703C9.45454 7.49849 9.40928 7.27216 9.3209 7.06139C9.15142 7.82428 8.31335 8.87579 8.03669 9.20714C8.0211 9.22581 8.00389 9.24307 7.98526 9.25871C7.90254 9.32756 7.79588 9.36079 7.68869 9.35112C7.58149 9.34145 7.48251 9.28967 7.41344 9.20714C7.13678 8.87579 6.29871 7.82459 6.12923 7.06139H6.12986ZM7.72445 8.62476L7.64429 8.5213C7.0018 7.69301 6.70913 7.05456 6.70913 6.81253C6.70983 6.5433 6.81708 6.2853 7.00745 6.09493C7.19783 5.90455 7.45583 5.79729 7.72506 5.7966C7.99424 5.79729 8.25222 5.90454 8.44257 6.09488C8.63291 6.28523 8.74015 6.54319 8.74085 6.81238C8.74085 7.2753 7.96041 8.31718 7.80398 8.52114L7.72445 8.62476ZM7.72445 5.99808C7.50874 5.99865 7.30203 6.08459 7.1495 6.23712C6.99697 6.38965 6.91103 6.59636 6.91046 6.81207C6.91046 6.9845 7.16335 7.5501 7.72305 8.29263C8.21408 7.63585 8.53844 7.0499 8.53844 6.81207C8.53787 6.59636 8.45193 6.38965 8.2994 6.23712C8.14687 6.08459 7.94016 5.99865 7.72445 5.99808ZM7.31853 5.42144V4.98152C7.31853 4.87384 7.36131 4.77058 7.43745 4.69444C7.51359 4.6183 7.61685 4.57553 7.72453 4.57553C7.8322 4.57553 7.93546 4.6183 8.0116 4.69444C8.08774 4.77058 8.13052 4.87384 8.13052 4.98152V5.42067L8.01695 5.40638C7.9458 5.39752 7.87263 5.39177 7.79947 5.38929C7.74758 5.38696 7.69974 5.38696 7.65112 5.38929C7.57625 5.39177 7.50323 5.39747 7.43208 5.40638L7.31853 5.42144ZM7.72445 5.1861C7.75241 5.1861 7.78022 5.18688 7.80787 5.18828C7.84779 5.18952 7.88817 5.19185 7.92856 5.19511V4.98152C7.92856 4.9274 7.90706 4.8755 7.86879 4.83724C7.83053 4.79897 7.77864 4.77747 7.72453 4.77747C7.67041 4.77747 7.6185 4.79897 7.58024 4.83724C7.54197 4.8755 7.52049 4.9274 7.52049 4.98152V5.19433C7.56103 5.19123 7.60204 5.1889 7.64289 5.1875C7.66868 5.18626 7.69649 5.18548 7.72445 5.18548V5.1861ZM6.93407 4.77211L6.8564 4.76404C6.33556 4.71191 5.84214 4.50548 5.43935 4.17119C5.03656 3.8369 4.74274 3.38997 4.59553 2.88766L4.5859 2.85519L5.33745 0.851275L5.65979 1.3347C5.84003 1.60665 6.07241 1.84016 6.34347 2.02171C6.61454 2.20327 6.91892 2.32927 7.23901 2.39243C7.55869 2.45715 7.88802 2.45787 8.20798 2.39454C8.52794 2.33122 8.83218 2.2051 9.10311 2.02349C9.37618 1.84192 9.61033 1.60777 9.79189 1.3347L10.1142 0.851275L10.8658 2.85519L10.8563 2.88766C10.7089 3.39018 10.4148 3.83724 10.0117 4.17154C9.6086 4.50584 9.11485 4.71216 8.59374 4.76404L8.51607 4.77211L8.48887 4.69879C8.43118 4.54284 8.32711 4.40831 8.19065 4.31329C8.05419 4.21828 7.89189 4.16735 7.72561 4.16735C7.55933 4.16735 7.39705 4.21828 7.26058 4.31329C7.12412 4.40831 7.02004 4.54284 6.96234 4.69879L6.93407 4.77211ZM4.79841 2.86249C4.93544 3.30702 5.19732 3.70282 5.55286 4.00279C5.9084 4.30275 6.34263 4.49424 6.80389 4.55448C6.88539 4.37863 7.01549 4.22977 7.17884 4.12544C7.34218 4.02112 7.53194 3.96569 7.72576 3.96569C7.91957 3.96569 8.10936 4.02112 8.2727 4.12544C8.43604 4.22977 8.56614 4.37863 8.64765 4.55448C9.10891 4.49424 9.54314 4.30272 9.89865 4.00273C10.2542 3.70273 10.516 3.30689 10.653 2.86234L10.0636 1.29136L9.95998 1.4467C9.7634 1.74229 9.50992 1.99577 9.21433 2.19235C8.92134 2.38887 8.59228 2.52531 8.24619 2.59376C7.9001 2.66221 7.54388 2.66131 7.19814 2.59111C6.85199 2.5229 6.52281 2.38669 6.22966 2.19039C5.93651 1.99408 5.6852 1.74157 5.4903 1.44748L5.38669 1.29214L4.79841 2.86249ZM7.72257 2.03203C7.31384 2.03232 6.91424 1.91121 6.57444 1.68407C6.3463 1.5322 6.15062 1.33651 5.99875 1.10837L5.66694 0.611272H9.78397L9.45216 1.10837C9.26226 1.39299 9.00493 1.62626 8.70309 1.78741C8.40126 1.94856 8.06428 2.03259 7.72212 2.03203H7.72257ZM6.04441 0.812595L6.16699 0.996365C6.30395 1.20237 6.48059 1.37902 6.6866 1.51599C7.1002 1.79105 7.60603 1.89083 8.0931 1.79341C8.58018 1.696 9.00871 1.40935 9.2847 0.996365L9.4071 0.812595H6.04441Z" fill="#3F241D"/>
<path d="M15.8714 9.03586C15.8431 9.00752 15.8095 8.98504 15.7725 8.96972C15.7355 8.95439 15.6958 8.94651 15.6558 8.94653H12.3004C12.2603 8.9465 12.2207 8.95438 12.1837 8.9697C12.1467 8.98503 12.1131 9.00751 12.0848 9.03586L9.64449 11.4757C9.58732 11.5329 9.55521 11.6105 9.55518 11.6914V15.046C9.55521 15.127 9.58732 15.2046 9.64449 15.2618L12.0845 17.7016C12.1416 17.7588 12.2192 17.7909 12.3001 17.7909H15.6555C15.7363 17.7909 15.8139 17.7588 15.8711 17.7016L18.311 15.2618C18.3682 15.2046 18.4003 15.127 18.4004 15.046V11.6907C18.4003 11.6097 18.3682 11.5321 18.311 11.4749L15.8714 9.03586ZM11.9959 16.7498L10.5978 15.3518H11.9959V16.7498ZM11.9959 14.7413H10.166V11.9964H11.9959V14.7413ZM11.9959 11.3859H10.5978L11.9959 9.98779V11.3859ZM15.3513 17.1801H12.6064V15.3513H15.3513V17.1801ZM15.3513 11.3859H14.4363V11.9959H15.3513V14.7408H12.6064V9.55641H15.3513V11.3859ZM15.9613 9.98779L17.3594 11.3859H15.9613V9.98779ZM15.9613 16.7498V15.3518H17.3594L15.9613 16.7498ZM17.7913 14.7413H15.9613V11.9964H17.7913V14.7413Z" fill="#3F241D"/>
<path d="M15.6554 17.8919H12.3C12.2467 17.892 12.1938 17.8816 12.1445 17.8612C12.0953 17.8408 12.0505 17.8108 12.0129 17.7731L9.57309 15.3331C9.53529 15.2955 9.5053 15.2507 9.48488 15.2015C9.46446 15.1522 9.454 15.0994 9.4541 15.046V11.6905C9.45397 11.6372 9.46442 11.5843 9.48484 11.5351C9.50527 11.4858 9.53526 11.4411 9.57309 11.4036L12.0129 8.9636C12.0505 8.92575 12.0952 8.89574 12.1445 8.87532C12.1938 8.85489 12.2466 8.84445 12.3 8.84461H15.6554C15.7087 8.84445 15.7615 8.85489 15.8108 8.87532C15.86 8.89575 15.9047 8.92575 15.9423 8.9636L18.3822 11.4036C18.4201 11.4411 18.4501 11.4859 18.4705 11.5352C18.4909 11.5844 18.5013 11.6373 18.5011 11.6906V15.0459C18.5013 15.0992 18.4908 15.152 18.4704 15.2013C18.45 15.2506 18.4201 15.2953 18.3822 15.3329L15.9423 17.7729C15.9047 17.8107 15.86 17.8406 15.8107 17.861C15.7615 17.8814 15.7087 17.8918 15.6554 17.8917V17.8919ZM12.3 9.04702C12.2732 9.04695 12.2466 9.05221 12.2218 9.06247C12.1971 9.07274 12.1746 9.08781 12.1557 9.10682L9.71586 11.5468C9.69683 11.5656 9.68174 11.5881 9.67147 11.6129C9.6612 11.6376 9.65596 11.6641 9.65606 11.6909V15.0459C9.65596 15.0727 9.6612 15.0992 9.67147 15.124C9.68174 15.1487 9.69683 15.1712 9.71586 15.19L12.1557 17.63C12.194 17.6681 12.2459 17.6895 12.3 17.6896H15.6554C15.6822 17.6898 15.7087 17.6845 15.7334 17.6743C15.7582 17.6641 15.7807 17.649 15.7995 17.63L18.2395 15.19C18.2585 15.1712 18.2736 15.1488 18.2838 15.124C18.2941 15.0993 18.2994 15.0728 18.2993 15.046V11.6905C18.2994 11.6637 18.2942 11.6371 18.2839 11.6124C18.2736 11.5876 18.2585 11.5652 18.2395 11.5463L15.7995 9.10636C15.7807 9.08732 15.7582 9.07223 15.7335 9.06197C15.7087 9.0517 15.6822 9.04646 15.6554 9.04655L12.3 9.04702ZM15.4508 17.2819H12.5039V15.25H15.4508V17.2819ZM12.7059 17.0799H15.2488V15.4521H12.7059V17.0799ZM12.0958 16.9934L10.3526 15.2498H12.0958V16.9934ZM10.8402 15.4519L11.8941 16.5058V15.4519H10.8402ZM15.8589 16.9934V15.2498H17.6023L15.8589 16.9934ZM16.0608 15.4519V16.5061L17.1146 15.4522L16.0608 15.4519ZM17.8907 14.8419H15.8589V11.8951H17.8907V14.8419ZM16.0608 14.64H17.6888V12.0972H16.0608V14.64ZM15.4508 14.8419H12.5039V9.45526H15.4508V11.4871H14.536V11.8952H15.4508V14.8419ZM12.7059 14.64H15.2488V12.0972H14.334V11.2852H15.2488V9.6572H12.7059V14.64ZM12.0958 14.8419H10.064V11.8951H12.0958V14.8419ZM10.2661 14.64H11.8941V12.0972H10.2661V14.64ZM17.6023 11.4865H15.8589V9.74373L17.6023 11.4865ZM16.0608 11.2846H17.1146L16.0608 10.2307V11.2846ZM12.0958 11.4865H10.3526L12.0958 9.74311V11.4865ZM10.8402 11.2846H11.8941V10.2313L10.8402 11.2846Z" fill="#3F241D"/>
<path d="M13.8249 11.3864H13.2148V11.9964H13.8249V11.3864Z" fill="#3F241D"/>
<path d="M13.9267 12.0973H13.1147V11.2853H13.9267V12.0973ZM13.3167 11.8953H13.7248V11.4872H13.3167V11.8953Z" fill="#3F241D"/>
</svg>
