<svg width="26" height="18" viewBox="0 0 26 18" fill="none" xmlns="http://www.w3.org/2000/svg">
<path d="M2.93841 17.5657H1.38794C1.38794 17.4954 1.38685 17.4316 1.38794 17.3678C1.426 15.5322 1.45691 13.697 1.39027 11.8607C1.33279 10.2722 1.08782 8.72451 0.449673 7.26056C0.0189093 6.27259 0.0970465 5.29797 0.437091 4.31621C0.925021 2.90663 1.72084 1.67275 2.62571 0.501624C2.67231 0.44104 2.72171 0.38201 2.76909 0.321738C2.92163 0.12787 3.0487 0.103171 3.24894 0.254474C3.46859 0.420225 3.68033 0.598868 3.89081 0.777512C5.56987 2.22431 7.09655 3.83906 8.447 5.59654C9.52694 6.97908 10.5716 8.38788 11.6471 9.774C12.2554 10.5585 12.8934 11.3223 13.6879 11.9297C13.9805 12.1522 14.2939 12.3458 14.6239 12.5077C14.9261 12.6555 15.2549 12.7408 15.5908 12.7586C15.9267 12.7764 16.2628 12.7263 16.5789 12.6113C16.9897 12.4535 17.4214 12.3563 17.8603 12.3227C18.0636 12.3211 18.2631 12.3771 18.436 12.4841C18.7274 12.6323 19.0313 12.7543 19.3443 12.8488C20.569 13.2636 21.8029 13.652 23.0197 14.0882C23.5181 14.2851 24.002 14.5168 24.4679 14.7816C24.6268 14.8748 24.7648 14.9997 24.8734 15.1485C24.926 15.2104 24.9649 15.2828 24.9874 15.3609C25.0098 15.439 25.0154 15.521 25.0036 15.6015C24.9918 15.6819 24.963 15.7589 24.9191 15.8273C24.8753 15.8957 24.8173 15.9539 24.7491 15.9981C24.4374 16.2253 24.0765 16.3759 23.6957 16.4376C22.8579 16.5976 22.018 16.7493 21.1731 16.8682C19.7761 17.065 18.3769 17.2486 16.975 17.4089C15.8124 17.5418 14.6473 17.6511 13.4798 17.7368C12.646 17.7755 11.8106 17.707 10.9943 17.5329C10.5467 17.433 10.1366 17.208 9.81199 16.884C9.15692 16.2873 8.68095 15.554 8.23745 14.7985C7.7068 13.8946 7.19355 12.981 6.66305 12.0768C6.04378 11.0573 5.18479 10.2044 4.1608 9.59256C3.9511 9.46619 3.72445 9.37037 3.4877 9.30798C3.19721 9.22673 3.04063 9.34728 2.99294 9.6474C2.97308 9.77881 2.96337 9.91155 2.96389 10.0445C2.95726 12.4839 2.95162 14.9234 2.94696 17.3629C2.94696 17.4279 2.94167 17.4928 2.93841 17.5657ZM3.02634 0.789473C2.96109 0.873358 2.91185 0.931611 2.8682 0.993748C2.6066 1.36657 2.33444 1.73178 2.08807 2.11408C1.53432 2.93278 1.10242 3.82757 0.805873 4.77043C0.586219 5.52322 0.554685 6.26591 0.879195 7.00472C1.03314 7.35517 1.1498 7.72193 1.27982 8.08264C1.72068 9.30627 1.85303 10.5827 1.88286 11.8688C1.91393 13.2235 1.89839 14.5792 1.9043 15.9346C1.9043 16.066 1.9043 16.1976 1.9043 16.3363H2.48916C2.48916 16.2741 2.48916 16.2238 2.48916 16.1733C2.48388 14.4801 2.47518 12.7869 2.47518 11.0936C2.46207 10.5981 2.47763 10.1022 2.52178 9.60841C2.60023 8.93702 3.06874 8.64886 3.71077 8.85733C4.0122 8.95415 4.29948 9.09043 4.56516 9.26262C5.64547 9.94914 6.54529 10.8849 7.18904 11.9912C7.72373 12.9282 8.25997 13.8646 8.80724 14.7944C9.14227 15.3936 9.55738 15.9445 10.0411 16.4317C10.3226 16.7401 10.6909 16.9562 11.0975 17.0515C11.9046 17.2219 12.7305 17.2865 13.5543 17.2438C14.7617 17.1444 15.9684 17.0311 17.1715 16.8905C18.644 16.7186 20.1126 16.512 21.5832 16.3207C22.3772 16.2407 23.1619 16.0861 23.9269 15.8589C24.0958 15.8015 24.258 15.7259 24.4104 15.6332C24.5451 15.5529 24.5482 15.4835 24.4348 15.3781C24.335 15.2755 24.2201 15.1886 24.0942 15.1204C23.5909 14.8838 23.0925 14.6275 22.5695 14.4428C21.2202 13.9661 19.8588 13.5233 18.5017 13.071C18.4796 13.0673 18.4569 13.0688 18.4355 13.0756C18.4141 13.0823 18.3947 13.094 18.3787 13.1097C18.0918 13.4622 17.7 13.714 17.2602 13.8286C15.7465 14.2548 14.3067 14.1071 12.9602 13.2538C12.1095 12.6901 11.3635 11.9825 10.7555 11.1629C9.83032 9.97455 9.03823 8.69515 8.21849 7.4347C6.95354 5.49044 5.61651 3.60055 4.05175 1.88168C3.7218 1.51912 3.38098 1.16711 3.02649 0.789473H3.02634ZM17.9425 12.8097C17.8373 12.8095 17.7323 12.8182 17.6285 12.8355C17.3264 12.9105 17.0236 12.9871 16.7275 13.0826C16.0085 13.3284 15.2245 13.3029 14.5231 13.0109C13.8434 12.7087 13.2293 12.2766 12.7155 11.7388C12.0308 11.0415 11.3954 10.2973 10.8141 9.51178C9.64158 7.9943 8.46839 6.47728 7.29452 4.96072C7.03587 4.62829 6.74756 4.31869 6.47291 3.99869C6.47772 4.04951 6.49806 4.09762 6.53117 4.13648C6.96084 4.74091 7.40403 5.33618 7.81756 5.95134C8.73609 7.31742 9.63164 8.69997 10.5524 10.0654C11.096 10.8972 11.7427 11.6569 12.477 12.3264C13.7933 13.4941 15.3139 13.7981 16.9975 13.3974C17.3731 13.3224 17.7088 13.1136 17.942 12.8097H17.9425ZM1.897 17.1722H2.20768C2.48233 17.1722 2.48264 17.1722 2.46803 16.8982C2.46383 16.881 2.4573 16.8645 2.44862 16.8491H1.897V17.1722Z" fill="#3F241D"/>
<path d="M13.0032 17.9097C12.3182 17.8968 11.6357 17.8217 10.9642 17.6855C10.4874 17.5823 10.0506 17.3438 9.70592 16.9986C9.02909 16.3822 8.53495 15.6147 8.10186 14.877C7.83405 14.4209 7.57059 13.962 7.30728 13.5033C7.04879 13.0528 6.7903 12.6023 6.52762 12.1552C5.96839 11.2033 5.16791 10.4081 4.07865 9.72425C3.88167 9.6057 3.66878 9.51588 3.4464 9.45753C3.38092 9.43235 3.30834 9.43285 3.24322 9.45893C3.18585 9.51556 3.15149 9.59143 3.14675 9.6719C3.12818 9.7953 3.11914 9.91994 3.11972 10.0447C3.11464 11.7526 3.11045 13.4602 3.10714 15.1678L3.10232 17.3634C3.10232 17.41 3.09968 17.4573 3.09704 17.5071L3.08694 17.7211H1.23247V17.4998C1.23247 17.4531 1.23247 17.409 1.23247 17.3648C1.27115 15.4977 1.30051 13.6723 1.23495 11.8664C1.16971 10.069 0.874869 8.62521 0.307093 7.32266C-0.0967969 6.39744 -0.102079 5.39735 0.290005 4.26537C0.721546 3.01875 1.40381 1.82867 2.50223 0.406823C2.52989 0.370939 2.55816 0.335832 2.58658 0.300569L2.64655 0.225694C2.85564 -0.0399413 3.07607 -0.0703883 3.34217 0.130625C3.56648 0.300258 3.77713 0.477348 3.99119 0.658788C5.6792 2.11161 7.21335 3.73415 8.56944 5.50081C9.15321 6.24785 9.7359 7.01524 10.2995 7.75731C10.7792 8.38924 11.275 9.04168 11.7689 9.67858C12.4421 10.5468 13.0419 11.2409 13.7813 11.8068C14.0657 12.0233 14.3706 12.2116 14.6916 12.3688C14.9757 12.5074 15.2848 12.5872 15.6005 12.6037C15.9162 12.6201 16.2319 12.5727 16.5289 12.4643C16.954 12.3019 17.4005 12.2021 17.8544 12.1681C18.0857 12.1651 18.3131 12.2277 18.5103 12.3486C18.7779 12.4853 19.0571 12.5981 19.3446 12.6859L19.3932 12.7022C19.8282 12.8496 20.2648 12.9937 20.7012 13.1371C21.4799 13.3942 22.2857 13.6602 23.0713 13.9418C23.5142 14.1127 23.9443 14.3151 24.3583 14.5476L24.5395 14.6436C24.7181 14.7467 24.8732 14.8858 24.9949 15.0522C25.0578 15.1282 25.1049 15.2161 25.1331 15.3106C25.1613 15.4052 25.1702 15.5045 25.1592 15.6026C25.1434 15.7056 25.1073 15.8044 25.0529 15.8934C24.9986 15.9823 24.9271 16.0596 24.8426 16.1206C24.5121 16.3632 24.1288 16.5238 23.7242 16.5894C22.9821 16.7313 22.1013 16.8936 21.1941 17.0215C19.6562 17.2389 18.2814 17.4152 16.9918 17.5625C15.8733 17.6904 14.728 17.798 13.4902 17.8912C13.3274 17.9035 13.1652 17.9095 13.0035 17.9092L13.0032 17.9097ZM3.32632 9.12805C3.3951 9.12908 3.46342 9.13953 3.52936 9.15912C3.78078 9.22533 4.02142 9.32723 4.24393 9.46172C5.37638 10.1727 6.21103 11.0026 6.79558 11.9986C7.05873 12.4472 7.31769 12.8982 7.57664 13.3492C7.83964 13.8071 8.10248 14.2657 8.36982 14.7204C8.79049 15.437 9.26894 16.1806 9.91517 16.7696C10.2176 17.0749 10.6013 17.287 11.0207 17.3806C11.8242 17.5519 12.6463 17.6198 13.4671 17.5826C14.7009 17.4893 15.8424 17.3823 16.9568 17.2551C18.2437 17.1078 19.6157 16.9312 21.1511 16.7148C22.0521 16.588 22.9279 16.4266 23.6661 16.2854C24.0231 16.2286 24.3616 16.0881 24.6539 15.8753C24.7059 15.8394 24.7502 15.7933 24.7842 15.74C24.8181 15.6866 24.8411 15.627 24.8516 15.5647C24.8571 15.5073 24.8509 15.4494 24.8336 15.3944C24.8162 15.3394 24.788 15.2885 24.7507 15.2446C24.6558 15.1131 24.5348 15.0025 24.3952 14.9198L24.213 14.8232C23.8121 14.5978 23.3958 14.4013 22.967 14.2349C22.1849 13.9553 21.3814 13.6895 20.6044 13.4329C20.1673 13.2887 19.7305 13.1433 19.2941 12.9967L19.2458 12.9802C18.9405 12.8871 18.6442 12.7667 18.3603 12.6206C18.2114 12.5282 18.0399 12.4788 17.8646 12.4778C17.4408 12.5121 17.024 12.6066 16.6269 12.7586C16.2917 12.8802 15.9354 12.9331 15.5794 12.9139C15.2233 12.8947 14.8748 12.804 14.5546 12.647C14.2154 12.4808 13.8933 12.2818 13.5927 12.053C12.8267 11.4673 12.2116 10.7565 11.5236 9.86903C11.0288 9.23088 10.5323 8.5772 10.0523 7.94527C9.48937 7.20398 8.90715 6.43736 8.32462 5.69281C6.98172 3.94268 5.4624 2.33529 3.79064 0.895996C3.58 0.717197 3.37308 0.543214 3.15529 0.378395C3.02682 0.281617 2.99482 0.286122 2.89121 0.417697L2.82907 0.495368C2.8022 0.529077 2.77501 0.562631 2.74876 0.596651C1.67131 1.99069 1.0038 3.15421 0.583602 4.36696C0.213422 5.43649 0.216062 6.33624 0.591991 7.19854C1.17592 8.5379 1.47884 10.0175 1.54564 11.8552C1.61135 13.6693 1.58199 15.4994 1.54331 17.3711C1.54331 17.3842 1.54331 17.3972 1.54331 17.4104H2.79102C2.79102 17.3949 2.79195 17.3786 2.79195 17.3627L2.79645 15.167C2.80018 13.4594 2.80422 11.7517 2.80857 10.0439C2.80799 9.90308 2.81838 9.76238 2.83964 9.62312C2.84606 9.53942 2.87043 9.45808 2.91109 9.38463C2.95176 9.31118 3.00776 9.24736 3.07529 9.19749C3.15051 9.15034 3.23788 9.1262 3.32664 9.12805H3.32632ZM13.0574 17.4188C12.3902 17.406 11.7254 17.3342 11.0708 17.2044C10.6335 17.1043 10.237 16.8739 9.9335 16.5436C9.43819 16.0479 9.01414 15.4858 8.67352 14.8734C8.11304 13.9214 7.56546 12.9656 7.05392 12.0684C6.42423 10.9823 5.54129 10.0646 4.48036 9.39337C4.22612 9.22897 3.95134 9.09876 3.66311 9.0061C3.55456 8.96047 3.43718 8.93969 3.31956 8.94528C3.20194 8.95087 3.08706 8.98269 2.98333 9.03842C2.89143 9.10745 2.81616 9.1962 2.76304 9.29813C2.70992 9.40006 2.68031 9.5126 2.67637 9.62747C2.63596 10.0502 2.6204 10.475 2.62977 10.8996V11.0947C2.62977 12.3219 2.63282 13.5491 2.63894 14.7763L2.64375 16.492H1.74898V15.9355C1.74743 15.5241 1.74712 15.1127 1.74805 14.7011C1.74805 13.7737 1.74945 12.8146 1.7277 11.8728C1.6915 10.3287 1.50835 9.17605 1.13429 8.13588C1.09965 8.03972 1.06594 7.9431 1.03223 7.84663C0.941821 7.58752 0.848305 7.31971 0.73708 7.06774C0.428415 6.36529 0.402162 5.59976 0.656768 4.72736C0.956556 3.76962 1.39481 2.86089 1.9576 2.02999C2.13407 1.75613 2.32592 1.48738 2.51124 1.22796C2.58891 1.12047 2.66503 1.01297 2.74099 0.90485C2.77206 0.860888 2.80515 0.818946 2.84445 0.769392L3.01533 0.551136L3.1396 0.683332C3.25176 0.802635 3.36257 0.919815 3.47204 1.03487C3.71266 1.2887 3.94024 1.52855 4.16673 1.77741C5.89537 3.67631 7.30961 5.75308 8.34854 7.35016C8.49052 7.56836 8.63194 7.78698 8.77278 8.00601C9.43361 9.03127 10.1171 10.0902 10.878 11.0677C11.5941 11.9874 12.2818 12.6405 13.0424 13.1224C14.3162 13.9301 15.6812 14.112 17.217 13.6791C17.6256 13.5731 17.9898 13.3396 18.2567 13.0125C18.2926 12.9719 18.339 12.9421 18.3908 12.9265C18.4427 12.9108 18.4979 12.9099 18.5502 12.9238L19.4541 13.2238C20.4941 13.5687 21.5696 13.925 22.6208 14.2957C23.0388 14.452 23.4482 14.6305 23.8472 14.8305C23.9514 14.8804 24.0555 14.9304 24.1599 14.9793C24.3006 15.0539 24.4288 15.1499 24.5402 15.2638C24.5814 15.2952 24.6146 15.3359 24.6371 15.3826C24.6595 15.4293 24.6707 15.4807 24.6696 15.5325C24.6593 15.5825 24.6377 15.6295 24.6065 15.6698C24.5753 15.7102 24.5353 15.7429 24.4895 15.7655C24.3271 15.8639 24.1545 15.9443 23.9747 16.0054C23.2003 16.2346 22.4061 16.3914 21.6026 16.4736C21.1484 16.5327 20.6943 16.5928 20.2403 16.6538C19.2411 16.787 18.2081 16.9247 17.1894 17.0437C16.1046 17.1704 14.9197 17.2862 13.567 17.3974C13.397 17.4114 13.2268 17.4176 13.0571 17.4176L13.0574 17.4188ZM3.32182 8.63592C3.4706 8.63775 3.61816 8.66297 3.75911 8.71064C4.07363 8.81185 4.37343 8.95407 4.65077 9.13364C5.75289 9.83148 6.66994 10.7855 7.32375 11.9143C7.83529 12.8107 8.38178 13.7655 8.94101 14.7157C9.26757 15.3037 9.67403 15.8435 10.1488 16.3199C10.4093 16.6059 10.7494 16.8075 11.1253 16.8987C12.0199 17.0587 12.7733 17.1526 13.5415 17.0889C14.8908 16.9778 16.0722 16.8625 17.1533 16.7364C18.1696 16.6176 19.2014 16.4801 20.1993 16.3471C20.6536 16.2864 21.1081 16.2264 21.5627 16.1669C22.347 16.089 23.122 15.9364 23.8773 15.7113C24.0355 15.6576 24.1872 15.5867 24.3298 15.4999L24.3339 15.4974C24.3322 15.4957 24.3301 15.494 24.3283 15.492C24.2397 15.4009 24.1383 15.3231 24.0272 15.2613C23.9221 15.2117 23.8174 15.1615 23.7124 15.1112C23.3232 14.9162 22.9239 14.742 22.5162 14.5893C21.4678 14.2191 20.3939 13.863 19.3552 13.5188L18.4806 13.2285C18.1745 13.595 17.7619 13.8571 17.3 13.9783C15.697 14.4297 14.2087 14.2301 12.8746 13.3849C12.0823 12.883 11.3703 12.2074 10.6314 11.2584C9.86204 10.2701 9.1748 9.20463 8.51025 8.1744C8.37024 7.95578 8.2295 7.73742 8.08803 7.51932C7.05547 5.93235 5.65056 3.86878 3.93666 1.98634C3.71219 1.73966 3.48617 1.50105 3.24617 1.24831L3.03661 1.0271C3.02216 1.0459 3.00834 1.06439 2.99513 1.08303C2.91886 1.19177 2.84135 1.30051 2.76414 1.40831C2.58084 1.66494 2.39132 1.93042 2.21858 2.19823C1.67213 3.00404 1.2464 3.8854 0.95487 4.81435C0.718284 5.62492 0.739566 6.30128 1.02136 6.94254C1.13678 7.20569 1.23247 7.47925 1.32474 7.7441C1.35814 7.83964 1.39154 7.93517 1.42587 8.0304C1.81251 9.1035 2.00063 10.2863 2.03807 11.8655C2.05997 12.8111 2.0592 13.772 2.05858 14.7013C2.05858 15.1124 2.05889 15.5234 2.05951 15.9344V16.1814L2.33353 16.1742L2.32872 14.7772C2.32406 13.5497 2.321 12.3221 2.31955 11.0945V10.9002C2.30981 10.4633 2.326 10.0261 2.36802 9.59112C2.3763 9.43037 2.42088 9.27358 2.49841 9.13252C2.57595 8.99147 2.68443 8.8698 2.81571 8.77666C2.96727 8.68168 3.14314 8.63274 3.32197 8.63577L3.32182 8.63592ZM2.20615 17.3275H1.74013V16.6937H2.55086L2.59031 16.7903C2.60767 16.8212 2.61826 16.8554 2.62138 16.8907C2.63024 17.0597 2.63583 17.162 2.55722 17.2447C2.47862 17.3273 2.3761 17.3275 2.20584 17.3275H2.20615ZM2.0505 17.0168H2.20584C2.24374 17.0168 2.28475 17.0168 2.31567 17.0157C2.31567 17.012 2.31567 17.0084 2.31567 17.0044H2.05159L2.0505 17.0168ZM15.6485 13.7187C14.4345 13.7221 13.264 13.2662 12.3721 12.4426C11.6287 11.7644 10.974 10.9949 10.4238 10.1524C9.94111 9.43671 9.45737 8.70459 8.98979 7.99653C8.55794 7.34254 8.12428 6.68969 7.6888 6.03798C7.4067 5.61856 7.10487 5.19991 6.81298 4.79524C6.67638 4.60593 6.5403 4.41636 6.40474 4.22653C6.35458 4.16354 6.3244 4.087 6.31806 4.00672L6.29398 3.55095L6.591 3.89736C6.67737 3.99803 6.76498 4.09744 6.85259 4.19717C7.0418 4.41186 7.23738 4.63415 7.41726 4.86515C8.28293 5.97802 9.14565 7.09317 10.0054 8.2106L10.9375 9.41698C11.5139 10.1971 12.1442 10.9358 12.8238 11.6278C13.457 12.2465 13.9991 12.6288 14.5815 12.8671C15.2488 13.1467 15.9957 13.1708 16.6795 12.9347C16.9747 12.8395 17.279 12.7623 17.5908 12.6849C17.672 12.6672 17.7549 12.6585 17.8381 12.659C17.8692 12.6579 17.9002 12.6571 17.9313 12.6548L18.2712 12.6296L18.0666 12.9027C17.8123 13.2364 17.4451 13.4659 17.0337 13.5485C16.5808 13.6592 16.1165 13.7166 15.6502 13.7193L15.6485 13.7187ZM8.85107 7.22417C8.98373 7.42477 9.11629 7.62537 9.24875 7.82597C9.71602 8.5334 10.1991 9.2649 10.681 9.97932C11.2174 10.8002 11.8554 11.5499 12.5799 12.2107C13.8226 13.3136 15.2563 13.6524 16.9616 13.2468C17.1454 13.2057 17.3207 13.1335 17.48 13.0332C17.2341 13.0953 17.0044 13.1575 16.7749 13.2308C16.0209 13.4866 15.1996 13.4597 14.4639 13.1551C13.7663 12.8442 13.1356 12.4011 12.6066 11.8503C11.9163 11.1483 11.2761 10.3988 10.6908 9.60712L9.75951 8.40058C9.4567 8.00819 9.15389 7.61605 8.85107 7.22417Z" fill="#3F241D"/>
</svg>
