<svg width="29" height="12" viewBox="0 0 29 12" fill="none" xmlns="http://www.w3.org/2000/svg">
<path d="M6.48521 0.925616C7.50901 0.894318 8.53374 0.937671 9.55125 1.05533C10.2957 1.14452 11.0393 1.24512 11.7367 1.54593C12.0759 1.68339 12.3819 1.89171 12.6341 2.15697C12.802 2.34847 13.011 2.49945 13.2456 2.59859C13.4801 2.69772 13.7341 2.74242 13.9884 2.72934C14.4136 2.71507 14.8393 2.70993 15.2648 2.70551C15.6341 2.69608 15.9849 2.54187 16.2416 2.27613C16.6396 1.89983 17.0748 1.5739 17.6129 1.43249C18.0434 1.31698 18.4795 1.2233 18.9195 1.1518C20.4197 0.91577 21.9313 0.91791 23.4431 0.989688C24.3849 1.0345 25.3267 1.09243 26.2638 1.18704C27.0693 1.26838 27.8692 1.40708 28.6706 1.52738C28.9016 1.56206 28.9483 1.61814 28.9791 1.85445C28.9971 1.99017 29.0035 2.12718 28.9982 2.264C28.9774 2.76559 28.9506 3.26689 28.9232 3.76819C28.9103 4.00251 28.8437 4.18673 28.5908 4.29005C28.132 4.4777 28.0396 4.9115 27.9411 5.3386C27.7192 6.29969 27.4987 7.26219 27.1096 8.17419C26.8213 8.84944 26.4774 9.48817 25.9163 9.98562C25.2766 10.5561 24.4887 10.9342 23.6434 11.0761C22.183 11.3469 20.6817 11.3042 19.239 10.951C18.037 10.6513 17.2127 9.92069 16.6594 8.83803C16.2209 7.93707 15.8826 6.99074 15.6505 6.016C15.5807 5.74729 15.4963 5.48159 15.4028 5.22002C15.2795 4.87483 14.989 4.77308 14.6578 4.74183C14.6426 4.74041 14.6274 4.74083 14.6121 4.74041C13.765 4.71672 13.6152 4.92064 13.3966 5.76299C13.1521 6.70395 12.9114 7.64434 12.4822 8.52237C12.241 9.03651 11.9248 9.51195 11.5439 9.9331C10.9538 10.5665 10.2048 10.8873 9.37644 11.0439C7.94968 11.33 6.47847 11.3102 5.05992 10.9858C3.57413 10.6356 2.5838 9.70764 1.97989 8.33672C1.60563 7.43431 1.32017 6.49758 1.12755 5.53981C1.07155 5.27802 1.0008 5.01961 0.915638 4.76581C0.873606 4.63963 0.802002 4.52534 0.706801 4.43247C0.611601 4.3396 0.495565 4.27086 0.368384 4.23197C0.286233 4.21258 0.21294 4.16624 0.160202 4.10034C0.107465 4.03444 0.0783201 3.95277 0.0774189 3.86837C0.0437418 3.17499 0.020339 2.48104 0.000218337 1.78709C-0.00261975 1.71694 0.0223032 1.6485 0.0695824 1.5966C0.116862 1.5447 0.182688 1.51353 0.252797 1.50983C0.656923 1.43848 1.06076 1.36485 1.4666 1.30477C3.12998 1.07254 4.80639 0.94576 6.48578 0.925188L6.48521 0.925616ZM6.95554 1.96533C6.56697 1.99586 5.93952 2.03368 5.3145 2.09804C4.78316 2.14109 4.26057 2.25898 3.76221 2.44822C3.39637 2.5751 3.0687 2.7927 2.80983 3.08067C2.49568 3.46397 2.31294 3.93804 2.28855 4.43303C2.20513 5.67151 2.40365 6.91278 2.8692 8.06345C3.20682 8.89539 3.70756 9.60461 4.53621 10.0193C5.12276 10.3025 5.76166 10.461 6.41257 10.4848C7.01847 10.5172 7.62752 10.5013 8.23499 10.4899C8.94301 10.4719 9.63381 10.2678 10.2379 9.89814C11.0281 9.42937 11.5008 8.70103 11.8444 7.87823C12.1362 7.21389 12.3162 6.50595 12.3774 5.78297C12.4215 5.39183 12.4446 4.9986 12.4465 4.60498C12.4455 4.21149 12.3327 3.82638 12.1212 3.49452C11.9098 3.16265 11.6084 2.89769 11.2522 2.73048C10.9318 2.56739 10.5968 2.43476 10.2516 2.33435C9.25429 2.04624 8.22529 2.003 6.95526 1.96575L6.95554 1.96533ZM21.9782 1.94406C21.2515 2.00357 20.5227 2.04395 19.7987 2.128C19.0793 2.19383 18.3805 2.40352 17.7438 2.74461C16.9545 3.18926 16.5228 3.8541 16.5484 4.77608C16.5586 5.1508 16.5881 5.52474 16.6369 5.89642C16.7502 6.86 17.0575 7.79065 17.5403 8.63225C17.8062 9.10532 18.1694 9.5166 18.606 9.83892C18.9952 10.102 19.4339 10.2829 19.8954 10.3708C20.9301 10.5862 21.9954 10.6104 23.0388 10.4421C23.6296 10.3692 24.1984 10.1729 24.7084 9.86589C25.4962 9.36816 25.9677 8.62241 26.2704 7.77477C26.6559 6.68655 26.809 5.52956 26.7196 4.37852C26.6591 3.53945 26.263 2.90572 25.4828 2.5591C25.1453 2.40842 24.7931 2.29294 24.4318 2.21448C23.6241 2.04898 22.8029 1.95822 21.9785 1.94335L21.9782 1.94406ZM27.7319 3.06383C27.7711 3.14845 27.8032 3.21652 27.8426 3.30228C27.8944 3.1787 27.8974 3.08823 27.7823 3.03001C27.7031 2.99005 27.663 3.00646 27.6097 3.09879L27.7319 3.06383Z" fill="#3F241D"/>
<path d="M4.76398 8.48079C4.68306 8.76377 4.62356 9.03504 4.52638 9.29219C4.5038 9.34374 4.46794 9.38839 4.42248 9.42157C4.37702 9.45476 4.32358 9.4753 4.26759 9.4811C4.2116 9.4869 4.15508 9.47776 4.10378 9.4546C4.05248 9.43144 4.00824 9.39509 3.97556 9.34926C3.8835 9.21097 3.81144 9.06036 3.76151 8.9019C3.35154 7.73276 2.57054 5.87795 2.02999 4.76047C1.96999 4.5803 1.94989 4.38923 1.97106 4.20052C1.97412 4.06584 2.00319 3.93302 2.05668 3.80938C2.07001 3.77181 2.09443 3.73917 2.1267 3.71576C2.15897 3.69236 2.19758 3.67929 2.23743 3.67829C2.27728 3.67728 2.3165 3.68839 2.34991 3.71014C2.38332 3.73188 2.40935 3.76325 2.42456 3.8001C2.54942 4.00088 3.01419 4.90431 3.12264 5.11465C3.32128 5.49994 3.5145 5.88908 3.70771 6.27794C3.88723 6.63983 4.05975 7.00571 4.24227 7.3656C4.33502 7.54882 4.45346 7.71935 4.54094 7.90486C4.62841 8.09037 4.68977 8.28387 4.76512 8.48037" fill="#3F241D"/>
<path d="M26.8489 4.10749H27.2241C27.2997 4.4153 26.6208 5.64736 26.4821 5.91721C25.9598 6.93366 25.4652 7.96424 24.9552 8.98682C24.8803 9.14651 24.7854 9.29606 24.6729 9.4319C24.511 9.6167 24.3233 9.60871 24.1903 9.40664C23.9367 9.02135 23.8033 8.59796 24.0378 8.1613C24.2577 7.7519 24.5178 7.36375 24.767 6.97047C25.1488 6.368 25.5361 5.76909 25.922 5.16918C25.9663 5.0955 26.0163 5.02533 26.0714 4.95927C26.1019 4.92459 26.7135 3.90614 26.7513 3.91214C26.781 3.91699 26.8027 3.98591 26.8227 4.02858C26.8336 4.0541 26.8423 4.0805 26.8487 4.10749" fill="#3F241D"/>
</svg>
