<svg width="18" height="18" viewBox="0 0 18 18" fill="none" xmlns="http://www.w3.org/2000/svg">
<path d="M4.87526 2.37771C4.93413 2.79372 4.73235 3.08219 4.42741 3.32965C4.19346 3.51948 3.97334 3.72655 3.75089 3.9302C3.65719 4.02443 3.54317 4.09595 3.41756 4.1393C3.29195 4.18265 3.15809 4.19668 3.02622 4.1803C2.98477 4.17213 2.94177 4.17821 2.9042 4.19756C2.86664 4.2169 2.83673 4.24838 2.81931 4.28687C2.69115 4.48881 2.54761 4.68268 2.42597 4.88898C2.40817 4.92342 2.39746 4.96109 2.39447 4.99976C2.39148 5.03842 2.39627 5.07729 2.40858 5.11407C2.50828 5.3354 2.51853 5.58672 2.43716 5.81544C2.3031 6.185 2.16391 6.55269 2.0227 6.91961C1.93382 7.14557 1.76091 7.32834 1.54022 7.4296C1.47304 7.47003 1.42452 7.53535 1.40522 7.61135C1.35194 7.85104 1.31311 8.09446 1.28095 8.33804C1.2786 8.36769 1.28296 8.39749 1.29372 8.42522C1.30448 8.45295 1.32135 8.47789 1.34308 8.4982C1.46416 8.57835 1.5654 8.68503 1.63912 8.81013C1.71284 8.93523 1.75711 9.07547 1.76857 9.22023C1.81134 9.58673 1.85452 9.95313 1.89812 10.3194C1.92522 10.5605 1.85698 10.8026 1.70798 10.9941C1.66521 11.0606 1.64969 11.141 1.66464 11.2187C1.73051 11.492 1.81424 11.761 1.893 12.0375C2.32268 12.0142 2.59576 12.232 2.80781 12.5674C2.97542 12.8322 3.1595 13.0869 3.34187 13.3421C3.42112 13.4522 3.47661 13.5776 3.50483 13.7103C3.53304 13.843 3.53336 13.9801 3.50576 14.1129C3.50308 14.1454 3.50748 14.178 3.51863 14.2087C3.52979 14.2393 3.54744 14.2671 3.57038 14.2903C3.76539 14.4596 3.96703 14.6211 4.17529 14.7746C4.23212 14.8117 4.30133 14.8247 4.36775 14.8108C4.60064 14.7422 4.85111 14.7672 5.06586 14.8804C5.4143 15.0631 5.76381 15.2438 6.11007 15.43C6.22065 15.4855 6.3171 15.5656 6.39205 15.664C6.467 15.7625 6.51847 15.8768 6.54254 15.9981C6.54792 16.0428 6.56781 16.0846 6.59914 16.117C6.63047 16.1493 6.67153 16.1705 6.71606 16.1774C6.97688 16.2454 7.23569 16.3223 7.50831 16.3991C7.73729 16.0297 8.08665 15.933 8.49442 15.9542C8.7585 15.9675 9.02398 15.9661 9.28822 15.9542C9.67921 15.9369 10.0043 16.0474 10.2259 16.3986C10.51 16.3181 10.7884 16.2443 11.0622 16.1567C11.0903 16.1438 11.1153 16.1249 11.1354 16.1015C11.1555 16.078 11.1704 16.0505 11.1789 16.0208C11.2097 15.8853 11.2709 15.7587 11.358 15.6504C11.4451 15.5422 11.5557 15.4552 11.6814 15.3962C12.0097 15.2281 12.3353 15.0544 12.6616 14.8835C12.8756 14.7688 13.1259 14.7422 13.3591 14.8094C13.4253 14.8251 13.495 14.814 13.553 14.7784C13.761 14.6257 13.964 14.4647 14.158 14.2946C14.1821 14.2691 14.2005 14.2387 14.212 14.2055C14.2234 14.1723 14.2276 14.137 14.2244 14.102C14.1996 13.9749 14.2004 13.8442 14.2266 13.7174C14.2528 13.5906 14.304 13.4702 14.3771 13.3634C14.5713 13.0862 14.7704 12.8124 14.9539 12.5284C15.0388 12.3705 15.1673 12.2404 15.3241 12.1536C15.4809 12.0668 15.6594 12.0269 15.8382 12.0388C15.9262 11.7368 16.0166 11.439 16.0956 11.1378C16.1057 11.0989 16.0646 11.0377 16.0335 10.998C15.9549 10.9029 15.8968 10.7926 15.8629 10.6739C15.829 10.5553 15.82 10.431 15.8365 10.3087C15.8809 9.94241 15.9243 9.57601 15.9665 9.20951C15.9793 9.05055 16.0327 8.89754 16.1216 8.76515C16.2105 8.63276 16.3319 8.52543 16.4742 8.45346C16.4243 8.1493 16.3787 7.84623 16.3207 7.54548C16.3099 7.51921 16.294 7.49536 16.2738 7.47533C16.2537 7.4553 16.2298 7.43948 16.2034 7.42882C16.0873 7.3787 15.9827 7.30525 15.8961 7.21303C15.8095 7.12082 15.7428 7.0118 15.7001 6.89274C15.5681 6.54197 15.4333 6.19245 15.3034 5.84091C15.2586 5.72265 15.2377 5.59666 15.2419 5.47026C15.2462 5.34386 15.2755 5.21956 15.3282 5.10459C15.3508 5.03521 15.3452 4.95972 15.3127 4.89441C15.2481 4.77014 15.1515 4.6614 15.0831 4.53837C14.9534 4.30536 14.8128 4.13634 14.4928 4.16555C14.3218 4.15267 14.1603 4.08187 14.035 3.96484C13.7274 3.71971 13.4411 3.44787 13.1486 3.18409C13.0508 3.09892 12.973 2.99314 12.9209 2.87435C12.8687 2.75555 12.8435 2.6267 12.8471 2.49702C12.8468 2.46702 12.8398 2.43746 12.8265 2.41056C12.8132 2.38366 12.794 2.36011 12.7704 2.34167C12.4131 2.17934 12.0505 2.02881 11.6674 1.86524C11.5342 2.12932 11.4057 2.3847 11.276 2.63946C11.2448 2.71293 11.2058 2.78282 11.1596 2.84793C11.1202 2.90452 11.0605 2.94375 10.9929 2.95752C10.9253 2.97128 10.855 2.95852 10.7966 2.92188C10.7644 2.90929 10.7352 2.89031 10.7106 2.86608C10.686 2.84186 10.6666 2.81289 10.6535 2.78094C10.6404 2.74899 10.634 2.71471 10.6345 2.6802C10.6351 2.64568 10.6427 2.61163 10.6568 2.58012C11.055 1.7624 11.4612 0.948668 11.8754 0.138921C11.8939 0.106311 11.9188 0.0778348 11.9487 0.0552584C11.9786 0.032682 12.0128 0.0164862 12.0492 0.00767482C12.0856 -0.00113652 12.1235 -0.0023756 12.1604 0.0040344C12.1973 0.0104444 12.2325 0.0243669 12.2638 0.0449388C12.3296 0.0806904 12.3785 0.14096 12.4001 0.212639C12.4217 0.284318 12.414 0.361609 12.3789 0.427702C12.2382 0.727047 12.0876 1.02158 11.9332 1.33397C12.3245 1.50189 12.7064 1.66858 13.0918 1.8264C13.1284 1.84194 13.1935 1.81087 13.2355 1.78539C13.4023 1.6712 13.6033 1.61793 13.8048 1.63453C14.0063 1.65114 14.1959 1.73661 14.3418 1.87658C14.6243 2.12368 14.9047 2.37326 15.183 2.62533C15.3429 2.75907 15.4509 2.94469 15.488 3.14984C15.5251 3.355 15.4891 3.56667 15.3862 3.74799C15.3742 3.7785 15.3689 3.81121 15.3706 3.84394C15.3722 3.87667 15.3808 3.90867 15.3958 3.93782C15.5232 4.14799 15.6599 4.3532 15.8051 4.55126C15.8269 4.57523 15.8535 4.59417 15.8833 4.60678C15.9131 4.61939 15.9452 4.62536 15.9776 4.62427C16.1835 4.59167 16.3944 4.63229 16.5736 4.73905C16.7527 4.84582 16.8888 5.01199 16.9581 5.20867C17.0974 5.56306 17.232 5.91941 17.362 6.27774C17.4409 6.47066 17.4492 6.68527 17.3853 6.88368C17.3214 7.0821 17.1894 7.25156 17.0128 7.36218C16.9857 7.38536 16.9641 7.41426 16.9495 7.44678C16.9349 7.47931 16.9277 7.51466 16.9284 7.5503C16.9543 7.78859 16.9937 8.0252 17.0466 8.25897C17.0587 8.29633 17.0781 8.33092 17.1037 8.36073C17.1293 8.39054 17.1605 8.41498 17.1956 8.43264C17.3657 8.50116 17.5096 8.62205 17.6065 8.77781C17.7033 8.93357 17.748 9.11611 17.7342 9.29899C17.6988 9.73985 17.6452 10.1804 17.5748 10.6171C17.5404 10.8004 17.4462 10.9671 17.307 11.0912C17.1677 11.2153 16.9913 11.2898 16.8052 11.3029C16.7604 11.2998 16.7161 11.3143 16.6817 11.3433C16.6473 11.3723 16.6255 11.4135 16.621 11.4582C16.5621 11.6905 16.4846 11.9181 16.4315 12.1514C16.4156 12.23 16.4296 12.3118 16.4708 12.3807C16.5859 12.5312 16.6493 12.7149 16.6518 12.9044C16.6542 13.0939 16.5955 13.2792 16.4843 13.4326C16.2687 13.7545 16.0482 14.0732 15.823 14.3886C15.7106 14.5568 15.5438 14.6811 15.3506 14.7408C15.1574 14.8005 14.9495 14.7919 14.7619 14.7164C14.7273 14.7068 14.6912 14.7045 14.6558 14.7096C14.6203 14.7147 14.5863 14.7271 14.5559 14.7461C14.3334 14.9099 14.1217 15.0878 13.9345 15.2388C13.9582 15.434 13.9657 15.6308 13.957 15.8272C13.9395 15.9563 13.8905 16.0791 13.8143 16.1848C13.7381 16.2905 13.637 16.3757 13.5201 16.4331C13.1688 16.6234 12.8154 16.8102 12.4583 16.9892C12.2867 17.0841 12.0877 17.1171 11.8947 17.0826C11.7017 17.0482 11.5264 16.9484 11.3982 16.8C11.3726 16.7667 11.3367 16.743 11.296 16.7325C11.2554 16.7221 11.2124 16.7255 11.1739 16.7424C11.051 16.7814 10.9263 16.8149 10.8023 16.8511C10.549 16.924 10.3119 16.9656 10.2019 17.2935C10.1017 17.5929 9.79246 17.7229 9.46686 17.7285C9.07307 17.7347 8.67897 17.733 8.28518 17.7285C8.09596 17.7285 7.91152 17.6691 7.75782 17.5588C7.60413 17.4484 7.48893 17.2926 7.42846 17.1133C7.39727 17.0407 7.33897 16.9832 7.26598 16.953C7.03436 16.8721 6.79498 16.8132 6.5601 16.7411C6.52129 16.7252 6.47826 16.7226 6.43782 16.7339C6.39739 16.7451 6.36186 16.7695 6.33687 16.8033C6.2078 16.9508 6.0321 17.0496 5.83903 17.0833C5.64596 17.117 5.44716 17.0836 5.27573 16.9886C4.93522 16.8177 4.59797 16.6398 4.2629 16.4587C4.06552 16.3656 3.90944 16.2029 3.82454 16.0019C3.73964 15.8008 3.73189 15.5755 3.80278 15.3691C3.80794 15.34 3.80642 15.3101 3.79835 15.2816C3.79028 15.2531 3.77585 15.2269 3.75617 15.2048C3.5652 15.0401 3.36797 14.883 3.16448 14.7335C3.13852 14.7177 3.10956 14.7075 3.07946 14.7035C3.04935 14.6995 3.01874 14.7018 2.98955 14.7102C2.79454 14.7932 2.57617 14.8032 2.37439 14.7384C2.1726 14.6735 2.00089 14.5383 1.89067 14.3572C1.68209 14.0603 1.47528 13.7621 1.27023 13.4626C1.14841 13.3053 1.08309 13.1115 1.08478 12.9125C1.08647 12.7135 1.15507 12.5209 1.27955 12.3656C1.31487 12.306 1.32641 12.2353 1.31186 12.1675C1.25236 11.923 1.17563 11.6827 1.11101 11.4393C1.10554 11.4008 1.08581 11.3657 1.05572 11.341C1.02563 11.3163 0.987373 11.3038 0.948516 11.306C0.746994 11.2936 0.556337 11.2104 0.410128 11.0711C0.26392 10.9319 0.171539 10.7455 0.149278 10.5448C0.0956846 10.1611 0.0425566 9.77713 0.00651719 9.39157C-0.0379107 8.91731 0.143997 8.62822 0.577246 8.42208C0.604353 8.40668 0.628095 8.38601 0.647067 8.36127C0.666038 8.33654 0.679853 8.30825 0.687694 8.27808C0.737404 8.03745 0.780902 7.79481 0.808553 7.55092C0.808998 7.51531 0.801554 7.48005 0.786755 7.44766C0.771957 7.41526 0.750165 7.38655 0.722955 7.36358C0.546379 7.25281 0.414625 7.0832 0.350955 6.88472C0.287286 6.68624 0.295799 6.47164 0.37499 6.27882C0.50496 5.92071 0.639596 5.56435 0.778886 5.20976C0.848283 5.01311 0.984428 4.84701 1.16364 4.74038C1.34285 4.63374 1.55377 4.59332 1.75971 4.62614C1.79205 4.62719 1.82423 4.62121 1.85403 4.6086C1.88383 4.596 1.91054 4.57707 1.9323 4.55313C2.07755 4.35475 2.21393 4.14924 2.341 3.93921C2.35598 3.91015 2.36459 3.87823 2.36625 3.84557C2.36791 3.81292 2.36259 3.78028 2.35064 3.74985C2.24725 3.56879 2.21083 3.35713 2.24774 3.15192C2.28466 2.94672 2.39257 2.76103 2.55258 2.62735C2.83074 2.37538 3.11114 2.1258 3.39376 1.8786C3.53799 1.73743 3.72704 1.65114 3.92818 1.63469C4.12932 1.61823 4.32989 1.67264 4.49513 1.7885C4.68403 1.91075 4.79976 1.73429 4.94563 1.69234C4.98726 1.68054 5.02206 1.56807 5.02252 1.50236C5.01833 1.27269 5.08144 1.04681 5.20408 0.852574C5.32672 0.65834 5.50352 0.504242 5.71268 0.40928C5.92184 0.314318 6.15422 0.282644 6.38117 0.318163C6.60812 0.353682 6.81972 0.454842 6.98986 0.609169C7.16001 0.763497 7.28127 0.964244 7.3387 1.18666C7.39613 1.40908 7.38721 1.64344 7.31304 1.86085C7.23888 2.07826 7.10272 2.26921 6.92133 2.41016C6.73995 2.55111 6.52128 2.6359 6.29229 2.65407C6.13227 2.67179 5.97031 2.65343 5.81832 2.60033C5.66633 2.54724 5.52817 2.46077 5.41399 2.34727C5.29795 2.23278 5.20536 2.2014 5.06912 2.2901C5.00682 2.3241 4.94201 2.35329 4.87526 2.3774V2.37771ZM6.79699 1.47782C6.79627 1.36083 6.76081 1.2467 6.69511 1.14991C6.6294 1.05312 6.53642 0.978038 6.42796 0.934191C6.3195 0.890344 6.20046 0.879711 6.08595 0.903643C5.97144 0.927574 5.86662 0.98499 5.7848 1.0686C5.70299 1.15222 5.64785 1.25825 5.62641 1.37326C5.60497 1.48826 5.61818 1.60704 5.66436 1.71452C5.71055 1.822 5.78764 1.91334 5.88583 1.97693C5.98402 2.04052 6.09889 2.0735 6.21586 2.07169C6.37123 2.0686 6.51916 2.00463 6.62785 1.89357C6.73653 1.7825 6.79727 1.63321 6.79699 1.47782ZM1.46752 5.2444C1.42775 5.27889 1.39419 5.2938 1.38456 5.31819C1.22052 5.73963 1.04841 6.15859 0.903006 6.58656C0.852364 6.73615 0.969019 6.82718 1.12623 6.80699C1.17419 6.79736 1.22386 6.80074 1.27008 6.81677C1.38518 6.87114 1.43241 6.80124 1.46472 6.71704C1.60344 6.35774 1.7375 5.99672 1.8742 5.634C1.56445 5.58957 1.50635 5.53582 1.46705 5.2444H1.46752ZM15.8545 5.63042C15.9768 5.95431 16.0972 6.26205 16.2086 6.57304C16.2665 6.73475 16.3102 6.89802 16.5422 6.80264C16.5724 6.79556 16.6041 6.79975 16.6314 6.81444C16.7383 6.86555 16.7867 6.79658 16.8055 6.71673C16.8257 6.64144 16.825 6.56209 16.8037 6.48714C16.6768 6.12985 16.5412 5.77474 16.4024 5.42133C16.3653 5.35305 16.321 5.2889 16.2704 5.22995C16.218 5.54064 16.1561 5.59796 15.8545 5.63042ZM1.68126 13.021C1.93385 13.3843 2.16702 13.7292 2.41262 14.065C2.46449 14.1161 2.52637 14.156 2.59437 14.182L2.94047 13.8072C2.68338 13.4367 2.42209 13.0258 2.09572 12.6129C2.03001 12.9236 1.9803 12.9702 1.68126 13.021ZM15.6211 12.6072L14.7942 13.8076L15.1515 14.2025C15.5411 13.9033 15.7242 13.417 16.0545 13.0302C15.7452 12.9604 15.7166 12.9338 15.6209 12.6072H15.6211ZM16.5791 9.12205C16.5298 9.51041 16.4771 9.92377 16.4274 10.3151C16.5313 10.3323 16.6318 10.3662 16.7249 10.4153C16.7892 10.4878 16.8409 10.5705 16.8778 10.6601C17.0386 10.5037 17.1965 9.2805 17.1032 9.12221L16.5791 9.12205ZM1.30798 10.3323C1.2547 9.91834 1.20157 9.50513 1.15264 9.12065H0.626492C0.5235 9.31934 0.704161 10.5472 0.877833 10.6585C0.943698 10.4025 0.996669 10.3603 1.30829 10.3323H1.30798ZM9.60077 16.5721H8.1783C8.2223 16.6584 8.25234 16.7512 8.26731 16.8469C8.25021 16.9411 8.21877 17.0321 8.1741 17.1167H9.59191C9.43284 16.9303 9.41016 16.7638 9.60046 16.5721H9.60077ZM12.9852 15.3795L11.9192 15.9388C12.1456 16.1521 12.156 16.2036 12.034 16.5017C12.0714 16.4984 12.1082 16.4905 12.1436 16.4783C12.5137 16.2875 12.8855 16.0997 13.2494 15.8976C13.3158 15.8608 13.3487 15.7637 13.4213 15.6598C13.3263 15.6791 13.2277 15.6605 13.1462 15.6081C13.0648 15.5557 13.007 15.4736 12.9852 15.3792V15.3795ZM4.81592 15.4154L4.34601 15.7382C4.40553 15.8157 4.47584 15.8843 4.55479 15.9419C4.86408 16.1166 5.18191 16.2765 5.49818 16.439C5.55699 16.4645 5.61758 16.4857 5.67947 16.5024C5.64609 16.4009 5.63033 16.2944 5.63287 16.1876C5.67332 16.0934 5.73018 16.0072 5.80079 15.9329L4.81654 15.4168L4.81592 15.4154ZM2.81371 3.1914L2.84292 3.25602C2.89173 3.24492 2.94235 3.24445 2.99136 3.25465C3.04036 3.26484 3.08661 3.28547 3.12694 3.31511C3.16727 3.34476 3.20075 3.38274 3.22511 3.42647C3.24946 3.47021 3.26412 3.51867 3.26809 3.56857L4.26911 2.67302C3.94615 2.64941 3.88604 2.59535 3.81862 2.28249L2.81309 3.1914H2.81371ZM13.9314 2.29694C13.8964 2.40068 13.8446 2.49801 13.7782 2.58509C13.6882 2.63831 13.5897 2.67557 13.487 2.69523L14.4706 3.57323C14.5046 3.30448 14.6778 3.24421 14.8972 3.24701L14.9192 3.19388L13.9314 2.29647" fill="#3F241D"/>
</svg>
