<svg width="15" height="18" viewBox="0 0 15 18" fill="none" xmlns="http://www.w3.org/2000/svg">
<path d="M5.56654 3.6916L3.22601 1.36037H3.67789C4.20233 1.36037 4.72678 1.36193 5.25106 1.35851C5.28063 1.35429 5.31071 1.3612 5.33548 1.3779C5.36025 1.39461 5.37793 1.41992 5.3851 1.44892C5.64732 2.1099 5.91653 2.76824 6.17626 3.43031C6.22085 3.54402 6.26838 3.60942 6.39809 3.56592C6.43141 3.55863 6.46529 3.55421 6.49937 3.55272C6.20701 2.82401 5.91761 2.10275 5.62308 1.36892H8.61731L7.74025 3.55241C7.81103 3.5668 7.88319 3.57326 7.9554 3.57167C7.98647 3.56763 8.02282 3.51761 8.03789 3.48064C8.24915 2.96242 8.45732 2.44295 8.66625 1.9238C8.73227 1.75976 8.7958 1.59447 8.86711 1.43276C8.87581 1.41537 8.88839 1.40021 8.90387 1.38844C8.91936 1.37668 8.93733 1.36861 8.95642 1.36488C9.6146 1.36068 10.2728 1.36146 10.9311 1.36162C10.951 1.36324 10.9707 1.36614 10.9902 1.37032L8.67355 3.68492C11.0727 4.31281 12.783 5.72502 13.7201 8.00638C14.3384 9.49837 14.41 11.1608 13.9221 12.7004C13.4692 14.1938 12.5373 15.4967 11.2703 16.4079C10.0033 17.3191 8.47157 17.7879 6.91162 17.7419C5.35166 17.696 3.8502 17.1378 2.639 16.1537C1.42781 15.1695 0.574234 13.814 0.210037 12.2965C-0.0207509 11.3817 -0.0618583 10.4293 0.0892443 9.49798C0.240347 8.56668 0.580463 7.67616 1.08865 6.88124C2.12945 5.21177 3.63627 4.16632 5.56671 3.69206L5.56654 3.6916ZM13.1808 10.6436C13.1822 9.45028 12.8313 8.28307 12.1721 7.28835C11.5129 6.29363 10.5746 5.51566 9.47503 5.052C8.37544 4.58834 7.16344 4.45962 5.991 4.68199C4.81855 4.90435 3.73785 5.46789 2.88438 6.30196C2.03092 7.13603 1.44269 8.20349 1.19344 9.37052C0.94419 10.5375 1.045 11.7522 1.48327 12.8621C1.92153 13.9721 2.67773 14.928 3.65703 15.6099C4.63634 16.2918 5.79518 16.6695 6.98825 16.6955C7.79466 16.7139 8.59663 16.571 9.34705 16.2752C10.0975 15.9793 10.7812 15.5365 11.3581 14.9727C11.935 14.409 12.3934 13.7356 12.7064 12.9922C13.0194 12.2487 13.1807 11.4503 13.1808 10.6436Z" fill="#3F241D"/>
<path d="M8.58576 1.10357H5.64404C5.71752 0.958171 5.78385 0.823955 5.85297 0.690516C5.95861 0.485154 6.06704 0.281345 6.17081 0.0750505C6.17885 0.0517534 6.19439 0.0317803 6.21499 0.0182593C6.23559 0.00473832 6.26011 -0.00156699 6.28468 0.000330852C6.84127 0.00266099 7.3977 0.000330853 7.95413 0.00312701C7.97389 0.00363868 7.9933 0.00849732 8.01096 0.0173574C8.02863 0.0262175 8.04413 0.0388614 8.05636 0.0543899C8.23128 0.386201 8.40059 0.721119 8.57116 1.05542C8.57723 1.07108 8.58211 1.08718 8.58576 1.10357Z" fill="#3F241D"/>
<path d="M5.92002 0.00978983C5.8408 0.166219 5.76468 0.316591 5.68872 0.466185C5.59178 0.655547 5.49624 0.845842 5.39356 1.03241C5.38324 1.05108 5.369 1.06728 5.35181 1.07991C5.33462 1.09255 5.31489 1.1013 5.29399 1.10557C4.64761 1.11008 4.00108 1.1093 3.3547 1.10915C3.33873 1.10585 3.32314 1.10101 3.30811 1.0947L3.54484 0.909377C3.90865 0.624634 4.272 0.339271 4.63752 0.0565478C4.67272 0.0269913 4.71606 0.00879348 4.7618 0.00435286C5.13012 3.27989e-06 5.49842 0.00140136 5.86674 0.0015567C5.88476 0.00318982 5.90265 0.00593948 5.92033 0.00978983" fill="#3F241D"/>
<path d="M8.31265 0.0012207C8.7212 0.0012207 9.10769 0.00122069 9.49418 0.00246343C9.52255 0.00428354 9.54967 0.0148069 9.57185 0.0325998C10.0108 0.374353 10.4492 0.717089 10.8868 1.06081C10.9002 1.07416 10.9125 1.08849 10.9236 1.10368C10.8831 1.10586 10.8562 1.10866 10.8294 1.10866C10.2148 1.10866 9.60028 1.10866 8.98575 1.11145C8.95445 1.11552 8.92269 1.10888 8.89564 1.09261C8.86859 1.07633 8.84785 1.05138 8.83678 1.02182C8.6701 0.68628 8.49503 0.35478 8.3125 0.0012207" fill="#3F241D"/>
</svg>
