<svg width="18" height="22" viewBox="0 0 18 22" fill="none" xmlns="http://www.w3.org/2000/svg">
<path d="M10.3844 3.49244C10.6617 3.49244 10.9099 3.4958 11.1575 3.48889C11.1809 3.48572 11.2032 3.47717 11.2226 3.4639C11.2421 3.45064 11.2582 3.43302 11.2697 3.41245C11.6472 2.50307 12.3884 2.04539 13.2906 1.80525C14.3188 1.50773 15.4201 1.59407 16.3894 2.0482C16.9954 2.33376 17.4686 2.76621 17.6615 3.42983C17.8271 3.94465 17.8107 4.50076 17.6151 5.00494C17.4194 5.50912 17.0564 5.93073 16.5869 6.19908C15.2567 6.97447 13.183 6.82066 11.9815 5.85709C11.6244 5.58247 11.3629 5.20237 11.234 4.77073C11.2048 4.67074 11.1615 4.62832 11.0592 4.63318C10.8613 4.64252 10.6627 4.64066 10.4655 4.65748C10.4395 4.6641 10.4156 4.67716 10.396 4.69545C10.3764 4.71374 10.3618 4.73667 10.3534 4.76213C10.3242 4.99162 10.3057 5.2228 10.2956 5.4536C10.3006 5.47788 10.3115 5.50055 10.3273 5.51965C10.3431 5.53874 10.3633 5.55366 10.3863 5.56312C12.5943 6.18768 14.1367 7.61249 15.2154 9.58786C15.51 10.1356 15.7286 10.721 15.8653 11.3278C16.387 13.4491 16.1185 15.6879 15.1099 17.6258C14.685 18.4813 14.0862 19.2387 13.3517 19.8495C12.6173 20.4604 11.7635 20.9112 10.8449 21.1732C8.99893 21.7653 7.01859 21.795 5.15574 21.2584C3.3525 20.7374 1.92545 19.7017 0.982055 18.056C0.19232 16.6595 -0.133999 15.0485 0.0500635 13.4549C0.105174 12.8294 0.223637 12.2111 0.403643 11.6096C1.20967 9.0044 2.79782 7.05146 5.30356 5.8954C5.44535 5.82479 5.59244 5.76537 5.74349 5.71767C5.88888 5.67656 5.91673 5.59844 5.91075 5.45902C5.8674 4.45246 5.82068 3.44572 5.80012 2.43841C5.7885 2.09441 5.82193 1.75037 5.89954 1.41503C5.95305 1.13781 6.10147 0.887885 6.31927 0.708217C6.53706 0.528549 6.81064 0.43036 7.09298 0.430526C7.85539 0.402569 8.61881 0.42223 9.37877 0.489394C10.0073 0.54546 10.3517 0.966697 10.3749 1.60453C10.3952 2.17005 10.3827 2.73668 10.3846 3.30275C10.3846 3.36368 10.3846 3.42479 10.3846 3.49319L10.3844 3.49244ZM15.0982 13.0327C15.0141 13.0759 14.9593 13.102 14.9064 13.1314C14.0102 13.6526 13.0187 13.989 11.9903 14.1206C10.9619 14.2522 9.9176 14.1764 8.91903 13.8976C7.94162 13.636 6.9773 13.3255 6.00943 13.0295C5.31176 12.7884 4.56813 12.7103 3.83559 12.8011C2.88159 12.9713 1.96016 13.29 1.10484 13.7455C1.07789 13.7662 1.05577 13.7926 1.03999 13.8227C1.02421 13.8529 1.01516 13.8861 1.01345 13.92C0.978042 14.5426 1.04028 15.1669 1.1979 15.7702C1.81798 18.0689 3.31493 19.5105 5.571 20.1792C6.75309 20.5092 7.99101 20.5891 9.20571 20.4137C10.4171 20.2857 11.5735 19.8414 12.559 19.1253C13.8915 18.1348 14.6498 16.7893 14.9674 15.1779C15.1017 14.4709 15.1457 13.7496 15.0982 13.0314V13.0327ZM1.17978 12.5128C1.25602 12.4782 1.29191 12.4633 1.32611 12.4464C2.00984 12.1234 2.7289 11.8812 3.46873 11.7247C4.40896 11.5236 5.38598 11.579 6.29742 11.8852C7.18737 12.1656 8.06946 12.472 8.9665 12.7262C10.1953 13.0904 11.4998 13.115 12.7416 12.7976C13.4689 12.6046 14.1701 12.3242 14.83 11.9626C14.9279 11.9099 14.9561 11.854 14.9281 11.7671C14.8199 11.3707 14.6875 10.9814 14.5317 10.6011C14.2171 9.91596 13.798 9.2838 13.2893 8.72725C12.4593 7.78125 11.383 7.08416 10.1803 6.71358C10.1549 6.70016 10.1269 6.69243 10.0982 6.69092C10.0696 6.6894 10.0409 6.69414 10.0142 6.70481C9.98755 6.71548 9.96352 6.73181 9.9438 6.75269C9.92407 6.77356 9.90913 6.79848 9.89999 6.82571C9.83066 6.94248 9.74315 7.04745 9.64077 7.13668C9.36932 7.37932 9.04064 7.54897 8.68561 7.62968C8.59684 7.65211 8.53293 7.6751 8.5348 7.79134C8.54807 8.634 8.55573 9.47666 8.56414 10.3195C8.56762 10.3926 8.5631 10.4659 8.55068 10.538C8.53152 10.6767 8.46306 10.804 8.35781 10.8964C8.25257 10.9889 8.11758 11.0403 7.97751 11.0414C7.72802 11.0157 7.57103 10.8136 7.56636 10.4671C7.55228 9.61869 7.54543 8.77011 7.54581 7.92141C7.54581 7.76461 7.52188 7.68537 7.34509 7.64893C6.93548 7.56363 6.57467 7.32339 6.33797 6.97839C6.15501 6.72535 6.15352 6.72311 5.85525 6.84028C4.08161 7.52493 2.64007 8.86681 1.83032 10.5869C1.61919 11.073 1.43819 11.5716 1.28835 12.08C1.24444 12.2063 1.22276 12.3401 1.18015 12.5143L1.17978 12.5128ZM14.6209 5.54817C15.1693 5.56541 15.7133 5.44501 16.2032 5.19794C16.3445 5.12709 16.4677 5.02499 16.5636 4.8994C16.6595 4.7738 16.7255 4.62801 16.7566 4.47309C16.7877 4.31817 16.7832 4.1582 16.7432 4.00531C16.7033 3.85243 16.6291 3.71065 16.5262 3.59074C16.3388 3.36185 16.098 3.18264 15.825 3.06896C15.0815 2.76158 14.2582 2.70451 13.4794 2.90637C13.1096 2.97227 12.7629 3.13191 12.4725 3.37003C12.299 3.49823 12.1829 3.68952 12.1493 3.90257C12.1157 4.11563 12.1673 4.33335 12.2929 4.50872C12.4052 4.68465 12.5471 4.83987 12.7122 4.96752C13.2867 5.40296 13.9612 5.52705 14.6209 5.54798V5.54817ZM6.86872 4.73914C6.89413 5.07554 6.89863 5.40669 6.94871 5.73187C6.96913 5.93707 7.05794 6.12943 7.20087 6.27806C7.34381 6.42669 7.53256 6.52295 7.7368 6.55136C8.1566 6.63912 8.59406 6.56474 8.96126 6.34317C9.06122 6.28271 9.13464 6.18673 9.16683 6.07443C9.24476 5.67188 9.29167 5.26335 9.35372 4.85744C9.37427 4.72232 9.32756 4.68196 9.18963 4.68551C8.46677 4.7042 7.74372 4.71167 7.02178 4.72288C6.9844 4.72288 6.94553 4.73036 6.86947 4.73821L6.86872 4.73914ZM9.38586 3.55243C9.38586 2.95589 9.38586 2.40253 9.38586 1.84898C9.38586 1.66938 9.2642 1.61705 9.11899 1.60696C8.82559 1.58641 8.53181 1.56959 8.23784 1.56323C7.86407 1.55407 7.4903 1.54062 7.11859 1.55706C6.83266 1.56959 6.75902 1.69741 6.81695 1.99082C6.82705 1.9955 6.83695 2.00428 6.84685 2.00409C7.03916 2.00297 7.23147 1.99979 7.42377 1.99886C7.48176 1.99384 7.54017 2.00033 7.59565 2.01795C7.65113 2.03557 7.70259 2.06397 7.74706 2.10153C7.79154 2.13909 7.82815 2.18507 7.8548 2.23682C7.88145 2.28857 7.89762 2.34507 7.90238 2.40309C7.92426 2.49251 7.92475 2.58583 7.90382 2.67548C7.88289 2.76513 7.84113 2.84858 7.78191 2.91906C7.72269 2.98955 7.64769 3.04508 7.563 3.08116C7.4783 3.11724 7.3863 3.13284 7.29444 3.12671C7.23202 3.12671 7.16979 3.12914 7.10756 3.12951C6.78219 3.13231 6.77547 3.14259 6.81154 3.4702C6.82163 3.56233 6.85639 3.59429 6.95132 3.59242C7.36938 3.58401 7.78782 3.58495 8.20588 3.57803C8.3638 3.57541 8.52115 3.55654 8.67907 3.55355C8.90875 3.54925 9.1388 3.55243 9.38568 3.55243" fill="#3F241D"/>
<path d="M14.2544 15.4577C14.2474 15.5201 14.2327 15.5814 14.2104 15.6401C13.7163 16.7078 13.1403 17.7218 12.2816 18.5478C12.2368 18.591 12.1934 18.6359 12.1461 18.676C12.0761 18.7475 11.9841 18.7932 11.8849 18.8057C11.7858 18.8183 11.6852 18.7971 11.5997 18.7454C11.5105 18.6896 11.442 18.6063 11.4046 18.508C11.3672 18.4097 11.3629 18.3019 11.3924 18.201C11.4264 18.0544 11.4948 17.918 11.592 17.8031C12.3599 17.0858 12.8628 16.1944 13.3151 15.2645C13.3695 15.1538 13.4477 15.0566 13.5442 14.9798C13.611 14.9258 13.6929 14.8936 13.7787 14.8877C13.8645 14.8818 13.95 14.9025 14.0236 14.947C14.1054 15.0025 14.1703 15.0796 14.2111 15.1697C14.2518 15.2599 14.2668 15.3596 14.2544 15.4577Z" fill="#3F241D"/>
<path d="M10.2326 8.45554C10.2262 8.34278 10.2471 8.23015 10.2934 8.12716C10.3398 8.02417 10.4103 7.93386 10.4989 7.86387C10.5604 7.8083 10.6373 7.77272 10.7195 7.76184C10.8016 7.75096 10.8852 7.7653 10.959 7.80294C12.0507 8.28961 12.9848 9.07158 13.6559 10.0607C13.765 10.2372 13.8634 10.4202 13.9505 10.6086C14.1203 10.9533 13.8219 11.293 13.5713 11.4053C13.4978 11.4378 13.415 11.4421 13.3386 11.4174C13.2622 11.3927 13.1975 11.3408 13.1569 11.2715C13.0198 11.0716 12.8953 10.8628 12.7531 10.6666C12.178 9.89745 11.4193 9.28479 10.5464 8.88463C10.442 8.82212 10.3533 8.73675 10.2868 8.63495C10.2563 8.57963 10.2378 8.5185 10.2326 8.45554Z" fill="#3F241D"/>
</svg>
