<svg width="21" height="23" viewBox="0 0 21 23" fill="none" xmlns="http://www.w3.org/2000/svg">
<path d="M9.37643 12.6058V13.4132H15.0672C15.0053 13.6166 14.9505 13.7983 14.8947 13.9797C14.8562 14.1046 14.8077 14.2271 14.7796 14.354C14.7538 14.4705 14.6938 14.4991 14.5803 14.4995C13.3183 14.5034 12.0563 14.5126 10.7943 14.5204C10.7468 14.5207 10.6992 14.5204 10.6296 14.5204C10.6296 14.6969 10.6296 14.8651 10.6296 15.0333C10.6296 15.3314 10.6296 15.328 10.9329 15.3294C12.0208 15.3346 13.1087 15.3413 14.1966 15.3497C14.2812 15.3503 14.3657 15.3618 14.4747 15.3701C14.3631 15.7392 14.2618 16.0845 14.1501 16.4265C14.1396 16.4583 14.0635 16.4858 14.0176 16.4862C13.4691 16.4907 12.9209 16.4901 12.3725 16.4901C10.2793 16.4903 8.186 16.4914 6.09273 16.4936C5.95317 16.494 5.90152 16.4557 5.86911 16.318C5.3642 14.1725 4.85556 12.028 4.34317 9.88431C4.32019 9.78762 4.30066 9.69014 4.27148 9.55602C8.25897 9.49291 12.2299 9.53699 16.2203 9.5188C16.208 9.57764 16.2023 9.62269 16.1889 9.66538C16.093 9.9732 15.991 10.2792 15.9011 10.5888C15.8716 10.6902 15.8069 10.6834 15.7318 10.6834C14.3131 10.6829 12.8943 10.6828 11.4755 10.683L8.22455 10.6828H8.06676V11.501H15.6206C15.6023 11.5852 15.5947 11.6347 15.5805 11.6823C15.501 11.9495 15.4154 12.215 15.3415 12.4837C15.3142 12.5826 15.2663 12.6077 15.1677 12.6075C13.2963 12.6046 11.425 12.6041 9.5536 12.6058H9.37643" fill="#3F241D"/>
<path d="M4.28418 8.71536V2.96399C4.35911 2.96399 4.42724 2.96399 4.49535 2.96399C7.33673 2.96936 10.1781 2.97477 13.0195 2.98022C13.6199 2.98142 14.2204 2.982 14.8208 2.98998C14.8508 2.99251 14.8798 3.00154 14.906 3.01642C14.9321 3.03131 14.9547 3.0517 14.9723 3.0762C15.579 4.13441 16.1778 5.1971 16.7856 6.25468C16.8744 6.40912 16.8813 6.54141 16.793 6.69181C16.6345 6.96209 16.4808 7.23531 16.3282 7.50905C16.2704 7.61273 16.2039 7.61346 16.1205 7.54355C16.0243 7.46288 15.9269 7.38349 15.8228 7.2975C15.8658 7.22107 15.9016 7.15249 15.9419 7.08666C16.4333 6.28324 15.7886 5.38266 15.0727 5.28733C14.5606 5.21927 14.1274 5.37632 13.8379 5.81782C13.5842 6.20466 13.5811 6.6371 13.768 7.04313C13.9691 7.48026 14.3551 7.69089 14.8306 7.70159C15.0434 7.70641 15.1934 7.76981 15.3378 7.93047C15.4807 8.08943 15.671 8.20555 15.8536 8.35087C15.8038 8.45002 15.7574 8.56318 15.691 8.66306C15.6683 8.69727 15.5958 8.71209 15.546 8.71227C14.6713 8.71541 13.7967 8.71637 12.9221 8.71515C10.1024 8.71526 7.28267 8.71526 4.46297 8.71515L4.28418 8.71536ZM8.44962 7.10946C8.4621 7.20534 8.47552 7.28677 8.48289 7.36875C8.51438 7.71866 8.51373 7.71871 8.86969 7.70641C9.05772 7.69992 9.07835 7.6811 9.0503 7.49866C8.88609 6.43061 8.72083 5.36266 8.55455 4.29481C8.5441 4.22707 8.51767 4.19729 8.44601 4.19642C8.24591 4.19401 8.04556 4.19038 7.84598 4.17695C7.73214 4.1693 7.69837 4.21828 7.68226 4.32277C7.52452 5.34324 7.36174 6.36289 7.20173 7.38299C7.14854 7.72246 7.17763 7.74819 7.52525 7.70319C7.61086 7.69212 7.65803 7.65485 7.67273 7.56747C7.68886 7.45094 7.71399 7.33583 7.74789 7.22319C7.76322 7.1772 7.82315 7.11705 7.86596 7.11438C8.05595 7.10258 8.24706 7.10915 8.44951 7.10915L8.44962 7.10946ZM5.33914 6.64488C5.33914 6.77224 5.33565 6.88058 5.33977 6.98861C5.35946 7.50826 5.63488 7.76724 6.15497 7.75816C6.55415 7.75117 6.80828 7.60043 6.89417 7.28072C7.0055 6.86624 6.97837 6.4662 6.6759 6.12616C6.47624 5.90168 6.27165 5.68163 6.06983 5.45906C5.93737 5.31306 5.87363 5.14399 5.89376 4.94417C5.91019 4.78128 6.01225 4.64894 6.14293 4.63119C6.24888 4.61682 6.36403 4.71464 6.42064 4.86729C6.42519 4.87954 6.42965 4.89187 6.43313 4.90446C6.49515 5.12957 6.49515 5.12975 6.73544 5.13061C6.77895 5.13077 6.82536 5.13957 6.86503 5.12711C6.89673 5.11719 6.94262 5.0823 6.94405 5.05643C6.96928 4.60546 6.8187 4.21728 6.24316 4.15797C6.1609 4.14947 6.07803 4.14875 5.99564 4.15582C5.65653 4.1853 5.43154 4.38355 5.36539 4.71807C5.26571 5.22126 5.41146 5.64708 5.78013 6.00015C5.92468 6.13862 6.06866 6.278 6.20715 6.42252C6.3653 6.58742 6.41607 6.79049 6.38923 7.01408C6.36904 7.18254 6.29965 7.24358 6.13329 7.24704C5.95599 7.25065 5.87647 7.19293 5.85266 7.02654C5.84198 6.93126 5.83814 6.83535 5.84116 6.73953C5.84116 6.676 5.8239 6.64218 5.75263 6.64414C5.62297 6.6477 5.49307 6.64514 5.33912 6.64514L5.33914 6.64488ZM11.0919 4.18239C11.089 4.23006 11.0852 4.2644 11.0852 4.29874C11.085 5.12316 11.085 5.94758 11.0852 6.77201C11.0852 7.0468 11.0851 7.32164 11.0848 7.59653C11.0847 7.65592 11.0816 7.70921 11.1688 7.70874C11.6171 7.70628 12.0654 7.7084 12.5136 7.70447C12.5405 7.70424 12.589 7.66652 12.5901 7.64427C12.597 7.50172 12.5936 7.35865 12.5936 7.19647H11.6497V6.18951H12.3867V5.6848H11.6519V4.67653C11.7122 4.67653 11.7597 4.67653 11.8072 4.67653C12.0335 4.67671 12.2599 4.67964 12.4862 4.67435C12.5223 4.67352 12.587 4.63787 12.5885 4.61494C12.5981 4.47359 12.5933 4.33104 12.5933 4.18244L11.0919 4.18239ZM9.91744 7.19893V4.18799H9.381V7.69683H10.8204V7.19893H9.91744Z" fill="#3F241D"/>
<path d="M11.9133 19.7792H7.93595C7.9945 19.9028 8.03952 20.0191 8.1017 20.1253C8.34784 20.5453 8.35283 21.0117 8.24335 21.4469C8.04762 22.2247 7.54275 22.7591 6.74513 22.9447C5.61017 23.2088 4.51084 22.4572 4.3116 21.3035C4.24822 20.9364 4.3279 20.5927 4.507 20.2707C4.7102 19.9054 4.97799 19.5902 5.28002 19.305C5.48994 19.1069 5.76548 19.0405 6.03737 19.0238C6.60147 18.989 7.16747 18.9746 7.73277 18.9728C9.40372 18.9676 11.0747 18.9718 12.7457 18.9743C13.0197 18.9747 13.2938 18.9893 13.5679 18.9905C14.386 18.994 14.98 19.3848 15.3425 20.0943C15.9853 21.3523 15.1323 22.7979 13.8343 22.9799C12.8729 23.1148 11.9316 22.5651 11.6197 21.5173C11.4884 21.0765 11.4943 20.6019 11.7259 20.1666C11.7908 20.0448 11.8465 19.9181 11.9134 19.7791L11.9133 19.7792ZM13.5475 20.1769C13.1243 20.1721 12.7533 20.546 12.7504 20.9802C12.7476 21.398 13.1264 21.7792 13.5516 21.7864C13.9663 21.7933 14.3463 21.4105 14.3508 20.9813C14.3554 20.5361 14.0019 20.1821 13.5475 20.1769H13.5475ZM7.07361 21.1637C7.09578 20.5743 6.64861 20.3554 6.28675 20.3344C5.87339 20.3103 5.5154 20.7108 5.50506 21.1515C5.49338 21.649 5.95163 21.9412 6.29497 21.945C6.63654 21.9489 7.11931 21.6214 7.07361 21.1637Z" fill="#3F241D"/>
<path d="M7.83468e-05 5.83569V5.02078C0.305317 5.02078 0.604837 5.02107 0.904331 5.02078C1.41776 5.0202 1.93133 5.02499 2.44458 5.01526C2.61634 5.01198 2.71989 5.07614 2.76692 5.23473C2.88943 5.64788 3.02546 6.05784 3.12718 6.4762C3.90621 9.68385 4.68131 12.8925 5.45247 16.102C5.58727 16.6609 5.71853 17.2206 5.85749 17.7784C5.88361 17.8827 5.85488 17.9383 5.75893 17.9659C5.5709 18.0198 5.38193 18.0698 5.19429 18.1248C5.10581 18.1508 5.09369 18.0969 5.07784 18.0316C4.91245 17.3503 4.74301 16.6699 4.57903 15.9883C4.01434 13.6427 3.45082 11.2969 2.88846 8.95072C2.65753 7.98507 2.43193 7.01816 2.21165 6.04999C2.18031 5.91259 2.1238 5.84964 1.97823 5.84954C1.37791 5.84912 0.777618 5.84095 0.177299 5.83574C0.12162 5.83527 0.065968 5.83574 0 5.83574" fill="#3F241D"/>
<path d="M14.219 2.13185H5.64453C5.66976 2.01755 5.68731 1.92044 5.71282 1.82547C5.84962 1.31657 5.98772 0.808033 6.12712 0.299851C6.1454 0.232816 6.1711 0.167745 6.19502 0.102333C6.22897 0.00935847 6.2835 -0.0173664 6.38713 0.0104578C7.32324 0.261766 8.26126 0.506059 9.19803 0.755064C10.8363 1.19057 12.4744 1.62718 14.1122 2.0649C14.1491 2.07474 14.1848 2.08898 14.221 2.10118C14.2204 2.1114 14.2197 2.12163 14.219 2.13185Z" fill="#3F241D"/>
<path d="M18.8191 6.39636C18.888 6.40772 18.9356 6.40851 18.9781 6.42369C19.2967 6.53779 19.6257 6.63068 19.9299 6.77601C20.4818 7.03978 20.7492 7.51915 20.8352 8.10976C20.8521 8.23927 20.8606 8.36976 20.8604 8.50038C20.8628 8.68591 20.7522 8.81186 20.5614 8.85455C20.3928 8.89219 20.2167 8.8139 20.1488 8.65764C20.1129 8.57372 20.0889 8.48517 20.0775 8.39458C20.0052 7.8305 19.7116 7.45824 19.1573 7.30192C19.0376 7.26815 18.8762 7.25172 18.8174 7.16827C18.7574 7.08302 18.7965 6.92508 18.7988 6.7992C18.8012 6.67042 18.8115 6.54179 18.8191 6.39647" fill="#3F241D"/>
<path d="M17.6647 5.56079C18.0175 5.80966 18.1761 6.28048 18.0718 6.76129C17.9678 7.241 17.6627 7.52932 17.1792 7.70307C17.2109 7.63172 17.2257 7.58942 17.2473 7.55094C17.3753 7.32322 17.4984 7.09212 17.6359 6.8701C17.767 6.65834 17.7815 6.44449 17.7211 6.20643C17.6686 5.99902 17.6497 5.78302 17.616 5.57084L17.6647 5.56079Z" fill="#3F241D"/>
<path d="M15.6021 2.46336C15.8486 2.52961 16.0957 2.59364 16.3408 2.66467C16.3598 2.67135 16.3772 2.68232 16.3914 2.69674C16.4055 2.71117 16.4163 2.72866 16.4227 2.74789C16.489 3.21713 16.5497 3.68716 16.6109 4.15711C16.6118 4.16373 16.6038 4.17148 16.5807 4.21482L15.5601 2.49715L15.6021 2.46326" fill="#3F241D"/>
<path d="M14.7397 6.09509C14.7586 6.35946 14.777 6.61697 14.7955 6.87511C14.6111 6.88383 14.5004 6.78735 14.4647 6.60978C14.4157 6.36574 14.511 6.17121 14.7397 6.09515" fill="#3F241D"/>
<path d="M8.09353 4.9729C8.13471 5.2067 8.17738 5.44023 8.21666 5.6744C8.25978 5.93133 8.29561 6.18958 8.34298 6.4457C8.36375 6.55786 8.32993 6.60013 8.21867 6.59281C8.1537 6.58846 8.08849 6.58882 8.02356 6.59388C7.9021 6.60338 7.85091 6.54027 7.86509 6.42994C7.92746 5.94426 7.99484 5.45926 8.06039 4.974L8.09353 4.97295" fill="#3F241D"/>
</svg>
