<svg width="20" height="20" viewBox="0 0 20 20" fill="none" xmlns="http://www.w3.org/2000/svg">
<path d="M14.8263 8.87012C14.8287 10.4358 14.8311 12.0014 14.8334 13.567C14.8339 13.8533 14.8334 14.1396 14.8334 14.4391H5.18241C5.1781 14.3962 5.16995 14.3508 5.16991 14.3055C5.16928 12.5277 5.16928 10.7499 5.16991 8.97222C5.16991 8.9382 5.17422 8.90418 5.17672 8.87012L8.61386 8.87086L8.62792 8.86975V11.4893C8.82199 11.3986 8.97357 11.3371 9.11524 11.2592C9.24604 11.1872 9.36934 11.1668 9.49445 11.2563C9.83351 11.4991 10.1699 11.499 10.5089 11.2563C10.634 11.1668 10.7573 11.1872 10.8881 11.2593C11.0337 11.3395 11.1891 11.4039 11.3754 11.4918V8.86975L11.3894 8.87086L14.8266 8.87012H14.8263ZM11.0368 13.156C11.0371 12.8113 11.0371 12.8113 10.7202 12.8107C10.3467 12.8101 10.3467 12.8101 10.3465 13.1221C10.3461 13.4668 10.3461 13.4668 10.663 13.4674C11.0365 13.4679 11.0365 13.4679 11.0368 13.156ZM12.0741 13.4674C12.4172 13.4674 12.4172 13.4674 12.4174 13.1473C12.4174 12.8106 12.4174 12.8106 12.0702 12.8108C11.7272 12.8108 11.7272 12.8108 11.727 13.1309C11.727 13.4677 11.727 13.4677 12.0741 13.4676V13.4674ZM13.1076 13.1374C13.1076 13.4675 13.1076 13.4675 13.4401 13.4676C13.798 13.4678 13.798 13.4678 13.798 13.1411C13.798 12.8111 13.798 12.8111 13.4656 12.8109C13.1076 12.8107 13.1076 12.8107 13.1076 13.1374Z" fill="#3F241D"/>
<path d="M0.0974957 8.2196L1.43988 8.40016C1.13006 11.0743 1.90995 13.4015 3.88512 15.3214C5.19938 16.5989 6.81406 17.3822 8.67503 17.6437C12.6718 18.2054 15.9826 16.1509 17.4284 13.6673L16.5732 13.3615L18.819 11.9242C19.088 12.764 19.3497 13.5812 19.6261 14.4435C19.3802 14.3577 19.1646 14.2936 18.9597 14.207C18.8013 14.1401 18.724 14.1793 18.6394 14.3182C17.6784 15.8973 16.3324 17.1011 14.6453 17.9547C13.0735 18.7598 11.2972 19.1329 9.51526 19.0323C6.60115 18.8758 4.17626 17.7339 2.29778 15.5965C1.04165 14.167 0.306441 12.5157 0.0703694 10.6621C-0.0317982 9.85024 -0.0226798 9.02921 0.0974957 8.2196Z" fill="#3F241D"/>
<path d="M2.60596 5.32755L3.48624 5.76315L1.08081 6.94561L0.585938 4.37005L1.35358 4.72181C2.80921 2.45734 4.86365 0.945113 7.57234 0.299201C9.92004 -0.260658 12.203 -0.0349169 14.3862 0.977244C18.6437 2.95093 20.477 7.24702 19.8948 10.8327L18.5671 10.6542C18.8456 8.01686 18.103 5.7068 16.1657 3.79197C14.8989 2.53991 13.3476 1.75016 11.5486 1.44916C7.47906 0.768246 4.10709 2.81789 2.60596 5.32755Z" fill="#3F241D"/>
<path d="M8.6139 8.87092L5.17676 8.87018V4.60852H8.62075L8.61403 8.8708" fill="#3F241D"/>
<path d="M14.8271 8.87006L11.39 8.8708C11.3877 7.45004 11.3855 6.02928 11.3833 4.60852H14.8271V8.87006Z" fill="#3F241D"/>
</svg>
