<svg width="17" height="19" viewBox="0 0 17 19" fill="none" xmlns="http://www.w3.org/2000/svg">
<path d="M16.4246 15.2272C16.0378 13.6782 15.6581 12.1271 15.2559 10.5825C15.0973 10.0054 15.0236 9.40815 15.0372 8.80974C15.0585 8.17563 15.042 7.54013 15.042 6.90509V6.67673H13.0071C12.9522 6.30578 12.9087 5.9561 12.8478 5.60938C12.6366 4.40734 12.2763 3.25796 11.6028 2.2268C11.067 1.40659 10.3881 0.748875 9.45251 0.39485C8.47385 0.0644373 7.43026 0.342345 7.43026 0.342345C6.62851 0.615764 5.92972 1.12817 5.42791 1.81064C4.60304 2.87023 4.17663 4.10054 3.92419 5.40013C3.84279 5.81956 3.78966 6.24333 3.72023 6.68714H1.6927V6.91922C1.6927 7.78914 1.69425 8.65906 1.69068 9.52897C1.69019 9.64599 1.6758 9.76254 1.64781 9.87616C1.20384 11.6596 0.758061 13.4419 0.310468 15.2232C0.0331823 16.3316 0.509148 17.2304 1.58225 17.6207C2.01606 17.772 2.47313 17.8456 2.93249 17.8382C6.51955 17.8375 10.1065 17.8368 13.6932 17.8362C13.9282 17.8435 14.1634 17.8298 14.396 17.7954C14.703 17.7484 15.0042 17.6688 15.2943 17.5578C16.2778 17.1477 16.6885 16.2822 16.425 15.2277L16.4246 15.2272ZM13.2697 8.69556H12.6032V8.02138H13.2702L13.2697 8.69556ZM4.2414 5.46258C4.45593 4.33417 4.81337 3.25796 5.46628 2.29981C5.97021 1.56007 6.59888 0.960762 7.46615 0.671049C8.53957 0.312674 9.49367 0.587785 10.3459 1.27968C11.1692 1.94765 11.6711 2.83776 12.0391 3.81253C12.3634 4.70771 12.5735 5.64025 12.6642 6.58803C12.665 6.61598 12.6639 6.64396 12.6609 6.67176H4.0494C4.11433 6.25886 4.16622 5.85855 4.2414 5.46258ZM4.13359 8.6923H3.46562V8.02324H4.13359V8.6923ZM1.57635 11.4729C1.70994 10.9862 1.83064 10.4958 1.94435 10.004C1.98532 9.8275 2.00714 9.64709 2.00944 9.4659C2.01643 8.71358 2.0124 7.9611 2.0124 7.20878V7.00948H3.70563C3.69382 7.22882 3.68217 7.44708 3.66927 7.68615H3.14779V9.01262H4.45842V7.6891H3.99239C4.00606 7.45609 4.01864 7.24171 4.03215 7.01367H12.7029C12.717 7.23239 12.731 7.44646 12.7462 7.67916H12.2827V9.0151H13.5849V7.69609H13.0723C13.0568 7.46121 13.0423 7.24653 13.0269 7.01507H14.7247V7.19573C14.7247 7.74238 14.7402 8.28965 14.7203 8.83553C14.6926 9.44004 14.7664 10.0449 14.9386 10.6251C15.0249 10.9112 15.0823 11.2062 15.164 11.4941C15.183 11.5421 15.1848 11.5952 15.1693 11.6445C15.1537 11.6938 15.1217 11.7362 15.0785 11.7647C14.1362 12.5404 13.0387 13.1052 11.8599 13.4212C11.2755 13.5871 10.6761 13.7008 10.0535 13.8441V12.7668H6.68462V13.813C4.83465 13.5354 3.13008 12.9774 1.6809 11.7847C1.63019 11.753 1.59207 11.7047 1.57308 11.648C1.55409 11.5914 1.55541 11.5298 1.57681 11.474L1.57635 11.4729ZM9.72343 14.7663H7.01768V13.089H9.72297L9.72343 14.7663ZM15.1526 17.2737C14.7255 17.4432 14.2691 17.527 13.8096 17.5202C13.31 17.5221 12.8102 17.5202 12.3107 17.5202C9.20101 17.5202 6.09137 17.5202 2.98173 17.5202C2.43917 17.5396 1.9 17.4272 1.41045 17.1925C0.708143 16.8302 0.417497 16.2008 0.610898 15.3672C0.866747 14.2643 1.156 13.1683 1.43142 12.0696C1.43406 12.0593 1.44462 12.051 1.46528 12.023C2.1992 12.6261 3.02743 13.1043 3.91674 13.4383C4.80756 13.7788 5.73581 14.0117 6.68183 14.1322V15.088H10.0479V14.1374C11.9675 13.8604 13.7479 13.2693 15.2718 12.027C15.287 12.0436 15.2996 12.0624 15.3091 12.0828C15.5873 13.1992 15.8789 14.3124 16.1367 15.4334C16.3295 16.2713 15.9525 16.9417 15.1531 17.2731" fill="#3F241D"/>
<path d="M2.92988 18.0711C2.44399 18.079 1.96052 18.0009 1.50182 17.8404C0.321221 17.4111 -0.22139 16.3869 0.0835468 15.1673L0.510738 13.4613C0.814795 12.2478 1.11818 11.0342 1.42089 9.82057C1.44435 9.72504 1.45639 9.62706 1.45677 9.52869C1.45957 8.86641 1.46035 8.20429 1.4591 7.54233V6.454H3.52049C3.53137 6.38099 3.54193 6.30844 3.55265 6.23652C3.59708 5.9336 3.63918 5.64731 3.69572 5.35604C3.99569 3.81163 4.48797 2.63972 5.24433 1.6679C5.77312 0.947056 6.51135 0.406823 7.35838 0.12085C7.41601 0.105316 8.49393 -0.1743 9.52712 0.173977C10.4352 0.517439 11.1755 1.14626 11.7979 2.09929C12.423 3.05635 12.8295 4.15882 13.0775 5.56901C13.1197 5.80948 13.153 6.04607 13.1882 6.29648C13.1951 6.34526 13.2019 6.39419 13.2089 6.44359H15.2749V6.90465C15.2749 7.09727 15.2765 7.28989 15.278 7.48267C15.2815 7.9195 15.285 8.37108 15.2701 8.81706C15.2574 9.39301 15.3285 9.96775 15.4814 10.5232C15.7865 11.6957 16.0835 12.8906 16.3707 14.046L16.6503 15.1707C16.9439 16.347 16.4703 17.3196 15.3832 17.7729C15.0776 17.8901 14.7603 17.9746 14.4369 18.0247C14.1971 18.0613 13.9545 18.0762 13.712 18.0692H13.6926C11.2628 18.0707 8.83289 18.0712 6.40302 18.0708H2.93175L2.92988 18.0711ZM9.64394 17.2868H12.778C13.1211 17.2868 13.4643 17.2868 13.8076 17.2868C14.2367 17.2938 14.6631 17.216 15.0621 17.058C15.773 16.7628 16.0734 16.205 15.908 15.4858C15.7237 14.6853 15.5187 13.8742 15.3203 13.0898C15.2637 12.8655 15.2072 12.6413 15.1507 12.417C13.8344 13.4112 12.2729 14.0262 10.2793 14.3381V15.3211H6.44714V14.3347C5.55239 14.2071 4.67483 13.9793 3.83102 13.6555C3.02651 13.3518 2.26954 12.9346 1.58307 12.4167C1.52632 12.641 1.46936 12.8652 1.41219 13.0893C1.21786 13.8522 1.017 14.6412 0.836493 15.4194C0.669345 16.1396 0.898628 16.6662 1.5158 16.985C1.97162 17.2032 2.47384 17.3068 2.97882 17.2868H9.64377H9.64394ZM7.2498 14.5327H9.48906V13.322H7.2498V14.5327ZM6.45072 12.5338H10.2861V13.553C10.3858 13.5309 10.485 13.5092 10.5834 13.4877C11.0043 13.3961 11.4018 13.3094 11.7951 13.1974C12.943 12.8921 14.0114 12.3426 14.9274 11.5865C14.9329 11.5823 14.9381 11.5778 14.943 11.573C14.942 11.5677 14.9408 11.5626 14.9392 11.5575C14.9013 11.4236 14.8684 11.2881 14.8356 11.1536C14.7968 10.9937 14.7603 10.8429 14.7149 10.6928C14.5343 10.0882 14.4566 9.45743 14.4852 8.82701C14.4993 8.45325 14.4959 8.06987 14.4925 7.69907C14.4912 7.54885 14.4898 7.39848 14.4895 7.24857H13.2733L13.2876 7.46341H13.8158V9.24767H12.0479V7.4457H12.4959L12.4828 7.24624H4.24967L4.23771 7.45611H4.69022V9.2455H2.91357V7.45316H3.44718L3.45851 7.24236H2.24467V7.81526C2.24467 8.36642 2.24622 8.91819 2.2411 9.46857C2.23872 9.66671 2.21487 9.86401 2.16995 10.057C2.04319 10.6055 1.9214 11.0891 1.79961 11.5351C1.79572 11.5477 1.79327 11.5607 1.79231 11.5739C1.79433 11.5739 1.80381 11.5856 1.82711 11.605C3.03334 12.5976 4.50754 13.2157 6.44978 13.5402L6.45072 12.5338ZM12.8353 8.46211H13.0363V8.25395H12.8353V8.46211ZM3.69789 8.45931H3.89984V8.25628H3.69789V8.45931ZM4.32035 6.43877H12.4128C12.3183 5.5701 12.1196 4.71595 11.8211 3.89473C11.4061 2.79584 10.8898 2.02193 10.1983 1.4599C9.34288 0.765365 8.47311 0.579576 7.5392 0.891503C6.8139 1.13384 6.19844 1.63715 5.658 2.43032C5.08666 3.26917 4.70886 4.24627 4.46948 5.5061C4.41915 5.77173 4.37969 6.03613 4.33806 6.31621C4.33216 6.35691 4.3261 6.39776 4.31988 6.43877" fill="#3F241D"/>
</svg>
