<svg width="33" height="32" viewBox="0 0 33 32" fill="none" xmlns="http://www.w3.org/2000/svg">
<g clip-path="url(#clip0)">
<path d="M2.82812 13.181H3.98051L3.40432 11.7588L2.82812 13.181Z" fill="#2FABF7"/>
<path d="M17.1288 11.9619C17.024 11.9111 16.8669 11.9111 16.7097 11.9111H15.6621V12.7238H16.7097C16.8669 12.7238 17.024 12.7238 17.1288 12.673C17.2335 12.6222 17.2859 12.4699 17.2859 12.3175C17.3383 12.1143 17.2335 12.0127 17.1288 11.9619Z" fill="#228FE0"/>
<path d="M28.3381 10.4382V11.0478L28.0238 10.4382H25.5619V11.0478L25.2476 10.4382H21.8952C21.319 10.4382 20.8476 10.5398 20.4286 10.743V10.4382H18.0714V10.743C17.8095 10.5398 17.4952 10.4382 17.0762 10.4382H8.64286L8.06667 11.7081L7.49048 10.4382H4.81905V11.0478L4.50476 10.4382H2.25238L1.20476 12.8255L0 15.4668H1.20476H2.67143L2.98571 14.6541H3.71905L4.03333 15.4668H7.07143V14.8573L7.33333 15.4668H8.85238L9.11429 14.8573V15.4668H16.3952V14.1462H16.5C16.6048 14.1462 16.6048 14.1462 16.6048 14.2985V15.416H20.3762V15.1112C20.6905 15.2636 21.1619 15.416 21.7905 15.416H23.3619L23.6762 14.6033H24.4095L24.7238 15.416H27.7619V14.6541L28.2333 15.416H30.6952V10.4382H28.3381ZM10.6333 14.7049H9.74286V11.9112L8.48571 14.7049H7.7L6.44286 11.9112V14.7049H4.6619L4.29524 13.943H2.51429L2.2 14.7557H1.20476L2.77619 11.1493H4.08571L5.55238 14.5525V11.1493H6.96667L8.11905 13.5874L9.16667 11.1493H10.6333V14.7049ZM14.1952 11.9112H12.1524V12.5716H14.1429V13.2827H12.1524V13.9938H14.1952V14.7557H11.2619V11.1493H14.1952V11.9112ZM18.1238 13.3843C18.2286 13.5874 18.281 13.7398 18.281 14.0446V14.7557H17.3905V14.2985C17.3905 14.0954 17.3905 13.7906 17.2333 13.5874C17.0762 13.4351 16.919 13.4351 16.6048 13.4351H15.6619V14.7557H14.7714V11.1493H16.7619C17.2333 11.1493 17.5476 11.1493 17.8095 11.3017C18.0714 11.4541 18.2286 11.7081 18.2286 12.1144C18.2286 12.6732 17.8619 12.9779 17.6 13.0795C17.8619 13.1303 18.019 13.2827 18.1238 13.3843ZM19.6952 14.7049H18.8048V11.0986H19.6952V14.7049ZM30.0143 14.7049H28.7571L27.081 12.0128V14.7049H25.3L24.9857 13.943H23.1524L22.8381 14.7557H21.8429C21.4238 14.7557 20.9 14.6541 20.5857 14.3493C20.2714 14.0446 20.1143 13.6382 20.1143 12.9779C20.1143 12.47 20.219 11.962 20.5857 11.5557C20.8476 11.2509 21.319 11.1493 21.8952 11.1493H22.7333V11.9112H21.8952C21.581 11.9112 21.4238 11.962 21.2143 12.1144C21.0571 12.2668 20.9524 12.5716 20.9524 12.9271C20.9524 13.3335 21.0048 13.5874 21.2143 13.7906C21.3714 13.943 21.581 13.9938 21.8429 13.9938H22.2095L23.4143 11.2001H24.7238L26.1905 14.6033V11.2001H27.5L29.0191 13.689V11.2001H29.9095V14.7049H30.0143Z" fill="#0571C1"/>
<path d="M23.4668 13.181H24.6716L24.0954 11.7588L23.4668 13.181Z" fill="#228FE0"/>
<path d="M14.5621 20.4953V17.6001L13.2002 19.0223L14.5621 20.4953Z" fill="#228FE0"/>
<path d="M8.95703 17.9556V18.6159H10.8951V19.327H8.95703V20.0889H11.1046L12.0999 19.0222L11.157 17.9556H8.95703Z" fill="#2FABF7"/>
<path d="M16.5521 17.9556H15.4521V18.8698H16.6045C16.9188 18.8698 17.1283 18.7175 17.1283 18.4127C17.076 18.1079 16.8664 17.9556 16.5521 17.9556Z" fill="#228FE0"/>
<path d="M32.7384 18.8192V16.5334H32.1098H30.5384C30.067 16.5334 29.7003 16.635 29.4384 16.8382V16.5334H27.0289C26.6622 16.5334 26.1908 16.635 25.9813 16.8382V16.5334H21.7384V16.8382C21.4241 16.5842 20.8479 16.5334 20.586 16.5334H17.7574V16.8382C17.4955 16.5842 16.867 16.5334 16.5527 16.5334H13.4098L12.6765 17.2954L11.9955 16.5334H7.28125V21.5112H11.8908L12.6241 20.7493L13.3051 21.5112H16.1336V20.343H16.5003C16.867 20.343 17.3384 20.343 17.7051 20.1906V21.562H20.0622V20.2414H20.167C20.3241 20.2414 20.3241 20.2414 20.3241 20.3938V21.562H27.4479C27.9194 21.562 28.3908 21.4604 28.6527 21.2573V21.562H30.9051C31.3765 21.562 31.8479 21.5112 32.1622 21.308C32.686 21.0033 33.0003 20.4446 33.0003 19.7842C33.0003 19.4287 32.8955 19.0731 32.7384 18.8192ZM16.5003 19.6319H15.4527V20.8509H13.7765L12.7289 19.6827L11.6289 20.8509H8.17173V17.2446H11.6813L12.7289 18.4128L13.8289 17.2446H16.6051C17.286 17.2446 18.0717 17.4477 18.0717 18.4128C18.0194 19.4287 17.286 19.6319 16.5003 19.6319ZM21.7384 19.4287C21.8432 19.5811 21.8955 19.7842 21.8955 20.089V20.8001H21.0051V20.343C21.0051 20.1398 21.0051 19.7842 20.8479 19.6319C20.7432 19.4795 20.5336 19.4795 20.2194 19.4795H19.2765V20.8001H18.386V17.1938H20.3765C20.7955 17.1938 21.1622 17.1938 21.4241 17.3461C21.686 17.4985 21.8955 17.7525 21.8955 18.1588C21.8955 18.7176 21.5289 19.0223 21.267 19.1239C21.5289 19.2255 21.686 19.3271 21.7384 19.4287ZM25.3527 17.9557H23.3098V18.616H25.3003V19.3271H23.3098V20.0382H25.3527V20.8001H22.4194V17.1938H25.3527V17.9557ZM27.5527 20.8001H25.8765V20.0382H27.5527C27.7098 20.0382 27.8146 20.0382 27.9194 19.9366C27.9717 19.8858 28.0241 19.7842 28.0241 19.6827C28.0241 19.5811 27.9717 19.4795 27.9194 19.4287C27.867 19.3779 27.7622 19.3271 27.6051 19.3271C26.767 19.2763 25.7717 19.3271 25.7717 18.2096C25.7717 17.7017 26.086 17.143 27.0289 17.143H28.7575V18.0065H27.1336C26.9765 18.0065 26.8717 18.0065 26.767 18.0573C26.6622 18.108 26.6622 18.2096 26.6622 18.3112C26.6622 18.4636 26.767 18.5144 26.8717 18.5652C26.9765 18.616 27.0813 18.616 27.186 18.616H27.6575C28.1289 18.616 28.4432 18.7176 28.6527 18.9207C28.8098 19.0731 28.9146 19.3271 28.9146 19.6827C28.9146 20.4446 28.4432 20.8001 27.5527 20.8001ZM32.0575 20.4446C31.8479 20.6477 31.4813 20.8001 30.9575 20.8001H29.2813V20.0382H30.9575C31.1146 20.0382 31.2194 20.0382 31.3241 19.9366C31.3765 19.8858 31.4289 19.7842 31.4289 19.6827C31.4289 19.5811 31.3765 19.4795 31.3241 19.4287C31.2717 19.3779 31.167 19.3271 31.0098 19.3271C30.1717 19.2763 29.1765 19.3271 29.1765 18.2096C29.1765 17.7017 29.4908 17.143 30.4336 17.143H32.1622V18.0065H30.5908C30.4336 18.0065 30.3289 18.0065 30.2241 18.0573C30.1194 18.108 30.1194 18.2096 30.1194 18.3112C30.1194 18.4636 30.1717 18.5144 30.3289 18.5652C30.4336 18.616 30.5384 18.616 30.6432 18.616H31.1146C31.586 18.616 31.9003 18.7176 32.1098 18.9207C32.1622 18.9207 32.1622 18.9715 32.1622 18.9715C32.3194 19.1747 32.3717 19.4287 32.3717 19.6827C32.3717 19.9874 32.267 20.2414 32.0575 20.4446Z" fill="#0571C1"/>
<path d="M20.7948 18.0571C20.69 18.0063 20.5329 18.0063 20.3757 18.0063H19.3281V18.819H20.3757C20.5329 18.819 20.69 18.819 20.7948 18.7683C20.8996 18.7175 20.9519 18.5651 20.9519 18.4127C21.0043 18.2095 20.8996 18.1079 20.7948 18.0571Z" fill="#228FE0"/>
<path d="M17.1288 11.9619C17.024 11.9111 16.8669 11.9111 16.7097 11.9111H15.6621V12.7238H16.7097C16.8669 12.7238 17.024 12.7238 17.1288 12.673C17.2335 12.6222 17.2859 12.4699 17.2859 12.3175C17.3383 12.1143 17.2335 12.0127 17.1288 11.9619Z" fill="#228FE0"/>
<path d="M23.4668 13.181H24.6716L24.0954 11.7588L23.4668 13.181Z" fill="#228FE0"/>
<path d="M14.5621 20.4953V17.6001L13.2002 19.0223L14.5621 20.4953Z" fill="#228FE0"/>
<path d="M16.5521 17.9556H15.4521V18.8698H16.6045C16.9188 18.8698 17.1283 18.7175 17.1283 18.4127C17.076 18.1079 16.8664 17.9556 16.5521 17.9556Z" fill="#228FE0"/>
<path d="M20.7948 18.0571C20.69 18.0063 20.5329 18.0063 20.3757 18.0063H19.3281V18.819H20.3757C20.5329 18.819 20.69 18.819 20.7948 18.7683C20.8996 18.7175 20.9519 18.5651 20.9519 18.4127C21.0043 18.2095 20.8996 18.1079 20.7948 18.0571Z" fill="#228FE0"/>
<path d="M16.186 20.6985L15.4527 19.9366V20.8001H13.7241L12.6765 19.6319L11.5241 20.8001H8.06696V17.2446H11.5765L12.6765 18.4128L13.2003 17.8033L11.8908 16.5334H7.28125V21.5112H11.8908L12.6765 20.7493L13.3574 21.5112H16.186V20.6985Z" fill="#2FABF7"/>
<path d="M10.7381 15.416L10.0571 14.7049H9.74286V14.4001L8.95714 13.6382L8.43333 14.7049H7.7L6.44286 11.9112V14.7049H4.6619L4.29524 13.943H2.51429L2.14762 14.7049H1.20476L2.77619 11.1493H4.08571L5.55238 14.5525V11.1493H6.3381L5.60476 10.4382H4.81905V11.0478L4.55714 10.4382H2.25238L1.20476 12.8255L0 15.416H1.20476H2.72381L3.0381 14.6541H3.77143L4.1381 15.416H7.07143V14.8065L7.33333 15.416H8.85238L9.11429 14.8065V15.416H10.7381Z" fill="#2FABF7"/>
<path d="M8.32833 13.0795L7.49023 12.2668L8.1188 13.5875L8.32833 13.0795Z" fill="#2FABF7"/>
<path d="M32.1618 21.257C32.6332 20.9523 32.9475 20.4443 32.9999 19.8856L32.2666 19.1745C32.3189 19.3269 32.3713 19.4793 32.3713 19.6824C32.3713 19.9872 32.2666 20.2412 32.057 20.4443C31.8475 20.6475 31.4808 20.7999 30.957 20.7999H29.2808V20.038H30.957C31.1142 20.038 31.2189 20.038 31.3237 19.9364C31.3761 19.8856 31.4285 19.784 31.4285 19.6824C31.4285 19.5809 31.3761 19.4793 31.3237 19.4285C31.2713 19.3777 31.1666 19.3269 31.0094 19.3269C30.1713 19.2761 29.1761 19.3269 29.1761 18.2094C29.1761 17.7015 29.4904 17.2444 30.2761 17.1428L29.6999 16.584C29.5951 16.6348 29.5427 16.6856 29.4904 16.6856V16.3809H27.0808C26.7142 16.3809 26.2428 16.4824 26.0332 16.6856V16.3809H21.738V16.6856C21.4237 16.4317 20.8475 16.3809 20.5856 16.3809H17.757V16.6856C17.4951 16.4317 16.8666 16.3809 16.5523 16.3809H13.4094L12.6761 17.1428L11.9951 16.3809H11.4189L12.9904 17.9047L13.7761 17.092H16.5523C17.2332 17.092 18.0189 17.2951 18.0189 18.2602C18.0189 19.2761 17.2856 19.4793 16.4999 19.4793H15.4523V20.2412L16.238 21.0031V20.2412H16.4999C16.8666 20.2412 17.338 20.2412 17.7047 20.0888V21.4602H20.0618V20.1396H20.1666C20.3237 20.1396 20.3237 20.1396 20.3237 20.292V21.4602H27.4475C27.9189 21.4602 28.3904 21.3586 28.6523 21.1555V21.4602H30.9047C31.3237 21.511 31.7951 21.4602 32.1618 21.257ZM21.738 19.4285C21.8428 19.5809 21.8951 19.784 21.8951 20.0888V20.7999H21.0047V20.3428C21.0047 20.1396 21.0047 19.784 20.8475 19.6316C20.7428 19.4793 20.5332 19.4793 20.2189 19.4793H19.2761V20.7999H18.3856V17.1936H20.3761C20.7951 17.1936 21.1618 17.1936 21.4237 17.3459C21.6856 17.4983 21.8951 17.7523 21.8951 18.1586C21.8951 18.7174 21.5285 19.0221 21.2666 19.1237C21.5285 19.2253 21.6856 19.3269 21.738 19.4285ZM25.3523 17.9555H23.3094V18.6158H25.2999V19.3269H23.3094V20.038H25.3523V20.7999H22.4189V17.1936H25.3523V17.9555ZM27.5523 20.7999H25.8761V20.038H27.5523C27.7094 20.038 27.8142 20.038 27.9189 19.9364C27.9713 19.8856 28.0237 19.784 28.0237 19.6824C28.0237 19.5809 27.9713 19.4793 27.9189 19.4285C27.8666 19.3777 27.7618 19.3269 27.6047 19.3269C26.7666 19.2761 25.7713 19.3269 25.7713 18.2094C25.7713 17.7015 26.0856 17.1428 27.0285 17.1428H28.757V18.0063H27.1332C26.9761 18.0063 26.8713 18.0063 26.7666 18.057C26.6618 18.1078 26.6618 18.2094 26.6618 18.311C26.6618 18.4634 26.7666 18.5142 26.8713 18.565C26.9761 18.6158 27.0808 18.6158 27.1856 18.6158H27.657C28.1285 18.6158 28.4428 18.7174 28.6523 18.9205C28.8094 19.0729 28.9142 19.3269 28.9142 19.6824C28.9142 20.4443 28.4427 20.7999 27.5523 20.7999Z" fill="#228FE0"/>
<path d="M30.0664 18.3111C30.0664 18.4635 30.1188 18.5143 30.2759 18.5651C30.3807 18.6159 30.4855 18.6159 30.5902 18.6159H31.0616C31.3759 18.6159 31.5855 18.6667 31.795 18.7683L31.0093 18.0063H30.5378C30.3807 18.0063 30.2759 18.0063 30.1712 18.0571C30.1188 18.1079 30.0664 18.2095 30.0664 18.3111Z" fill="#228FE0"/>
<path d="M28.2334 15.2634L28.3382 15.4158H28.3905L28.2334 15.2634Z" fill="#228FE0"/>
<path d="M25.3525 12.4697L26.243 14.5523V13.3332L25.3525 12.4697Z" fill="#228FE0"/>
<path d="M16.3951 14.1459H16.4998C16.6046 14.1459 16.6046 14.1459 16.6046 14.2983V15.4158H20.376V15.111C20.6903 15.2634 21.1617 15.4158 21.7903 15.4158H23.3617L23.676 14.6031H24.4094L24.7236 15.4158H27.7617V14.9078L27.0284 14.1967V14.7554H25.2475L24.9855 13.9427H23.1522L22.8379 14.7554H21.8427C21.4236 14.7554 20.8998 14.6538 20.5855 14.3491C20.2713 14.0443 20.1141 13.638 20.1141 12.9777C20.1141 12.4697 20.2189 11.9618 20.5855 11.5554C20.8475 11.2507 21.3189 11.1491 21.8951 11.1491H22.7332V11.911H21.8951C21.5808 11.911 21.4236 11.9618 21.2141 12.1142C21.057 12.2665 20.9522 12.5713 20.9522 12.9269C20.9522 13.3332 21.0046 13.5872 21.2141 13.7904C21.3713 13.9427 21.5808 13.9935 21.8427 13.9935H22.2094L23.4141 11.1999H23.9379L23.2046 10.4888H21.8427C21.2665 10.4888 20.7951 10.5904 20.376 10.7935V10.4888H18.0713V10.7935C17.8094 10.5904 17.4951 10.4888 17.076 10.4888H8.64269L8.0665 11.7586L7.49031 10.4888H5.18555L5.91888 11.1999H6.9665L7.85698 13.0792L8.17126 13.384L9.11412 11.1491H10.5808V14.7554H9.69031V11.9618L8.79983 13.9935L10.3189 15.4665H16.3427L16.3951 14.1459ZM18.8046 11.1491H19.6951V14.7554H18.8046V11.1491ZM14.1951 11.911H12.1522V12.5713H14.1427V13.2824H12.1522V13.9935H14.1951V14.7554H11.2617V11.1491H14.1951V11.911ZM15.6617 14.7046H14.7713V11.0983H16.7617C17.2332 11.0983 17.5475 11.0983 17.8094 11.2507C18.0713 11.4031 18.2284 11.657 18.2284 12.0634C18.2284 12.6221 17.8617 12.9269 17.5998 13.0285C17.8094 13.0792 17.9665 13.2316 18.0189 13.3332C18.1236 13.5364 18.176 13.6888 18.176 13.9935V14.7046H17.2855V14.2475C17.2855 14.0443 17.2855 13.7396 17.1284 13.5364C17.076 13.4348 16.9189 13.4348 16.6046 13.4348H15.6617V14.7046Z" fill="#228FE0"/>
</g>
<defs>
<clipPath id="clip0">
<rect width="33" height="32" fill="white"/>
</clipPath>
</defs>
</svg>
