<svg width="16" height="17" viewBox="0 0 16 17" fill="none" xmlns="http://www.w3.org/2000/svg">
<path d="M12.3333 5.77791C12.3333 4.62864 11.8768 3.52644 11.0641 2.71378C10.2515 1.90113 9.14927 1.44458 8 1.44458C6.85073 1.44458 5.74853 1.90113 4.93587 2.71378C4.12321 3.52644 3.66667 4.62864 3.66667 5.77791C3.66667 10.8335 1.5 12.2779 1.5 12.2779H14.5C14.5 12.2779 12.3333 10.8335 12.3333 5.77791Z" stroke="white" stroke-linecap="round" stroke-linejoin="round"/>
<path d="M9.24889 15.1667C9.12191 15.3856 8.93966 15.5673 8.72039 15.6936C8.50111 15.8199 8.2525 15.8864 7.99944 15.8864C7.74639 15.8864 7.49778 15.8199 7.2785 15.6936C7.05922 15.5673 6.87697 15.3856 6.75 15.1667" stroke="white" stroke-linecap="round" stroke-linejoin="round"/>
</svg>
