<svg width="17" height="16" viewBox="0 0 17 16" fill="none" xmlns="http://www.w3.org/2000/svg">
<g clip-path="url(#clip0)">
<path d="M1.62891 14.648H15.4814C15.7767 14.648 16.0078 14.4248 16.0078 14.1395V2.79064C16.0078 2.50537 15.7767 2.28211 15.4814 2.28211H12.8753V1.848C12.8753 1.56273 12.6442 1.33948 12.3489 1.33948C12.0536 1.33948 11.8225 1.56273 11.8225 1.848V2.28211H5.37769V1.848C5.37769 1.56273 5.1466 1.33948 4.85132 1.33948C4.55604 1.33948 4.32495 1.56273 4.32495 1.848V2.28211H1.62891C1.33363 2.28211 1.10254 2.50537 1.10254 2.79064V14.1519C1.10254 14.4247 1.34647 14.648 1.62891 14.648ZM2.15528 3.29917H4.32495V3.57204C4.32495 3.85731 4.55604 4.08056 4.85132 4.08056C5.1466 4.08056 5.37769 3.85731 5.37769 3.57204V3.29917H11.8225V3.57204C11.8225 3.85731 12.0536 4.08056 12.3489 4.08056C12.6442 4.08056 12.8753 3.85731 12.8753 3.57204V3.29917H14.9679V4.6139H2.15528V3.29917ZM2.15528 5.63095H14.9551V13.6434H2.15528V5.63095Z" fill="#2F80ED"/>
<path d="M12.349 7.96277H4.77442C4.47914 7.96277 4.24805 8.18603 4.24805 8.4713C4.24805 8.75657 4.47914 8.97982 4.77442 8.97982H12.349C12.6443 8.97982 12.8754 8.75657 12.8754 8.4713C12.8754 8.18603 12.6443 7.96277 12.349 7.96277Z" fill="#2F80ED"/>
<path d="M8.56171 10.4186H4.77442C4.47914 10.4186 4.24805 10.6418 4.24805 10.9271C4.24805 11.2124 4.47914 11.4356 4.77442 11.4356H8.56171C8.857 11.4356 9.08808 11.2124 9.08808 10.9271C9.08808 10.6418 8.857 10.4186 8.56171 10.4186Z" fill="#2F80ED"/>
</g>
<defs>
<clipPath id="clip0">
<rect width="16.5614" height="16" fill="white" transform="translate(0.280762)"/>
</clipPath>
</defs>
</svg>
