<svg width="24" height="24" viewBox="0 0 24 24" fill="none" xmlns="http://www.w3.org/2000/svg">
<path d="M9.3392 18.9306C9.19859 18.8991 9.05187 18.9087 8.91659 18.9584L3.59338 20.9121L5.08955 17.7726C5.24046 17.4559 5.15171 17.0769 4.87587 16.8602C2.91729 15.3213 1.75 13.2363 1.75 10.9999C1.75 6.57453 6.27395 2.74994 12.25 2.74994C18.226 2.74994 22.75 6.57453 22.75 10.9999C22.75 15.4254 18.226 19.2499 12.25 19.2499L12.2484 19.2499C11.2698 19.252 10.2941 19.1449 9.3392 18.9306Z" stroke="white" stroke-width="1.5" stroke-miterlimit="10" stroke-linecap="round" stroke-linejoin="round"/>
<path d="M7.75 11.7499C8.16421 11.7499 8.5 11.4142 8.5 10.9999C8.5 10.5857 8.16421 10.2499 7.75 10.2499C7.33579 10.2499 7 10.5857 7 10.9999C7 11.4142 7.33579 11.7499 7.75 11.7499Z" stroke="white" stroke-width="1.5" stroke-miterlimit="10"/>
<path d="M12.25 11.7499C12.6642 11.7499 13 11.4142 13 10.9999C13 10.5857 12.6642 10.2499 12.25 10.2499C11.8358 10.2499 11.5 10.5857 11.5 10.9999C11.5 11.4142 11.8358 11.7499 12.25 11.7499Z" stroke="white" stroke-width="1.5" stroke-miterlimit="10"/>
<path d="M16.75 11.7499C17.1642 11.7499 17.5 11.4142 17.5 10.9999C17.5 10.5857 17.1642 10.2499 16.75 10.2499C16.3358 10.2499 16 10.5857 16 10.9999C16 11.4142 16.3358 11.7499 16.75 11.7499Z" stroke="white" stroke-width="1.5" stroke-miterlimit="10"/>
</svg>
