<svg width="28" height="28" viewBox="0 0 28 28" fill="none" xmlns="http://www.w3.org/2000/svg">
<g clip-path="url(#clip0)">
<path d="M8.77207 1.55062L8.62649 1.37541C7.70814 0.457906 6.5037 0 5.30011 0C4.09483 0 2.89123 0.457906 1.97288 1.3788C0.177652 3.17403 0.141257 6.05181 1.84931 7.89867C3.17817 4.93794 5.68607 2.62386 8.77207 1.55062Z" fill="#F2994A"/>
<path d="M26.0266 1.84012C25.1091 0.920919 23.903 0.463013 22.6977 0.463013C21.4941 0.463013 20.2905 0.920919 19.373 1.84012L19.2139 2.00855C22.3049 3.0818 24.8188 5.40264 26.1485 8.36168C27.8599 6.51482 27.8235 3.63535 26.0266 1.84012Z" fill="#F2994A"/>
<path d="M22.5455 6.35143C20.1874 3.99249 17.0929 2.81006 14.0001 2.81006C10.9057 2.81006 7.81373 3.99164 5.45564 6.35143C0.733536 11.071 0.733536 18.7217 5.45564 23.4446C5.48527 23.4726 5.51658 23.4971 5.54451 23.5259L2.50337 26.5696C2.50337 26.5696 2.40604 27.6792 3.92618 27.9915L7.10698 24.8124C9.17306 26.2539 11.5819 26.986 14.0001 26.986C16.4183 26.986 18.828 26.2539 20.8958 24.8124L24.0724 27.9915C25.6399 28.1303 25.496 26.5696 25.496 26.5696L22.4566 23.5259C22.4837 23.4979 22.5141 23.4734 22.5446 23.4446C27.2667 18.7217 27.2667 11.071 22.5455 6.35143ZM20.4608 21.2558C20.4184 21.2922 20.3778 21.332 20.3372 21.3718L19.8243 21.8796L19.1683 22.3358C17.6414 23.3989 15.8521 23.9643 14.0018 23.9643C12.1499 23.9643 10.364 23.3989 8.83704 22.3358L8.17261 21.8728L7.66561 21.3718C7.62583 21.332 7.58436 21.2956 7.54288 21.2575C5.86361 19.552 4.93679 17.2955 4.93679 14.8968C4.93679 12.4769 5.88054 10.1983 7.59113 8.48776C9.3051 6.77548 11.5802 5.83258 14.0001 5.83258C16.4217 5.83258 18.6968 6.77294 20.4083 8.48776C22.1206 10.1983 23.0643 12.4752 23.0643 14.8968C23.0643 17.3014 22.1349 19.5647 20.4608 21.2558ZM15.2325 8.3371C15.2325 7.64982 14.6722 7.08865 13.9823 7.08865C13.2891 7.08865 12.7297 7.64897 12.7297 8.3371V13.9378V16.4372V16.4423H15.2308V16.4389L20.8323 16.4423C21.5213 16.4423 22.0816 15.8837 22.0816 15.1896C22.0816 14.4973 21.5221 13.9378 20.8323 13.9378H15.2308L15.2325 8.3371Z" fill="#F2994A"/>
</g>
<defs>
<clipPath id="clip0">
<rect width="28" height="28" fill="white"/>
</clipPath>
</defs>
</svg>
