<svg width="28" height="28" viewBox="0 0 28 28" fill="none" xmlns="http://www.w3.org/2000/svg">
<path d="M22.2578 16.4609C21.8052 16.4609 21.4375 16.8287 21.4375 17.2812C21.4375 17.7338 21.8052 18.1016 22.2578 18.1016C22.7104 18.1016 23.0781 17.7338 23.0781 17.2812C23.0781 16.8287 22.7104 16.4609 22.2578 16.4609Z" fill="#E02E24"/>
<path d="M27.1797 4.97656H8.27121V7.4375C8.27121 7.89091 7.90431 8.25781 7.4509 8.25781C6.99748 8.25781 6.63059 7.89091 6.63059 7.4375V4.97656H0.820312C0.366898 4.97656 0 5.34346 0 5.79688V10.7188C0 11.1722 0.366898 11.5391 0.820312 11.5391C2.17733 11.5391 3.28125 12.643 3.28125 14C3.28125 15.357 2.17733 16.4609 0.820312 16.4609C0.366898 16.4609 0 16.8278 0 17.2812V22.2031C0 22.6565 0.366898 23.0234 0.820312 23.0234H6.5625V20.5625C6.5625 20.1091 6.9294 19.7422 7.38281 19.7422C7.83623 19.7422 8.20312 20.1091 8.20312 20.5625V23.0234H27.1797C27.6331 23.0234 28 22.6565 28 22.2031V5.79688C28 5.34346 27.6331 4.97656 27.1797 4.97656ZM8.20312 17.2812C8.20312 17.7347 7.83623 18.1016 7.38281 18.1016C6.9294 18.1016 6.5625 17.7347 6.5625 17.2812V15.6406C6.5625 15.1872 6.9294 14.8203 7.38281 14.8203C7.83623 14.8203 8.20312 15.1872 8.20312 15.6406V17.2812ZM8.20312 12.3594C8.20312 12.8128 7.83623 13.1797 7.38281 13.1797C6.9294 13.1797 6.5625 12.8128 6.5625 12.3594V10.7188C6.5625 10.2653 6.9294 9.89844 7.38281 9.89844C7.83623 9.89844 8.20312 10.2653 8.20312 10.7188V12.3594ZM13.2344 10.7188C13.2344 9.36173 14.3383 8.25781 15.6953 8.25781C17.0523 8.25781 18.1562 9.36173 18.1562 10.7188C18.1562 12.0758 17.0523 13.1797 15.6953 13.1797C14.3383 13.1797 13.2344 12.0758 13.2344 10.7188ZM15.2403 19.6044C14.863 19.3528 14.7612 18.8442 15.0128 18.4668L21.5753 8.62307C21.8261 8.24578 22.3348 8.14483 22.7129 8.39557C23.0902 8.64713 23.1919 9.15578 22.9404 9.53313L16.3779 19.3769C16.1304 19.7486 15.6236 19.8585 15.2403 19.6044ZM22.2578 19.7422C20.9008 19.7422 19.7969 18.6383 19.7969 17.2812C19.7969 15.9242 20.9008 14.8203 22.2578 14.8203C23.6148 14.8203 24.7188 15.9242 24.7188 17.2812C24.7188 18.6383 23.6148 19.7422 22.2578 19.7422Z" fill="#E02E24"/>
<path d="M15.6953 9.89844C15.2427 9.89844 14.875 10.2662 14.875 10.7188C14.875 11.1713 15.2427 11.5391 15.6953 11.5391C16.1479 11.5391 16.5156 11.1713 16.5156 10.7188C16.5156 10.2662 16.1479 9.89844 15.6953 9.89844Z" fill="#E02E24"/>
</svg>
