<?xml version="1.0" encoding="utf-8"?>
<!-- Generator: Adobe Illustrator 16.0.0, SVG Export Plug-In . SVG Version: 6.00 Build 0)  -->
<!DOCTYPE svg PUBLIC "-//W3C//DTD SVG 1.1//EN" "http://www.w3.org/Graphics/SVG/1.1/DTD/svg11.dtd">
<svg version="1.1" id="Layer_1" xmlns="http://www.w3.org/2000/svg" xmlns:xlink="http://www.w3.org/1999/xlink" x="0px" y="0px"
	 width="28px" height="28px" viewBox="0 -3.5 28 28" enable-background="new 0 -3.5 28 28" xml:space="preserve">
<path fill="#2F80ED" d="M27.76,7.709l-4.393-4.394c-0.154-0.154-0.363-0.24-0.58-0.24h-3.574V3.017C19.213,1.354,17.859,0,16.197,0
	H3.017C1.353,0,0,1.354,0,3.017V14c0,1.664,1.353,3.017,3.017,3.017h0.58c0.381,1.878,2.044,3.296,4.032,3.296
	c1.988,0,3.652-1.418,4.033-3.296h4.675c0.381,1.878,2.044,3.296,4.032,3.296s3.651-1.418,4.032-3.296h2.777
	c0.453,0,0.82-0.367,0.82-0.82V8.289C28,8.071,27.914,7.863,27.76,7.709z M7.629,18.672c-1.364,0-2.474-1.111-2.474-2.476
	s1.11-2.475,2.474-2.475c1.365,0,2.475,1.11,2.475,2.475S8.995,18.672,7.629,18.672z M20.37,18.672
	c-1.364,0-2.475-1.111-2.475-2.476s1.11-2.475,2.475-2.475s2.475,1.11,2.475,2.475S21.734,18.672,20.37,18.672z M19.213,7.469V4.716
	h3.234l2.752,2.753H19.213z"/>
</svg>
