<svg width="24" height="24" viewBox="0 0 24 24" fill="none" xmlns="http://www.w3.org/2000/svg">
<g clip-path="url(#clip0)">
<path d="M23.794 9.88898L20.0284 6.12323C19.8966 5.99121 19.7177 5.91724 19.5313 5.91724H16.4687V5.86707C16.4687 4.44122 15.3087 3.28125 13.8829 3.28125H2.586C1.15997 3.28125 0 4.44122 0 5.86707V15.2814C0 16.7073 1.15997 17.8671 2.586 17.8671H3.08313C3.40979 19.4766 4.83545 20.6917 6.53979 20.6917C8.24396 20.6917 9.6698 19.4766 9.99664 17.8671H14.0034C14.3302 19.4766 15.7559 20.6917 17.4602 20.6917C19.1646 20.6917 20.5902 19.4766 20.9171 17.8671H23.2969C23.6852 17.8671 24 17.5523 24 17.1639V10.3861C24 10.1995 23.926 10.0208 23.794 9.88898ZM19.24 7.32349L21.5995 9.68298H16.4687V7.32349H19.24ZM1.40625 15.2814V5.86707C1.40625 5.21667 1.93542 4.6875 2.586 4.6875H13.8829C14.5333 4.6875 15.0624 5.21667 15.0624 5.86707V14.5801C14.5322 15.0725 14.1528 15.7253 14.0034 16.4608H9.99664C9.6698 14.8517 8.24396 13.6366 6.53979 13.6366C4.83563 13.6366 3.40997 14.8517 3.08313 16.4608H2.586C1.93542 16.4608 1.40625 15.9318 1.40625 15.2814ZM6.53979 19.2854C5.3703 19.2854 4.41888 18.3336 4.41888 17.1639C4.41888 15.9944 5.3703 15.0428 6.53979 15.0428C7.70947 15.0428 8.66089 15.9944 8.66089 17.1639C8.66089 18.3336 7.70929 19.2854 6.53979 19.2854ZM17.4602 19.2854C16.2905 19.2854 15.3391 18.3336 15.3391 17.1639C15.3391 15.9944 16.2905 15.0428 17.4602 15.0428C18.6297 15.0428 19.5813 15.9944 19.5813 17.1639C19.5813 18.3336 18.6297 19.2854 17.4602 19.2854ZM20.9171 16.4608C20.5902 14.8517 19.1646 13.6366 17.4602 13.6366C17.116 13.6366 16.7834 13.6871 16.4687 13.7796V11.0892H22.5938V16.461H20.9171V16.4608Z" fill="#333333"/>
</g>
<defs>
<clipPath id="clip0">
<rect width="24" height="24" fill="white"/>
</clipPath>
</defs>
</svg>
