<svg width="18" height="14" viewBox="0 0 18 14" fill="none" xmlns="http://www.w3.org/2000/svg">
<path d="M17.8455 5.31339L15.0213 2.28528C14.9225 2.17913 14.7883 2.11964 14.6485 2.11964H12.3517V2.0793C12.3517 0.932754 11.4815 0 10.4122 0H1.9395C0.86998 0 0 0.932754 0 2.0793V9.64955C0 10.7961 0.86998 11.7287 1.9395 11.7287H2.31235C2.55748 13.0228 3.62672 14 4.90485 14C6.18297 14 7.25235 13.0228 7.49748 11.7287H10.5025C10.7477 13.0228 11.8169 14 13.0952 14C14.3733 14 15.4427 13.0228 15.6877 11.7287H17.4727C17.7639 11.7287 18 11.4756 18 11.1633V5.71314C18 5.5631 17.9445 5.4194 17.8455 5.31339ZM4.90485 12.8692C4.02773 12.8692 3.31416 12.1039 3.31416 11.1633C3.31416 10.2229 4.02773 9.4577 4.90485 9.4577C5.7821 9.4577 6.49567 10.2229 6.49567 11.1633C6.49567 12.1039 5.7821 12.8692 4.90485 12.8692ZM13.0952 12.8692C12.218 12.8692 11.5043 12.1039 11.5043 11.1633C11.5043 10.2229 12.218 9.4577 13.0952 9.4577C13.9723 9.4577 14.686 10.2229 14.686 11.1633C14.686 12.1039 13.9724 12.8692 13.0952 12.8692ZM12.3517 5.14774V3.25043H14.43L16.1996 5.14774H12.3517Z" fill="#219653"/>
</svg>
