<svg width="19" height="16" viewBox="0 0 19 16" fill="none" xmlns="http://www.w3.org/2000/svg">
<g clip-path="url(#clip0)">
<path d="M17.7513 1.59375H1.26785C0.984557 1.59375 0.754883 1.80362 0.754883 2.0625V13.9375C0.754883 14.1964 0.984557 14.4062 1.26785 14.4062H17.7513C18.0346 14.4062 18.2643 14.1964 18.2643 13.9375V2.0625C18.2643 1.80362 18.0346 1.59375 17.7513 1.59375ZM17.2384 13.4688H1.78083V5.34375H17.2384V13.4688ZM17.2384 4.40625H1.78083V2.53125H17.2384V4.40625Z" fill="#9B51E0"/>
<path d="M5.06388 3H3.012C2.7287 3 2.49902 3.20987 2.49902 3.46875C2.49902 3.72763 2.7287 3.9375 3.012 3.9375H5.06388C5.34718 3.9375 5.57685 3.72763 5.57685 3.46875C5.57685 3.20987 5.34718 3 5.06388 3Z" fill="#9B51E0"/>
<path d="M9.50956 6.4375C7.71816 6.4375 6.26074 7.76928 6.26074 9.40625C6.26074 11.0416 7.717 12.375 9.50956 12.375C11.301 12.375 12.7584 11.0432 12.7584 9.40625C12.7584 7.76969 11.3007 6.4375 9.50956 6.4375ZM7.28669 9.40625C7.28669 8.28622 8.28387 7.375 9.50956 7.375C9.93694 7.375 10.3364 7.48603 10.6756 7.67784L7.6181 10.4718C7.40819 10.1618 7.28669 9.79678 7.28669 9.40625ZM9.50956 11.4375C9.08219 11.4375 8.68276 11.3265 8.34354 11.1347L11.401 8.34075C11.6109 8.65072 11.7324 9.01572 11.7324 9.40625C11.7324 10.5263 10.7353 11.4375 9.50956 11.4375Z" fill="#9B51E0"/>
</g>
<defs>
<clipPath id="clip0">
<rect width="17.5094" height="16" fill="white" transform="translate(0.754883)"/>
</clipPath>
</defs>
</svg>
