<svg width="21" height="17" viewBox="0 0 21 17" fill="none" xmlns="http://www.w3.org/2000/svg">
<path d="M10.4788 16.7699C7.56348 14.1108 4.66335 11.5714 1.89267 8.89715C0.373747 7.43056 0.0955763 5.51228 0.910808 3.56234C1.70951 1.64957 3.19952 0.571319 5.30783 0.46253C7.26328 0.360626 8.75328 1.19789 9.84944 2.79255C10.0271 3.05144 10.2116 3.30758 10.4485 3.64359C10.7074 3.26764 10.9139 2.94816 11.1398 2.64107C12.4287 0.883916 14.1845 0.125145 16.3024 0.541023C18.4548 0.96241 19.8223 2.35602 20.2767 4.51252C20.6113 6.10167 20.2905 7.64676 19.1117 8.78009C16.2997 11.4792 13.3954 14.0819 10.4788 16.7699Z" fill="#C4C4C4"/>
</svg>
