<svg width="27" height="40" viewBox="0 0 27 40" fill="none" xmlns="http://www.w3.org/2000/svg">
<path d="M6.95714 40C2.51062 25.3481 11.906 19.9983 11.906 19.9983C11.2486 27.8167 15.6917 33.9077 15.6917 33.9077C17.3257 33.4147 20.4447 31.1105 20.4447 31.1105C20.4447 33.9077 18.799 39.9965 18.799 39.9965C18.799 39.9965 24.5602 35.5418 26.3738 28.143C28.185 20.7442 22.9238 13.3162 22.9238 13.3162C23.2408 18.553 21.4692 23.7035 17.9983 27.6383C18.1719 27.4379 18.3176 27.2152 18.4295 26.974C19.0531 25.7269 20.0543 22.4855 19.468 14.9795C18.6428 4.44302 9.0959 0 9.0959 0C9.91877 6.41977 7.45133 7.89883 1.67144 20.0845C-4.10845 32.2678 6.95714 40 6.95714 40Z" fill="#F2C94C"/>
</svg>
