<?xml version="1.0" encoding="utf-8"?>
<!-- Generator: Adobe Illustrator 16.0.0, SVG Export Plug-In . SVG Version: 6.00 Build 0)  -->
<!DOCTYPE svg PUBLIC "-//W3C//DTD SVG 1.1//EN" "http://www.w3.org/Graphics/SVG/1.1/DTD/svg11.dtd">
<svg version="1.1" id="Layer_1" xmlns="http://www.w3.org/2000/svg" xmlns:xlink="http://www.w3.org/1999/xlink" x="0px" y="0px"
	 width="30px" height="30px" viewBox="0 0 30 30" enable-background="new 0 0 30 30" xml:space="preserve">
<g>
	<path fill="#F3705B" d="M8.943,26.006c-1.233-1.401-2.466-2.859-3.251-4.597c-0.785-1.849-1.009-3.98-0.616-5.998
		c0.393-2.018,1.289-3.924,2.578-5.549c-0.112,1.401,0.393,2.859,1.345,3.924c-0.561-2.691,0.336-5.605,2.13-7.735
		c1.793-2.13,4.26-3.531,6.839-4.484c-1.291,1.345-1.458,3.476-0.954,5.269c0.505,1.794,1.571,3.364,2.523,4.989
		c0.952,1.626,1.85,3.307,1.905,5.156c0.505-0.952,1.065-1.905,1.401-2.97c0.337-1.065,0.505-2.186,0.224-3.251
		c1.01,1.233,1.57,2.466,1.851,4.036c0.279,1.569,0.224,3.195,0.056,4.766c-0.225,1.737-0.673,3.53-1.625,4.988
		c-1.121,1.736-2.915,2.97-4.877,3.644C14.997,28.808,11.578,28.305,8.943,26.006z"/>
	<path fill="#FFD15D" d="M13.203,28.079c4.597,1.794,9.137-3.643,6.614-7.847c0-0.057-0.056-0.057-0.056-0.112
		c0.225,2.298-0.337,3.98-1.401,4.933c0.561-1.346,0.168-2.914-0.505-4.26c-0.672-1.289-1.625-2.466-2.354-3.699
		c-0.728-1.289-1.289-2.747-0.953-4.205c-1.345,1.009-2.298,2.522-2.69,4.148c-0.393,1.625-0.168,3.42,0.561,4.934
		c-0.841-0.617-1.458-1.627-1.514-2.691c-0.896,1.064-1.457,2.467-1.401,3.867C9.504,25.334,11.242,27.295,13.203,28.079z"/>
</g>
</svg>
