<svg width="24" height="24" viewBox="0 0 24 24" fill="none" xmlns="http://www.w3.org/2000/svg">
<g clip-path="url(#clip0)">
<path d="M14.5584 11.2833C15.6336 10.4339 16.3245 9.12199 16.3245 7.65237C16.3245 5.09768 14.2372 3.01929 11.6717 3.01929C9.10612 3.01929 7.01887 5.09768 7.01887 7.65237C7.01887 7.8198 7.02806 7.98518 7.04555 8.14807C6.5167 7.85927 5.91019 7.69469 5.26566 7.69469C3.21755 7.69469 1.55133 9.35421 1.55133 11.394C1.55133 12.4575 2.00489 13.417 2.72869 14.0924C1.12383 14.7971 0 16.4013 0 18.2634V22.5652C0 23.3563 0.643594 23.9999 1.4347 23.9999H6.64678H7.11553H16.6965C17.6134 23.9999 18.3592 23.254 18.3592 22.3371V16.6947C18.3592 14.2076 16.7726 12.0843 14.5584 11.2833ZM11.6717 4.42554C13.4618 4.42554 14.9182 5.87308 14.9182 7.65237C14.9182 9.43165 13.4618 10.8792 11.6717 10.8792C9.88153 10.8792 8.42512 9.43165 8.42512 7.65237C8.42512 5.87308 9.88153 4.42554 11.6717 4.42554ZM5.26566 9.10094C6.53836 9.10094 7.57378 10.1296 7.57378 11.394C7.57378 11.5774 7.55166 11.7594 7.50881 11.9355C6.86217 12.3754 6.30942 12.9435 5.88745 13.6031C5.68622 13.6588 5.47786 13.6871 5.26566 13.6871C3.993 13.6871 2.95758 12.6585 2.95758 11.394C2.95758 10.1297 3.993 9.10094 5.26566 9.10094ZM1.40625 22.5652V18.2634C1.40625 16.5283 2.8178 15.1168 4.55283 15.1168H5.20416C5.06086 15.6184 4.98408 16.1478 4.98408 16.6947V22.3371C4.98408 22.4244 4.99092 22.51 5.00391 22.5936H1.4347C1.42064 22.5936 1.40625 22.5792 1.40625 22.5652ZM16.953 22.3371C16.953 22.4762 16.8355 22.5936 16.6965 22.5936H7.11558H6.64683C6.5078 22.5936 6.39033 22.4762 6.39033 22.3371V16.6947C6.39033 14.2982 8.34009 12.3484 10.7367 12.3484H12.6067C15.0032 12.3484 16.953 14.2982 16.953 16.6947V22.3371Z" fill="#333333"/>
<path d="M23.2966 1.98553H22.0043V0.703125C22.0043 0.314812 21.6894 0 21.3011 0C20.9128 0 20.598 0.314812 20.598 0.703125V1.98553H19.3057C18.9174 1.98553 18.6025 2.30034 18.6025 2.68866C18.6025 3.07697 18.9174 3.39178 19.3057 3.39178H20.598V4.67423C20.598 5.06255 20.9128 5.37736 21.3011 5.37736C21.6894 5.37736 22.0043 5.06255 22.0043 4.67423V3.39178H23.2966C23.685 3.39178 23.9998 3.07697 23.9998 2.68866C23.9998 2.30034 23.685 1.98553 23.2966 1.98553Z" fill="#333333"/>
</g>
<defs>
<clipPath id="clip0">
<rect width="24" height="24" fill="white"/>
</clipPath>
</defs>
</svg>
