<svg width="20" height="20" viewBox="0 0 20 20" fill="none" xmlns="http://www.w3.org/2000/svg">
<g clip-path="url(#clip0)">
<path d="M6.33247 14.4105C6.20356 13.0789 6.39692 11.923 6.90786 10.9746C7.42622 10.0125 8.23751 9.32461 9.2543 8.98516C9.33829 8.95703 9.42305 8.93164 9.50821 8.90899C9.23438 8.5875 9.08204 8.18203 9.08204 7.7543V5.37695C9.08204 3.88133 7.99067 2.63605 6.56262 2.39465C6.54376 1.9725 6.43172 1.41895 6.04719 0.942109C5.54309 0.316953 4.73391 0 3.64215 0V1.17188C4.3579 1.17188 4.8586 1.34016 5.13028 1.67199C5.32083 1.90473 5.3804 2.19535 5.39274 2.4257C4.04274 2.72902 3.03133 3.93695 3.03133 5.37695V7.7375C3.03133 8.29492 2.77586 8.82578 2.34774 9.15742C1.62001 9.72187 1.02161 10.4559 0.616919 11.2801C0.191529 12.1461 -0.0155025 13.0785 0.000903743 14.0504C0.0571537 17.3465 2.76688 20 6.05708 20C6.08169 20 6.10668 20 6.13168 19.9996C6.95747 19.9895 7.76719 19.8102 8.51211 19.4793C8.16485 19.0949 7.84336 18.6492 7.55313 18.1469C6.89766 17.0125 6.45278 15.6504 6.33247 14.4105Z" fill="#F2994A"/>
<path d="M19.5263 11.53C19.1522 10.8354 18.5693 10.3398 17.8405 10.0964C16.6504 9.69914 15.2683 10.0398 14.2199 10.8978C14.294 10.0873 14.6433 9.11395 15.7971 8.65254L15.362 7.56445C14.0776 8.07809 13.2909 9.10523 13.087 10.5348C13.0765 10.6087 13.0678 10.6819 13.0608 10.754C12.0384 10.0028 10.7467 9.72219 9.62551 10.0965C8.89684 10.3398 8.31391 10.8355 7.93981 11.53C7.54117 12.2701 7.39289 13.2011 7.4991 14.2973C7.70485 16.4202 9.02117 19.0496 10.8678 19.7753C11.1573 19.8891 11.5076 19.9759 11.9029 19.9759C12.443 19.9759 13.0668 19.8138 13.733 19.3368C14.8867 20.1629 15.913 20.0446 16.5982 19.7754C18.4448 19.0496 19.7611 16.4202 19.9669 14.2974C20.0732 13.2011 19.9249 12.27 19.5263 11.53Z" fill="#F2994A"/>
</g>
<defs>
<clipPath id="clip0">
<rect width="20" height="20" fill="white"/>
</clipPath>
</defs>
</svg>
