<svg width="32" height="32" viewBox="0 0 32 32" fill="none" xmlns="http://www.w3.org/2000/svg">
<path d="M29.7275 14.703H26.5389H26.1124C25.1698 14.703 24.4053 15.4675 24.4053 16.4133V16.5987C24.4053 17.5454 25.1698 18.3104 26.1137 18.3104H29.3055H29.7275C30.6719 18.3104 31.4387 17.5422 31.4387 16.5987L31.4369 16.411C31.4387 15.4675 30.6719 14.703 29.7275 14.703Z" fill="#219653"/>
<path d="M29.7292 10.4362H28.9761V2.16195C28.9761 0.972742 28.0033 0 26.8137 0H12.5473C11.358 0 10.3853 0.973198 10.3853 2.16195V8.09842C7.50772 9.72513 4.53972 11.4245 4.53332 11.4286C2.92213 12.0917 0.561523 14.2313 0.561523 19.2836C0.561523 19.7348 0.591208 20.1513 0.632766 20.5536C0.64601 20.6714 0.660624 20.7847 0.676608 20.8984C0.718167 21.1939 0.770229 21.4766 0.832338 21.7451C0.854716 21.841 0.87207 21.941 0.896274 22.0328C0.979848 22.3434 1.07667 22.6347 1.18536 22.9119C1.24016 23.0494 1.29953 23.1745 1.35935 23.3033C1.42329 23.439 1.48768 23.5723 1.55664 23.697C1.63656 23.8472 1.71648 23.992 1.80417 24.1295C1.82517 24.1614 1.84801 24.1907 1.86947 24.2231C3.95013 27.3683 7.78858 27.3824 7.78858 27.3824H10.3853V29.839C10.3853 31.0268 11.358 31.9995 12.5473 31.9995H26.8132C28.0029 31.9995 28.9756 31.0263 28.9756 29.839V26.8426H29.3053V26.8408H29.726C30.6718 26.8408 31.4385 26.0759 31.4367 25.1301L31.4385 24.9437C31.4367 23.9993 30.6718 23.2366 29.7273 23.2366H29.3053H26.5383H26.1117C25.1673 23.2366 24.4047 24.0011 24.4047 24.9451V25.1346C24.4047 26.0763 25.1691 26.844 26.1131 26.844H27.4713V28.0013H11.8892V12.478C12.6719 11.9816 13.3967 11.5039 13.81 11.1838C15.9039 9.56438 17.8914 8.2747 18.1604 7.10512C18.5107 5.58755 17.3457 4.30883 15.3248 5.35876C14.6882 5.6894 13.3816 6.41416 11.8892 7.25218V3.42606L27.4713 3.42834V10.4353H26.5383V10.4371H26.114C25.1691 10.4371 24.4024 11.2016 24.4024 12.1483V12.3337C24.4024 13.28 25.1691 14.0426 26.1117 14.0426H26.536H29.3031H29.7282C30.6718 14.0426 31.4367 13.2782 31.4367 12.3337V12.1433C31.4385 11.203 30.674 10.4362 29.7292 10.4362ZM19.6784 28.7603C20.2776 28.7603 20.7608 29.2439 20.7608 29.8417C20.7608 30.4409 20.2771 30.9227 19.6784 30.9227C19.0815 30.9227 18.5993 30.4395 18.5993 29.8417C18.6002 29.2457 19.0838 28.7603 19.6784 28.7603ZM21.9632 2.08158H17.3982C17.2548 2.08158 17.136 1.96512 17.136 1.82126C17.136 1.67512 17.2548 1.55867 17.3982 1.55867H21.9632C22.1066 1.55867 22.2235 1.67467 22.2235 1.82126C22.2235 1.96466 22.1066 2.08158 21.9632 2.08158Z" fill="#219653"/>
<path d="M29.7269 18.9698H29.3049H26.1117C25.1691 18.9698 24.4023 19.7366 24.4023 20.6805V20.8678C24.4023 21.8127 25.1673 22.5772 26.1117 22.5772H26.536H29.303H29.7259C30.6717 22.5772 31.4344 21.8127 31.4367 20.8678V20.6805C31.4362 19.7366 30.6736 18.9698 29.7269 18.9698Z" fill="#219653"/>
</svg>
