<svg width="26" height="26" viewBox="0 0 26 26" fill="none" xmlns="http://www.w3.org/2000/svg">
<path fill-rule="evenodd" clip-rule="evenodd" d="M13 25C19.6274 25 25 19.6274 25 13C25 6.37258 19.6274 1 13 1C6.37258 1 1 6.37258 1 13C1 19.6274 6.37258 25 13 25Z" stroke="#BDBDBD"/>
<path fill-rule="evenodd" clip-rule="evenodd" d="M17.5 11C18.3284 11 19 10.3284 19 9.5C19 8.67157 18.3284 8 17.5 8C16.6716 8 16 8.67157 16 9.5C16 10.3284 16.6716 11 17.5 11Z" fill="#BDBDBD"/>
<path fill-rule="evenodd" clip-rule="evenodd" d="M8.5 11C9.32843 11 10 10.3284 10 9.5C10 8.67157 9.32843 8 8.5 8C7.67157 8 7 8.67157 7 9.5C7 10.3284 7.67157 11 8.5 11Z" fill="#BDBDBD"/>
<path d="M6.09058 15V14.5H5.50406L5.59688 15.0791L6.09058 15ZM19.0108 15L19.5045 15.0791L19.5973 14.5H19.0108V15ZM5.59688 15.0791C6.15219 18.544 9.03882 21.2143 12.5507 21.2143V20.2143C9.57084 20.2143 7.0685 17.9422 6.58428 14.9209L5.59688 15.0791ZM12.5507 21.2143C16.0626 21.2143 18.9492 18.544 19.5045 15.0791L18.5171 14.9209C18.0329 17.9422 15.5305 20.2143 12.5507 20.2143V21.2143ZM19.0108 14.5H6.09058V15.5H19.0108V14.5Z" fill="#BDBDBD"/>
</svg>
