<?xml version="1.0" encoding="utf-8"?>
<!-- Generator: Adobe Illustrator 16.0.0, SVG Export Plug-In . SVG Version: 6.00 Build 0)  -->
<!DOCTYPE svg PUBLIC "-//W3C//DTD SVG 1.1//EN" "http://www.w3.org/Graphics/SVG/1.1/DTD/svg11.dtd">
<svg version="1.1" id="Layer_1" xmlns="http://www.w3.org/2000/svg" xmlns:xlink="http://www.w3.org/1999/xlink" x="0px" y="0px"
	 width="30px" height="30px" viewBox="0 0 30 30" enable-background="new 0 0 30 30" xml:space="preserve">
<g>
	<path fill="#FFD15D" d="M18.09,22.133c0.338-1.125,1.011-2.136,1.908-2.921c1.685-1.405,2.753-3.537,2.753-5.897
		c0-4.38-3.65-7.974-8.144-7.75C10.62,5.734,7.363,9.103,7.25,13.09c-0.056,2.472,1.011,4.661,2.752,6.122
		c0.955,0.785,1.628,1.796,1.965,2.921H18.09L18.09,22.133z"/>
	<path fill="#FFFFFF" d="M14.27,22.243h0.505l-2.246-8.366c0.058,0,0.112,0,0.169,0c0.281,0,0.562-0.112,0.787-0.337
		c0.112-0.112,0.224-0.169,0.393-0.169s0.281,0.057,0.393,0.169c0.394,0.449,1.068,0.449,1.46,0
		c0.113-0.112,0.224-0.169,0.393-0.169c0.112,0,0.281,0.057,0.394,0.169c0.226,0.225,0.449,0.337,0.787,0.337
		c0.055,0,0.112,0,0.169,0l-2.191,8.366h0.505l2.303-8.759c0-0.113,0-0.225-0.112-0.281c-0.114-0.056-0.227,0-0.281,0.056
		c-0.112,0.112-0.224,0.168-0.338,0.168c-0.168,0-0.28-0.057-0.447-0.168c-0.226-0.225-0.45-0.337-0.731-0.337
		c-0.281,0-0.506,0.112-0.729,0.337c-0.225,0.225-0.562,0.225-0.787,0c-0.169-0.225-0.45-0.337-0.73-0.337l0,0
		c-0.281,0-0.562,0.112-0.73,0.337c-0.112,0.112-0.28,0.168-0.449,0.168c-0.113,0-0.281-0.057-0.336-0.168
		c-0.056-0.056-0.169-0.112-0.281-0.056c-0.113,0.056-0.169,0.168-0.113,0.281L14.27,22.243z"/>
	<g>
		<path fill="#354B5E" d="M13.259,27.298c0.281,0.676,0.954,1.181,1.741,1.181s1.461-0.505,1.742-1.181H13.259z"/>
		<path fill="#354B5E" d="M17.078,27.355h-4.099c-0.562,0-1.012-0.45-1.012-1.013v-4.267h6.123v4.267
			C18.09,26.905,17.64,27.355,17.078,27.355z"/>
	</g>
	<g>
		<path fill="#435B6C" d="M18.033,24.212h-6.066c-0.336,0-0.618-0.283-0.618-0.618l0,0c0-0.338,0.281-0.62,0.618-0.62h6.066
			c0.336,0,0.618,0.282,0.618,0.62l0,0C18.651,23.929,18.369,24.212,18.033,24.212z"/>
		<path fill="#435B6C" d="M18.033,26.175h-6.066c-0.336,0-0.618-0.28-0.618-0.617l0,0c0-0.338,0.281-0.618,0.618-0.618h6.066
			c0.336,0,0.618,0.28,0.618,0.618l0,0C18.651,25.895,18.369,26.175,18.033,26.175z"/>
	</g>
	<g>
		<path fill="#FFD15D" d="M15,1.522c-0.28,0-0.562,0.225-0.562,0.562v1.91c0,0.281,0.225,0.562,0.562,0.562
			c0.337,0,0.562-0.225,0.562-0.562v-1.91C15.562,1.747,15.281,1.522,15,1.522z"/>
		<path fill="#FFD15D" d="M7.475,4.948c-0.225-0.225-0.562-0.225-0.787,0c-0.225,0.225-0.225,0.562,0,0.786l1.348,1.348
			c0.225,0.224,0.562,0.224,0.786,0c0.225-0.224,0.225-0.562,0-0.786L7.475,4.948z"/>
		<path fill="#FFD15D" d="M5.734,12.698h-1.91c-0.281,0-0.562,0.225-0.562,0.562l0,0c0,0.281,0.225,0.562,0.562,0.562h1.91
			c0.28,0,0.562-0.225,0.562-0.562l0,0C6.296,12.979,6.015,12.698,5.734,12.698z"/>
		<path fill="#FFD15D" d="M8.037,19.437l-1.348,1.349c-0.225,0.223-0.225,0.563,0,0.785c0.225,0.226,0.562,0.226,0.787,0
			l1.347-1.348c0.225-0.226,0.225-0.561,0-0.786C8.598,19.212,8.261,19.212,8.037,19.437z"/>
		<path fill="#FFD15D" d="M21.964,19.437c-0.225-0.225-0.562-0.225-0.786,0c-0.224,0.226-0.224,0.561,0,0.786l1.348,1.348
			c0.226,0.226,0.563,0.226,0.787,0c0.224-0.223,0.224-0.563,0-0.785L21.964,19.437z"/>
		<path fill="#FFD15D" d="M26.176,12.698h-1.908c-0.282,0-0.563,0.225-0.563,0.562l0,0c0,0.281,0.224,0.562,0.563,0.562h1.908
			c0.28,0,0.562-0.225,0.562-0.562l0,0C26.737,12.979,26.514,12.698,26.176,12.698z"/>
		<path fill="#FFD15D" d="M22.525,4.948l-1.348,1.348c-0.224,0.224-0.224,0.562,0,0.786c0.225,0.224,0.562,0.224,0.786,0
			l1.349-1.348c0.224-0.225,0.224-0.562,0-0.786C23.089,4.723,22.751,4.723,22.525,4.948z"/>
	</g>
</g>
</svg>
