<svg width="60" height="60" viewBox="0 0 60 60" fill="none" xmlns="http://www.w3.org/2000/svg">
<g clip-path="url(#clip0)">
<path d="M29.9847 55.4715C31.59 55.4715 32.8913 54.1689 32.8913 52.5622C32.8913 50.9554 31.59 49.6528 29.9847 49.6528C28.3795 49.6528 27.0781 50.9554 27.0781 52.5622C27.0781 54.1689 28.3795 55.4715 29.9847 55.4715Z" fill="white"/>
<path d="M44.4711 55.4715C46.0764 55.4715 47.3777 54.1689 47.3777 52.5622C47.3777 50.9554 46.0764 49.6528 44.4711 49.6528C42.8658 49.6528 41.5645 50.9554 41.5645 52.5622C41.5645 54.1689 42.8658 55.4715 44.4711 55.4715Z" fill="white"/>
<path d="M18.6761 37.9926L16.9604 18.6335C16.8656 17.5963 16.3876 16.6318 15.6199 15.9287C14.8522 15.2256 13.85 14.8345 12.8094 14.8318H10.0653C9.31948 14.8312 8.60439 14.5342 8.07721 14.0061C7.55003 13.478 7.25391 12.762 7.25391 12.0155C7.25575 11.2701 7.55269 10.5559 8.07967 10.0293C8.60665 9.50271 9.32069 9.20667 10.0653 9.20605H13.4177C15.8243 9.20552 18.1438 10.1076 19.9187 11.7345C21.6936 13.3613 22.7951 15.5948 23.0058 17.9945L24.6309 36.5519C24.7663 38.0683 25.4651 39.4788 26.5892 40.5045C27.7132 41.5302 29.1808 42.0966 30.7018 42.0917H45.2651C46.0398 42.0917 46.8069 41.939 47.5226 41.6422C48.2383 41.3455 48.8886 40.9106 49.4364 40.3623C49.9842 39.814 50.4187 39.163 50.7152 38.4467C51.0116 37.7303 51.1642 36.9625 51.1642 36.187C51.1642 35.4116 51.0116 34.6438 50.7152 33.9274C50.4187 33.2111 49.9842 32.5601 49.4364 32.0118C48.8886 31.4636 48.2383 31.0286 47.5226 30.7319C46.8069 30.4351 46.0398 30.2824 45.2651 30.2824H34.1703V27.7007H44.6174C47.2404 27.7007 49.7559 28.7437 51.6106 30.6001C53.4653 32.4566 54.5073 34.9745 54.5073 37.5999C54.5073 40.2255 53.4654 42.7436 51.6108 44.6005C49.7561 46.4573 47.2406 47.5007 44.6174 47.5014H29.0628C26.4572 47.5034 23.9454 46.5282 22.0227 44.768C20.1 43.0078 18.906 40.5905 18.6761 37.9926Z" fill="white"/>
<path d="M39.3695 19.1818H28.8133C28.6848 19.1818 28.5575 19.1564 28.4388 19.1071C28.32 19.0578 28.2122 18.9856 28.1214 18.8945C28.0306 18.8034 27.9587 18.6953 27.9097 18.5763C27.8607 18.4573 27.8356 18.3299 27.8359 18.2012C27.8356 18.0722 27.8608 17.9445 27.9098 17.8252C27.9589 17.706 28.0311 17.5976 28.1221 17.5063C28.2131 17.415 28.3212 17.3426 28.4402 17.2931C28.5592 17.2437 28.6868 17.2183 28.8156 17.2183H39.5854C41.3162 17.2183 42.9761 17.9065 44.2 19.1314C45.4238 20.3564 46.1114 22.0179 46.1114 23.7503C46.1108 25.4825 45.423 27.1436 44.1993 28.3685C42.9756 29.5933 41.3161 30.2817 39.5854 30.2823H33.489C33.3196 30.2823 33.1518 30.2489 32.9954 30.184C32.8389 30.119 32.6967 30.0238 32.5771 29.9038C32.4574 29.7838 32.3625 29.6413 32.2979 29.4846C32.2333 29.3279 32.2002 29.1599 32.2005 28.9903C32.2002 28.8209 32.2333 28.6531 32.298 28.4964C32.3626 28.3398 32.4575 28.1975 32.5772 28.0777C32.6969 27.9579 32.8391 27.8629 32.9955 27.7982C33.152 27.7335 33.3197 27.7004 33.489 27.7007H39.3765C40.5051 27.7007 41.5875 27.2519 42.3856 26.4531C43.1836 25.6543 43.632 24.5709 43.632 23.4412C43.6323 22.8812 43.5222 22.3266 43.308 21.8093C43.0938 21.2919 42.7797 20.8219 42.3838 20.4262C41.9878 20.0306 41.5178 19.717 41.0005 19.5034C40.4833 19.2899 39.929 19.1806 39.3695 19.1818Z" fill="white"/>
<path d="M19.0147 45.2471H7.87117C7.58705 45.2448 7.31196 45.347 7.09803 45.5341C6.88409 45.7213 6.74617 45.9805 6.71038 46.2626C6.69515 46.4191 6.71282 46.5771 6.76225 46.7264C6.81169 46.8757 6.89179 47.0129 6.9974 47.1294C7.10302 47.2458 7.23181 47.3388 7.37549 47.4025C7.51918 47.4661 7.67458 47.4989 7.8317 47.4988H18.9753C19.2594 47.5011 19.5345 47.399 19.7484 47.2118C19.9623 47.0247 20.1003 46.7655 20.1361 46.4833C20.1513 46.3268 20.1336 46.1688 20.0842 46.0196C20.0348 45.8703 19.9547 45.733 19.849 45.6166C19.7434 45.5001 19.6146 45.4071 19.4709 45.3435C19.3273 45.2798 19.1719 45.247 19.0147 45.2471Z" fill="white"/>
<path d="M17.1981 43.925C17.3554 43.9248 17.5108 43.8916 17.6545 43.8277C17.7982 43.7639 17.9269 43.6706 18.0325 43.554C18.1381 43.4374 18.2182 43.3 18.2676 43.1506C18.317 43.0012 18.3347 42.8431 18.3195 42.6864C18.2837 42.4043 18.1457 42.1451 17.9318 41.9579C17.7179 41.7708 17.4428 41.6687 17.1587 41.6709H11.4337C11.1495 41.6687 10.8745 41.7708 10.6605 41.9579C10.4466 42.1451 10.3087 42.4043 10.2729 42.6864C10.2577 42.8431 10.2753 43.0012 10.3247 43.1506C10.3742 43.3 10.4542 43.4374 10.5598 43.554C10.6654 43.6706 10.7941 43.7639 10.9378 43.8277C11.0815 43.8916 11.237 43.9248 11.3942 43.925H17.1981Z" fill="white"/>
</g>
<defs>
<clipPath id="clip0">
<rect width="60" height="60" fill="white"/>
</clipPath>
</defs>
</svg>
