<svg width="32" height="32" viewBox="0 0 32 32" fill="none" xmlns="http://www.w3.org/2000/svg">
<path d="M31.9998 16.0001C31.9998 21.2827 27.7331 25.6001 22.3998 25.6001C17.1173 25.6001 12.7998 21.2827 12.7998 16.0001C12.7998 10.7176 17.0665 6.40015 22.349 6.40015C27.7331 6.40015 31.9998 10.7176 31.9998 16.0001Z" fill="#FFB600"/>
<path d="M22.3998 6.40015C27.6823 6.40015 31.9998 10.7176 31.9998 16.0001C31.9998 21.2827 27.7331 25.6001 22.3998 25.6001C17.1173 25.6001 12.7998 21.2827 12.7998 16.0001" fill="#F7981D"/>
<path d="M22.4004 6.40015C27.6829 6.40015 32.0004 10.7176 32.0004 16.0001C32.0004 21.2827 27.7337 25.6001 22.4004 25.6001" fill="#FF8500"/>
<path d="M9.49841 6.40015C4.26667 6.45094 0 10.7176 0 16.0001C0 21.2827 4.26667 25.6001 9.6 25.6001C12.0889 25.6001 14.3238 24.6351 16.0508 23.1113C16.4063 22.8065 16.7111 22.4509 17.0159 22.0954H15.0349C14.781 21.7906 14.527 21.4351 14.3238 21.1303H17.727C17.9302 20.8255 18.1333 20.47 18.2857 20.1144H13.7651C13.6127 19.8097 13.4603 19.4541 13.3587 19.0986H18.6413C18.946 18.1335 19.1492 17.1176 19.1492 16.0509C19.1492 15.3398 19.0476 14.6795 18.946 14.0192H13.054C13.1048 13.6636 13.2063 13.3589 13.3079 13.0033H18.5905C18.4889 12.6478 18.3365 12.2922 18.1841 11.9874H13.7143C13.8667 11.6319 14.0698 11.3271 14.273 10.9716H17.6762C17.473 10.616 17.219 10.2605 16.9143 9.9557H15.0349C15.3397 9.60015 15.6444 9.29538 16 8.99062C14.3238 7.41602 12.0381 6.50173 9.54921 6.50173C9.54921 6.40015 9.54921 6.40015 9.49841 6.40015Z" fill="#FF5050"/>
<path d="M0 16.0001C0 21.2827 4.26667 25.6001 9.6 25.6001C12.0889 25.6001 14.3238 24.635 16.0508 23.1112C16.4063 22.8065 16.7111 22.4509 17.0159 22.0954H15.0349C14.781 21.7906 14.527 21.435 14.3238 21.1303H17.727C17.9302 20.8255 18.1333 20.47 18.2857 20.1144H13.7651C13.6127 19.8096 13.4603 19.4541 13.3587 19.0985H18.6413C18.946 18.1335 19.1492 17.1176 19.1492 16.0509C19.1492 15.3398 19.0476 14.6795 18.946 14.0192H13.054C13.1048 13.6636 13.2063 13.3589 13.3079 13.0033H18.5905C18.4889 12.6477 18.3365 12.2922 18.1841 11.9874H13.7143C13.8667 11.6319 14.0698 11.3271 14.273 10.9716H17.6762C17.473 10.616 17.219 10.2604 16.9143 9.95568H15.0349C15.3397 9.60012 15.6444 9.29536 16 8.9906C14.3238 7.416 12.0381 6.50171 9.54921 6.50171H9.49841" fill="#E52836"/>
<path d="M9.59963 25.6001C12.0885 25.6001 14.3234 24.635 16.0504 23.1112C16.406 22.8065 16.7107 22.4509 17.0155 22.0954H15.0346C14.7806 21.7906 14.5266 21.435 14.3234 21.1303H17.7266C17.9298 20.8255 18.133 20.47 18.2854 20.1144H13.7647C13.6123 19.8096 13.46 19.4541 13.3584 19.0985H18.6409C18.9457 18.1335 19.1488 17.1176 19.1488 16.0509C19.1488 15.3398 19.0473 14.6795 18.9457 14.0192H13.0536C13.1044 13.6636 13.206 13.3589 13.3076 13.0033H18.5901C18.4885 12.6477 18.3361 12.2922 18.1838 11.9874H13.7139C13.8663 11.6319 14.0695 11.3271 14.2727 10.9716H17.6758C17.4727 10.616 17.2187 10.2604 16.9139 9.95568H15.0346C15.3393 9.60012 15.6441 9.29536 15.9996 8.9906C14.3234 7.416 12.0377 6.50171 9.54884 6.50171H9.49805" fill="#CB2026"/>
<path d="M13.0033 18.4381L13.1557 17.5746C13.1049 17.5746 13.0033 17.6254 12.9017 17.6254C12.5461 17.6254 12.4954 17.4222 12.5461 17.3206L12.8509 15.5429H13.4096L13.562 14.5778H13.0541L13.1557 13.9683H12.1398C12.1398 13.9683 11.5303 17.3206 11.5303 17.727C11.5303 18.3365 11.8858 18.5905 12.343 18.5905C12.6477 18.5905 12.9017 18.4889 13.0033 18.4381Z" fill="white"/>
<path d="M13.3584 16.8129C13.3584 18.2351 14.3235 18.5907 15.1362 18.5907C15.8981 18.5907 16.2028 18.4383 16.2028 18.4383L16.406 17.4732C16.406 17.4732 15.8473 17.7272 15.3394 17.7272C14.2219 17.7272 14.4251 16.9145 14.4251 16.9145H16.5076C16.5076 16.9145 16.66 16.2542 16.66 16.0002C16.66 15.3399 16.3044 14.5272 15.187 14.5272C14.1203 14.4256 13.3584 15.5431 13.3584 16.8129ZM15.1362 15.3399C15.6949 15.3399 15.5933 16.0002 15.5933 16.051H14.4759C14.4759 16.0002 14.5774 15.3399 15.1362 15.3399Z" fill="white"/>
<path d="M21.5866 18.4382L21.7898 17.3208C21.7898 17.3208 21.2819 17.5747 20.9263 17.5747C20.2152 17.5747 19.9104 17.016 19.9104 16.4065C19.9104 15.1874 20.52 14.5271 21.2311 14.5271C21.739 14.5271 22.1454 14.8319 22.1454 14.8319L22.2977 13.7652C22.2977 13.7652 21.6882 13.5112 21.1295 13.5112C19.9612 13.5112 18.793 14.5271 18.793 16.4573C18.793 17.7271 19.4025 18.5906 20.6215 18.5906C21.0279 18.5906 21.5866 18.4382 21.5866 18.4382Z" fill="white"/>
<path d="M7.41551 14.4255C6.7044 14.4255 6.19646 14.6287 6.19646 14.6287L6.04408 15.4922C6.04408 15.4922 6.50122 15.289 7.16154 15.289C7.5171 15.289 7.82186 15.3398 7.82186 15.6446C7.82186 15.8478 7.77107 15.8986 7.77107 15.8986C7.77107 15.8986 7.4663 15.8986 7.31392 15.8986C6.45043 15.8986 5.48535 16.2541 5.48535 17.4224C5.48535 18.3366 6.09488 18.5398 6.45043 18.5398C7.16154 18.5398 7.4663 18.0827 7.5171 18.0827L7.4663 18.489H8.38059L8.78694 15.6954C8.78694 14.4763 7.77107 14.4255 7.41551 14.4255ZM7.61868 16.7113C7.61868 16.8636 7.5171 17.6763 6.90757 17.6763C6.60281 17.6763 6.50122 17.4224 6.50122 17.27C6.50122 17.016 6.65361 16.6605 7.41551 16.6605C7.56789 16.7113 7.61868 16.7113 7.61868 16.7113Z" fill="white"/>
<path d="M9.75224 18.5398C10.0062 18.5398 11.276 18.5906 11.276 17.2192C11.276 15.9494 10.057 16.2033 10.057 15.6954C10.057 15.4414 10.2602 15.3398 10.6157 15.3398C10.7681 15.3398 11.3268 15.3906 11.3268 15.3906L11.4792 14.4763C11.4792 14.4763 11.1237 14.3748 10.5141 14.3748C9.75224 14.3748 8.99033 14.6795 8.99033 15.6954C8.99033 16.8636 10.2602 16.7621 10.2602 17.2192C10.2602 17.524 9.90462 17.5748 9.65065 17.5748C9.19351 17.5748 8.73637 17.4224 8.73637 17.4224L8.58398 18.3367C8.63478 18.4382 8.88875 18.5398 9.75224 18.5398Z" fill="white"/>
<path d="M30.0193 13.6128L29.8161 14.9842C29.8161 14.9842 29.4097 14.4763 28.851 14.4763C27.9367 14.4763 27.124 15.5937 27.124 16.9144C27.124 17.7271 27.5304 18.5906 28.3939 18.5906C29.0034 18.5906 29.3589 18.1842 29.3589 18.1842L29.3081 18.5398H30.324L31.0859 13.6636L30.0193 13.6128ZM29.5621 16.3049C29.5621 16.8636 29.3081 17.5747 28.7494 17.5747C28.3939 17.5747 28.1907 17.2699 28.1907 16.762C28.1907 15.9493 28.5462 15.4414 29.0034 15.4414C29.3589 15.4414 29.5621 15.6953 29.5621 16.3049Z" fill="white"/>
<path d="M1.87914 18.489L2.48867 14.8318L2.59025 18.489H3.30136L4.622 14.8318L4.06327 18.489H5.12994L5.94263 13.6128H4.26644L3.25057 16.6096L3.19978 13.6128H1.72676L0.914062 18.489H1.87914Z" fill="white"/>
<path d="M17.6253 18.489C17.93 16.8128 17.9808 15.4414 18.6919 15.6954C18.7935 15.035 18.9459 14.7811 19.0475 14.5271C19.0475 14.5271 18.9967 14.5271 18.8443 14.5271C18.3872 14.5271 18.0316 15.1366 18.0316 15.1366L18.1332 14.5779H17.1681L16.5078 18.5398H17.6253V18.489Z" fill="white"/>
<path d="M23.9233 14.4255C23.2122 14.4255 22.7043 14.6287 22.7043 14.6287L22.5519 15.4922C22.5519 15.4922 23.009 15.289 23.6694 15.289C24.0249 15.289 24.3297 15.3398 24.3297 15.6446C24.3297 15.8478 24.2789 15.8986 24.2789 15.8986C24.2789 15.8986 23.9741 15.8986 23.8217 15.8986C22.9582 15.8986 21.9932 16.2541 21.9932 17.4224C21.9932 18.3366 22.6027 18.5398 22.9582 18.5398C23.6694 18.5398 23.9741 18.0827 24.0249 18.0827L23.9741 18.489H24.8884L25.2948 15.6954C25.3456 14.4763 24.2789 14.4255 23.9233 14.4255ZM24.1773 16.7113C24.1773 16.8636 24.0757 17.6763 23.4662 17.6763C23.1614 17.6763 23.0598 17.4224 23.0598 17.27C23.0598 17.016 23.2122 16.6605 23.9741 16.6605C24.1265 16.7113 24.1265 16.7113 24.1773 16.7113Z" fill="white"/>
<path d="M26.1585 18.489C26.4632 16.8128 26.514 15.4414 27.2251 15.6954C27.3267 15.035 27.4791 14.7811 27.5807 14.5271C27.5807 14.5271 27.5299 14.5271 27.3775 14.5271C26.9204 14.5271 26.5648 15.1366 26.5648 15.1366L26.6664 14.5779H25.7013L25.041 18.5398H26.1585V18.489Z" fill="white"/>
<path d="M11.4287 17.727C11.4287 18.3365 11.7843 18.5905 12.2414 18.5905C12.597 18.5905 12.9017 18.4889 13.0033 18.4381L13.1557 17.5746C13.1049 17.5746 13.0033 17.6254 12.9017 17.6254C12.5462 17.6254 12.4954 17.4222 12.5462 17.3206L12.8509 15.5429H13.4097L13.562 14.5778H13.0541L13.1557 13.9683" fill="#DCE5E5"/>
<path d="M13.8662 16.8129C13.8662 18.2351 14.3234 18.5907 15.1361 18.5907C15.898 18.5907 16.2027 18.4383 16.2027 18.4383L16.4059 17.4732C16.4059 17.4732 15.8472 17.7272 15.3392 17.7272C14.2218 17.7272 14.4249 16.9145 14.4249 16.9145H16.5075C16.5075 16.9145 16.6599 16.2542 16.6599 16.0002C16.6599 15.3399 16.3043 14.5272 15.1868 14.5272C14.1202 14.4256 13.8662 15.5431 13.8662 16.8129ZM15.1361 15.3399C15.6948 15.3399 15.7964 16.0002 15.7964 16.051H14.4757C14.4757 16.0002 14.5773 15.3399 15.1361 15.3399Z" fill="#DCE5E5"/>
<path d="M21.5875 18.4382L21.7906 17.3208C21.7906 17.3208 21.2827 17.5747 20.9272 17.5747C20.216 17.5747 19.9113 17.016 19.9113 16.4065C19.9113 15.1874 20.5208 14.5271 21.2319 14.5271C21.7399 14.5271 22.1462 14.8319 22.1462 14.8319L22.2986 13.7652C22.2986 13.7652 21.6891 13.5112 21.1303 13.5112C19.9621 13.5112 19.3018 14.5271 19.3018 16.4573C19.3018 17.7271 19.4033 18.5906 20.6224 18.5906C21.0287 18.5906 21.5875 18.4382 21.5875 18.4382Z" fill="#DCE5E5"/>
<path d="M6.04408 15.543C6.04408 15.543 6.50122 15.3398 7.16154 15.3398C7.5171 15.3398 7.82186 15.3906 7.82186 15.6954C7.82186 15.8985 7.77107 15.9493 7.77107 15.9493C7.77107 15.9493 7.4663 15.9493 7.31392 15.9493C6.45043 15.9493 5.48535 16.3049 5.48535 17.4731C5.48535 18.3874 6.09488 18.5906 6.45043 18.5906C7.16154 18.5906 7.4663 18.1334 7.5171 18.1334L7.4663 18.5398H8.38059L8.78694 15.7461C8.78694 14.5779 7.77107 14.5271 7.36472 14.5271L6.04408 15.543ZM8.12662 16.7112C8.12662 16.8636 7.5171 17.6763 6.90757 17.6763C6.60281 17.6763 6.50122 17.4223 6.50122 17.27C6.50122 17.016 6.65361 16.6604 7.41551 16.6604C7.56789 16.7112 8.12662 16.7112 8.12662 16.7112Z" fill="#DCE5E5"/>
<path d="M8.63477 18.4382C8.63477 18.4382 8.93953 18.5398 9.80302 18.5398C10.057 18.5398 11.3268 18.5906 11.3268 17.2192C11.3268 15.9494 10.1078 16.2033 10.1078 15.6954C10.1078 15.4414 10.311 15.3398 10.6665 15.3398C10.8189 15.3398 11.3776 15.3906 11.3776 15.3906L11.53 14.4763C11.53 14.4763 11.1744 14.3748 10.5649 14.3748C9.80302 14.3748 9.54905 14.6795 9.54905 15.6954C9.54905 16.8636 10.311 16.7621 10.311 17.2192C10.311 17.524 9.9554 17.5748 9.70143 17.5748" fill="#DCE5E5"/>
<path d="M29.8157 14.9842C29.8157 14.9842 29.4094 14.4763 28.8507 14.4763C27.9364 14.4763 27.6316 15.5937 27.6316 16.9144C27.6316 17.7271 27.53 18.5906 28.3935 18.5906C29.003 18.5906 29.3586 18.1842 29.3586 18.1842L29.3078 18.5398H30.3237L31.0856 13.6636L29.8157 14.9842ZM29.7649 16.3048C29.7649 16.8636 29.3078 17.5747 28.7491 17.5747C28.3935 17.5747 28.1903 17.2699 28.1903 16.762C28.1903 15.9493 28.5459 15.4414 29.003 15.4414C29.3586 15.4414 29.7649 15.6953 29.7649 16.3048Z" fill="#DCE5E5"/>
<path d="M1.87914 18.489L2.48867 14.8318L2.59025 18.489H3.30136L4.622 14.8318L4.06327 18.489H5.12994L5.94263 13.6128H4.67279L3.25057 16.6096L3.19978 13.6128H2.64105L0.914062 18.489H1.87914Z" fill="#DCE5E5"/>
<path d="M16.5586 18.489H17.6253C17.93 16.8128 17.9808 15.4414 18.6919 15.6954C18.7935 15.035 18.9459 14.7811 19.0475 14.5271C19.0475 14.5271 18.9967 14.5271 18.8443 14.5271C18.3872 14.5271 18.0316 15.1366 18.0316 15.1366L18.1332 14.5779" fill="#DCE5E5"/>
<path d="M22.5519 15.543C22.5519 15.543 23.009 15.3398 23.6694 15.3398C24.0249 15.3398 24.3297 15.3906 24.3297 15.6954C24.3297 15.8985 24.2789 15.9493 24.2789 15.9493C24.2789 15.9493 23.9741 15.9493 23.8217 15.9493C22.9582 15.9493 21.9932 16.3049 21.9932 17.4731C21.9932 18.3874 22.6027 18.5906 22.9582 18.5906C23.6694 18.5906 23.9741 18.1334 24.0249 18.1334L23.9741 18.5398H24.8884L25.2947 15.7461C25.2947 14.5779 24.2789 14.5271 23.8725 14.5271L22.5519 15.543ZM24.6344 16.7112C24.6344 16.8636 24.0249 17.6763 23.4154 17.6763C23.1106 17.6763 23.009 17.4223 23.009 17.27C23.009 17.016 23.1614 16.6604 23.9233 16.6604C24.1265 16.7112 24.6344 16.7112 24.6344 16.7112Z" fill="#DCE5E5"/>
<path d="M25.0918 18.489H26.1585C26.4632 16.8128 26.514 15.4414 27.2251 15.6954C27.3267 15.035 27.4791 14.7811 27.5807 14.5271C27.5807 14.5271 27.5299 14.5271 27.3775 14.5271C26.9204 14.5271 26.5648 15.1366 26.5648 15.1366L26.6664 14.5779" fill="#DCE5E5"/>
</svg>
