<svg width="28" height="28" viewBox="0 0 28 28" fill="none" xmlns="http://www.w3.org/2000/svg">
<g clip-path="url(#clip0)">
<path d="M27.8422 14.002L23.4673 7.87717C23.2958 7.65492 23.0403 7.52018 22.7673 7.51493V5.75972C22.7673 4.79375 21.9833 4.00977 21.0173 4.00977H7.01769C6.05171 4.00977 5.26773 4.79375 5.26773 5.75972V7.50968H5.25023C4.97024 7.50968 4.70775 7.64967 4.53275 7.87717L0.157862 14.002C0.105364 14.1543 0.0528651 14.303 0.000366428 14.457C-0.0276329 16.4065 1.55258 18.0094 3.50028 18.0094C4.55025 18.0094 5.47773 17.5544 6.12521 16.8194C6.77269 17.5544 7.70017 18.0094 8.75014 18.0094C9.80012 18.0094 10.7276 17.5544 11.3751 16.8194C12.0226 17.5544 12.95 18.0094 14 18.0094C15.05 18.0094 15.9775 17.5544 16.6249 16.8194C17.2724 17.5544 18.1999 18.0094 19.2499 18.0094C20.2999 18.0094 21.2273 17.5544 21.8748 16.8194C22.5223 17.5544 23.4498 18.0094 24.4997 18.0094C26.4474 18.0094 28.0277 16.4065 27.9997 14.457C27.9472 14.303 27.8947 14.1543 27.8422 14.002Z" fill="#D2271D"/>
<path d="M21.8747 15.0527C21.6069 15.2085 21.3094 15.2995 21.0172 15.401V22.7403H20.9997V22.7595H7.00003V15.4097C6.70079 15.3047 6.39805 15.212 6.12506 15.0527C5.85206 15.2102 5.56332 15.3345 5.26758 15.4377V26.2402C5.26758 27.2062 6.05331 27.9902 7.01753 27.9902H21.0172C21.9832 27.9902 22.7671 27.2062 22.7671 26.2402V15.4255C22.4626 15.317 22.1546 15.2155 21.8747 15.0527Z" fill="#D2271D"/>
</g>
<defs>
<clipPath id="clip0">
<rect width="28" height="28" fill="white"/>
</clipPath>
</defs>
</svg>
