<svg width="31" height="31" viewBox="0 0 31 31" fill="none" xmlns="http://www.w3.org/2000/svg">
<g clip-path="url(#clip0)">
<path d="M24.2014 12.7096C23.4404 12.7096 22.8315 12.9125 22.3242 13.014L22.172 14.1809C22.4256 14.0795 23.1359 13.8765 23.7448 13.8258C24.3536 13.8258 24.7088 13.9272 24.6073 14.4853C22.7808 14.4853 21.5631 14.8405 21.3094 16.0582C20.9543 18.0876 23.1867 18.1384 24.0492 17.2251L23.9477 17.7832H25.5713L26.2816 14.4853C26.5353 13.1155 25.3176 12.6588 24.2014 12.7096ZM24.3029 16.1089C24.2014 16.5148 23.8463 16.667 23.4404 16.7177C23.0852 16.7177 22.7808 16.5148 22.9837 16.1089C23.1867 15.8045 23.6433 15.8045 23.9985 15.8045C24.0999 15.8045 24.2522 15.8045 24.4044 15.8045C24.3536 15.7538 24.3029 15.9567 24.3029 16.1089Z" fill="#32A6CE"/>
<path d="M22.172 14.1809C22.4256 14.0794 23.136 13.8765 23.7448 13.8257C24.3536 13.8257 24.7088 13.9272 24.6073 14.4853C22.7808 14.4853 21.5631 14.8404 21.3094 16.0581C20.9543 18.0876 23.1867 18.1383 24.0492 17.2251L23.9477 17.7832H25.5713L26.2816 14.4853C26.586 13.1154 25.3176 12.7603 24.2014 12.7603L22.172 14.1809ZM24.3029 16.1089C24.2014 16.5148 23.8463 16.667 23.4404 16.7177C23.0852 16.7177 22.7808 16.5148 22.9837 16.1089C23.1867 15.8044 23.6433 15.8044 23.9985 15.8044C24.0999 15.8044 24.2522 15.8044 24.4044 15.8044C24.3536 15.7537 24.3029 15.9567 24.3029 16.1089Z" fill="#1A80AD"/>
<path d="M27.6512 11.1875L26.332 17.7832H27.9556L29.3255 11.1875H27.6512Z" fill="#32A6CE"/>
<path d="M28.8181 11.1875L26.332 17.7832H27.9556L29.3255 11.1875H27.6512H28.8181Z" fill="#1A80AD"/>
<path d="M20.0919 11.1875H17.0984L15.7793 17.7832H17.5551L18.0117 15.7538H19.2801C20.4978 15.7538 21.5125 15.0435 21.7662 13.7751C22.0199 12.3037 20.9544 11.1875 20.0919 11.1875ZM20.0412 13.4706C19.9397 13.9273 19.4831 14.2317 19.0264 14.2317H18.2146L18.5698 12.7096H19.4323C19.889 12.7096 20.1426 13.014 20.0412 13.4706Z" fill="#32A6CE"/>
<path d="M20.0919 11.1875H18.0624L15.7285 17.7832H17.5043L17.9609 15.7538H19.2293C20.447 15.7538 21.4617 15.0435 21.7154 13.7751C22.0198 12.3037 20.9544 11.1875 20.0919 11.1875ZM20.0411 13.4706C19.9396 13.9273 19.483 14.2317 19.0264 14.2317H18.2146L18.5698 12.7096H19.4323C19.8889 12.7096 20.1426 13.014 20.0411 13.4706Z" fill="#1A80AD"/>
<path d="M8.37123 12.7096C7.61018 12.7096 7.00135 12.9125 6.54472 13.014L6.39251 14.1809C6.59545 14.0795 7.3565 13.8765 7.96534 13.8258C8.57418 13.8258 8.92933 13.9272 8.82786 14.4853C7.05208 14.4853 5.83441 14.8405 5.58072 16.0582C5.22557 18.0876 7.40724 18.1384 8.26976 17.2251L8.16828 17.7832H9.79185L10.5022 14.4853C10.7558 13.1155 9.48743 12.6588 8.37123 12.7096ZM8.52344 16.1089C8.42197 16.5148 8.06681 16.667 7.66092 16.7177C7.30576 16.7177 7.00135 16.5148 7.25503 16.1089C7.45797 15.8045 7.9146 15.8045 8.21902 15.8045C8.37123 15.8045 8.4727 15.8045 8.62491 15.8045C8.57418 15.7538 8.52344 15.9567 8.52344 16.1089Z" fill="#21789E"/>
<path d="M6.44329 14.1809C6.64624 14.0794 7.40728 13.8765 8.01612 13.8257C8.62496 13.8257 8.98012 13.9272 8.87864 14.4853C7.10286 14.4853 5.88519 14.8404 5.63151 16.0581C5.27635 18.0876 7.45802 18.1383 8.32054 17.2251L8.16833 17.7832H9.7919L10.5022 14.4853C10.8066 13.1154 9.53822 12.7603 8.42201 12.7603L6.44329 14.1809ZM8.52349 16.1089C8.42201 16.5148 8.06686 16.667 7.66097 16.7177C7.30581 16.7177 7.00139 16.5148 7.25507 16.1089C7.45802 15.8044 7.91465 15.8044 8.21907 15.8044C8.37128 15.8044 8.47275 15.8044 8.62496 15.8044C8.57422 15.7537 8.52349 15.9567 8.52349 16.1089Z" fill="#1A5B80"/>
<path d="M11.1617 12.7095H12.7852L13.0389 15.5507L14.6625 12.7095H16.3368L12.4808 19.8126H10.6543L11.8212 17.6816L11.1617 12.7095Z" fill="#21789E"/>
<path d="M12.7852 12.8109L13.0389 15.6015L14.6625 12.7095H16.3368L12.4808 19.8126H10.6543L11.8212 17.7324" fill="#1A5B80"/>
<path d="M4.36334 11.1875H1.31915L0 17.7832H1.77578L2.23241 15.7538H3.50082C4.71849 15.7538 5.73322 15.0435 5.98691 13.7751C6.29133 12.3037 5.22586 11.1875 4.36334 11.1875ZM4.3126 13.4706C4.21113 13.9273 3.7545 14.2317 3.29787 14.2317H2.48609L2.84124 12.7096H3.70376C4.16039 12.7096 4.41408 13.014 4.3126 13.4706Z" fill="#21789E"/>
<path d="M4.36334 11.1875H2.99345L0 17.7832H1.77578L2.23241 15.7538H3.50082C4.71849 15.7538 5.73322 15.0435 5.98691 13.7751C6.29133 12.3037 5.22586 11.1875 4.36334 11.1875ZM4.3126 13.4706C4.21113 13.9273 3.7545 14.2317 3.29787 14.2317H2.48609L2.84124 12.7096H3.70376C4.16039 12.7096 4.41408 13.014 4.3126 13.4706Z" fill="#1A5B80"/>
<path d="M8.06681 14.4851C6.69693 14.5866 5.78367 14.9925 5.58072 16.0072C5.22557 18.0367 7.40724 18.0874 8.26976 17.1741L8.16829 17.783H9.79185L10.0455 16.5653L8.06681 14.4851ZM8.52344 16.1087C8.42197 16.5146 8.06681 16.6668 7.66092 16.7175C7.30577 16.7175 7.00135 16.5146 7.25503 16.1087C7.45798 15.8043 7.9146 15.8043 8.21902 15.8043C8.37123 15.8043 8.47271 15.8043 8.62492 15.8043C8.57418 15.7535 8.52344 15.9565 8.52344 16.1087Z" fill="#06435E"/>
<path d="M13.1405 15.5L13.0391 15.6522L14.1045 16.6669L16.3369 12.7095H14.6626L13.1405 15.5Z" fill="#06435E"/>
<path d="M1.77591 17.7831L2.23254 15.7537L0.152344 17.7831H1.77591Z" fill="#06435E"/>
<path d="M17.5044 17.7833L17.9611 15.6523V15.7031L15.8809 17.7833H17.5044Z" fill="#2273AA"/>
<path d="M23.8463 14.4854C22.4764 14.5868 21.5632 14.9927 21.3602 16.0074C21.0051 18.0369 23.2375 18.0876 24.1 17.1744L23.9478 17.7832H25.5713L25.825 16.5655L23.8463 14.4854ZM24.3029 16.1089C24.2015 16.5148 23.8463 16.667 23.4404 16.7178C23.0853 16.7178 22.7808 16.5148 22.9838 16.1089C23.1867 15.8045 23.6434 15.8045 23.9985 15.8045C24.1 15.8045 24.2522 15.8045 24.4044 15.8045C24.3537 15.7538 24.3029 15.9567 24.3029 16.1089Z" fill="#2273AA"/>
<path d="M27.4999 14.7898L26.333 17.7832H27.9566L28.4132 15.7538L27.4999 14.7898Z" fill="#2273AA"/>
<path d="M29.6804 12.2529V11.5426H29.4268V11.4412H30.0863V11.5426H29.8327V12.2529H29.6804Z" fill="#32A6CE"/>
<path d="M30.1875 12.2529V11.4411H30.3397L30.5427 11.9992C30.5427 12.05 30.5934 12.1007 30.5934 12.1007C30.5934 12.05 30.5934 12.05 30.6441 11.9485L30.8471 11.3904H30.9993V12.2022H30.8978V11.4919L30.6441 12.2022H30.4919L30.2382 11.4919V12.2022H30.1875V12.2529Z" fill="#32A6CE"/>
</g>
<defs>
<clipPath id="clip0">
<rect width="31" height="31" fill="white"/>
</clipPath>
</defs>
</svg>
