<svg width="24" height="24" viewBox="0 0 24 24" fill="none" xmlns="http://www.w3.org/2000/svg">
<path d="M18.2721 3.62119L16.2785 2.47021L6.25195 8.25902L8.2456 9.41005L18.2721 3.62119Z" fill="#BDBDBD"/>
<path d="M5.49838 7.82326L15.5249 2.03446L12.0011 0L1.97461 5.7888L5.49838 7.82326Z" fill="#BDBDBD"/>
<path d="M12.377 23.8105L22.4042 18.0213V6.44189L12.377 12.2312V23.8105Z" fill="#BDBDBD"/>
<path d="M7.08704 15.3633L7.85014 16.2299V10.0524L5.85547 8.9126V15.5876L6.64951 15.2639C6.72388 15.2338 6.80565 15.2272 6.88386 15.245C6.96207 15.2628 7.03297 15.3041 7.08704 15.3633Z" fill="#BDBDBD"/>
<path d="M8.60401 17.2299C8.604 17.3066 8.58064 17.3815 8.53703 17.4445C8.49342 17.5076 8.43163 17.5559 8.35989 17.583C8.28815 17.61 8.20987 17.6146 8.13546 17.5961C8.06106 17.5776 7.99406 17.5368 7.94339 17.4793L6.6978 16.0643L5.64165 16.5005C5.58258 16.5242 5.51869 16.5334 5.45534 16.5273C5.392 16.5212 5.33104 16.4999 5.2776 16.4654C5.22472 16.4315 5.1809 16.3852 5.14991 16.3305C5.11892 16.2759 5.10168 16.2145 5.09969 16.1517V8.47684L1.5957 6.44189V18.0213L11.623 23.8105V12.2312L8.60401 10.4882V17.2299Z" fill="#BDBDBD"/>
<path d="M19.0265 4.05713L9 9.84593L11.9996 11.5777L22.0261 5.78893L19.0265 4.05713Z" fill="#BDBDBD"/>
</svg>
