<svg width="17" height="16" viewBox="0 0 17 16" fill="none" xmlns="http://www.w3.org/2000/svg">
<g clip-path="url(#clip0)">
<path d="M15.287 4.12008C15.2786 3.6881 15.2706 3.28001 15.2706 2.88522C15.2706 2.57593 15.0135 2.32518 14.6962 2.32518C12.2396 2.32518 10.3693 1.63685 8.8103 0.158942C8.58728 -0.0525297 8.23238 -0.052455 8.00944 0.158942C6.45059 1.63685 4.58057 2.32518 2.1242 2.32518C1.80697 2.32518 1.5498 2.57593 1.5498 2.88522C1.5498 3.28009 1.54183 3.68832 1.53333 4.12037C1.4546 8.14042 1.34676 13.6461 8.22173 15.9695C8.2827 15.9901 8.34626 16.0004 8.40983 16.0004C8.4734 16.0004 8.53704 15.9901 8.59793 15.9695C15.4734 13.646 15.3658 8.1402 15.287 4.12008ZM8.40991 14.8461C2.51372 12.7577 2.60286 8.18291 2.68198 4.14173C2.68673 3.89919 2.69132 3.66413 2.69454 3.43369C4.99521 3.339 6.83498 2.65926 8.40991 1.32159C9.98499 2.65926 11.8251 3.33908 14.1259 3.43369C14.1291 3.66405 14.1337 3.89897 14.1384 4.14136C14.2175 8.18269 14.3066 12.7576 8.40991 14.8461Z" fill="#F2994A"/>
<path d="M10.3881 6.05462L7.61571 8.75754L6.43267 7.60407C6.20835 7.38543 5.84464 7.38543 5.62039 7.60407C5.39607 7.82286 5.39607 8.17741 5.62039 8.39612L7.20957 9.94557C7.32169 10.0549 7.46874 10.1096 7.61571 10.1096C7.76268 10.1096 7.90972 10.0549 8.02185 9.94557L11.2003 6.84667C11.4247 6.62796 11.4247 6.27334 11.2004 6.0547C10.9761 5.83598 10.6124 5.83591 10.3881 6.05462Z" fill="#F2994A"/>
</g>
<defs>
<clipPath id="clip0">
<rect width="16.4103" height="16" fill="white" transform="translate(0.205078)"/>
</clipPath>
</defs>
</svg>
