<svg width="28" height="28" viewBox="0 0 28 28" fill="none" xmlns="http://www.w3.org/2000/svg">
<g clip-path="url(#clip0)">
<path d="M4.3252 6.41675H26.0695C26.2489 6.41671 26.4259 6.45805 26.5867 6.53754C26.7476 6.61704 26.8879 6.73255 26.9968 6.8751C27.1057 7.01766 27.1803 7.18341 27.2147 7.35947C27.2492 7.53553 27.2425 7.71716 27.1954 7.89025L24.8002 16.6706C24.5983 17.4113 24.1584 18.0652 23.5482 18.5313C22.9381 18.9974 22.1917 19.25 21.4239 19.2501H7.02719" stroke="white" stroke-width="2" stroke-linecap="round" stroke-linejoin="round"/>
<path d="M0.762695 0.583252H1.2037C1.73904 0.58328 2.2581 0.767396 2.67381 1.10472C3.08951 1.44204 3.37658 1.91205 3.48686 2.43592L7.37303 20.8973C7.48331 21.4211 7.77038 21.8911 8.18609 22.2285C8.60179 22.5658 9.12085 22.7499 9.6562 22.7499H22.9294" stroke="white" stroke-width="2" stroke-linecap="round" stroke-linejoin="round"/>
<path d="M8.92969 27.4167C9.89619 27.4167 10.6797 26.6332 10.6797 25.6667C10.6797 24.7002 9.89619 23.9167 8.92969 23.9167C7.96319 23.9167 7.17969 24.7002 7.17969 25.6667C7.17969 26.6332 7.96319 27.4167 8.92969 27.4167Z" stroke="white" stroke-width="2" stroke-linecap="round" stroke-linejoin="round"/>
<path d="M20.5967 27.4167C21.5632 27.4167 22.3467 26.6332 22.3467 25.6667C22.3467 24.7002 21.5632 23.9167 20.5967 23.9167C19.6302 23.9167 18.8467 24.7002 18.8467 25.6667C18.8467 26.6332 19.6302 27.4167 20.5967 27.4167Z" stroke="white" stroke-width="2" stroke-linecap="round" stroke-linejoin="round"/>
</g>
<defs>
<clipPath id="clip0">
<rect width="28" height="28" fill="white"/>
</clipPath>
</defs>
</svg>
