<svg width="28" height="28" viewBox="0 0 28 28" fill="none" xmlns="http://www.w3.org/2000/svg">
<path d="M10.7734 11.5391H21.3281V7.4375C21.3281 6.98462 20.9607 6.61719 20.5078 6.61719H16.4062V9.89844C16.4062 10.3513 16.0388 10.7188 15.5859 10.7188C15.1331 10.7188 14.7656 10.3513 14.7656 9.89844V6.61719H6.5625V9.89844C6.5625 10.3513 6.19507 10.7188 5.74219 10.7188C5.28931 10.7188 4.92188 10.3513 4.92188 9.89844V6.61719H0.820312C0.367432 6.61719 0 6.98462 0 7.4375V27.1797C0 27.6326 0.367432 28 0.820312 28H8.45349C8.36227 27.7434 8.3125 27.4674 8.3125 27.1797V14C8.3125 12.6433 9.41672 11.5391 10.7734 11.5391Z" fill="#219653"/>
<path d="M27.1797 13.1797H10.7734C10.3203 13.1797 9.95312 13.5469 9.95312 14V27.1797C9.95312 27.6328 10.3203 28 10.7734 28H27.1797C27.6328 28 28 27.6328 28 27.1797V14C28 13.5469 27.6328 13.1797 27.1797 13.1797ZM22.8047 19.0039C22.8047 21.2202 21.0015 23.0234 18.7852 23.0234C16.5688 23.0234 14.7656 21.2202 14.7656 19.0039V17.2812C14.7656 16.8282 15.1328 16.4609 15.5859 16.4609C16.039 16.4609 16.4062 16.8282 16.4062 17.2812V19.0039C16.4062 20.3156 17.4735 21.3828 18.7852 21.3828C20.0968 21.3828 21.1641 20.3156 21.1641 19.0039V17.2812C21.1641 16.8282 21.5313 16.4609 21.9844 16.4609C22.4375 16.4609 22.8047 16.8282 22.8047 17.2812V19.0039Z" fill="#219653"/>
<path d="M6.5625 5.74219C6.5625 3.48077 8.40265 1.64062 10.6641 1.64062C12.9255 1.64062 14.7656 3.48077 14.7656 5.74219V6.61719H16.4062V5.74219C16.4062 2.57587 13.8304 0 10.6641 0C7.49774 0 4.92188 2.57587 4.92188 5.74219V6.61719H6.5625V5.74219Z" fill="#219653"/>
</svg>
