<svg width="24" height="24" viewBox="0 0 24 24" fill="none" xmlns="http://www.w3.org/2000/svg">
<g clip-path="url(#clip0)">
<path d="M21.4496 10.7538H20.6629L13.7455 4.28195C13.8691 4.02629 13.9333 3.74588 13.9328 3.46191C13.9322 2.40927 13.0782 1.5565 12.0255 1.55713C10.9729 1.55776 10.1201 2.41178 10.1208 3.46442C10.1203 3.74756 10.1845 4.02692 10.3081 4.28153L3.39072 10.7538H2.60402C1.18288 10.7538 0 11.9235 0 13.3444V19.8411C0 21.2622 1.18288 22.4048 2.60402 22.4048H21.4496C22.1287 22.4061 22.7801 22.1359 23.2591 21.6544C23.738 21.1731 24.0047 20.5202 23.9999 19.8411V13.3444C23.9999 11.9235 22.8707 10.7538 21.4496 10.7538ZM12.0268 2.41828C12.605 2.41828 13.0738 2.88703 13.0738 3.46526C13.0738 4.04349 12.605 4.51224 12.0268 4.51224C11.4486 4.51224 10.9798 4.04349 10.9798 3.46526C10.9805 2.88724 11.4488 2.41891 12.0268 2.41828ZM10.8473 4.95414C11.5367 5.50657 12.5176 5.50594 13.2063 4.95246L19.4062 10.7538H4.64742L10.8473 4.95414ZM23.1409 19.8276C23.1409 20.7765 22.3716 21.5457 21.4227 21.5457H2.57717C1.62835 21.5457 0.859057 20.7765 0.859057 19.8276V13.331C0.859057 12.3822 1.62835 11.6129 2.57717 11.6129H21.4227C22.3716 11.6129 23.1409 12.3822 23.1409 13.331V19.8276Z" fill="#333333"/>
<path d="M6.42633 15.5816C6.42633 15.4153 6.58216 15.2595 6.96324 15.2595C7.40347 15.2595 7.50561 15.4635 7.69877 15.4635C7.93514 15.4635 8.03183 15.1682 8.03183 15.0233C8.03183 14.6045 7.24785 14.5508 6.96324 14.5508C6.2921 14.5508 5.58887 14.8568 5.58887 15.6621C5.58887 16.9187 7.29085 16.8058 7.29085 17.4556C7.29085 17.7131 7.01694 17.8098 6.77008 17.8098C6.27071 17.8098 6.10964 17.4126 5.85733 17.4126C5.65326 17.4126 5.49219 17.681 5.49219 17.8635C5.49219 18.2179 6.08279 18.5615 6.78602 18.5615C7.56455 18.5615 8.1283 18.1426 8.1283 17.3696C8.1283 16.0166 6.42633 16.1185 6.42633 15.5816Z" fill="#333333"/>
<path d="M10.3332 14.583C9.59224 14.583 9.02051 14.9265 9.02051 15.8502V17.273C9.02051 18.1965 9.59224 18.54 10.3332 18.54C11.0742 18.54 11.6514 18.1965 11.6514 17.273V15.8502C11.6514 14.9268 11.0742 14.583 10.3332 14.583ZM10.846 17.273C10.846 17.6434 10.6608 17.8099 10.3601 17.8099C10.0593 17.8099 9.87957 17.6434 9.87957 17.273V15.8502C9.87957 15.4796 10.0595 15.3133 10.3601 15.3133C10.6608 15.3133 10.846 15.4796 10.846 15.8502V17.273Z" fill="#333333"/>
<path d="M14.8079 17.7873H13.5837V14.8355C13.5837 14.6583 13.3635 14.583 13.1541 14.583C12.9448 14.583 12.7246 14.6583 12.7246 14.8355V18.2502C12.7246 18.4219 12.9287 18.4851 13.1111 18.4851H14.8079C14.9689 18.4851 15.0495 18.3187 15.0495 18.1361C15.0495 17.9536 14.9689 17.7873 14.8079 17.7873Z" fill="#333333"/>
<path d="M17.2403 14.5659H16.2898C16.0698 14.5659 15.9463 14.7014 15.9463 14.8356V18.2557C15.9463 18.39 16.0698 18.4852 16.2898 18.4852H17.2403C17.9811 18.4852 18.5772 18.1643 18.5772 17.2408V15.8501C18.5772 14.9269 17.9811 14.5659 17.2403 14.5659ZM17.7181 17.241C17.7181 17.6062 17.5409 17.7874 17.2403 17.7874H16.7517V15.3176H17.2403C17.5409 15.3176 17.7181 15.4852 17.7181 15.8503V17.241Z" fill="#333333"/>
</g>
<defs>
<clipPath id="clip0">
<rect width="24" height="24" fill="white"/>
</clipPath>
</defs>
</svg>
