<svg width="19" height="18" viewBox="0 0 19 18" fill="none" xmlns="http://www.w3.org/2000/svg">
<path fill-rule="evenodd" clip-rule="evenodd" d="M9.83306 0.361525L12.2621 5.28215L17.6936 6.07257C17.9383 6.10786 18.1417 6.27915 18.2182 6.51431C18.2946 6.74947 18.2308 7.00764 18.0536 7.18011L14.1226 11.0073L15.0505 16.4168C15.0922 16.6606 14.992 16.9069 14.792 17.0522C14.5919 17.1976 14.3267 17.2168 14.1077 17.1018L9.25039 14.5517L4.39225 17.1041C4.17316 17.2186 3.9081 17.1991 3.70819 17.0537C3.50828 16.9082 3.40805 16.6621 3.44952 16.4184L4.37741 11.0119L0.446377 7.18479C0.269178 7.01233 0.205368 6.75416 0.28182 6.519C0.358271 6.28384 0.5617 6.11255 0.806442 6.07726L6.23787 5.28293L8.66694 0.362306C8.77655 0.140571 9.00241 0.000165817 9.24976 1.46767e-07C9.4971 -0.000165524 9.72315 0.139937 9.83306 0.361525Z" fill="#F2994A"/>
</svg>
