<svg width="24" height="24" viewBox="0 0 24 24" fill="none" xmlns="http://www.w3.org/2000/svg">
<g clip-path="url(#clip0)">
<path d="M23.8647 10.002L20.1148 3.87717C19.9678 3.65492 19.7488 3.52018 19.5148 3.51493V1.75972C19.5148 0.793746 18.8428 0.00976562 18.0149 0.00976562H6.01516C5.18718 0.00976562 4.5152 0.793746 4.5152 1.75972V3.50968H4.5002C4.26021 3.50968 4.03521 3.64967 3.88522 3.87717L0.135311 10.002C0.0903118 10.1543 0.0453129 10.303 0.000314081 10.457C-0.0236853 12.4065 1.33078 14.0094 3.00024 14.0094C3.90022 14.0094 4.6952 13.5544 5.25018 12.8194C5.80517 13.5544 6.60015 14.0094 7.50012 14.0094C8.4001 14.0094 9.19508 13.5544 9.75007 12.8194C10.3051 13.5544 11.1 14.0094 12 14.0094C12.9 14.0094 13.695 13.5544 14.25 12.8194C14.8049 13.5544 15.5999 14.0094 16.4999 14.0094C17.3999 14.0094 18.1949 13.5544 18.7498 12.8194C19.3048 13.5544 20.0998 14.0094 20.9998 14.0094C22.6692 14.0094 24.0237 12.4065 23.9997 10.457C23.9547 10.303 23.9097 10.1543 23.8647 10.002Z" fill="#BDBDBD"/>
<path d="M18.7503 11.0527C18.5208 11.2085 18.2658 11.2995 18.0153 11.401V18.7403H18.0003V18.7595H6.00059V11.4097C5.74409 11.3047 5.4846 11.212 5.25061 11.0527C5.01661 11.2102 4.76912 11.3345 4.51562 11.4377V22.2402C4.51562 23.2062 5.18911 23.9902 6.01559 23.9902H18.0153C18.8433 23.9902 19.5152 23.2062 19.5152 22.2402V11.4255C19.2542 11.317 18.9903 11.2155 18.7503 11.0527Z" fill="#BDBDBD"/>
</g>
<defs>
<clipPath id="clip0">
<rect width="24" height="24" fill="white"/>
</clipPath>
</defs>
</svg>
