<svg width="22" height="21" viewBox="0 0 22 21" fill="none" xmlns="http://www.w3.org/2000/svg">
<g clip-path="url(#clip0)">
<g clip-path="url(#clip1)">
<path d="M2.86156 9.65999V18.2183H9.86725V11.2121H12.7786V18.2183H19.7843V9.65999H2.86156ZM9.06042 16.0753H3.57852V11.2121H9.06042V16.0753ZM19.0683 16.0753H13.5864V11.2121H19.0683V16.0753Z" fill="#C4C4C4"/>
<path d="M1.58917 9.69257C1.58917 10.2935 2.0711 10.7806 2.6656 10.7806C3.26011 10.7806 3.74302 10.2935 3.74302 9.69257H1.58917Z" fill="#C4C4C4"/>
<path d="M2.66614 10.8808C2.0183 10.8808 1.49095 10.3477 1.49095 9.69293C1.49095 9.63803 1.53539 9.59311 1.58971 9.59311H3.74257C3.79689 9.59311 3.84133 9.63803 3.84133 9.69293C3.84133 10.3477 3.31397 10.8808 2.66614 10.8808ZM1.69241 9.79175C1.74179 10.2898 2.15952 10.6801 2.66515 10.6801C3.17177 10.6801 3.58851 10.2898 3.63888 9.79175H1.69241Z" fill="#C4C4C4"/>
<path d="M3.74295 9.69257C3.74295 10.2935 4.22488 10.7806 4.81938 10.7806C5.41389 10.7806 5.89582 10.2935 5.89582 9.69257H3.74295Z" fill="#C4C4C4"/>
<path d="M4.81987 10.8808C4.17204 10.8808 3.64468 10.3477 3.64468 9.69293C3.64468 9.63803 3.68912 9.59311 3.74344 9.59311H5.89729C5.95161 9.59311 5.99605 9.63803 5.99605 9.69293C5.99506 10.3477 5.46771 10.8808 4.81987 10.8808ZM3.84614 9.79175C3.89552 10.2898 4.31326 10.6801 4.81888 10.6801C5.32451 10.6801 5.74224 10.2898 5.79162 9.79175H3.84614Z" fill="#C4C4C4"/>
<path d="M8.05083 9.69257C8.05083 10.2935 8.53275 10.7806 9.12726 10.7806C9.72177 10.7806 10.2047 10.2935 10.2047 9.69257H8.05083Z" fill="#C4C4C4"/>
<path d="M9.12666 10.8808C8.47883 10.8808 7.95148 10.3477 7.95148 9.69293C7.95148 9.63803 7.99592 9.59311 8.05023 9.59311H10.2041C10.2584 9.59311 10.3028 9.63803 10.3028 9.69293C10.3028 10.3477 9.77549 10.8808 9.12666 10.8808ZM8.15392 9.79175C8.2033 10.2898 8.62104 10.6801 9.12666 10.6801C9.63328 10.6801 10.05 10.2898 10.1004 9.79175H8.15392Z" fill="#C4C4C4"/>
<path d="M10.2046 9.69257C10.2046 10.2935 10.6866 10.7806 11.2811 10.7806C11.8756 10.7806 12.3585 10.2935 12.3585 9.69257H10.2046Z" fill="#C4C4C4"/>
<path d="M11.2804 10.8808C10.6326 10.8808 10.1052 10.3477 10.1052 9.69293C10.1052 9.63803 10.1496 9.59311 10.204 9.59311H12.3578C12.4121 9.59311 12.4566 9.63803 12.4566 9.69293C12.4566 10.3477 11.9292 10.8808 11.2804 10.8808ZM10.3077 9.79175C10.357 10.2898 10.7748 10.6801 11.2804 10.6801C11.786 10.6801 12.2038 10.2898 12.2541 9.79175H10.3077Z" fill="#C4C4C4"/>
<path d="M5.89693 9.69257C5.89693 10.2935 6.37885 10.7806 6.97435 10.7806C7.56885 10.7806 8.05078 10.2935 8.05078 9.69257H5.89693Z" fill="#C4C4C4"/>
<path d="M6.97366 10.8808C6.32583 10.8808 5.79749 10.3477 5.79749 9.69293C5.79749 9.63803 5.84193 9.59311 5.89624 9.59311H8.05009C8.10441 9.59311 8.14885 9.63803 8.14885 9.69293C8.14885 10.3477 7.62149 10.8808 6.97366 10.8808ZM5.99993 9.79175C6.04931 10.2898 6.46705 10.6801 6.97267 10.6801C7.4783 10.6801 7.89603 10.2898 7.94541 9.79175H5.99993Z" fill="#C4C4C4"/>
<path d="M6.40652 4.99416L5.89694 9.69256H3.74309L4.68423 4.99416H6.40652Z" fill="#C4C4C4"/>
<path d="M5.89641 9.79178H3.74256C3.71293 9.79178 3.68528 9.77881 3.66652 9.75485C3.64775 9.73189 3.63985 9.70095 3.64578 9.672L4.58593 4.97359C4.59482 4.92668 4.63531 4.89374 4.68271 4.89374H6.405C6.43265 4.89374 6.4603 4.90572 6.47808 4.92668C6.49684 4.94764 6.50573 4.97559 6.50277 5.00454L5.99319 9.70294C5.98924 9.75385 5.94678 9.79178 5.89641 9.79178ZM3.86403 9.59215H5.80852L6.29637 5.09337H4.76369L3.86403 9.59215Z" fill="#C4C4C4"/>
<path d="M10.2041 9.79178H8.05023C8.02357 9.79178 7.99888 9.7808 7.98012 9.76184C7.96135 9.74287 7.95148 9.71692 7.95148 9.69097L8.20528 4.99256C8.20627 4.93766 8.24972 4.89374 8.30403 4.89374H10.3572C10.3838 4.89374 10.4105 4.90472 10.4292 4.92468C10.448 4.94464 10.4579 4.9716 10.4559 4.99855L10.3028 9.69695C10.2999 9.75086 10.2564 9.79178 10.2041 9.79178ZM8.14998 9.59215H10.1103L10.2525 5.09337H8.4018L8.14998 9.59215Z" fill="#C4C4C4"/>
<path d="M8.05015 9.79178H5.8963C5.86865 9.79178 5.841 9.7798 5.82322 9.75884C5.80446 9.73788 5.79557 9.70993 5.79853 9.68098L6.30811 4.98258C6.31404 4.93167 6.35551 4.89374 6.40588 4.89374H8.27531C8.30198 4.89374 8.32864 4.90472 8.34642 4.92468C8.36518 4.94464 8.37506 4.9716 8.37308 4.99855L8.14792 9.69695C8.14595 9.74986 8.10249 9.79178 8.05015 9.79178ZM6.00691 9.59215H7.95633L8.17261 5.09337H6.49476L6.00691 9.59215Z" fill="#C4C4C4"/>
<path d="M3.74247 9.79176H1.55998C1.52937 9.79176 1.49974 9.77678 1.48098 9.75183C1.46221 9.72688 1.45629 9.69394 1.46518 9.66399L2.79245 4.96558C2.8043 4.92266 2.84281 4.89272 2.88725 4.89272H4.68361C4.71323 4.89272 4.74089 4.90569 4.75965 4.92965C4.77841 4.95261 4.78631 4.98355 4.78039 5.0125L3.84024 9.71091C3.83036 9.75882 3.78987 9.79176 3.74247 9.79176ZM1.69132 9.59212H3.66248L4.56313 5.09335H2.96132L1.69132 9.59212Z" fill="#C4C4C4"/>
<path d="M21.0213 9.69257C21.0213 10.2935 20.5393 10.7806 19.9438 10.7806C19.3493 10.7806 18.8674 10.2935 18.8674 9.69257H21.0213Z" fill="#C4C4C4"/>
<path d="M19.9432 10.8808C19.2954 10.8808 18.768 10.3477 18.768 9.69293C18.768 9.63803 18.8125 9.59311 18.8668 9.59311H21.0206C21.075 9.59311 21.1194 9.63803 21.1194 9.69293C21.1194 10.3477 20.592 10.8808 19.9432 10.8808ZM18.9705 9.79175C19.0199 10.2898 19.4376 10.6801 19.9432 10.6801C20.4488 10.6801 20.8666 10.2898 20.9169 9.79175H18.9705Z" fill="#C4C4C4"/>
<path d="M18.8676 9.69257C18.8676 10.2935 18.3857 10.7806 17.7902 10.7806C17.1957 10.7806 16.7137 10.2935 16.7137 9.69257H18.8676Z" fill="#C4C4C4"/>
<path d="M17.7895 10.8808C17.1417 10.8808 16.6143 10.3477 16.6143 9.69293C16.6143 9.63803 16.6587 9.59311 16.7131 9.59311H18.8669C18.9212 9.59311 18.9657 9.63803 18.9657 9.69293C18.9657 10.3477 18.4383 10.8808 17.7895 10.8808ZM16.8168 9.79175C16.8661 10.2898 17.2839 10.6801 17.7895 10.6801C18.2951 10.6801 18.7129 10.2898 18.7632 9.79175H16.8168Z" fill="#C4C4C4"/>
<path d="M14.5597 9.69257C14.5597 10.2935 14.0778 10.7806 13.4823 10.7806C12.8878 10.7806 12.4059 10.2935 12.4059 9.69257H14.5597Z" fill="#C4C4C4"/>
<path d="M13.4827 10.8808C12.8349 10.8808 12.3075 10.3477 12.3075 9.69293C12.3075 9.63803 12.352 9.59311 12.4063 9.59311H14.5601C14.6144 9.59311 14.6589 9.63803 14.6589 9.69293C14.6579 10.3477 14.1305 10.8808 13.4827 10.8808ZM12.509 9.79175C12.5583 10.2898 12.9761 10.6801 13.4817 10.6801C13.9873 10.6801 14.4051 10.2898 14.4554 9.79175H12.509Z" fill="#C4C4C4"/>
<path d="M16.7135 9.69257C16.7135 10.2935 16.2316 10.7806 15.6361 10.7806C15.0416 10.7806 14.5597 10.2935 14.5597 9.69257H16.7135Z" fill="#C4C4C4"/>
<path d="M15.6366 10.8808C14.9887 10.8808 14.4614 10.3477 14.4614 9.69293C14.4614 9.63803 14.5058 9.59311 14.5602 9.59311H16.714C16.7683 9.59311 16.8128 9.63803 16.8128 9.69293C16.8118 10.3477 16.2844 10.8808 15.6366 10.8808ZM14.6629 9.79175C14.7122 10.2898 15.13 10.6801 15.6356 10.6801C16.1412 10.6801 16.559 10.2898 16.6093 9.79175H14.6629Z" fill="#C4C4C4"/>
<path d="M16.204 4.99416L16.7136 9.69256H18.8674L17.9273 4.99416H16.204Z" fill="#C4C4C4"/>
<path d="M18.8668 9.79178H16.713C16.6626 9.79178 16.6201 9.75385 16.6152 9.70294L16.1056 5.00454C16.1027 4.97659 16.1116 4.94864 16.1303 4.92668C16.1491 4.90572 16.1757 4.89374 16.2044 4.89374H17.9277C17.9751 4.89374 18.0156 4.92768 18.0244 4.97359L18.9646 9.672C18.9705 9.70095 18.9626 9.73189 18.9439 9.75485C18.9241 9.77881 18.8965 9.79178 18.8668 9.79178ZM16.8019 9.59215H18.7463L17.8457 5.09337H16.314L16.8019 9.59215Z" fill="#C4C4C4"/>
<path d="M14.5591 9.79178H12.4052C12.3529 9.79178 12.3094 9.74986 12.3065 9.69695L12.1534 4.99855C12.1524 4.9716 12.1613 4.94464 12.18 4.92468C12.1988 4.90472 12.2245 4.89374 12.2521 4.89374H14.3053C14.3596 4.89374 14.403 4.93766 14.404 4.99256L14.6578 9.69097C14.6578 9.71792 14.6479 9.74287 14.6292 9.76184C14.6114 9.7818 14.5857 9.79178 14.5591 9.79178ZM12.499 9.59215H14.4593L14.2075 5.09337H12.3568L12.499 9.59215Z" fill="#C4C4C4"/>
<path d="M16.7129 9.79178H14.5591C14.5067 9.79178 14.4633 9.74986 14.4603 9.69695L14.2351 4.99855C14.2342 4.9716 14.244 4.94464 14.2628 4.92468C14.2816 4.90472 14.3072 4.89374 14.3339 4.89374H16.2033C16.2537 4.89374 16.2962 4.93167 16.3011 4.98258L16.8107 9.68098C16.8136 9.70893 16.8048 9.73788 16.786 9.75884C16.7682 9.7798 16.7416 9.79178 16.7129 9.79178ZM14.6539 9.59215H16.6033L16.1154 5.09337H14.4376L14.6539 9.59215Z" fill="#C4C4C4"/>
<path d="M21.0494 9.79178H18.8669C18.8195 9.79178 18.779 9.75884 18.7701 9.71193L17.83 5.01352C17.8241 4.98457 17.832 4.95363 17.8507 4.93067C17.8695 4.90771 17.8971 4.89374 17.9268 4.89374H19.7231C19.7676 4.89374 19.8061 4.92368 19.8179 4.9666L21.1452 9.66501C21.1541 9.69496 21.1482 9.7279 21.1294 9.75285C21.1096 9.77781 21.081 9.79178 21.0494 9.79178ZM18.9479 9.59215H20.919L19.6481 5.09337H18.0472L18.9479 9.59215Z" fill="#C4C4C4"/>
<path d="M10.338 4.99416H12.2242L12.3585 9.69256H10.2047L10.338 4.99416Z" fill="#C4C4C4"/>
<path d="M12.3599 9.79178C12.3589 9.79178 12.3589 9.79178 12.3579 9.79178H10.204C10.1774 9.79178 10.1517 9.7808 10.1329 9.76184C10.1142 9.74287 10.1043 9.71592 10.1053 9.68897L10.2386 4.99056C10.2406 4.93666 10.284 4.89374 10.3374 4.89374H12.2236C12.2769 4.89374 12.3204 4.93666 12.3223 4.99056L12.4557 9.66901C12.4576 9.67599 12.4586 9.68398 12.4586 9.69196C12.4586 9.74786 12.4142 9.79178 12.3599 9.79178ZM10.3057 9.59215H12.2562L12.1278 5.09337H10.4331L10.3057 9.59215Z" fill="#C4C4C4"/>
<path d="M20.4529 19.2535H2.15656C2.10224 19.2535 2.0578 19.2086 2.0578 19.1537V18.2184C2.0578 18.1635 2.10224 18.1185 2.15656 18.1185H20.4529C20.5073 18.1185 20.5517 18.1635 20.5517 18.2184V19.1537C20.5517 19.2096 20.5073 19.2535 20.4529 19.2535ZM2.25531 19.0538H20.3542V18.3182H2.25531V19.0538Z" fill="#C4C4C4"/>
<path d="M12.1544 14.9903C11.9915 14.9903 11.8592 14.8565 11.8592 14.6918C11.8592 14.5271 11.9915 14.3934 12.1544 14.3934C12.3174 14.3934 12.4487 14.5271 12.4487 14.6918C12.4487 14.8565 12.3164 14.9903 12.1544 14.9903ZM12.1544 14.594C12.1011 14.594 12.0567 14.6379 12.0567 14.6928C12.0567 14.7477 12.1001 14.7916 12.1544 14.7916C12.2078 14.7916 12.2512 14.7477 12.2512 14.6928C12.2512 14.6379 12.2078 14.594 12.1544 14.594Z" fill="#C4C4C4"/>
<path d="M7.83706 15.2618H4.7154C4.6601 15.2618 4.61566 15.2168 4.61566 15.1609V13.9532C4.61566 13.8973 4.6601 13.8523 4.7154 13.8523H7.83706C7.89236 13.8523 7.9368 13.8973 7.9368 13.9532V15.1609C7.9368 15.2168 7.89236 15.2618 7.83706 15.2618ZM4.73812 15.137H7.81434V13.9761H4.73812V15.137Z" fill="#C4C4C4"/>
<path d="M6.68259 13.9572C6.65988 13.9572 6.63815 13.9452 6.62729 13.9242L6.27572 13.2415L5.92415 13.9242C5.90934 13.9532 5.87181 13.9661 5.84219 13.9512C5.81157 13.9362 5.79972 13.9003 5.81453 13.8713L6.22141 13.0818C6.24214 13.0408 6.31029 13.0408 6.33102 13.0818L6.7379 13.8713C6.75271 13.9013 6.74086 13.9372 6.71024 13.9512C6.70136 13.9552 6.69247 13.9572 6.68259 13.9572Z" fill="#C4C4C4"/>
<path d="M6.47921 13.1107C6.47921 13.2245 6.38836 13.3164 6.27578 13.3164C6.1632 13.3164 6.07234 13.2245 6.07234 13.1107C6.07234 12.9969 6.1632 12.9051 6.27578 12.9051C6.38836 12.9051 6.47921 12.9969 6.47921 13.1107Z" fill="#C4C4C4"/>
<path d="M16.4039 14.6917C15.7778 14.6917 15.2682 14.1766 15.2682 13.5438C15.2682 12.9109 15.7778 12.3959 16.4039 12.3959C17.03 12.3959 17.5396 12.9109 17.5396 13.5438C17.5396 14.1766 17.03 14.6917 16.4039 14.6917ZM16.4039 12.5456C15.8598 12.5456 15.4164 12.9938 15.4164 13.5438C15.4164 14.0938 15.8598 14.5419 16.4039 14.5419C16.948 14.5419 17.3915 14.0938 17.3915 13.5438C17.3915 12.9938 16.949 12.5456 16.4039 12.5456Z" fill="#C4C4C4"/>
<path d="M16.4038 12.3702C15.7747 12.3702 15.2651 12.8573 15.2651 13.4582C15.2651 13.4622 15.2661 13.4652 15.2661 13.4692C15.432 13.552 15.6197 13.5989 15.8201 13.5989C16.2714 13.5989 16.6635 13.3614 16.8689 13.009C17.0249 13.3474 17.2629 13.572 17.5335 13.596C17.5395 13.55 17.5434 13.5041 17.5434 13.4572C17.5424 12.8573 17.0328 12.3702 16.4038 12.3702Z" fill="#C4C4C4"/>
<path d="M16.1193 13.6948C16.1193 13.8056 16.066 13.8954 16.0008 13.8954C15.9356 13.8954 15.8823 13.8056 15.8823 13.6948C15.8823 13.584 15.9356 13.4941 16.0008 13.4941C16.067 13.4941 16.1193 13.584 16.1193 13.6948Z" fill="#C4C4C4"/>
<path d="M16.9242 13.6948C16.9242 13.8056 16.8709 13.8954 16.8057 13.8954C16.7405 13.8954 16.6872 13.8056 16.6872 13.6948C16.6872 13.584 16.7405 13.4941 16.8057 13.4941C16.8719 13.4941 16.9242 13.584 16.9242 13.6948Z" fill="#C4C4C4"/>
<path d="M16.9242 12.1446C16.9242 12.3432 16.6911 12.5049 16.4038 12.5049C16.1164 12.5049 15.8833 12.3432 15.8833 12.1446C15.8833 11.9459 16.1164 11.7842 16.4038 11.7842C16.6911 11.7842 16.9242 11.9449 16.9242 12.1446Z" fill="#C4C4C4"/>
<path d="M16.8067 14.0281C16.625 14.0281 16.4769 13.8784 16.4769 13.6947C16.4769 13.6668 16.4986 13.6448 16.5263 13.6448H17.0882C17.1158 13.6448 17.1376 13.6668 17.1376 13.6947C17.1366 13.8784 16.9884 14.0281 16.8067 14.0281ZM16.5806 13.7447C16.6033 13.8495 16.6961 13.9283 16.8067 13.9283C16.9173 13.9283 17.0102 13.8495 17.0329 13.7447H16.5806Z" fill="#C4C4C4"/>
<path d="M16.0019 14.0281C15.8202 14.0281 15.672 13.8784 15.672 13.6947C15.672 13.6668 15.6938 13.6448 15.7214 13.6448H16.2833C16.311 13.6448 16.3327 13.6668 16.3327 13.6947C16.3317 13.8784 16.1836 14.0281 16.0019 14.0281ZM15.7757 13.7447C15.7984 13.8495 15.8913 13.9283 16.0019 13.9283C16.1125 13.9283 16.2053 13.8495 16.228 13.7447H15.7757Z" fill="#C4C4C4"/>
<path d="M16.4039 14.3855C16.2399 14.3855 16.074 14.3416 16.074 14.2428C16.074 14.2148 16.0958 14.1929 16.1234 14.1929C16.1491 14.1929 16.1698 14.2118 16.1728 14.2368C16.1886 14.2547 16.2706 14.2857 16.4049 14.2857C16.5441 14.2857 16.6271 14.2527 16.6379 14.2348C16.6379 14.2068 16.6587 14.1889 16.6863 14.1889C16.714 14.1889 16.7347 14.2148 16.7347 14.2428C16.7347 14.3406 16.5688 14.3855 16.4039 14.3855Z" fill="#C4C4C4"/>
<path d="M16.5252 13.8235H16.2823C16.2546 13.8235 16.2329 13.8016 16.2329 13.7736C16.2329 13.7457 16.2546 13.7237 16.2823 13.7237H16.5252C16.5529 13.7237 16.5746 13.7457 16.5746 13.7736C16.5746 13.8016 16.5529 13.8235 16.5252 13.8235Z" fill="#C4C4C4"/>
<path d="M16.4037 14.7159C15.5554 14.7159 14.8681 15.8588 14.8681 16.1593H17.9394C17.9394 15.8588 17.2521 14.7159 16.4037 14.7159ZM17.259 15.4955H16.6882V15.24H17.259V15.4955Z" fill="#C4C4C4"/>
</g>
</g>
<defs>
<clipPath id="clip0">
<rect width="20.416" height="20.416" fill="white" transform="translate(0.610672 0.538666)"/>
</clipPath>
<clipPath id="clip1">
<rect width="19.6869" height="15.312" fill="white" transform="translate(1.46133 3.94133)"/>
</clipPath>
</defs>
</svg>
