<svg width="20" height="20" viewBox="0 0 20 20" fill="none" xmlns="http://www.w3.org/2000/svg">
<path fill-rule="evenodd" clip-rule="evenodd" d="M10 0C4.46667 0 0 4.46667 0 10C0 15.5333 4.46667 20 10 20C15.5333 20 20 15.5333 20 10C20 4.46667 15.5333 0 10 0ZM16.8337 7.36618C15.767 4.53285 13.0337 2.66618 10.0003 2.66618C6.86699 2.66618 4.10033 4.66618 3.06699 7.63284L5.73366 8.33284C6.53366 8.53284 7.36699 8.46618 8.13366 8.13284L8.26699 8.06618C9.36699 7.56618 10.6337 7.56618 11.7337 8.06618C12.5337 8.43285 13.467 8.49951 14.3337 8.19951L16.8337 7.36618ZM2.66699 9.79951V9.99951C2.66699 13.6328 5.33366 16.7328 8.93366 17.2328C8.50033 13.8328 6.16699 10.9662 2.90033 9.86618L2.66699 9.79951ZM17.1003 9.89951C13.8337 10.9662 11.467 13.8328 11.067 17.2662C14.667 16.7328 17.3337 13.6328 17.3337 10.0328V9.83284L17.1003 9.89951Z" fill="#41479B"/>
</svg>
