<svg width="14" height="14" viewBox="0 0 14 14" fill="none" xmlns="http://www.w3.org/2000/svg">
<path d="M13.3254 7.18328C13.2656 7.06839 13.2656 6.93709 13.3254 6.81946L13.8696 5.7499C14.1717 5.15358 13.9323 4.4451 13.3226 4.13599L12.2285 3.57796C12.1116 3.51778 12.029 3.4111 12.0062 3.28527L11.7925 2.1145C11.6728 1.46346 11.0431 1.02579 10.3622 1.1188L9.13697 1.28566C9.00305 1.30481 8.87484 1.26377 8.77796 1.17351L7.88328 0.344666C7.3875 -0.114889 6.60965 -0.114889 6.11387 0.344666L5.22489 1.17077C5.12801 1.26104 4.99695 1.30207 4.86588 1.28292L3.63783 1.1188C2.954 1.02579 2.32716 1.46346 2.20749 2.11723L1.99379 3.288C1.971 3.41383 1.88837 3.52052 1.77155 3.5807L0.677418 4.13873C0.0676691 4.44783 -0.171671 5.15905 0.130354 5.75264L0.674569 6.8222C0.734404 6.93708 0.734404 7.06839 0.674569 7.18601L0.133203 8.25283C-0.168822 8.84916 0.0705185 9.55764 0.680267 9.86674L1.7744 10.4248C1.89122 10.485 1.97385 10.5916 1.99664 10.7175L2.21034 11.8882C2.31861 12.4818 2.84858 12.8976 3.45833 12.8976C3.51816 12.8976 3.578 12.8921 3.64068 12.8839L4.86873 12.7171C4.9998 12.6979 5.13086 12.739 5.22774 12.8292L6.11672 13.6553C6.36461 13.8851 6.68373 14 7 14C7.31912 14 7.63539 13.8851 7.88328 13.6553L8.77226 12.8292C8.86914 12.739 9.0002 12.6979 9.13127 12.7171L10.3565 12.8839C11.0403 12.9769 11.6671 12.5393 11.7868 11.8855L12.0005 10.7147C12.0233 10.5889 12.1059 10.4822 12.2228 10.422L13.3169 9.86401C13.9266 9.5549 14.166 8.84369 13.8639 8.2501L13.3254 7.18328Z" fill="#27AE60"/>
<path d="M4 7.53846L6.07692 9.26923L10 6" stroke="white" stroke-linecap="round" stroke-linejoin="round"/>
</svg>
