<svg width="33" height="32" viewBox="0 0 33 32" fill="none" xmlns="http://www.w3.org/2000/svg">
<path d="M12.0996 20.5967L13.7758 11.4539H16.3948L14.771 20.5967H12.0996Z" fill="#3C58BF"/>
<path d="M12.0996 20.5967L14.2472 11.4539H16.3948L14.771 20.5967H12.0996Z" fill="#293688"/>
<path d="M24.2526 11.5555C23.7288 11.3523 22.8907 11.1492 21.843 11.1492C19.224 11.1492 17.3383 12.419 17.3383 14.2476C17.3383 15.619 18.6478 16.3301 19.6954 16.7873C20.743 17.2444 21.0573 17.5492 21.0573 17.9555C21.0573 18.565 20.2192 18.8698 19.4859 18.8698C18.4383 18.8698 17.8621 18.7174 16.9716 18.3619L16.6049 18.2095L16.2383 20.292C16.8669 20.546 18.0192 20.8 19.224 20.8C22.0002 20.8 23.8335 19.5301 23.8335 17.6C23.8335 16.5333 23.1526 15.7206 21.5811 15.0603C20.6383 14.6031 20.0621 14.3492 20.0621 13.892C20.0621 13.4857 20.5335 13.0793 21.5811 13.0793C22.4716 13.0793 23.1002 13.2317 23.5716 13.4349L23.8335 13.5365L24.2526 11.5555Z" fill="#3C58BF"/>
<path d="M24.2526 11.5555C23.7288 11.3523 22.8907 11.1492 21.843 11.1492C19.224 11.1492 17.8097 12.419 17.8097 14.2476C17.8097 15.619 18.6478 16.3301 19.6954 16.7873C20.743 17.2444 21.0573 17.5492 21.0573 17.9555C21.0573 18.565 20.2192 18.8698 19.4859 18.8698C18.4383 18.8698 17.8621 18.7174 16.9716 18.3619L16.6049 18.2095L16.2383 20.292C16.8669 20.546 18.0192 20.8 19.224 20.8C22.0002 20.8 23.8335 19.5301 23.8335 17.6C23.8335 16.5333 23.1526 15.7206 21.5811 15.0603C20.6383 14.6031 20.0621 14.3492 20.0621 13.892C20.0621 13.4857 20.5335 13.0793 21.5811 13.0793C22.4716 13.0793 23.1002 13.2317 23.5716 13.4349L23.8335 13.5365L24.2526 11.5555Z" fill="#293688"/>
<path d="M28.7573 11.4539C28.1287 11.4539 27.6573 11.5047 27.3954 12.1142L23.4668 20.5967H26.2954L26.8192 19.0729H30.1716L30.4858 20.5967H33.0001L30.8001 11.4539H28.7573ZM27.5525 17.5491C27.7097 17.092 28.6001 14.857 28.6001 14.857C28.6001 14.857 28.8097 14.2983 28.9668 13.9427L29.1239 14.8062C29.1239 14.8062 29.6477 17.092 29.7525 17.5999H27.5525V17.5491Z" fill="#3C58BF"/>
<path d="M29.3858 11.4539C28.7573 11.4539 28.2858 11.5047 28.0239 12.1142L23.4668 20.5967H26.2954L26.8192 19.0729H30.1716L30.4858 20.5967H33.0001L30.8001 11.4539H29.3858ZM27.5525 17.5491C27.762 17.0412 28.6001 14.857 28.6001 14.857C28.6001 14.857 28.8097 14.2983 28.9668 13.9427L29.1239 14.8062C29.1239 14.8062 29.6477 17.092 29.7525 17.5999H27.5525V17.5491Z" fill="#293688"/>
<path d="M7.28111 17.8541L7.01921 16.5335C6.54778 15.0096 5.02873 13.3335 3.35254 12.5208L5.70968 20.6477H8.53826L12.7811 11.5049H9.95254L7.28111 17.8541Z" fill="#3C58BF"/>
<path d="M7.28111 17.8541L7.01921 16.5335C6.54778 15.0096 5.02873 13.3335 3.35254 12.5208L5.70968 20.6477H8.53826L12.7811 11.5049H10.4764L7.28111 17.8541Z" fill="#293688"/>
<path d="M0 11.4539L0.471429 11.5554C3.82381 12.3173 6.12857 14.2475 7.01905 16.5332L6.07619 12.2158C5.91905 11.6062 5.44762 11.4539 4.87143 11.4539H0Z" fill="#FFBC00"/>
<path d="M0 11.4539C3.35238 12.2158 6.12857 14.1967 7.01905 16.4824L6.12857 12.8761C5.97143 12.2666 5.44762 11.911 4.87143 11.911L0 11.4539Z" fill="#F7981D"/>
<path d="M0 11.4539C3.35238 12.2158 6.12857 14.1967 7.01905 16.4824L6.39048 14.5015C6.23333 13.892 6.02381 13.2824 5.29048 13.0285L0 11.4539Z" fill="#ED7C00"/>
<path d="M9.89953 17.5493L8.11858 15.8224L7.28049 17.7525L7.07096 16.4827C6.59953 14.9589 5.08049 13.2827 3.4043 12.47L5.76144 20.597H8.59001L9.89953 17.5493Z" fill="#051244"/>
<path d="M14.771 20.597L12.5187 18.3621L12.0996 20.597H14.771Z" fill="#051244"/>
<path d="M20.7944 17.4478C21.004 17.6509 21.1087 17.8033 21.0564 18.0065C21.0564 18.616 20.2183 18.9208 19.4849 18.9208C18.4373 18.9208 17.8611 18.7684 16.9706 18.4128L16.604 18.2605L16.2373 20.343C16.8659 20.597 18.0183 20.8509 19.223 20.8509C20.8992 20.8509 22.2611 20.3938 23.0468 19.5811L20.7944 17.4478Z" fill="#051244"/>
<path d="M23.833 20.5971H26.2949L26.8187 19.0733H30.1711L30.4854 20.5971H32.9997L32.1092 16.8891L28.9663 13.9431L29.1235 14.7558C29.1235 14.7558 29.6473 17.0415 29.7521 17.5495H27.5521C27.7616 17.0415 28.5997 14.8574 28.5997 14.8574C28.5997 14.8574 28.8092 14.2987 28.9663 13.9431" fill="#051244"/>
</svg>
